999
dxfrw 0.6.3
  0
SECTION
  2
HEADER
  9
$ACADVER
  1
AC1021
  9
$DWGCODEPAGE
  3
ANSI_1252
  9
$INSBASE
 10
0
 20
0
 30
0
  9
$EXTMIN
 10
10000000000
 20
10000000000
 30
0
  9
$EXTMAX
 10
-10000000000
 20
-10000000000
 30
0
  9
$LIMMIN
 10
0
 20
0
  9
$LIMMAX
 10
420
 20
297
  9
$ORTHOMODE
 70
    0
  9
$REGENMODE
 70
    1
  9
$FILLMODE
 70
    1
  9
$QTEXTMODE
 70
    0
  9
$MIRRTEXT
 70
    0
  9
$LTSCALE
 40
1
  9
$ATTMODE
 70
    1
  9
$TEXTSIZE
 40
2.5
  9
$TRACEWID
 40
1
  9
$TEXTSTYLE
  7
Standard
  9
$CLAYER
  8
0
  9
$CELTYPE
  6
ByLayer
  9
$CECOLOR
 62
  256
  9
$CELTSCALE
 40
1
  9
$DISPSILH
 70
    0
  9
$DIMSCALE
 40
1
  9
$DIMASZ
 40
2.5
  9
$DIMEXO
 40
0.625
  9
$DIMDLI
 40
3.75
  9
$DIMRND
 40
0
  9
$DIMDLE
 40
0
  9
$DIMEXE
 40
1.25
  9
$DIMTP
 40
0
  9
$DIMTM
 40
0
  9
$DIMTXT
 40
2.5
  9
$DIMCEN
 40
2.5
  9
$DIMTSZ
 40
0
  9
$DIMTOL
 70
    0
  9
$DIMLIM
 70
    0
  9
$DIMTIH
 70
    0
  9
$DIMTOH
 70
    0
  9
$DIMSE1
 70
    0
  9
$DIMSE2
 70
    0
  9
$DIMTAD
 70
    1
  9
$DIMZIN
 70
    8
  9
$DIMBLK
  1

  9
$DIMASO
 70
    1
  9
$DIMSHO
 70
    1
  9
$DIMPOST
  1

  9
$DIMAPOST
  1

  9
$DIMALT
 70
    0
  9
$DIMALTD
 70
    3
  9
$DIMALTF
 40
0.03937007874016
  9
$DIMLFAC
 40
1
  9
$DIMTOFL
 70
    1
  9
$DIMTVP
 40
0
  9
$DIMTIX
 70
    0
  9
$DIMSOXD
 70
    0
  9
$DIMSAH
 70
    0
  9
$DIMBLK1
  1

  9
$DIMBLK2
  1

  9
$DIMSTYLE
  2
ISO-25
  9
$DIMCLRD
 70
    0
  9
$DIMCLRE
 70
    0
  9
$DIMCLRT
 70
    0
  9
$DIMTFAC
 40
1
  9
$DIMGAP
 40
0.625
  9
$DIMJUST
 70
    0
  9
$DIMSD1
 70
    0
  9
$DIMSD2
 70
    0
  9
$DIMTOLJ
 70
    0
  9
$DIMTZIN
 70
    8
  9
$DIMALTZ
 70
    0
  9
$DIMALTTZ
 70
    0
  9
$DIMUPT
 70
    0
  9
$DIMDEC
 70
    2
  9
$DIMTDEC
 70
    2
  9
$DIMALTU
 70
    2
  9
$DIMALTTD
 70
    3
  9
$DIMTXSTY
  7
Standard
  9
$DIMAUNIT
 70
    0
  9
$DIMADEC
 70
    0
  9
$DIMALTRND
 40
0
  9
$DIMAZIN
 70
    0
  9
$DIMDSEP
 70
   44
  9
$DIMATFIT
 70
    3
  9
$DIMFRAC
 70
    0
  9
$DIMLDRBLK
  1

  9
$DIMLUNIT
 70
    2
  9
$DIMLWD
 70
   -2
  9
$DIMLWE
 70
   -2
  9
$DIMTMOVE
 70
    0
  9
$DIMFXL
 40
1
  9
$DIMFXLON
 70
    0
  9
$DIMJOGANG
 40
0.7853981633974483
  9
$DIMTFILL
 70
    0
  9
$DIMTFILLCLR
 70
    0
  9
$DIMARCSYM
 70
    0
  9
$DIMLTYPE
  6

  9
$DIMLTEX1
  6

  9
$DIMLTEX2
  6

  9
$LUNITS
 70
    2
  9
$LUPREC
 70
    4
  9
$SKETCHINC
 40
1
  9
$FILLETRAD
 40
0
  9
$AUNITS
 70
    0
  9
$AUPREC
 70
    0
  9
$MENU
  1
.
  9
$ELEVATION
 40
0
  9
$PELEVATION
 40
0
  9
$THICKNESS
 40
0
  9
$LIMCHECK
 70
    0
  9
$CHAMFERA
 40
0
  9
$CHAMFERB
 40
0
  9
$CHAMFERC
 40
0
  9
$CHAMFERD
 40
0
  9
$SKPOLY
 70
    0
  9
$USRTIMER
 70
    1
  9
$ANGBASE
 50
0
  9
$ANGDIR
 70
    0
  9
$PDMODE
 70
    0
  9
$PDSIZE
 40
0
  9
$PLINEWID
 40
0
  9
$SPLFRAME
 70
    0
  9
$SPLINETYPE
 70
    6
  9
$SPLINESEGS
 70
    8
  9
$HANDSEED
  5
20000
  9
$SURFTAB1
 70
    6
  9
$SURFTAB2
 70
    6
  9
$SURFTYPE
 70
    6
  9
$SURFU
 70
    6
  9
$SURFV
 70
    6
  9
$UCSBASE
  2

  9
$UCSNAME
  2

  9
$UCSORG
 10
0
 20
0
 30
0
  9
$UCSXDIR
 10
1
 20
0
 30
0
  9
$UCSYDIR
 10
0
 20
1
 30
0
  9
$UCSORTHOREF
  2

  9
$UCSORTHOVIEW
 70
    0
  9
$UCSORGTOP
 10
0
 20
0
 30
0
  9
$UCSORGBOTTOM
 10
0
 20
0
 30
0
  9
$UCSORGLEFT
 10
0
 20
0
 30
0
  9
$UCSORGRIGHT
 10
0
 20
0
 30
0
  9
$UCSORGFRONT
 10
0
 20
0
 30
0
  9
$UCSORGBACK
 10
0
 20
0
 30
0
  9
$PUCSBASE
  2

  9
$PUCSNAME
  2

  9
$PUCSORG
 10
0
 20
0
 30
0
  9
$PUCSXDIR
 10
1
 20
0
 30
0
  9
$PUCSYDIR
 10
0
 20
1
 30
0
  9
$PUCSORTHOREF
  2

  9
$PUCSORTHOVIEW
 70
    0
  9
$PUCSORGTOP
 10
0
 20
0
 30
0
  9
$PUCSORGBOTTOM
 10
0
 20
0
 30
0
  9
$PUCSORGLEFT
 10
0
 20
0
 30
0
  9
$PUCSORGRIGHT
 10
0
 20
0
 30
0
  9
$PUCSORGFRONT
 10
0
 20
0
 30
0
  9
$PUCSORGBACK
 10
0
 20
0
 30
0
  9
$USERI1
 70
    0
  9
$USERI2
 70
    0
  9
$USERI3
 70
    0
  9
$USERI4
 70
    0
  9
$USERI5
 70
    0
  9
$USERR1
 40
0
  9
$USERR2
 40
0
  9
$USERR3
 40
0
  9
$USERR4
 40
0
  9
$USERR5
 40
0
  9
$WORLDVIEW
 70
    1
  9
$SHADEDGE
 70
    3
  9
$SHADEDIF
 70
   70
  9
$TILEMODE
 70
    1
  9
$MAXACTVP
 70
   64
  9
$PINSBASE
 10
0
 20
0
 30
0
  9
$PLIMCHECK
 70
    0
  9
$PEXTMIN
 10
0
 20
0
 30
0
  9
$PEXTMAX
 10
0
 20
0
 30
0
  9
$GRIDMODE
 70
    1
  9
$SNAPSTYLE
 70
    0
  9
$PLIMMIN
 10
0
 20
0
  9
$PLIMMAX
 10
12
 20
9
  9
$UNITMODE
 70
    0
  9
$VISRETAIN
 70
    1
  9
$PLINEGEN
 70
    0
  9
$PSLTSCALE
 70
    1
  9
$TREEDEPTH
 70
 3020
  9
$CMLSTYLE
  2
Standard
  9
$CMLJUST
 70
    0
  9
$CMLSCALE
 40
20
  9
$PROXYGRAPHICS
 70
    1
  9
$MEASUREMENT
 70
    1
  9
$CELWEIGHT
370
   -1
  9
$ENDCAPS
280
    0
  9
$JOINSTYLE
280
    0
  9
$LWDISPLAY
290
    0
  9
$INSUNITS
 70
    4
  9
$HYPERLINKBASE
  1

  9
$STYLESHEET
  1

  9
$XEDIT
290
    1
  9
$CEPSNTYPE
380
    0
  9
$PSTYLEMODE
290
    1
  9
$EXTNAMES
290
    1
  9
$PSVPSCALE
 40
0
  9
$OLESTARTUP
290
    0
  9
$SORTENTS
280
  127
  9
$INDEXCTL
280
    0
  9
$HIDETEXT
280
    1
  9
$XCLIPFRAME
290
    2
  9
$HALOGAP
280
    0
  9
$OBSCOLOR
 70
  257
  9
$OBSLTYPE
280
    0
  9
$INTERSECTIONDISPLAY
280
    0
  9
$INTERSECTIONCOLOR
 70
  257
  9
$DIMASSOC
280
    2
  9
$PROJECTNAME
  1

  9
$CAMERADISPLAY
290
    0
  9
$LENSLENGTH
 40
50
  9
$CAMERAHEIGHT
 40
0
  9
$STEPSPERSEC
 40
2
  9
$STEPSIZE
 40
6
  9
$3DDWFPREC
 40
2
  9
$PSOLWIDTH
 40
0.25
  9
$PSOLHEIGHT
 40
4
  9
$LOFTANG1
 40
1.570796326794896
  9
$LOFTANG2
 40
1.570796326794896
  9
$LOFTMAG1
 40
0
  9
$LOFTMAG2
 40
0
  9
$LOFTPARAM
 70
    7
  9
$LOFTNORMALS
280
    1
  9
$LATITUDE
 40
37.795
  9
$LONGITUDE
 40
-122.394
  9
$NORTHDIRECTION
 40
0
  9
$TIMEZONE
 70
-8000
  9
$LIGHTGLYPHDISPLAY
280
    1
  9
$TILEMODELIGHTSYNCH
280
    1
  9
$SOLIDHIST
280
    1
  9
$SHOWHIST
280
    1
  9
$DWFFRAME
280
    2
  9
$DGNFRAME
280
    2
  9
$REALWORLDSCALE
290
    1
  9
$INTERFERECOLOR
 62
  256
  9
$CSHADOW
280
    0
  9
$SHADOWPLANELOCATION
 40
0
  0
ENDSEC
  0
SECTION
  2
CLASSES
  0
ENDSEC
  0
SECTION
  2
TABLES
  0
TABLE
  2
VPORT
  5
8
330
0
100
AcDbSymbolTable
 70
    1
  0
VPORT
  5
31
330
2
100
AcDbSymbolTableRecord
100
AcDbViewportTableRecord
  2
*ACTIVE
 70
    0
 10
0
 20
0
 11
1
 21
1
 12
459.8050120425993
 22
145.320337360413
 13
0
 23
0
 14
10
 24
10
 15
10
 25
10
 16
0
 26
0
 36
1
 17
0
 27
0
 37
0
 40
77.69119168995644
 41
1.693877551020408
 42
50
 43
0
 44
0
 50
0
 51
0
 71
    0
 72
  100
 73
    1
 74
    3
 75
    0
 76
    1
 77
    0
 78
    0
281
    0
 65
    1
110
0
120
0
130
0
111
1
121
0
131
0
112
0
122
1
132
0
 79
    0
146
0
348
10020
 60
    7
 61
    5
292
1
282
    1
141
0
142
0
 63
  250
421
3358443
  0
ENDTAB
  0
TABLE
  2
LTYPE
  5
5
330
0
100
AcDbSymbolTable
 70
    4
  0
LTYPE
  5
14
330
5
100
AcDbSymbolTableRecord
100
AcDbLinetypeTableRecord
  2
ByBlock
 70
    0
  3

 72
   65
 73
    0
 40
0
  0
LTYPE
  5
15
330
5
100
AcDbSymbolTableRecord
100
AcDbLinetypeTableRecord
  2
ByLayer
 70
    0
  3

 72
   65
 73
    0
 40
0
  0
LTYPE
  5
16
330
5
100
AcDbSymbolTableRecord
100
AcDbLinetypeTableRecord
  2
Continuous
 70
    0
  3
Solid line
 72
   65
 73
    0
 40
0
  0
LTYPE
  5
32
330
5
100
AcDbSymbolTableRecord
100
AcDbLinetypeTableRecord
  2
DOT
 70
    0
  3
Dot . . . . . . . . . . . . . . . . . . . . . .
 72
   65
 73
    2
 40
6.35
 49
0
 74
    0
 49
-6.35
 74
    0
  0
LTYPE
  5
33
330
5
100
AcDbSymbolTableRecord
100
AcDbLinetypeTableRecord
  2
DOTTINY
 70
    0
  3
Dot (.15x) .....................................
 72
   65
 73
    2
 40
0.9525
 49
0
 74
    0
 49
-0.9525
 74
    0
  0
LTYPE
  5
34
330
5
100
AcDbSymbolTableRecord
100
AcDbLinetypeTableRecord
  2
DOT2
 70
    0
  3
Dot (.5x) .....................................
 72
   65
 73
    2
 40
3.175
 49
0
 74
    0
 49
-3.175
 74
    0
  0
LTYPE
  5
35
330
5
100
AcDbSymbolTableRecord
100
AcDbLinetypeTableRecord
  2
DOTX2
 70
    0
  3
Dot (2x) .  .  .  .  .  .  .  .  .  .  .  .  .
 72
   65
 73
    2
 40
12.7
 49
0
 74
    0
 49
-12.7
 74
    0
  0
LTYPE
  5
36
330
5
100
AcDbSymbolTableRecord
100
AcDbLinetypeTableRecord
  2
DASHED
 70
    0
  3
Dashed _ _ _ _ _ _ _ _ _ _ _ _ _ _ _ _ _
 72
   65
 73
    2
 40
19.05
 49
12.7
 74
    0
 49
-6.35
 74
    0
  0
LTYPE
  5
37
330
5
100
AcDbSymbolTableRecord
100
AcDbLinetypeTableRecord
  2
DASHEDTINY
 70
    0
  3
Dashed (.15x) _ _ _ _ _ _ _ _ _ _ _ _ _ _ _ _ _
 72
   65
 73
    2
 40
2.8575
 49
1.905
 74
    0
 49
-0.9525
 74
    0
  0
LTYPE
  5
38
330
5
100
AcDbSymbolTableRecord
100
AcDbLinetypeTableRecord
  2
DASHED2
 70
    0
  3
Dashed (.5x) _ _ _ _ _ _ _ _ _ _ _ _ _ _ _ _ _
 72
   65
 73
    2
 40
9.524999999999999
 49
6.35
 74
    0
 49
-3.175
 74
    0
  0
LTYPE
  5
39
330
5
100
AcDbSymbolTableRecord
100
AcDbLinetypeTableRecord
  2
DASHEDX2
 70
    0
  3
Dashed (2x) ____  ____  ____  ____  ____  ___
 72
   65
 73
    2
 40
38.09999999999999
 49
25.4
 74
    0
 49
-12.7
 74
    0
  0
LTYPE
  5
3A
330
5
100
AcDbSymbolTableRecord
100
AcDbLinetypeTableRecord
  2
DASHDOT
 70
    0
  3
Dash dot __ . __ . __ . __ . __ . __ . __ . __
 72
   65
 73
    4
 40
25.4
 49
12.7
 74
    0
 49
-6.35
 74
    0
 49
0
 74
    0
 49
-6.35
 74
    0
  0
LTYPE
  5
3B
330
5
100
AcDbSymbolTableRecord
100
AcDbLinetypeTableRecord
  2
DASHDOTTINY
 70
    0
  3
Dash dot (.15x) _._._._._._._._._._._._._._._.
 72
   65
 73
    4
 40
3.81
 49
1.905
 74
    0
 49
-0.9525
 74
    0
 49
0
 74
    0
 49
-0.9525
 74
    0
  0
LTYPE
  5
3C
330
5
100
AcDbSymbolTableRecord
100
AcDbLinetypeTableRecord
  2
DASHDOT2
 70
    0
  3
Dash dot (.5x) _._._._._._._._._._._._._._._.
 72
   65
 73
    4
 40
12.7
 49
6.35
 74
    0
 49
-3.175
 74
    0
 49
0
 74
    0
 49
-3.175
 74
    0
  0
LTYPE
  5
3D
330
5
100
AcDbSymbolTableRecord
100
AcDbLinetypeTableRecord
  2
DASHDOTX2
 70
    0
  3
Dash dot (2x) ____  .  ____  .  ____  .  ___
 72
   65
 73
    4
 40
50.8
 49
25.4
 74
    0
 49
-12.7
 74
    0
 49
0
 74
    0
 49
-12.7
 74
    0
  0
LTYPE
  5
3E
330
5
100
AcDbSymbolTableRecord
100
AcDbLinetypeTableRecord
  2
DIVIDE
 70
    0
  3
Divide ____ . . ____ . . ____ . . ____ . . ____
 72
   65
 73
    6
 40
31.75
 49
12.7
 74
    0
 49
-6.35
 74
    0
 49
0
 74
    0
 49
-6.35
 74
    0
 49
0
 74
    0
 49
-6.35
 74
    0
  0
LTYPE
  5
3F
330
5
100
AcDbSymbolTableRecord
100
AcDbLinetypeTableRecord
  2
DIVIDETINY
 70
    0
  3
Divide (.15x) __..__..__..__..__..__..__..__.._
 72
   65
 73
    6
 40
4.7625
 49
1.905
 74
    0
 49
-0.9525
 74
    0
 49
0
 74
    0
 49
-0.9525
 74
    0
 49
0
 74
    0
 49
-0.9525
 74
    0
  0
LTYPE
  5
40
330
5
100
AcDbSymbolTableRecord
100
AcDbLinetypeTableRecord
  2
DIVIDE2
 70
    0
  3
Divide (.5x) __..__..__..__..__..__..__..__.._
 72
   65
 73
    6
 40
15.875
 49
6.35
 74
    0
 49
-3.175
 74
    0
 49
0
 74
    0
 49
-3.175
 74
    0
 49
0
 74
    0
 49
-3.175
 74
    0
  0
LTYPE
  5
41
330
5
100
AcDbSymbolTableRecord
100
AcDbLinetypeTableRecord
  2
DIVIDEX2
 70
    0
  3
Divide (2x) ________  .  .  ________  .  .  _
 72
   65
 73
    6
 40
63.5
 49
25.4
 74
    0
 49
-12.7
 74
    0
 49
0
 74
    0
 49
-12.7
 74
    0
 49
0
 74
    0
 49
-12.7
 74
    0
  0
LTYPE
  5
42
330
5
100
AcDbSymbolTableRecord
100
AcDbLinetypeTableRecord
  2
BORDER
 70
    0
  3
Border __ __ . __ __ . __ __ . __ __ . __ __ .
 72
   65
 73
    6
 40
44.45
 49
12.7
 74
    0
 49
-6.35
 74
    0
 49
12.7
 74
    0
 49
-6.35
 74
    0
 49
0
 74
    0
 49
-6.35
 74
    0
  0
LTYPE
  5
43
330
5
100
AcDbSymbolTableRecord
100
AcDbLinetypeTableRecord
  2
BORDERTINY
 70
    0
  3
Border (.15x) __.__.__.__.__.__.__.__.__.__.__.
 72
   65
 73
    6
 40
6.6675
 49
1.905
 74
    0
 49
-0.9525
 74
    0
 49
1.905
 74
    0
 49
-0.9525
 74
    0
 49
0
 74
    0
 49
-0.9525
 74
    0
  0
LTYPE
  5
44
330
5
100
AcDbSymbolTableRecord
100
AcDbLinetypeTableRecord
  2
BORDER2
 70
    0
  3
Border (.5x) __.__.__.__.__.__.__.__.__.__.__.
 72
   65
 73
    6
 40
22.225
 49
6.35
 74
    0
 49
-3.175
 74
    0
 49
6.35
 74
    0
 49
-3.175
 74
    0
 49
0
 74
    0
 49
-3.175
 74
    0
  0
LTYPE
  5
45
330
5
100
AcDbSymbolTableRecord
100
AcDbLinetypeTableRecord
  2
BORDERX2
 70
    0
  3
Border (2x) ____  ____  .  ____  ____  .  ___
 72
   65
 73
    6
 40
88.89999999999999
 49
25.4
 74
    0
 49
-12.7
 74
    0
 49
25.4
 74
    0
 49
-12.7
 74
    0
 49
0
 74
    0
 49
-12.7
 74
    0
  0
LTYPE
  5
46
330
5
100
AcDbSymbolTableRecord
100
AcDbLinetypeTableRecord
  2
CENTER
 70
    0
  3
Center ____ _ ____ _ ____ _ ____ _ ____ _ ____
 72
   65
 73
    4
 40
50.8
 49
31.75
 74
    0
 49
-6.35
 74
    0
 49
6.35
 74
    0
 49
-6.35
 74
    0
  0
LTYPE
  5
47
330
5
100
AcDbSymbolTableRecord
100
AcDbLinetypeTableRecord
  2
CENTERTINY
 70
    0
  3
Center (.15x) ___ _ ___ _ ___ _ ___ _ ___ _ ___
 72
   65
 73
    4
 40
7.619999999999999
 49
4.7625
 74
    0
 49
-0.9525
 74
    0
 49
0.9525
 74
    0
 49
-0.9525
 74
    0
  0
LTYPE
  5
48
330
5
100
AcDbSymbolTableRecord
100
AcDbLinetypeTableRecord
  2
CENTER2
 70
    0
  3
Center (.5x) ___ _ ___ _ ___ _ ___ _ ___ _ ___
 72
   65
 73
    4
 40
28.575
 49
19.05
 74
    0
 49
-3.175
 74
    0
 49
3.175
 74
    0
 49
-3.175
 74
    0
  0
LTYPE
  5
49
330
5
100
AcDbSymbolTableRecord
100
AcDbLinetypeTableRecord
  2
CENTERX2
 70
    0
  3
Center (2x) ________  __  ________  __  _____
 72
   65
 73
    4
 40
101.6
 49
63.5
 74
    0
 49
-12.7
 74
    0
 49
12.7
 74
    0
 49
-12.7
 74
    0
  0
ENDTAB
  0
TABLE
  2
LAYER
  5
2
330
0
100
AcDbSymbolTable
 70
    1
  0
LAYER
  5
10
330
2
100
AcDbSymbolTableRecord
100
AcDbLayerTableRecord
  2
0
 70
    0
 62
    7
  6
CONTINUOUS
370
   -3
390
F
  0
LAYER
  5
4A
330
2
100
AcDbSymbolTableRecord
100
AcDbLayerTableRecord
  2
Defpoints
 70
    0
 62
    7
  6
CONTINUOUS
290
0
370
   -3
390
F
  0
LAYER
  5
4B
330
2
100
AcDbSymbolTableRecord
100
AcDbLayerTableRecord
  2
PP-OUTER
 70
    0
 62
    4
  6
CONTINUOUS
370
   15
390
F
  0
LAYER
  5
4C
330
2
100
AcDbSymbolTableRecord
100
AcDbLayerTableRecord
  2
PP-ROOM
 70
    0
 62
   11
  6
CONTINUOUS
370
   -3
390
F
  0
LAYER
  5
4D
330
2
100
AcDbSymbolTableRecord
100
AcDbLayerTableRecord
  2
PP-RWP
 70
    0
 62
  150
  6
CONTINUOUS
370
   15
390
F
  0
LAYER
  5
4E
330
2
100
AcDbSymbolTableRecord
100
AcDbLayerTableRecord
  2
PP-SWP
 70
    0
 62
    1
  6
CONTINUOUS
370
   20
390
F
  0
LAYER
  5
4F
330
2
100
AcDbSymbolTableRecord
100
AcDbLayerTableRecord
  2
PP-WWP
 70
    0
 62
    3
  6
CONTINUOUS
370
   20
390
F
  0
LAYER
  5
50
330
2
100
AcDbSymbolTableRecord
100
AcDbLayerTableRecord
  2
SB
 70
    0
 62
    6
  6
CONTINUOUS
370
   30
390
F
  0
LAYER
  5
51
330
2
100
AcDbSymbolTableRecord
100
AcDbLayerTableRecord
  2
TextLayer
 70
    0
 62
    7
  6
CONTINUOUS
370
   -3
390
F
  0
LAYER
  5
52
330
2
100
AcDbSymbolTableRecord
100
AcDbLayerTableRecord
  2
TextLayerBoundry
 70
    0
 62
    7
  6
CONTINUOUS
370
   -3
390
F
  0
LAYER
  5
53
330
2
100
AcDbSymbolTableRecord
100
AcDbLayerTableRecord
  2
系统-临时-屏蔽
 70
    0
 62
    7
  6
CONTINUOUS
370
   -3
390
F
  0
ENDTAB
  0
TABLE
  2
STYLE
  5
3
330
0
100
AcDbSymbolTable
 70
    3
  0
STYLE
  5
54
330
2
100
AcDbSymbolTableRecord
100
AcDbTextStyleTableRecord
  2
standard
 70
    0
 40
0
 41
1
 50
0
 71
    0
 42
1
  3
standard
  4

  0
ENDTAB
  0
TABLE
  2
VIEW
  5
6
330
0
100
AcDbSymbolTable
 70
    0
  0
ENDTAB
  0
TABLE
  2
UCS
  5
7
330
0
100
AcDbSymbolTable
 70
    0
  0
ENDTAB
  0
TABLE
  2
APPID
  5
9
330
0
100
AcDbSymbolTable
 70
    1
  0
APPID
  5
12
330
9
100
AcDbSymbolTableRecord
100
AcDbRegAppTableRecord
  2
ACAD
 70
    0
  0
APPID
  5
55
330
9
100
AcDbSymbolTableRecord
100
AcDbRegAppTableRecord
  2
LibreCad
 70
    0
  0
ENDTAB
  0
TABLE
  2
DIMSTYLE
  5
A
330
0
100
AcDbSymbolTable
 70
    1
100
AcDbDimStyleTable
 71
    1
  0
DIMSTYLE
105
56
330
A
100
AcDbSymbolTableRecord
100
AcDbDimStyleTableRecord
  2
Standard
 70
    0
 40
1
 41
2.5
 42
0.625
 43
0.38
 44
1.25
 45
0
 46
0
 47
0
 48
0
 49
1
140
2.5
141
0.09
142
0
143
25.4
144
1
145
0
146
1
147
0.625
148
0
 71
    0
 72
    0
 73
    0
 74
    1
 75
    0
 76
    0
 77
    0
 78
    8
 79
    0
170
    0
171
    2
172
    0
173
    0
174
    0
175
    0
176
    0
177
    0
178
    0
179
    0
271
    2
272
    4
273
    2
274
    2
275
    0
276
    0
277
    2
278
   44
279
    0
280
    0
281
    0
282
    0
283
    1
284
    0
285
    0
286
    0
288
    0
289
    3
340
Standard
341

371
   -2
372
   -2
  0
ENDTAB
  0
TABLE
  2
BLOCK_RECORD
  5
1
330
0
100
AcDbSymbolTable
 70
    2
  0
BLOCK_RECORD
  5
1F
330
1
100
AcDbSymbolTableRecord
100
AcDbBlockTableRecord
  2
*Model_Space
 70
    0
280
    1
281
    0
  0
BLOCK_RECORD
  5
1E
330
1
100
AcDbSymbolTableRecord
100
AcDbBlockTableRecord
  2
*Paper_Space
 70
    0
280
    1
281
    0
  0
BLOCK_RECORD
  5
57
330
1
100
AcDbSymbolTableRecord
100
AcDbBlockTableRecord
  2
GT 1
 70
    0
280
    1
281
    0
  0
BLOCK_RECORD
  5
5A
330
1
100
AcDbSymbolTableRecord
100
AcDbBlockTableRecord
  2
GHYTU
 70
    0
280
    1
281
    0
  0
BLOCK_RECORD
  5
5D
330
1
100
AcDbSymbolTableRecord
100
AcDbBlockTableRecord
  2
IC 1
 70
    0
280
    1
281
    0
  0
BLOCK_RECORD
  5
60
330
1
100
AcDbSymbolTableRecord
100
AcDbBlockTableRecord
  2
CCDD
 70
    0
280
    1
281
    0
  0
ENDTAB
  0
ENDSEC
  0
SECTION
  2
BLOCKS
  0
BLOCK
  5
20
330
1F
100
AcDbEntity
  8
0
100
AcDbBlockBegin
  2
*Model_Space
 70
    0
 10
0
 20
0
 30
0
  3
*Model_Space
  1

  0
ENDBLK
  5
21
330
1F
100
AcDbEntity
  8
0
100
AcDbBlockEnd
  0
BLOCK
  5
1C
330
1B
100
AcDbEntity
  8
0
100
AcDbBlockBegin
  2
*Paper_Space
 70
    0
 10
0
 20
0
 30
0
  3
*Paper_Space
  1

  0
ENDBLK
  5
1D
330
1F
100
AcDbEntity
  8
0
100
AcDbBlockEnd
  0
BLOCK
  5
58
330
57
100
AcDbEntity
  8
0
100
AcDbBlockBegin
  2
GT 1
 70
    0
 10
0
 20
0
  3
GT 1
  1

  0
HATCH
  5
63
100
AcDbEntity
  8
PP-WWP
  6
ByLayer
 62
    9
370
   15
100
AcDbHatch
 10
0
 20
0
 30
0
210
0
220
0
230
1
  2
AR-B816
 70
    0
 71
    0
 91
    2
 92
    0
 93
    4
 72
    1
 10
376155.1063967842
 20
227649.4802232289
 11
376131.1039681962
 21
227649.480223229
 72
    1
 10
376131.1039681962
 20
227649.480223229
 11
376131.1039681962
 21
227673.4826518168
 72
    1
 10
376131.1039681962
 20
227673.4826518168
 11
376155.1063967842
 21
227673.4826518168
 72
    1
 10
376155.1063967842
 20
227673.4826518168
 11
376155.1063967842
 21
227649.4802232289
 97
    0
 92
    0
 93
    4
 72
    1
 10
376149.1057896372
 20
227667.4820446698
 11
376137.1045753433
 21
227667.4820446698
 72
    1
 10
376137.1045753433
 20
227667.4820446698
 11
376137.1045753433
 21
227655.4808303759
 72
    1
 10
376137.1045753433
 20
227655.4808303759
 11
376149.105789637
 21
227655.4808303759
 72
    1
 10
376149.105789637
 20
227655.4808303759
 11
376149.1057896372
 21
227667.4820446698
 97
    0
 75
    0
 76
    1
 52
0
 41
0.5
 77
    0
 78
    0
 98
    0
  0
LWPOLYLINE
  5
64
100
AcDbEntity
  8
PP-WWP
  6
ByLayer
 62
  256
370
   30
100
AcDbPolyline
 90
    4
 70
    1
 43
0
 10
376149.105789637
 20
227655.4808303759
 10
376149.1057896372
 20
227667.4820446698
 10
376137.1045753433
 20
227667.4820446698
 10
376137.1045753433
 20
227655.4808303759
  0
LWPOLYLINE
  5
65
100
AcDbEntity
  8
PP-WWP
  6
ByLayer
 62
  256
370
   30
100
AcDbPolyline
 90
    4
 70
    1
 43
0
 10
376155.1063967842
 20
227649.4802232289
 10
376155.1063967842
 20
227673.4826518168
 10
376131.1039681962
 20
227673.4826518168
 10
376131.1039681962
 20
227649.480223229
  0
LINE
  5
66
100
AcDbEntity
  8
PP-WWP
  6
ByLayer
 62
  256
370
   30
100
AcDbLine
 10
376149.105789637
 20
227655.4808303759
 11
376137.1045753433
 21
227667.4820446698
  0
LINE
  5
67
100
AcDbEntity
  8
PP-WWP
  6
ByLayer
 62
  256
370
   30
100
AcDbLine
 10
376137.1045753433
 20
227655.4808303759
 11
376149.1057896372
 21
227667.4820446698
  0
ENDBLK
  5
59
330
57
100
AcDbEntity
  8
0
100
AcDbBlockEnd
  0
BLOCK
  5
5B
330
5A
100
AcDbEntity
  8
0
100
AcDbBlockBegin
  2
GHYTU
 70
    0
 10
0
 20
0
  3
GHYTU
  1

  0
LWPOLYLINE
  5
68
100
AcDbEntity
  8
PP-RWP
  6
ByLayer
 62
  256
370
   30
100
AcDbPolyline
 90
    4
 70
    1
 43
0
 10
1084.606445236244
 20
356.3383337718769
 10
1084.606445236244
 20
354.8383337718624
 10
1086.106445236259
 20
354.8383337718624
 10
1086.106445236259
 20
356.3383337718769
  0
LWPOLYLINE
  5
69
100
AcDbEntity
  8
PP-RWP
  6
ByLayer
 62
  256
370
   30
100
AcDbPolyline
 90
    4
 70
    1
 43
0
 10
1084.106445236244
 20
356.8383337718769
 10
1084.106445236244
 20
354.3383337718625
 10
1086.606445236259
 20
354.3383337718625
 10
1086.606445236259
 20
356.8383337718769
  0
HATCH
  5
6A
100
AcDbEntity
  8
PP-RWP
  6
ByLayer
 62
    9
370
   13
100
AcDbHatch
 10
0
 20
0
 30
0
210
0
220
0
230
1
  2
AR-B816
 70
    0
 71
    0
 91
    2
 92
    0
 93
    4
 72
    1
 10
1084.106445236244
 20
356.8383337718769
 11
1086.606445236259
 21
356.8383337718769
 72
    1
 10
1086.606445236259
 20
356.8383337718769
 11
1086.606445236259
 21
354.3383337718625
 72
    1
 10
1086.606445236259
 20
354.3383337718625
 11
1084.106445236244
 21
354.3383337718625
 72
    1
 10
1084.106445236244
 20
354.3383337718625
 11
1084.106445236244
 21
356.8383337718769
 97
    0
 92
    0
 93
    4
 72
    1
 10
1084.606445236244
 20
354.8383337718624
 11
1086.106445236255
 21
354.8383337718624
 72
    1
 10
1086.106445236255
 20
354.8383337718624
 11
1086.106445236259
 21
356.3383337718806
 72
    1
 10
1086.106445236259
 20
356.3383337718806
 11
1084.606445236244
 21
356.3383337718806
 72
    1
 10
1084.606445236244
 20
356.3383337718806
 11
1084.606445236244
 21
354.8383337718624
 97
    0
 75
    0
 76
    1
 52
-90.00000000009364
 41
0.0437500000004244
 77
    0
 78
    0
 98
    0
  0
LINE
  5
6B
100
AcDbEntity
  8
PP-RWP
  6
ByLayer
 62
  256
370
   30
100
AcDbLine
 10
1086.106445236259
 20
356.3383337718769
 11
1084.606445236244
 21
354.8383337718624
  0
LINE
  5
6C
100
AcDbEntity
  8
PP-RWP
  6
ByLayer
 62
  256
370
   30
100
AcDbLine
 10
1086.106445236259
 20
354.8383337718624
 11
1084.606445236244
 21
356.3383337718769
  0
ENDBLK
  5
5C
330
5A
100
AcDbEntity
  8
0
100
AcDbBlockEnd
  0
BLOCK
  5
5E
330
5D
100
AcDbEntity
  8
0
100
AcDbBlockBegin
  2
IC 1
 70
    0
 10
0
 20
0
  3
IC 1
  1

  0
HATCH
  5
6D
100
AcDbEntity
  8
PP-SWP
  6
ByLayer
 62
    9
370
   15
100
AcDbHatch
 10
0
 20
0
 30
0
210
0
220
0
230
1
  2
AR-B816
 70
    0
 71
    0
 91
    2
 92
    0
 93
    4
 72
    1
 10
376179.1088253719
 20
227667.4820446698
 11
376179.1088253719
 21
227637.4790089349
 72
    1
 10
376179.1088253719
 20
227637.4790089349
 11
376149.105789637
 21
227637.479008935
 72
    1
 10
376149.105789637
 20
227637.479008935
 11
376149.1057896372
 21
227667.4820446698
 72
    1
 10
376149.1057896372
 20
227667.4820446698
 11
376179.1088253719
 21
227667.4820446698
 97
    0
 92
    0
 93
    4
 72
    1
 10
376155.1063967842
 20
227661.4814375228
 11
376155.1063967842
 21
227643.479616082
 72
    1
 10
376155.1063967842
 20
227643.479616082
 11
376173.108218225
 21
227643.479616082
 72
    1
 10
376173.108218225
 20
227643.479616082
 11
376173.108218225
 21
227661.4814375228
 72
    1
 10
376173.108218225
 20
227661.4814375228
 11
376155.1063967842
 21
227661.4814375228
 97
    0
 75
    0
 76
    1
 52
0
 41
6.000607146966712
 77
    0
 78
    0
 98
    0
  0
LWPOLYLINE
  5
6E
100
AcDbEntity
  8
PP-SWP
  6
CONTINUOUS
 62
  256
370
   30
100
AcDbPolyline
 90
    4
 70
    1
 43
0
 10
376173.108218225
 20
227661.4814375228
 10
376155.1063967842
 20
227661.4814375228
 10
376155.1063967842
 20
227643.479616082
 10
376173.108218225
 20
227643.479616082
  0
LWPOLYLINE
  5
6F
100
AcDbEntity
  8
PP-SWP
  6
CONTINUOUS
 62
  256
370
   30
100
AcDbPolyline
 90
    4
 70
    1
 43
0
 10
376179.1088253719
 20
227667.4820446698
 10
376149.1057896372
 20
227667.4820446698
 10
376149.105789637
 20
227637.479008935
 10
376179.1088253719
 20
227637.4790089349
  0
LINE
  5
70
100
AcDbEntity
  8
PP-SWP
  6
CONTINUOUS
 62
  256
370
   30
100
AcDbLine
 10
376173.108218225
 20
227661.4814375228
 11
376155.1063967842
 21
227643.479616082
  0
LINE
  5
71
100
AcDbEntity
  8
PP-SWP
  6
CONTINUOUS
 62
  256
370
   30
100
AcDbLine
 10
376173.108218225
 20
227643.479616082
 11
376155.1063967842
 21
227661.4814375228
  0
ENDBLK
  5
5F
330
5D
100
AcDbEntity
  8
0
100
AcDbBlockEnd
  0
BLOCK
  5
61
330
60
100
AcDbEntity
  8
0
100
AcDbBlockBegin
  2
CCDD
 70
    0
 10
0
 20
0
  3
CCDD
  1

  0
LINE
  5
72
100
AcDbEntity
  8
SB
  6
ByLayer
 62
  256
370
   -1
100
AcDbLine
 10
289471.2230616091
 20
2357.333353498018
 11
289491.1123911296
 21
2350.152471313402
  0
LINE
  5
73
100
AcDbEntity
  8
SB
  6
ByLayer
 62
    1
370
   25
100
AcDbLine
 10
289471.2230616091
 20
2357.173597033633
 11
289471.3404396705
 21
2357.290975094732
  0
LINE
  5
74
100
AcDbEntity
  8
SB
  6
ByLayer
 62
    1
370
   25
100
AcDbLine
 10
289471.2230616091
 20
2355.822810844506
 11
289472.3329044478
 21
2356.932653682684
  0
LINE
  5
75
100
AcDbEntity
  8
SB
  6
ByLayer
 62
    1
370
   25
100
AcDbLine
 10
289471.2230616091
 20
2354.472024655311
 11
289473.3253692248
 21
2356.574332270869
  0
LINE
  5
76
100
AcDbEntity
  8
SB
  6
ByLayer
 62
    1
370
   25
100
AcDbLine
 10
289471.2230616091
 20
2353.121238466268
 11
289474.317834002
 21
2356.216010858741
  0
LINE
  5
77
100
AcDbEntity
  8
SB
  6
ByLayer
 62
    1
370
   25
100
AcDbLine
 10
289471.2230616091
 20
2351.770452277143
 11
289475.310298779
 21
2355.857689446892
  0
LINE
  5
78
100
AcDbEntity
  8
SB
  6
ByLayer
 62
    1
370
   25
100
AcDbLine
 10
289471.2230616091
 20
2350.419666088029
 11
289476.3027635562
 21
2355.499368034899
  0
LINE
  5
79
100
AcDbEntity
  8
SB
  6
ByLayer
 62
    1
370
   25
100
AcDbLine
 10
289472.3066530236
 20
2350.152471313402
 11
289477.2952283333
 21
2355.14104662284
  0
LINE
  5
7A
100
AcDbEntity
  8
SB
  6
ByLayer
 62
    1
370
   25
100
AcDbLine
 10
289473.6574392128
 20
2350.152471313402
 11
289478.2876931104
 21
2354.782725210923
  0
LINE
  5
7B
100
AcDbEntity
  8
SB
  6
ByLayer
 62
    1
370
   25
100
AcDbLine
 10
289475.0082254017
 20
2350.152471313402
 11
289479.2801578875
 21
2354.424403799024
  0
LINE
  5
7C
100
AcDbEntity
  8
SB
  6
ByLayer
 62
    1
370
   25
100
AcDbLine
 10
289476.3590115911
 20
2350.152471313402
 11
289480.2726226647
 21
2354.066082387008
  0
LINE
  5
7D
100
AcDbEntity
  8
SB
  6
ByLayer
 62
    1
370
   25
100
AcDbLine
 10
289477.7097977802
 20
2350.152471313402
 11
289481.2650874417
 21
2353.707760974942
  0
LINE
  5
7E
100
AcDbEntity
  8
SB
  6
ByLayer
 62
    1
370
   25
100
AcDbLine
 10
289479.0605839693
 20
2350.152471313402
 11
289482.2575522188
 21
2353.349439563
  0
LINE
  5
7F
100
AcDbEntity
  8
SB
  6
ByLayer
 62
    1
370
   25
100
AcDbLine
 10
289480.4113701584
 20
2350.152471313402
 11
289483.2500169958
 21
2352.991118151091
  0
LINE
  5
80
100
AcDbEntity
  8
SB
  6
ByLayer
 62
    1
370
   25
100
AcDbLine
 10
289481.7621563474
 20
2350.152471313402
 11
289484.2424817731
 21
2352.632796739191
  0
LINE
  5
81
100
AcDbEntity
  8
SB
  6
ByLayer
 62
    1
370
   25
100
AcDbLine
 10
289483.1129425364
 20
2350.152471313402
 11
289485.2349465504
 21
2352.274475327106
  0
LINE
  5
82
100
AcDbEntity
  8
SB
  6
ByLayer
 62
    1
370
   25
100
AcDbLine
 10
289484.4637287256
 20
2350.152471313402
 11
289486.2274113273
 21
2351.91615391528
  0
LINE
  5
83
100
AcDbEntity
  8
SB
  6
ByLayer
 62
    1
370
   25
100
AcDbLine
 10
289485.8145149149
 20
2350.152471313402
 11
289487.2198761045
 21
2351.55783250321
  0
LINE
  5
84
100
AcDbEntity
  8
SB
  6
ByLayer
 62
    1
370
   25
100
AcDbLine
 10
289487.1653011039
 20
2350.152471313402
 11
289488.2123408816
 21
2351.199511091311
  0
LINE
  5
85
100
AcDbEntity
  8
SB
  6
ByLayer
 62
    1
370
   25
100
AcDbLine
 10
289488.516087293
 20
2350.152471313402
 11
289489.2048056588
 21
2350.841189679245
  0
LINE
  5
86
100
AcDbEntity
  8
SB
  6
ByLayer
 62
    1
370
   25
100
AcDbLine
 10
289489.866873482
 20
2350.152471313402
 11
289490.1972704358
 21
2350.482868267284
  0
LINE
  5
87
100
AcDbEntity
  8
SB
  6
ByLayer
 62
  256
370
   -1
100
AcDbLine
 10
289471.2230616091
 20
2350.152471313402
 11
289491.1123911296
 21
2350.152471313402
  0
LINE
  5
88
100
AcDbEntity
  8
SB
  6
ByLayer
 62
  256
370
   -1
100
AcDbLine
 10
289491.1123911296
 20
2350.152471313402
 11
289491.1123911296
 21
2357.333353498018
  0
LINE
  5
89
100
AcDbEntity
  8
SB
  6
ByLayer
 62
  256
370
   -1
100
AcDbLine
 10
289491.1123911296
 20
2357.333353498018
 11
289471.2230616091
 21
2357.333353498018
  0
LINE
  5
8A
100
AcDbEntity
  8
SB
  6
ByLayer
 62
  256
370
   -1
100
AcDbLine
 10
289471.2230616091
 20
2357.333353498018
 11
289471.2230616091
 21
2350.152471313402
  0
ENDBLK
  5
62
330
60
100
AcDbEntity
  8
0
100
AcDbBlockEnd
  0
ENDSEC
  0
SECTION
  2
ENTITIES
  0
INSERT
  5
8B
100
AcDbEntity
  8
PP-WWP
  6
CONTINUOUS
 62
    0
370
   13
100
AcDbBlockReference
  2
GT 1
 10
-375779.053496566
 20
-227159.5161140602
 30
0
 41
1.000147330917084
 42
1.000147330917084
 43
0
 50
0
 70
    1
 71
    1
 44
0
 45
0
  0
INSERT
  5
8C
100
AcDbEntity
  8
PP-RWP
  6
ByLayer
 62
  256
370
   -1
100
AcDbBlockReference
  2
GHYTU
 10
13486.49159818841
 20
-3738.912672997642
 30
0
 41
-12.00298244384149
 42
12.00298244384149
 43
0
 50
0
 70
    1
 71
    1
 44
0
 45
0
  0
INSERT
  5
8D
100
AcDbEntity
  8
PP-SWP
  6
CONTINUOUS
 62
    0
370
   13
100
AcDbBlockReference
  2
IC 1
 10
-375762.802809671
 20
-227131.3205130448
 30
0
 41
1.000147330917084
 42
1.000147330917084
 43
0
 50
0
 70
    1
 71
    1
 44
0
 45
0
  0
LINE
  5
8E
100
AcDbEntity
  8
0
  6
ByLayer
 62
  256
370
   -1
100
AcDbLine
 10
497.8857825763721
 20
457.303236383225
 11
606.8239560990625
 21
494.5096497666175
  0
LINE
  5
8F
100
AcDbEntity
  8
0
  6
ByLayer
 62
  256
370
   -1
100
AcDbLine
 10
606.8239560990625
 20
494.5096497666175
 11
689.7768881617098
 21
391.8314580109683
  0
LINE
  5
90
100
AcDbEntity
  8
0
  6
ByLayer
 62
  256
370
   -1
100
AcDbLine
 10
689.7768881617098
 20
391.8314580109683
 11
621.7585709541784
 21
391.8314580109683
  0
LINE
  5
91
100
AcDbEntity
  8
0
  6
ByLayer
 62
  256
370
   -1
100
AcDbLine
 10
621.7585709541784
 20
391.8314580109683
 11
587.8635993213738
 21
316.2203754724818
  0
LINE
  5
92
100
AcDbEntity
  8
0
  6
ByLayer
 62
  256
370
   -1
100
AcDbLine
 10
587.8635993213738
 20
316.2203754724818
 11
474.8239560990622
 21
331.8314580109683
  0
LINE
  5
93
100
AcDbEntity
  8
0
  6
ByLayer
 62
  256
370
   -1
100
AcDbLine
 10
474.8239560990622
 20
331.8314580109683
 11
497.8857825763719
 21
457.303236383225
  0
LWPOLYLINE
  5
94
100
AcDbEntity
  8
PP-ROOM
  6
ByLayer
 62
  256
370
   -1
100
AcDbPolyline
 90
    7
 70
    0
 43
0
 10
497.8857825763719
 20
457.303236383225
 10
606.8239560990625
 20
494.5096497666175
 10
689.7768881617098
 20
391.8314580109683
 10
621.7585709541784
 20
391.8314580109683
 10
587.8635993213738
 20
316.2203754724818
 10
474.8239560990622
 20
331.8314580109683
 10
497.8857825763719
 20
457.303236383225
  0
LWPOLYLINE
  5
95
100
AcDbEntity
  8
PP-OUTER
  6
ByLayer
 62
  256
370
   -1
100
AcDbPolyline
 90
    4
 70
    1
 43
0
 10
390.1390820220813
 20
580.7904366363859
 10
781.5969431386033
 20
580.7904366363859
 10
781.5969431386033
 20
255.1939692148237
 10
390.1390820220813
 20
255.1939692148237
  0
INSERT
  5
96
100
AcDbEntity
  8
PP-WWP
  6
CONTINUOUS
 62
    0
370
   13
100
AcDbBlockReference
  2
GT 1
 10
376950.7895217265
 20
-227159.5161140602
 30
0
 41
-1.000147330917084
 42
1.000147330917084
 43
0
 50
0
 70
    1
 71
    1
 44
0
 45
0
  0
INSERT
  5
97
100
AcDbEntity
  8
PP-RWP
  6
ByLayer
 62
  256
370
   -1
100
AcDbBlockReference
  2
GHYTU
 10
-12314.75557302773
 20
-3738.912672997642
 30
0
 41
12.00298244384149
 42
12.00298244384149
 43
0
 50
0
 70
    1
 71
    1
 44
0
 45
0
  0
INSERT
  5
98
100
AcDbEntity
  8
PP-SWP
  6
CONTINUOUS
 62
    0
370
   13
100
AcDbBlockReference
  2
IC 1
 10
376934.5388348317
 20
-227131.3205130448
 30
0
 41
-1.000147330917084
 42
1.000147330917084
 43
0
 50
0
 70
    1
 71
    1
 44
0
 45
0
  0
INSERT
  5
99
100
AcDbEntity
  8
PP-WWP
  6
CONTINUOUS
 62
    0
370
   13
100
AcDbBlockReference
  2
GT 1
 10
-375779.053496566
 20
227995.5005199113
 30
0
 41
-1.000147330917084
 42
1.000147330917084
 43
0
 50
180
 70
    1
 71
    1
 44
0
 45
0
  0
INSERT
  5
9A
100
AcDbEntity
  8
PP-RWP
  6
ByLayer
 62
  256
370
   -1
100
AcDbBlockReference
  2
GHYTU
 10
13486.49159818841
 20
4574.897078848851
 30
0
 41
12.00298244384149
 42
12.00298244384149
 43
0
 50
180
 70
    1
 71
    1
 44
0
 45
0
  0
INSERT
  5
9B
100
AcDbEntity
  8
PP-SWP
  6
CONTINUOUS
 62
    0
370
   13
100
AcDbBlockReference
  2
IC 1
 10
-375762.802809671
 20
227967.304918896
 30
0
 41
-1.000147330917084
 42
1.000147330917084
 43
0
 50
180
 70
    1
 71
    1
 44
0
 45
0
  0
INSERT
  5
9C
100
AcDbEntity
  8
PP-WWP
  6
CONTINUOUS
 62
    0
370
   13
100
AcDbBlockReference
  2
GT 1
 10
376950.7895217265
 20
227995.5005199113
 30
0
 41
1.000147330917084
 42
1.000147330917084
 43
0
 50
180
 70
    1
 71
    1
 44
0
 45
0
  0
INSERT
  5
9D
100
AcDbEntity
  8
PP-RWP
  6
ByLayer
 62
  256
370
   -1
100
AcDbBlockReference
  2
GHYTU
 10
-12314.75557302773
 20
4574.897078848851
 30
0
 41
-12.00298244384149
 42
12.00298244384149
 43
0
 50
180
 70
    1
 71
    1
 44
0
 45
0
  0
INSERT
  5
9E
100
AcDbEntity
  8
PP-SWP
  6
CONTINUOUS
 62
    0
370
   13
100
AcDbBlockReference
  2
IC 1
 10
376934.5388348317
 20
227967.304918896
 30
0
 41
1.000147330917084
 42
1.000147330917084
 43
0
 50
180
 70
    1
 71
    1
 44
0
 45
0
  0
INSERT
  5
9F
100
AcDbEntity
  8
0
  6
ByLayer
 62
  256
370
   -1
100
AcDbBlockReference
  2
CCDD
 10
155673.6938013073
 20
-22386.58140948073
 30
0
 41
-0.5416434259248153
 42
0.5416434259248153
 43
0
 50
352.1370335489206
 70
    1
 71
    1
 44
0
 45
0
  0
INSERT
  5
A0
100
AcDbEntity
  8
0
  6
ByLayer
 62
  256
370
   -1
100
AcDbBlockReference
  2
CCDD
 10
65904.68761997354
 20
142909.6017641785
 30
0
 41
-0.5416434259248153
 42
0.5416434259248153
 43
0
 50
65.85423819235196
 70
    1
 71
    1
 44
0
 45
0
  0
INSERT
  5
A1
100
AcDbEntity
  8
0
  6
ByLayer
 62
  256
370
   -1
100
AcDbBlockReference
  2
CCDD
 10
-96905.7922731444
 20
123220.1029047565
 30
0
 41
-0.5416434259248153
 42
0.5416434259248153
 43
0
 50
128.9344815483486
 70
    1
 71
    1
 44
0
 45
0
  0
INSERT
  5
A2
100
AcDbEntity
  8
0
  6
ByLayer
 62
  256
370
   -1
100
AcDbBlockReference
  2
CCDD
 10
149337.9546568259
 20
49942.43862924836
 30
0
 41
-0.5416434259248153
 42
0.5416434259248153
 43
0
 50
18.85693286422378
 70
    1
 71
    1
 44
0
 45
0
  0
INSERT
  5
A3
100
AcDbEntity
  8
0
  6
ByLayer
 62
  256
370
   -1
100
AcDbBlockReference
  2
CCDD
 10
29417.76774487769
 20
154478.0031733311
 30
0
 41
-0.5416434259248156
 42
0.5416434259248153
 43
0
 50
79.83230177747095
 70
    1
 71
    1
 44
0
 45
0
  0
INSERT
  5
A4
100
AcDbEntity
  8
0
  6
ByLayer
 62
  256
370
   -1
100
AcDbBlockReference
  2
CCDD
 10
29428.41819149338
 20
154535.9487345223
 30
0
 41
-0.5416434259248158
 42
0.5416434259248156
 43
0
 50
79.83230177747095
 70
    1
 71
    1
 44
0
 45
0
  0
INSERT
  5
A5
100
AcDbEntity
  8
0
  6
ByLayer
 62
  256
370
   -1
100
AcDbBlockReference
  2
CCDD
 10
-96879.46850439743
 20
123187.5196444915
 30
0
 41
-0.5416434259248153
 42
0.5416434259248153
 43
0
 50
128.9344815483486
 70
    1
 71
    1
 44
0
 45
0
  0
INSERT
  5
A6
100
AcDbEntity
  8
0
  6
ByLayer
 62
  256
370
   -1
100
AcDbBlockReference
  2
CCDD
 10
155715.3022019886
 20
-22392.32764291545
 30
0
 41
-0.5416434259248153
 42
0.5416434259248153
 43
0
 50
352.1370335489206
 70
    1
 71
    1
 44
0
 45
0
  0
INSERT
  5
A7
100
AcDbEntity
  8
0
  6
ByLayer
 62
  256
370
   -1
100
AcDbBlockReference
  2
CCDD
 10
65917.9086425454
 20
142939.0945113551
 30
0
 41
-0.5416434259248153
 42
0.5416434259248153
 43
0
 50
65.85423819235196
 70
    1
 71
    1
 44
0
 45
0
  0
INSERT
  5
A8
100
AcDbEntity
  8
0
  6
ByLayer
 62
  256
370
   -1
100
AcDbBlockReference
  2
CCDD
 10
149375.3925881739
 20
49955.2250667744
 30
0
 41
-0.5416434259248153
 42
0.5416434259248153
 43
0
 50
18.85693286422378
 70
    1
 71
    1
 44
0
 45
0
  0
INSERT
  5
A9
100
AcDbEntity
  8
0
  6
ByLayer
 62
  256
370
   -1
100
AcDbBlockReference
  2
CCDD
 10
157437.1866982768
 20
-881.1131772172547
 30
0
 41
-0.5416434259248153
 42
0.5416434259248153
 43
0
 50
0
 70
    1
 71
    1
 44
0
 45
0
  0
INSERT
  5
AA
100
AcDbEntity
  8
0
  6
ByLayer
 62
  256
370
   -1
100
AcDbBlockReference
  2
CCDD
 10
157469.9423980848
 20
-881.1131772172547
 30
0
 41
-0.5416434259248153
 42
0.5416434259248153
 43
0
 50
0
 70
    1
 71
    1
 44
0
 45
0
  0
LINE
  5
AB
100
AcDbEntity
  8
TextLayer
  6
ByLayer
 62
  256
370
   -1
100
AcDbLine
 10
419.4691945656086
 20
535.5068983075907
 11
403.1602916717561
 21
560.6866458519743
  0
LINE
  5
AC
100
AcDbEntity
  8
TextLayer
  6
ByLayer
 62
  256
370
   -1
100
AcDbLine
 10
403.1602916717561
 20
560.6866458519743
 11
353.1602916717561
 21
560.6866458519743
  0
MTEXT
  5
AD
100
AcDbEntity
  8
TextLayer
  6
ByLayer
 62
  256
370
   -1
100
AcDbMText
 10
342.1602916717561
 20
567.6866458519743
 30
0
 40
1
 41
9.972222010220076
 71
    2
 72
    5
  1
\P        F.GL: None\P        I.LVL: None\P        DEPTH: None\P        GULLY TRAP\P        CHAMBER\P        SIZE: 1'.0"X1'0"\P        
  7
standard
210
0
220
0
230
1
 50
0
 73
    1
 44
1
  0
LWPOLYLINE
  5
AE
100
AcDbEntity
  8
TextLayerBoundry
  6
ByLayer
 62
  256
370
   -1
100
AcDbPolyline
 90
    5
 70
    0
 43
0
 10
353.1602916717561
 20
555.6866458519743
 10
343.1602916717561
 20
555.6866458519743
 10
343.1602916717561
 20
566.6866458519743
 10
353.1602916717561
 20
566.6866458519743
 10
353.1602916717561
 20
555.6866458519743
  0
LINE
  5
AF
100
AcDbEntity
  8
TextLayer
  6
ByLayer
 62
  256
370
   -1
100
AcDbLine
 10
752.2668305948609
 20
535.5068983075616
 11
768.5757334887903
 21
560.6866458518954
  0
LINE
  5
B0
100
AcDbEntity
  8
TextLayer
  6
ByLayer
 62
  256
370
   -1
100
AcDbLine
 10
768.5757334887903
 20
560.6866458518954
 11
818.5757334887903
 21
560.6866458518954
  0
MTEXT
  5
B1
100
AcDbEntity
  8
TextLayer
  6
ByLayer
 62
  256
370
   -1
100
AcDbMText
 10
818.5757334887903
 20
567.6866458518954
 30
0
 40
1
 41
9.972222010220076
 71
    2
 72
    5
  1
\P        F.GL: None\P        I.LVL: None\P        DEPTH: None\P        GULLY TRAP\P        CHAMBER\P        SIZE: 1'.0"X1'0"\P        
  7
standard
210
0
220
0
230
1
 50
0
 73
    1
 44
1
  0
LWPOLYLINE
  5
B2
100
AcDbEntity
  8
TextLayerBoundry
  6
ByLayer
 62
  256
370
   -1
100
AcDbPolyline
 90
    5
 70
    0
 43
0
 10
818.5757334887903
 20
555.6866458518954
 10
830.5757334887903
 20
555.6866458518954
 10
830.5757334887903
 20
566.6866458518954
 10
818.5757334887903
 20
566.6866458518954
 10
818.5757334887903
 20
555.6866458518954
  0
LINE
  5
B3
100
AcDbEntity
  8
TextLayer
  6
ByLayer
 62
  256
370
   -1
100
AcDbLine
 10
419.4691945656668
 20
300.4775075436628
 11
403.1602916718026
 21
275.2977599992869
  0
LINE
  5
B4
100
AcDbEntity
  8
TextLayer
  6
ByLayer
 62
  256
370
   -1
100
AcDbLine
 10
403.1602916718026
 20
275.2977599992869
 11
353.1602916718026
 21
275.2977599992869
  0
MTEXT
  5
B5
100
AcDbEntity
  8
TextLayer
  6
ByLayer
 62
  256
370
   -1
100
AcDbMText
 10
342.1602916718026
 20
282.2977599992869
 30
0
 40
1
 41
9.972222010220076
 71
    2
 72
    5
  1
\P        F.GL: None\P        I.LVL: None\P        DEPTH: None\P        GULLY TRAP\P        CHAMBER\P        SIZE: 1'.0"X1'0"\P        
  7
standard
210
0
220
0
230
1
 50
0
 73
    1
 44
1
  0
LWPOLYLINE
  5
B6
100
AcDbEntity
  8
TextLayerBoundry
  6
ByLayer
 62
  256
370
   -1
100
AcDbPolyline
 90
    5
 70
    0
 43
0
 10
353.1602916718026
 20
270.2977599992869
 10
343.1602916718026
 20
270.2977599992869
 10
343.1602916718026
 20
281.2977599992869
 10
353.1602916718026
 20
281.2977599992869
 10
353.1602916718026
 20
270.2977599992869
  0
LINE
  5
B7
100
AcDbEntity
  8
TextLayer
  6
ByLayer
 62
  256
370
   -1
100
AcDbLine
 10
752.2668305949192
 20
300.4775075434882
 11
768.5757334888664
 21
275.2977599991659
  0
LINE
  5
B8
100
AcDbEntity
  8
TextLayer
  6
ByLayer
 62
  256
370
   -1
100
AcDbLine
 10
768.5757334888664
 20
275.2977599991659
 11
818.5757334888664
 21
275.2977599991659
  0
MTEXT
  5
B9
100
AcDbEntity
  8
TextLayer
  6
ByLayer
 62
  256
370
   -1
100
AcDbMText
 10
818.5757334888664
 20
282.2977599991659
 30
0
 40
1
 41
9.972222010220076
 71
    2
 72
    5
  1
\P        F.GL: None\P        I.LVL: None\P        DEPTH: None\P        GULLY TRAP\P        CHAMBER\P        SIZE: 1'.0"X1'0"\P        
  7
standard
210
0
220
0
230
1
 50
0
 73
    1
 44
1
  0
LWPOLYLINE
  5
BA
100
AcDbEntity
  8
TextLayerBoundry
  6
ByLayer
 62
  256
370
   -1
100
AcDbPolyline
 90
    5
 70
    0
 43
0
 10
818.5757334888664
 20
270.2977599991659
 10
830.5757334888664
 20
270.2977599991659
 10
830.5757334888664
 20
281.2977599991659
 10
818.5757334888664
 20
281.2977599991659
 10
818.5757334888664
 20
270.2977599991659
  0
ENDSEC
  0
SECTION
  2
OBJECTS
  0
DICTIONARY
  5
C
330
0
100
AcDbDictionary
281
    1
  3
ACAD_GROUP
350
D
  0
DICTIONARY
  5
D
330
C
100
AcDbDictionary
281
    1
  0
ENDSEC
  0
EOF
