999
dxfrw 0.6.3
  0
SECTION
  2
HEADER
  9
$ACADVER
  1
AC1021
  9
$DWGCODEPAGE
  3
ANSI_1252
  9
$INSBASE
 10
0
 20
0
 30
0
  9
$EXTMIN
 10
308.6897955979704
 20
378.2245375097251
 30
0
  9
$EXTMAX
 10
797.6554198424683
 20
998.7199380565035
 30
0
  9
$LIMMIN
 10
0
 20
0
  9
$LIMMAX
 10
420
 20
297
  9
$ORTHOMODE
 70
    1
  9
$REGENMODE
 70
    1
  9
$FILLMODE
 70
    1
  9
$QTEXTMODE
 70
    0
  9
$MIRRTEXT
 70
    0
  9
$LTSCALE
 40
1
  9
$ATTMODE
 70
    1
  9
$TEXTSIZE
 40
2.5
  9
$TRACEWID
 40
1
  9
$TEXTSTYLE
  7
Standard
  9
$CLAYER
  8
0
  9
$CELTYPE
  6
ByLayer
  9
$CECOLOR
 62
  256
  9
$CELTSCALE
 40
1
  9
$DISPSILH
 70
    0
  9
$DIMSCALE
 40
1
  9
$DIMASZ
 40
2.5
  9
$DIMEXO
 40
0.625
  9
$DIMDLI
 40
3.75
  9
$DIMRND
 40
0
  9
$DIMDLE
 40
0
  9
$DIMEXE
 40
1.25
  9
$DIMTP
 40
0
  9
$DIMTM
 40
0
  9
$DIMTXT
 40
2.5
  9
$DIMCEN
 40
2.5
  9
$DIMTSZ
 40
0
  9
$DIMTOL
 70
    0
  9
$DIMLIM
 70
    0
  9
$DIMTIH
 70
    0
  9
$DIMTOH
 70
    0
  9
$DIMSE1
 70
    0
  9
$DIMSE2
 70
    0
  9
$DIMTAD
 70
    1
  9
$DIMZIN
 70
    8
  9
$DIMBLK
  1

  9
$DIMASO
 70
    1
  9
$DIMSHO
 70
    1
  9
$DIMPOST
  1

  9
$DIMAPOST
  1

  9
$DIMALT
 70
    0
  9
$DIMALTD
 70
    3
  9
$DIMALTF
 40
0.03937007874016
  9
$DIMLFAC
 40
1
  9
$DIMTOFL
 70
    1
  9
$DIMTVP
 40
0
  9
$DIMTIX
 70
    0
  9
$DIMSOXD
 70
    0
  9
$DIMSAH
 70
    0
  9
$DIMBLK1
  1

  9
$DIMBLK2
  1

  9
$DIMSTYLE
  2
ISO-25
  9
$DIMCLRD
 70
    0
  9
$DIMCLRE
 70
    0
  9
$DIMCLRT
 70
    0
  9
$DIMTFAC
 40
1
  9
$DIMGAP
 40
0.625
  9
$DIMJUST
 70
    0
  9
$DIMSD1
 70
    0
  9
$DIMSD2
 70
    0
  9
$DIMTOLJ
 70
    0
  9
$DIMTZIN
 70
    8
  9
$DIMALTZ
 70
    0
  9
$DIMALTTZ
 70
    0
  9
$DIMUPT
 70
    0
  9
$DIMDEC
 70
    2
  9
$DIMTDEC
 70
    2
  9
$DIMALTU
 70
    2
  9
$DIMALTTD
 70
    3
  9
$DIMTXSTY
  7
Standard
  9
$DIMAUNIT
 70
    0
  9
$DIMADEC
 70
    0
  9
$DIMALTRND
 40
0
  9
$DIMAZIN
 70
    0
  9
$DIMDSEP
 70
   44
  9
$DIMATFIT
 70
    3
  9
$DIMFRAC
 70
    0
  9
$DIMLDRBLK
  1

  9
$DIMLUNIT
 70
    4
  9
$DIMLWD
 70
   -2
  9
$DIMLWE
 70
   -2
  9
$DIMTMOVE
 70
    0
  9
$DIMFXL
 40
1
  9
$DIMFXLON
 70
    0
  9
$DIMJOGANG
 40
0.7853981633974483
  9
$DIMTFILL
 70
    0
  9
$DIMTFILLCLR
 70
    0
  9
$DIMARCSYM
 70
    0
  9
$DIMLTYPE
  6

  9
$DIMLTEX1
  6

  9
$DIMLTEX2
  6

  9
$LUNITS
 70
    4
  9
$LUPREC
 70
    4
  9
$SKETCHINC
 40
1
  9
$FILLETRAD
 40
0
  9
$AUNITS
 70
    0
  9
$AUPREC
 70
    0
  9
$MENU
  1
.
  9
$ELEVATION
 40
0
  9
$PELEVATION
 40
0
  9
$THICKNESS
 40
0
  9
$LIMCHECK
 70
    0
  9
$CHAMFERA
 40
0
  9
$CHAMFERB
 40
0
  9
$CHAMFERC
 40
0
  9
$CHAMFERD
 40
0
  9
$SKPOLY
 70
    0
  9
$USRTIMER
 70
    1
  9
$ANGBASE
 50
0
  9
$ANGDIR
 70
    0
  9
$PDMODE
 70
    0
  9
$PDSIZE
 40
0
  9
$PLINEWID
 40
0
  9
$SPLFRAME
 70
    0
  9
$SPLINETYPE
 70
    6
  9
$SPLINESEGS
 70
    8
  9
$HANDSEED
  5
20000
  9
$SURFTAB1
 70
    6
  9
$SURFTAB2
 70
    6
  9
$SURFTYPE
 70
    6
  9
$SURFU
 70
    6
  9
$SURFV
 70
    6
  9
$UCSBASE
  2

  9
$UCSNAME
  2

  9
$UCSORG
 10
0
 20
0
 30
0
  9
$UCSXDIR
 10
1
 20
0
 30
0
  9
$UCSYDIR
 10
0
 20
1
 30
0
  9
$UCSORTHOREF
  2

  9
$UCSORTHOVIEW
 70
    0
  9
$UCSORGTOP
 10
0
 20
0
 30
0
  9
$UCSORGBOTTOM
 10
0
 20
0
 30
0
  9
$UCSORGLEFT
 10
0
 20
0
 30
0
  9
$UCSORGRIGHT
 10
0
 20
0
 30
0
  9
$UCSORGFRONT
 10
0
 20
0
 30
0
  9
$UCSORGBACK
 10
0
 20
0
 30
0
  9
$PUCSBASE
  2

  9
$PUCSNAME
  2

  9
$PUCSORG
 10
0
 20
0
 30
0
  9
$PUCSXDIR
 10
1
 20
0
 30
0
  9
$PUCSYDIR
 10
0
 20
1
 30
0
  9
$PUCSORTHOREF
  2

  9
$PUCSORTHOVIEW
 70
    0
  9
$PUCSORGTOP
 10
0
 20
0
 30
0
  9
$PUCSORGBOTTOM
 10
0
 20
0
 30
0
  9
$PUCSORGLEFT
 10
0
 20
0
 30
0
  9
$PUCSORGRIGHT
 10
0
 20
0
 30
0
  9
$PUCSORGFRONT
 10
0
 20
0
 30
0
  9
$PUCSORGBACK
 10
0
 20
0
 30
0
  9
$USERI1
 70
    0
  9
$USERI2
 70
    0
  9
$USERI3
 70
    0
  9
$USERI4
 70
    0
  9
$USERI5
 70
    0
  9
$USERR1
 40
0
  9
$USERR2
 40
0
  9
$USERR3
 40
0
  9
$USERR4
 40
0
  9
$USERR5
 40
0
  9
$WORLDVIEW
 70
    1
  9
$SHADEDGE
 70
    3
  9
$SHADEDIF
 70
   70
  9
$TILEMODE
 70
    1
  9
$MAXACTVP
 70
   64
  9
$PINSBASE
 10
0
 20
0
 30
0
  9
$PLIMCHECK
 70
    0
  9
$PEXTMIN
 10
0
 20
0
 30
0
  9
$PEXTMAX
 10
0
 20
0
 30
0
  9
$GRIDMODE
 70
    0
  9
$SNAPSTYLE
 70
    0
  9
$PLIMMIN
 10
0
 20
0
  9
$PLIMMAX
 10
12
 20
9
  9
$UNITMODE
 70
    0
  9
$VISRETAIN
 70
    1
  9
$PLINEGEN
 70
    0
  9
$PSLTSCALE
 70
    1
  9
$TREEDEPTH
 70
 3020
  9
$CMLSTYLE
  2
Standard
  9
$CMLJUST
 70
    0
  9
$CMLSCALE
 40
20
  9
$PROXYGRAPHICS
 70
    1
  9
$MEASUREMENT
 70
    1
  9
$CELWEIGHT
370
   -1
  9
$ENDCAPS
280
    0
  9
$JOINSTYLE
280
    0
  9
$LWDISPLAY
290
    0
  9
$INSUNITS
 70
    1
  9
$HYPERLINKBASE
  1

  9
$STYLESHEET
  1

  9
$XEDIT
290
    1
  9
$CEPSNTYPE
380
    0
  9
$PSTYLEMODE
290
    1
  9
$EXTNAMES
290
    1
  9
$PSVPSCALE
 40
0
  9
$OLESTARTUP
290
    0
  9
$SORTENTS
280
  127
  9
$INDEXCTL
280
    0
  9
$HIDETEXT
280
    1
  9
$XCLIPFRAME
290
    2
  9
$HALOGAP
280
    0
  9
$OBSCOLOR
 70
  257
  9
$OBSLTYPE
280
    0
  9
$INTERSECTIONDISPLAY
280
    0
  9
$INTERSECTIONCOLOR
 70
  257
  9
$DIMASSOC
280
    2
  9
$PROJECTNAME
  1

  9
$CAMERADISPLAY
290
    0
  9
$LENSLENGTH
 40
50
  9
$CAMERAHEIGHT
 40
0
  9
$STEPSPERSEC
 40
2
  9
$STEPSIZE
 40
6
  9
$3DDWFPREC
 40
2
  9
$PSOLWIDTH
 40
0.25
  9
$PSOLHEIGHT
 40
4
  9
$LOFTANG1
 40
1.570796326794896
  9
$LOFTANG2
 40
1.570796326794896
  9
$LOFTMAG1
 40
0
  9
$LOFTMAG2
 40
0
  9
$LOFTPARAM
 70
    7
  9
$LOFTNORMALS
280
    1
  9
$LATITUDE
 40
37.795
  9
$LONGITUDE
 40
-122.394
  9
$NORTHDIRECTION
 40
0
  9
$TIMEZONE
 70
-8000
  9
$LIGHTGLYPHDISPLAY
280
    1
  9
$TILEMODELIGHTSYNCH
280
    1
  9
$SOLIDHIST
280
    1
  9
$SHOWHIST
280
    1
  9
$DWFFRAME
280
    2
  9
$DGNFRAME
280
    2
  9
$REALWORLDSCALE
290
    1
  9
$INTERFERECOLOR
 62
  256
  9
$CSHADOW
280
    0
  9
$SHADOWPLANELOCATION
 40
0
  0
ENDSEC
  0
SECTION
  2
CLASSES
  0
ENDSEC
  0
SECTION
  2
TABLES
  0
TABLE
  2
VPORT
  5
8
330
0
100
AcDbSymbolTable
 70
    1
  0
VPORT
  5
31
330
2
100
AcDbSymbolTableRecord
100
AcDbViewportTableRecord
  2
*ACTIVE
 70
    0
 10
0
 20
0
 11
1
 21
1
 12
412.6096627663812
 22
233.3669642903553
 13
0
 23
0
 14
10
 24
10
 15
10
 25
10
 16
0
 26
0
 36
1
 17
0
 27
0
 37
0
 40
112.0643425766078
 41
2.051971326164875
 42
50
 43
0
 44
0
 50
0
 51
0
 71
    0
 72
  100
 73
    1
 74
    3
 75
    0
 76
    0
 77
    0
 78
    0
281
    0
 65
    1
110
0
120
0
130
0
111
1
121
0
131
0
112
0
122
1
132
0
 79
    0
146
0
348
10020
 60
    7
 61
    5
292
1
282
    1
141
0
142
0
 63
  250
421
3358443
  0
ENDTAB
  0
TABLE
  2
LTYPE
  5
5
330
0
100
AcDbSymbolTable
 70
    4
  0
LTYPE
  5
14
330
5
100
AcDbSymbolTableRecord
100
AcDbLinetypeTableRecord
  2
ByBlock
 70
    0
  3

 72
   65
 73
    0
 40
0
  0
LTYPE
  5
15
330
5
100
AcDbSymbolTableRecord
100
AcDbLinetypeTableRecord
  2
ByLayer
 70
    0
  3

 72
   65
 73
    0
 40
0
  0
LTYPE
  5
16
330
5
100
AcDbSymbolTableRecord
100
AcDbLinetypeTableRecord
  2
Continuous
 70
    0
  3
Solid line
 72
   65
 73
    0
 40
0
  0
LTYPE
  5
32
330
5
100
AcDbSymbolTableRecord
100
AcDbLinetypeTableRecord
  2
DOT
 70
    0
  3
Dot . . . . . . . . . . . . . . . . . . . . . .
 72
   65
 73
    2
 40
6.35
 49
0
 74
    0
 49
-6.35
 74
    0
  0
LTYPE
  5
33
330
5
100
AcDbSymbolTableRecord
100
AcDbLinetypeTableRecord
  2
DOTTINY
 70
    0
  3
Dot (.15x) .....................................
 72
   65
 73
    2
 40
0.9525
 49
0
 74
    0
 49
-0.9525
 74
    0
  0
LTYPE
  5
34
330
5
100
AcDbSymbolTableRecord
100
AcDbLinetypeTableRecord
  2
DOT2
 70
    0
  3
Dot (.5x) .....................................
 72
   65
 73
    2
 40
3.175
 49
0
 74
    0
 49
-3.175
 74
    0
  0
LTYPE
  5
35
330
5
100
AcDbSymbolTableRecord
100
AcDbLinetypeTableRecord
  2
DOTX2
 70
    0
  3
Dot (2x) .  .  .  .  .  .  .  .  .  .  .  .  .
 72
   65
 73
    2
 40
12.7
 49
0
 74
    0
 49
-12.7
 74
    0
  0
LTYPE
  5
36
330
5
100
AcDbSymbolTableRecord
100
AcDbLinetypeTableRecord
  2
DASHED
 70
    0
  3
Dashed _ _ _ _ _ _ _ _ _ _ _ _ _ _ _ _ _
 72
   65
 73
    2
 40
19.05
 49
12.7
 74
    0
 49
-6.35
 74
    0
  0
LTYPE
  5
37
330
5
100
AcDbSymbolTableRecord
100
AcDbLinetypeTableRecord
  2
DASHEDTINY
 70
    0
  3
Dashed (.15x) _ _ _ _ _ _ _ _ _ _ _ _ _ _ _ _ _
 72
   65
 73
    2
 40
2.8575
 49
1.905
 74
    0
 49
-0.9525
 74
    0
  0
LTYPE
  5
38
330
5
100
AcDbSymbolTableRecord
100
AcDbLinetypeTableRecord
  2
DASHED2
 70
    0
  3
Dashed (.5x) _ _ _ _ _ _ _ _ _ _ _ _ _ _ _ _ _
 72
   65
 73
    2
 40
9.524999999999999
 49
6.35
 74
    0
 49
-3.175
 74
    0
  0
LTYPE
  5
39
330
5
100
AcDbSymbolTableRecord
100
AcDbLinetypeTableRecord
  2
DASHEDX2
 70
    0
  3
Dashed (2x) ____  ____  ____  ____  ____  ___
 72
   65
 73
    2
 40
38.09999999999999
 49
25.4
 74
    0
 49
-12.7
 74
    0
  0
LTYPE
  5
3A
330
5
100
AcDbSymbolTableRecord
100
AcDbLinetypeTableRecord
  2
DASHDOT
 70
    0
  3
Dash dot __ . __ . __ . __ . __ . __ . __ . __
 72
   65
 73
    4
 40
25.4
 49
12.7
 74
    0
 49
-6.35
 74
    0
 49
0
 74
    0
 49
-6.35
 74
    0
  0
LTYPE
  5
3B
330
5
100
AcDbSymbolTableRecord
100
AcDbLinetypeTableRecord
  2
DASHDOTTINY
 70
    0
  3
Dash dot (.15x) _._._._._._._._._._._._._._._.
 72
   65
 73
    4
 40
3.81
 49
1.905
 74
    0
 49
-0.9525
 74
    0
 49
0
 74
    0
 49
-0.9525
 74
    0
  0
LTYPE
  5
3C
330
5
100
AcDbSymbolTableRecord
100
AcDbLinetypeTableRecord
  2
DASHDOT2
 70
    0
  3
Dash dot (.5x) _._._._._._._._._._._._._._._.
 72
   65
 73
    4
 40
12.7
 49
6.35
 74
    0
 49
-3.175
 74
    0
 49
0
 74
    0
 49
-3.175
 74
    0
  0
LTYPE
  5
3D
330
5
100
AcDbSymbolTableRecord
100
AcDbLinetypeTableRecord
  2
DASHDOTX2
 70
    0
  3
Dash dot (2x) ____  .  ____  .  ____  .  ___
 72
   65
 73
    4
 40
50.8
 49
25.4
 74
    0
 49
-12.7
 74
    0
 49
0
 74
    0
 49
-12.7
 74
    0
  0
LTYPE
  5
3E
330
5
100
AcDbSymbolTableRecord
100
AcDbLinetypeTableRecord
  2
DIVIDE
 70
    0
  3
Divide ____ . . ____ . . ____ . . ____ . . ____
 72
   65
 73
    6
 40
31.75
 49
12.7
 74
    0
 49
-6.35
 74
    0
 49
0
 74
    0
 49
-6.35
 74
    0
 49
0
 74
    0
 49
-6.35
 74
    0
  0
LTYPE
  5
3F
330
5
100
AcDbSymbolTableRecord
100
AcDbLinetypeTableRecord
  2
DIVIDETINY
 70
    0
  3
Divide (.15x) __..__..__..__..__..__..__..__.._
 72
   65
 73
    6
 40
4.7625
 49
1.905
 74
    0
 49
-0.9525
 74
    0
 49
0
 74
    0
 49
-0.9525
 74
    0
 49
0
 74
    0
 49
-0.9525
 74
    0
  0
LTYPE
  5
40
330
5
100
AcDbSymbolTableRecord
100
AcDbLinetypeTableRecord
  2
DIVIDE2
 70
    0
  3
Divide (.5x) __..__..__..__..__..__..__..__.._
 72
   65
 73
    6
 40
15.875
 49
6.35
 74
    0
 49
-3.175
 74
    0
 49
0
 74
    0
 49
-3.175
 74
    0
 49
0
 74
    0
 49
-3.175
 74
    0
  0
LTYPE
  5
41
330
5
100
AcDbSymbolTableRecord
100
AcDbLinetypeTableRecord
  2
DIVIDEX2
 70
    0
  3
Divide (2x) ________  .  .  ________  .  .  _
 72
   65
 73
    6
 40
63.5
 49
25.4
 74
    0
 49
-12.7
 74
    0
 49
0
 74
    0
 49
-12.7
 74
    0
 49
0
 74
    0
 49
-12.7
 74
    0
  0
LTYPE
  5
42
330
5
100
AcDbSymbolTableRecord
100
AcDbLinetypeTableRecord
  2
BORDER
 70
    0
  3
Border __ __ . __ __ . __ __ . __ __ . __ __ .
 72
   65
 73
    6
 40
44.45
 49
12.7
 74
    0
 49
-6.35
 74
    0
 49
12.7
 74
    0
 49
-6.35
 74
    0
 49
0
 74
    0
 49
-6.35
 74
    0
  0
LTYPE
  5
43
330
5
100
AcDbSymbolTableRecord
100
AcDbLinetypeTableRecord
  2
BORDERTINY
 70
    0
  3
Border (.15x) __.__.__.__.__.__.__.__.__.__.__.
 72
   65
 73
    6
 40
6.6675
 49
1.905
 74
    0
 49
-0.9525
 74
    0
 49
1.905
 74
    0
 49
-0.9525
 74
    0
 49
0
 74
    0
 49
-0.9525
 74
    0
  0
LTYPE
  5
44
330
5
100
AcDbSymbolTableRecord
100
AcDbLinetypeTableRecord
  2
BORDER2
 70
    0
  3
Border (.5x) __.__.__.__.__.__.__.__.__.__.__.
 72
   65
 73
    6
 40
22.225
 49
6.35
 74
    0
 49
-3.175
 74
    0
 49
6.35
 74
    0
 49
-3.175
 74
    0
 49
0
 74
    0
 49
-3.175
 74
    0
  0
LTYPE
  5
45
330
5
100
AcDbSymbolTableRecord
100
AcDbLinetypeTableRecord
  2
BORDERX2
 70
    0
  3
Border (2x) ____  ____  .  ____  ____  .  ___
 72
   65
 73
    6
 40
88.89999999999999
 49
25.4
 74
    0
 49
-12.7
 74
    0
 49
25.4
 74
    0
 49
-12.7
 74
    0
 49
0
 74
    0
 49
-12.7
 74
    0
  0
LTYPE
  5
46
330
5
100
AcDbSymbolTableRecord
100
AcDbLinetypeTableRecord
  2
CENTER
 70
    0
  3
Center ____ _ ____ _ ____ _ ____ _ ____ _ ____
 72
   65
 73
    4
 40
50.8
 49
31.75
 74
    0
 49
-6.35
 74
    0
 49
6.35
 74
    0
 49
-6.35
 74
    0
  0
LTYPE
  5
47
330
5
100
AcDbSymbolTableRecord
100
AcDbLinetypeTableRecord
  2
CENTERTINY
 70
    0
  3
Center (.15x) ___ _ ___ _ ___ _ ___ _ ___ _ ___
 72
   65
 73
    4
 40
7.619999999999999
 49
4.7625
 74
    0
 49
-0.9525
 74
    0
 49
0.9525
 74
    0
 49
-0.9525
 74
    0
  0
LTYPE
  5
48
330
5
100
AcDbSymbolTableRecord
100
AcDbLinetypeTableRecord
  2
CENTER2
 70
    0
  3
Center (.5x) ___ _ ___ _ ___ _ ___ _ ___ _ ___
 72
   65
 73
    4
 40
28.575
 49
19.05
 74
    0
 49
-3.175
 74
    0
 49
3.175
 74
    0
 49
-3.175
 74
    0
  0
LTYPE
  5
49
330
5
100
AcDbSymbolTableRecord
100
AcDbLinetypeTableRecord
  2
CENTERX2
 70
    0
  3
Center (2x) ________  __  ________  __  _____
 72
   65
 73
    4
 40
101.6
 49
63.5
 74
    0
 49
-12.7
 74
    0
 49
12.7
 74
    0
 49
-12.7
 74
    0
  0
ENDTAB
  0
TABLE
  2
LAYER
  5
2
330
0
100
AcDbSymbolTable
 70
    1
  0
LAYER
  5
10
330
2
100
AcDbSymbolTableRecord
100
AcDbLayerTableRecord
  2
0
 70
    1
 62
    7
  6
CONTINUOUS
370
   -3
390
F
  0
LAYER
  5
4A
330
2
100
AcDbSymbolTableRecord
100
AcDbLayerTableRecord
  2
A-FURN-.18
 70
    1
 62
    8
  6
CONTINUOUS
370
    0
390
F
  0
LAYER
  5
4B
330
2
100
AcDbSymbolTableRecord
100
AcDbLayerTableRecord
  2
CenterLines
 70
    0
 62
    7
  6
DASHED
370
   -3
390
F
  0
LAYER
  5
4C
330
2
100
AcDbSymbolTableRecord
100
AcDbLayerTableRecord
  2
Defpoints
 70
    1
 62
    7
  6
CONTINUOUS
290
0
370
   -3
390
F
  0
LAYER
  5
4D
330
2
100
AcDbSymbolTableRecord
100
AcDbLayerTableRecord
  2
FURNITURE
 70
    1
 62
   32
  6
CONTINUOUS
370
    0
390
F
  0
LAYER
  5
4E
330
2
100
AcDbSymbolTableRecord
100
AcDbLayerTableRecord
  2
PP-Door
 70
    1
 62
    4
  6
CONTINUOUS
370
   -3
390
F
  0
LAYER
  5
4F
330
2
100
AcDbSymbolTableRecord
100
AcDbLayerTableRecord
  2
PP-OUTER
 70
    1
 62
    3
  6
CONTINUOUS
370
   -3
390
F
  0
LAYER
  5
50
330
2
100
AcDbSymbolTableRecord
100
AcDbLayerTableRecord
  2
PP-Room 1
 70
    1
 62
  256
  6
CONTINUOUS
370
   -3
390
F
  0
LAYER
  5
51
330
2
100
AcDbSymbolTableRecord
100
AcDbLayerTableRecord
  2
PP-Room 2
 70
    1
 62
  256
  6
CONTINUOUS
370
   -3
390
F
  0
LAYER
  5
52
330
2
100
AcDbSymbolTableRecord
100
AcDbLayerTableRecord
  2
PP-Room 3
 70
    1
 62
  256
  6
CONTINUOUS
370
   -3
390
F
  0
LAYER
  5
53
330
2
100
AcDbSymbolTableRecord
100
AcDbLayerTableRecord
  2
PP-Room 4
 70
    1
 62
  256
  6
CONTINUOUS
370
   -3
390
F
  0
LAYER
  5
54
330
2
100
AcDbSymbolTableRecord
100
AcDbLayerTableRecord
  2
PP-Room 5
 70
    1
 62
  256
  6
CONTINUOUS
370
   -3
390
F
  0
LAYER
  5
55
330
2
100
AcDbSymbolTableRecord
100
AcDbLayerTableRecord
  2
PP-Room 6
 70
    1
 62
  256
  6
CONTINUOUS
370
   -3
390
F
  0
LAYER
  5
56
330
2
100
AcDbSymbolTableRecord
100
AcDbLayerTableRecord
  2
PP-Room 7
 70
    1
 62
  256
  6
CONTINUOUS
370
   -3
390
F
  0
LAYER
  5
57
330
2
100
AcDbSymbolTableRecord
100
AcDbLayerTableRecord
  2
PP-Room Text
 70
    1
 62
   51
  6
CONTINUOUS
370
   -3
390
F
  0
LAYER
  5
58
330
2
100
AcDbSymbolTableRecord
100
AcDbLayerTableRecord
  2
PP-Toilet 1
 70
    1
 62
  256
  6
CONTINUOUS
370
   -3
390
F
  0
LAYER
  5
59
330
2
100
AcDbSymbolTableRecord
100
AcDbLayerTableRecord
  2
PP-Toilet 2
 70
    1
 62
  256
  6
CONTINUOUS
370
   -3
390
F
  0
LAYER
  5
5A
330
2
100
AcDbSymbolTableRecord
100
AcDbLayerTableRecord
  2
PP-Window
 70
    1
 62
    1
  6
CONTINUOUS
370
   -3
390
F
  0
LAYER
  5
5B
330
2
100
AcDbSymbolTableRecord
100
AcDbLayerTableRecord
  2
Sink
 70
    1
 62
    7
  6
CONTINUOUS
370
   -3
390
F
  0
LAYER
  5
5C
330
2
100
AcDbSymbolTableRecord
100
AcDbLayerTableRecord
  2
WALLS
 70
    0
 62
  153
  6
CONTINUOUS
370
   35
390
F
  0
LAYER
  5
5D
330
2
100
AcDbSymbolTableRecord
100
AcDbLayerTableRecord
  2
WC
 70
    1
 62
    7
  6
CONTINUOUS
370
   -3
390
F
  0
LAYER
  5
5E
330
2
100
AcDbSymbolTableRecord
100
AcDbLayerTableRecord
  2
WIN
 70
    1
 62
   86
  6
CONTINUOUS
370
    0
390
F
  0
LAYER
  5
5F
330
2
100
AcDbSymbolTableRecord
100
AcDbLayerTableRecord
  2
debug
 70
    1
 62
    7
  6
CONTINUOUS
370
   -3
390
F
  0
ENDTAB
  0
TABLE
  2
STYLE
  5
3
330
0
100
AcDbSymbolTable
 70
    3
  0
STYLE
  5
60
330
2
100
AcDbSymbolTableRecord
100
AcDbTextStyleTableRecord
  2
standard
 70
    0
 40
0
 41
1
 50
0
 71
    0
 42
1
  3
standard
  4

  0
ENDTAB
  0
TABLE
  2
VIEW
  5
6
330
0
100
AcDbSymbolTable
 70
    0
  0
ENDTAB
  0
TABLE
  2
UCS
  5
7
330
0
100
AcDbSymbolTable
 70
    0
  0
ENDTAB
  0
TABLE
  2
APPID
  5
9
330
0
100
AcDbSymbolTable
 70
    1
  0
APPID
  5
12
330
9
100
AcDbSymbolTableRecord
100
AcDbRegAppTableRecord
  2
ACAD
 70
    0
  0
APPID
  5
61
330
9
100
AcDbSymbolTableRecord
100
AcDbRegAppTableRecord
  2
LibreCad
 70
    0
  0
ENDTAB
  0
TABLE
  2
DIMSTYLE
  5
A
330
0
100
AcDbSymbolTable
 70
    1
100
AcDbDimStyleTable
 71
    1
  0
DIMSTYLE
105
62
330
A
100
AcDbSymbolTableRecord
100
AcDbDimStyleTableRecord
  2
Standard
 70
    0
 40
1
 41
2.5
 42
0.625
 43
0.38
 44
1.25
 45
0
 46
0
 47
0
 48
0
 49
1
140
2.5
141
0.09
142
0
143
25.4
144
1
145
0
146
1
147
0.625
148
0
 71
    0
 72
    0
 73
    0
 74
    1
 75
    0
 76
    0
 77
    0
 78
    8
 79
    0
170
    0
171
    2
172
    0
173
    0
174
    0
175
    0
176
    0
177
    0
178
    0
179
    0
271
    2
272
    4
273
    2
274
    2
275
    0
276
    0
277
    4
278
   44
279
    0
280
    0
281
    0
282
    0
283
    1
284
    0
285
    0
286
    0
288
    0
289
    3
340
Standard
341

371
   -2
372
   -2
  0
ENDTAB
  0
TABLE
  2
BLOCK_RECORD
  5
1
330
0
100
AcDbSymbolTable
 70
    2
  0
BLOCK_RECORD
  5
1F
330
1
100
AcDbSymbolTableRecord
100
AcDbBlockTableRecord
  2
*Model_Space
 70
    0
280
    1
281
    0
  0
BLOCK_RECORD
  5
1E
330
1
100
AcDbSymbolTableRecord
100
AcDbBlockTableRecord
  2
*Paper_Space
 70
    0
280
    1
281
    0
  0
BLOCK_RECORD
  5
63
330
1
100
AcDbSymbolTableRecord
100
AcDbBlockTableRecord
  2
DOOR
 70
    0
280
    1
281
    0
  0
BLOCK_RECORD
  5
66
330
1
100
AcDbSymbolTableRecord
100
AcDbBlockTableRecord
  2
basin2
 70
    0
280
    1
281
    0
  0
BLOCK_RECORD
  5
69
330
1
100
AcDbSymbolTableRecord
100
AcDbBlockTableRecord
  2
A$C43EB1948
 70
    0
280
    1
281
    0
  0
BLOCK_RECORD
  5
6C
330
1
100
AcDbSymbolTableRecord
100
AcDbBlockTableRecord
  2
Window
 70
    0
280
    1
281
    0
  0
BLOCK_RECORD
  5
6F
330
1
100
AcDbSymbolTableRecord
100
AcDbBlockTableRecord
  2
Window 2
 70
    0
280
    1
281
    0
  0
BLOCK_RECORD
  5
72
330
1
100
AcDbSymbolTableRecord
100
AcDbBlockTableRecord
  2
PP-Balcony Window
 70
    0
280
    1
281
    0
  0
ENDTAB
  0
ENDSEC
  0
SECTION
  2
BLOCKS
  0
BLOCK
  5
20
330
1F
100
AcDbEntity
  8
0
100
AcDbBlockBegin
  2
*Model_Space
 70
    0
 10
0
 20
0
 30
0
  3
*Model_Space
  1

  0
ENDBLK
  5
21
330
1F
100
AcDbEntity
  8
0
100
AcDbBlockEnd
  0
BLOCK
  5
1C
330
1B
100
AcDbEntity
  8
0
100
AcDbBlockBegin
  2
*Paper_Space
 70
    0
 10
0
 20
0
 30
0
  3
*Paper_Space
  1

  0
ENDBLK
  5
1D
330
1F
100
AcDbEntity
  8
0
100
AcDbBlockEnd
  0
BLOCK
  5
64
330
63
100
AcDbEntity
  8
0
100
AcDbBlockBegin
  2
DOOR
 70
    0
 10
0
 20
0
  3
DOOR
  1

  0
ARC
  5
75
100
AcDbEntity
  8
PP-Door
  6
ByLayer
 62
  256
370
   -1
100
AcDbCircle
 10
-3790.569469054988
 20
-7659.354908894403
 40
44.00689272988011
100
AcDbArc
 50
283.3685932364197
 51
351.091955498347
  0
LWPOLYLINE
  5
76
100
AcDbEntity
  8
PP-Door
  6
ByLayer
 62
  256
370
   -1
100
AcDbPolyline
 90
    4
 70
    1
 43
0
 10
-3782.23650000942
 20
-7666.169336510503
 10
-3782.23650000942
 20
-7702.169336510502
 10
-3780.39443118554
 20
-7702.169336510502
 10
-3780.39443118554
 20
-7666.169336510503
  0
ENDBLK
  5
65
330
63
100
AcDbEntity
  8
0
100
AcDbBlockEnd
  0
BLOCK
  5
67
330
66
100
AcDbEntity
  8
0
100
AcDbBlockBegin
  2
basin2
 70
    0
 10
0
 20
0
  3
basin2
  1

  0
LWPOLYLINE
  5
77
100
AcDbEntity
  8
0
  6
ByLayer
 62
  256
370
   -1
100
AcDbPolyline
 90
   18
 70
    1
 43
0
 10
263.4647388741328
 20
-200.8041209151929
 42
0.1199769809454681
 10
247.3686256409179
 20
-139.6959269951187
 42
0.1064259049356968
 10
191.641348398266
 20
-74.65355565280169
 42
0.08443061466746776
 10
111.1579910357466
 20
-32.56243208883569
 42
0.07353418054424798
 10
7.135534924565098
 20
-15.07061401551096
 42
0.0735341805442386
 10
-97.49763955940668
 20
-28.43227081087502
 42
0.08443061466747805
 10
-179.5836170814569
 20
-67.30547224157567
 42
0.1064259049356944
 10
-237.8411512872023
 20
-130.0916108947634
 42
0.1297603835884358
 10
-256.5438400518505
 20
-195.6575832330741
 42
0.009633426956381612
 10
-256.5465435774709
 20
-200.8041209151928
 42
0.1199769809454682
 10
-240.4504303442556
 20
-261.9123148352668
 42
0.1064259049356967
 10
-184.7231531016042
 20
-326.9546861775846
 42
0.08443061466746933
 10
-104.2397957390826
 20
-369.0458097415512
 42
0.07353418054424664
 10
-0.217339627903538
 20
-386.5376278148753
 42
0.07353418054424106
 10
104.4158348560707
 20
-373.1759710195104
 42
0.08443061466747492
 10
186.5018123781181
 20
-334.302769588811
 42
0.1064259049356947
 10
244.759346583864
 20
-271.5166309356227
 42
0.129760383588436
 10
263.4620353485125
 20
-205.950658597312
 42
0.009633426956377282
  0
CIRCLE
  5
78
100
AcDbEntity
  8
0
  6
ByLayer
 62
  256
370
   -1
100
AcDbCircle
 10
-4.483714527105063
 20
-64.32416513229123
 40
17.78329203421276
  0
CIRCLE
  5
79
100
AcDbEntity
  8
0
  6
ByLayer
 62
  256
370
   -1
100
AcDbCircle
 10
-4.483714527105063
 20
-64.32416513229123
 40
12.17367050673215
  0
LWPOLYLINE
  5
7A
100
AcDbEntity
  8
0
  6
ByLayer
 62
  256
370
   -1
100
AcDbPolyline
 90
   16
 70
    1
 43
0
 10
278.459097648331
 20
-206.2475127287683
 42
0.129760383588436
 10
260.5584114133194
 20
-132.552429862891
 42
0.1064259049356937
 10
200.7230037726395
 20
-62.71523350682511
 42
0.08443061466747816
 10
115.7824108209654
 20
-18.29306834513335
 42
0.07353418054424028
 10
7.43238905602164
 20
-0.07355171569207641
 42
0.07353418054423927
 10
-101.5537583250549
 20
-13.99108316722976
 42
0.08443061466747694
 10
-188.1857258799613
 20
-55.01711497875581
 42
0.1064259049356941
 10
-250.7379171912882
 20
-122.4317525922094
 42
0.1297603835884363
 10
-271.5409023516689
 20
-195.3607291016176
 42
0.1297603835884346
 10
-253.640216116658
 20
-269.0558119674938
 42
0.1064259049356949
 10
-193.8048084759778
 20
-338.8930083235609
 42
0.08443061466747738
 10
-108.8642155243037
 20
-383.3151734852527
 42
0.07353418054424039
 10
-0.5141937593599062
 20
-401.5346901146938
 42
0.07353418054424062
 10
108.4719536217177
 20
-387.6171586631555
 42
0.08443061466747559
 10
195.1039211766233
 20
-346.5911268516302
 42
0.1064259049356938
 10
257.6561124879501
 20
-279.1764892381769
 42
0.1297603835884367
  0
ENDBLK
  5
68
330
66
100
AcDbEntity
  8
0
100
AcDbBlockEnd
  0
BLOCK
  5
6A
330
69
100
AcDbEntity
  8
0
100
AcDbBlockBegin
  2
A$C43EB1948
 70
    0
 10
0
 20
0
  3
A$C43EB1948
  1

  0
ARC
  5
7B
100
AcDbEntity
  8
A-FURN-.18
  6
ByLayer
 62
  256
370
   -1
100
AcDbCircle
 10
5.969658700887521
 20
22.00930768379021
 40
0.3788245955878907
100
AcDbArc
 50
95.81206685409107
 51
180.0000000198019
  0
ARC
  5
7C
100
AcDbEntity
  8
A-FURN-.18
  6
ByLayer
 62
  256
370
   -1
100
AcDbCircle
 10
20.17558103542979
 20
22.00930768782473
 40
0.3788245955878907
100
AcDbArc
 50
1.99060994e-08
 51
84.18793317943103
  0
LWPOLYLINE
  5
7D
100
AcDbEntity
  8
A-FURN-.18
  6
ByLayer
 62
  256
370
   -1
100
AcDbPolyline
 90
    6
 70
    1
 43
0
 10
11.1784968935026
 20
10.41767288093524
 10
11.17849689291324
 20
12.50120815666651
 42
-0.414213562373095
 10
13.07261987030506
 20
14.39533113514244
 10
13.07261987030506
 20
14.39533113514244
 42
-0.4142135623730951
 10
14.96674284878099
 20
12.50120815774335
 10
14.96674284937762
 20
10.41767288201026
  0
LINE
  5
7E
100
AcDbEntity
  8
A-FURN-.18
  6
ByLayer
 62
  256
370
   -1
100
AcDbLine
 10
14.96674284937762
 20
10.41767288201026
 11
11.1784968935026
 21
10.41767288093524
  0
LWPOLYLINE
  5
7F
100
AcDbEntity
  8
A-FURN-.18
  6
ByLayer
 62
  256
370
   -1
100
AcDbPolyline
 90
    8
 70
    1
 43
0
 10
7.579663234653706
 20
13.06944504902367
 10
7.579663233475001
 20
17.23651560049165
 42
-0.4142135623730875
 10
11.55732148601964
 20
21.21417385529367
 10
14.58791825071967
 20
21.21417385615587
 42
-0.4142135623730951
 10
18.56557650551986
 20
17.23651560361122
 10
18.56557650670584
 20
13.06944505214687
 42
-0.414213562373095
 10
14.20909365868283
 20
8.712962201646404
 10
11.93614608515781
 20
8.712962201000664
 42
-0.4142135623730836
  0
LWPOLYLINE
  5
80
100
AcDbEntity
  8
A-FURN-.18
  6
ByLayer
 62
  256
370
   -1
100
AcDbPolyline
 90
    8
 70
    1
 43
0
 10
8.1479001280386
 20
13.06944504918738
 10
8.147900126845343
 20
17.23651560065536
 42
-0.4142135623730863
 10
11.55732148617971
 20
20.64593696191059
 10
14.58791825088701
 20
20.64593696277825
 42
-0.4142135623730955
 10
17.99733961214224
 20
17.23651560345115
 10
17.99733961332094
 20
13.06944505198498
 42
-0.414213562373095
 10
14.20909365852276
 20
9.281199095029478
 10
11.93614608499774
 20
9.281199094385558
 42
-0.414213562373082
  0
CIRCLE
  5
81
100
AcDbEntity
  8
A-FURN-.18
  6
ByLayer
 62
  256
370
   -1
100
AcDbCircle
 10
15.91380433952145
 20
1.826932115859563
 40
0.3788245955878907
  0
CIRCLE
  5
82
100
AcDbEntity
  8
A-FURN-.18
  6
ByLayer
 62
  256
370
   -1
100
AcDbCircle
 10
10.23143540570891
 20
1.826932114246119
 40
0.3788245955878907
  0
ARC
  5
83
100
AcDbEntity
  8
A-FURN-.18
  6
ByLayer
 62
  256
370
   -1
100
AcDbCircle
 10
20.17558104030468
 20
0.378821102337497
 40
0.3788245955878907
100
AcDbArc
 50
270.0000000200103
 51
1.99060994e-08
  0
ARC
  5
84
100
AcDbEntity
  8
A-FURN-.18
  6
ByLayer
 62
  256
370
   -1
100
AcDbCircle
 10
5.969658705755136
 20
0.3788210983011595
 40
0.3788245955878907
100
AcDbArc
 50
180.0000000198019
 51
270.0000000200103
  0
LINE
  5
85
100
AcDbEntity
  8
A-FURN-.18
  6
ByLayer
 62
  256
370
   -1
100
AcDbLine
 10
6.584048448450628
 20
-3.4971099012e-06
 11
5.969658705871552
 21
-3.4972863432e-06
  0
LINE
  5
86
100
AcDbEntity
  8
A-FURN-.18
  6
ByLayer
 62
  256
370
   -1
100
AcDbLine
 10
20.17558104040654
 20
-3.4932500057e-06
 11
19.56119129782746
 21
-3.4934282667e-06
  0
LINE
  5
87
100
AcDbEntity
  8
A-FURN-.18
  6
ByLayer
 62
  256
370
   -1
100
AcDbLine
 10
20.55440563101729
 20
22.00930768793387
 11
20.5544056358849
 21
0.3788211024429984
  0
LINE
  5
88
100
AcDbEntity
  8
A-FURN-.18
  6
ByLayer
 62
  256
370
   -1
100
AcDbLine
 10
5.590834110167633
 20
0.3788210981974771
 11
5.590834105285463
 21
22.00930768368471
  0
LINE
  5
89
100
AcDbEntity
  8
A-FURN-.18
  6
ByLayer
 62
  256
370
   -1
100
AcDbLine
 10
22.20351360783388
 20
1.894119487037638
 11
22.20351360783388
 21
2.367650231520201
  0
LWPOLYLINE
  5
8A
100
AcDbEntity
  8
A-FURN-.18
  6
ByLayer
 62
  256
370
   -1
100
AcDbPolyline
 90
    4
 70
    1
 43
0
 10
23.15057509681356
 20
2.594944988874885
 10
23.15057509681356
 20
2.367650231520201
 10
22.20351360783388
 20
2.367650231520201
 10
22.20351360783388
 20
2.594944988874885
  0
SPLINE
  5
8B
100
AcDbEntity
  8
A-FURN-.18
  6
ByLayer
 62
  256
370
   -1
100
AcDbSpline
210
0
220
0
230
0
 70
    8
 71
    3
 72
   46
 73
   42
 74
    0
 42
1e-07
 43
1e-07
 40
121.4437159372573
 40
121.4437159372573
 40
121.4437159372573
 40
121.4437159372573
 40
122.913121276948
 40
122.913121276948
 40
125.8519319563295
 40
125.8519319563295
 40
131.3292019085672
 40
131.3292019085672
 40
136.8064718608049
 40
136.8064718608049
 40
142.2837418130426
 40
142.2837418130426
 40
143.5610193085931
 40
143.5610193085931
 40
144.8382968041436
 40
144.8382968041436
 40
147.3928517952447
 40
147.3928517952447
 40
152.5019617774468
 40
152.5019617774468
 40
157.611071759649
 40
157.611071759649
 40
163.583187743293
 40
163.583187743293
 40
169.555303726937
 40
169.555303726937
 40
174.2273510343153
 40
174.2273510343153
 40
176.4614881577385
 40
176.4614881577385
 40
178.0423113988752
 40
178.0423113988752
 40
181.9288300036615
 40
181.9288300036615
 40
187.9114221726437
 40
187.9114221726437
 40
193.8940143416259
 40
193.8940143416259
 40
199.8766065106082
 40
199.8766065106082
 40
208.1424458929617
 40
208.1424458929617
 40
208.1424458929617
 40
208.1424458929617
 10
25.68104912459239
 20
2.817499593976208
 30
0
 10
25.66655575687037
 20
2.806837875633391
 30
0
 10
25.65134316283366
 20
2.795857452539166
 30
0
 10
25.60383853418171
 20
2.762077256961674
 30
0
 10
25.56968568119192
 20
2.738447395832733
 30
0
 10
25.46674794459978
 20
2.66806608040224
 30
0
 10
25.39356925217726
 20
2.619019755408769
 30
0
 10
25.24233144605387
 20
2.514493700256025
 30
0
 10
25.16425104116206
 20
2.459014520788513
 30
0
 10
25.00948671167862
 20
2.339777543632408
 30
0
 10
24.93275657031336
 20
2.276074161881294
 30
0
 10
24.84264399576932
 20
2.189647095964573
 30
0
 10
24.82579030282796
 20
2.17293410782713
 30
0
 10
24.79263044414984
 20
2.138765926873928
 30
0
 10
24.7765685583654
 20
2.12156437044632
 30
0
 10
24.72988271877694
 20
2.069712302210064
 30
0
 10
24.70076134456758
 20
2.034815184043508
 30
0
 10
24.61886550183408
 20
1.929969271169284
 30
0
 10
24.57157972468849
 20
1.859896767232384
 30
0
 10
24.48794558356167
 20
1.72333662501569
 30
0
 10
24.45156243324891
 20
1.656843924983149
 30
0
 10
24.38023224844801
 20
1.519840429470604
 30
0
 10
24.34651179274806
 20
1.450542007670264
 30
0
 10
24.28355883769109
 20
1.324996120020839
 30
0
 10
24.25430782625336
 20
1.268794849441289
 30
0
 10
24.20380315004877
 20
1.182771722626964
 30
0
 10
24.18225313000585
 20
1.149893908916965
 30
0
 10
24.15086644561962
 20
1.108229698643299
 30
0
 10
24.14078640106891
 20
1.095807640786915
 30
0
 10
24.12357687346958
 20
1.076189957136193
 30
0
 10
24.11653796906467
 20
1.068622087718722
 30
0
 10
24.09048098096537
 20
1.042211710519949
 30
0
 10
24.06948715767794
 20
1.023612047313689
 30
0
 10
24.00917778328585
 20
0.9767774963393094
 30
0
 10
23.96603065022646
 20
0.9487898670713548
 30
0
 10
23.86706743970717
 20
0.8945750593402408
 30
0
 10
23.81130938701244
 20
0.8683813271627514
 30
0
 10
23.68946267691354
 20
0.8181737106215223
 30
0
 10
23.62340265656531
 20
0.794153870970149
 30
0
 10
23.45696224694984
 20
0.7388751574408161
 30
0
 10
23.35314639160788
 20
0.7083780132206812
 30
0
 10
23.24528124570497
 20
0.6777334942062228
 30
0
  0
SPLINE
  5
8C
100
AcDbEntity
  8
A-FURN-.18
  6
ByLayer
 62
  256
370
   -1
100
AcDbSpline
210
0
220
0
230
0
 70
    8
 71
    3
 72
   46
 73
   42
 74
    0
 42
1e-07
 43
1e-07
 40
13.47239883086216
 40
13.47239883086216
 40
13.47239883086216
 40
13.47239883086216
 40
20.10670632771559
 40
20.10670632771559
 40
31.77658595141779
 40
31.77658595141779
 40
40.25618030300485
 40
40.25618030300485
 40
43.08742130838553
 40
43.08742130838553
 40
44.98707743484875
 40
44.98707743484875
 40
46.83917962911296
 40
46.83917962911296
 40
48.69128182337715
 40
48.69128182337715
 40
52.39548621190555
 40
52.39548621190555
 40
56.09969060043395
 40
56.09969060043395
 40
59.80389498896236
 40
59.80389498896236
 40
63.50809937749072
 40
63.50809937749072
 40
67.21230376601913
 40
67.21230376601913
 40
70.91650815454753
 40
70.91650815454753
 40
71.90638050946656
 40
71.90638050946656
 40
72.8962528643856
 40
72.8962528643856
 40
74.8759975742237
 40
74.8759975742237
 40
79.13616046350003
 40
79.13616046350003
 40
83.39632335277634
 40
83.39632335277634
 40
87.65648624205269
 40
87.65648624205269
 40
89.35570333177392
 40
89.35570333177392
 40
89.35570333177392
 40
89.35570333177392
 10
23.29993929617194
 20
1.667193582346043
 30
0
 10
23.3882043896374
 20
1.693242007048865
 30
0
 10
23.47665872620564
 20
1.721391838097588
 30
0
 10
23.71982855339593
 20
1.80759632338686
 30
0
 10
23.87399773504149
 20
1.872160526040715
 30
0
 10
24.13221346455248
 20
2.011241496248658
 30
0
 10
24.23842098931345
 20
2.07827516672205
 30
0
 10
24.37363802751497
 20
2.182051446360674
 30
0
 10
24.40693734486558
 20
2.209222624073845
 30
0
 10
24.46148192698456
 20
2.256722829280079
 30
0
 10
24.48308804575209
 20
2.276361166449529
 30
0
 10
24.52510685924063
 20
2.31628987197746
 30
0
 10
24.54562590266869
 20
2.336690354449268
 30
0
 10
24.58457478576747
 20
2.376909400375549
 30
0
 10
24.60320487128047
 20
2.396883020931454
 30
0
 10
24.65700937848306
 20
2.455971067346581
 30
0
 10
24.69012383084919
 20
2.494243448964879
 30
0
 10
24.75267712515779
 20
2.566667943764513
 30
0
 10
24.78211546856619
 20
2.600821667499076
 30
0
 10
24.83835291992
 20
2.66342967069522
 30
0
 10
24.86514332453953
 20
2.691869172832412
 30
0
 10
24.916430603771
 20
2.741937082465481
 30
0
 10
24.94089560505381
 20
2.763543220792598
 30
0
 10
24.98772745067254
 20
2.799911403438271
 30
0
 10
25.0100339282435
 20
2.814683640518524
 30
0
 10
25.05400714628922
 20
2.838805842450708
 30
0
 10
25.07565770549991
 20
2.848238294461225
 30
0
 10
25.10537813915289
 20
2.857739663556457
 30
0
 10
25.11182757908682
 20
2.859616570615798
 30
0
 10
25.1258262951742
 20
2.863286266786417
 30
0
 10
25.13326824821707
 20
2.865045414581798
 30
0
 10
25.15681026288075
 20
2.869998145003591
 30
0
 10
25.17412754698308
 20
2.87286072106599
 30
0
 10
25.23277998490812
 20
2.879944039736983
 30
0
 10
25.27878062681703
 20
2.881853531574051
 30
0
 10
25.37605461308704
 20
2.878787572372856
 30
0
 10
25.42733027625218
 20
2.873855905007983
 30
0
 10
25.52904190678237
 20
2.857962133656656
 30
0
 10
25.5794986865294
 20
2.84700370034352
 30
0
 10
25.64533130153723
 20
2.828775311553726
 30
0
 10
25.66356113721122
 20
2.823254160853137
 30
0
 10
25.68104912459239
 20
2.817499593976208
 30
0
  0
SPLINE
  5
8D
100
AcDbEntity
  8
A-FURN-.18
  6
ByLayer
 62
  256
370
   -1
100
AcDbSpline
210
0
220
0
230
0
 70
    8
 71
    3
 72
   13
 73
    9
 74
    0
 42
1e-07
 43
1e-07
 40
16.79224162487785
 40
16.79224162487785
 40
16.79224162487785
 40
16.79224162487785
 40
45.82020393709488
 40
71.19732002645405
 40
103.7656894812058
 40
143.5267816238351
 40
177.2646239263269
 40
210.7341166145659
 40
210.7341166145659
 40
210.7341166145659
 40
210.7341166145659
 10
23.31659703131299
 20
2.068664175000774
 30
0
 10
23.67488055313152
 20
2.183826104364015
 30
0
 10
24.29663087605877
 20
2.470552581628908
 30
0
 10
24.88379872063524
 20
3.508459767598651
 30
0
 10
26.94501689108438
 20
2.892670742655353
 30
0
 10
24.81812634009112
 20
2.048942159347459
 30
0
 10
24.58668072803266
 20
0.6614000847030184
 30
0
 10
23.69122259288997
 20
0.4095414531757342
 30
0
 10
23.24528124570497
 20
0.2841149557871176
 30
0
  0
LINE
  5
8E
100
AcDbEntity
  8
A-FURN-.18
  6
ByLayer
 62
  256
370
   -1
100
AcDbLine
 10
22.10880745894247
 20
0.9470579980670663
 11
23.24528124570497
 21
0.9470579980670663
  0
LINE
  5
8F
100
AcDbEntity
  8
A-FURN-.18
  6
ByLayer
 62
  256
370
   -1
100
AcDbLine
 10
22.10880745894247
 20
1.552651611088549
 11
22.10880745894247
 21
-3.4909035094e-06
  0
LINE
  5
90
100
AcDbEntity
  8
A-FURN-.18
  6
ByLayer
 62
  256
370
   -1
100
AcDbLine
 10
23.24528124570497
 20
1.552651611088549
 11
23.24528124570497
 21
-3.4909035094e-06
  0
ARC
  5
91
100
AcDbEntity
  8
A-FURN-.18
  6
ByLayer
 62
  256
370
   -1
100
AcDbCircle
 10
22.67704435232008
 20
1.894119487037638
 40
0.6629430422788088
100
AcDbArc
 50
134.4153085971705
 51
45.58469140282944
  0
CIRCLE
  5
92
100
AcDbEntity
  8
A-FURN-.18
  6
ByLayer
 62
  256
370
   -1
100
AcDbCircle
 10
22.67704435232008
 20
1.894119487037638
 40
0.4735307444848635
  0
LWPOLYLINE
  5
93
100
AcDbEntity
  8
A-FURN-.18
  6
ByLayer
 62
  256
370
   -1
100
AcDbPolyline
 90
    4
 70
    1
 43
0
 10
-4.0889935917e-06
 20
0.2272912693069884
 10
-4.0889935917e-06
 20
-3.488045877e-06
 10
4.54589105805644
 20
-3.488045877e-06
 10
4.54589105805644
 20
0.2272912693069884
  0
LWPOLYLINE
  5
94
100
AcDbEntity
  8
A-FURN-.18
  6
ByLayer
 62
  256
370
   -1
100
AcDbPolyline
 90
    4
 70
    1
 43
0
 10
0.3788205065720831
 20
2.954828333596196
 10
0.3788205065720831
 20
2.197179142417553
 10
4.54589105805644
 20
2.197179142417553
 10
4.54589105805644
 20
2.954828333596196
  0
LWPOLYLINE
  5
95
100
AcDbEntity
  8
A-FURN-.18
  6
ByLayer
 62
  256
370
   -1
100
AcDbPolyline
 90
    4
 70
    1
 43
0
 10
4.167066462461662
 20
4.470126715948025
 10
0.3788205065720831
 20
4.470126715948025
 10
0.3788205065720831
 20
0.6818807600657238
 10
4.167066462461662
 20
0.6818807600657238
  0
LWPOLYLINE
  5
96
100
AcDbEntity
  8
A-FURN-.18
  6
ByLayer
 62
  256
370
   -1
100
AcDbPolyline
 90
    4
 70
    1
 43
0
 10
0.3788205065720831
 20
0.1136438906296462
 10
0.3788205065720831
 20
3.996595971460008
 10
-4.0889935917e-06
 20
3.996595971460008
 10
-4.0889935917e-06
 20
0.1136438906296462
  0
LINE
  5
97
100
AcDbEntity
  8
A-FURN-.18
  6
ByLayer
 62
  256
370
   -1
100
AcDbLine
 10
19.56119129782746
 20
-3.4934282667e-06
 11
6.584048448450628
 21
-3.4971099012e-06
  0
LINE
  5
98
100
AcDbEntity
  8
A-FURN-.18
  6
ByLayer
 62
  256
370
   -1
100
AcDbLine
 10
5.931296716385986
 20
22.38618489505006
 11
20.21394301969122
 21
22.38618489911005
  0
LINE
  5
99
100
AcDbEntity
  8
A-FURN-.18
  6
ByLayer
 62
  256
370
   -1
100
AcDbLine
 10
-4.0889935917e-06
 20
-3.488045877e-06
 11
23.24528124570497
 21
-3.4909035094e-06
  0
ENDBLK
  5
6B
330
69
100
AcDbEntity
  8
0
100
AcDbBlockEnd
  0
BLOCK
  5
6D
330
6C
100
AcDbEntity
  8
0
100
AcDbBlockBegin
  2
Window
 70
    0
 10
0
 20
0
  3
Window
  1

  0
LINE
  5
9A
100
AcDbEntity
  8
PP-Window
  6
ByLayer
 62
  256
370
   -1
100
AcDbLine
 10
4.6979484523e-05
 20
4.500024469402318
 11
18.00004697948452
 21
4.500024469402318
  0
LINE
  5
9B
100
AcDbEntity
  8
PP-Window
  6
ByLayer
 62
  256
370
   -1
100
AcDbLine
 10
18.00004697948452
 20
2.44694023195e-05
 11
4.6979484523e-05
 21
2.44694023195e-05
  0
LINE
  5
9C
100
AcDbEntity
  8
PP-Window
  6
ByLayer
 62
  256
370
   -1
100
AcDbLine
 10
18.00004697948452
 20
2.250024469402319
 11
4.6979484523e-05
 21
2.250024469402319
  0
LINE
  5
9D
100
AcDbEntity
  8
PP-Window
  6
ByLayer
 62
  256
370
   -1
100
AcDbLine
 10
18.00004697948452
 20
1.250024469402319
 11
4.6979484523e-05
 21
1.250024469402319
  0
LINE
  5
9E
100
AcDbEntity
  8
PP-Window
  6
ByLayer
 62
  256
370
   -1
100
AcDbLine
 10
18.00004697948452
 20
3.250024469402318
 11
4.6979484523e-05
 21
3.250024469402318
  0
ENDBLK
  5
6E
330
6C
100
AcDbEntity
  8
0
100
AcDbBlockEnd
  0
BLOCK
  5
70
330
6F
100
AcDbEntity
  8
0
100
AcDbBlockBegin
  2
Window 2
 70
    0
 10
0
 20
0
  3
Window 2
  1

  0
LINE
  5
9F
100
AcDbEntity
  8
PP-Window
  6
ByLayer
 62
  256
370
   -1
100
AcDbLine
 10
4.503281077861743
 20
-0.003272910115129
 11
4.503281077859466
 21
-18.00327291011513
  0
LINE
  5
A0
100
AcDbEntity
  8
PP-Window
  6
ByLayer
 62
  256
370
   -1
100
AcDbLine
 10
0.0032810778594694
 20
-18.00327291011456
 11
0.0032810778617431
 21
-0.0032729101145605
  0
LINE
  5
A1
100
AcDbEntity
  8
PP-Window
  6
ByLayer
 62
  256
370
   -1
100
AcDbLine
 10
2.253281077859469
 20
-18.00327291011489
 11
2.253281077861743
 21
-0.0032729101149016
  0
LINE
  5
A2
100
AcDbEntity
  8
PP-Window
  6
ByLayer
 62
  256
370
   -1
100
AcDbLine
 10
1.253281077859468
 20
-18.00327291011467
 11
1.253281077861742
 21
-0.0032729101146742
  0
LINE
  5
A3
100
AcDbEntity
  8
PP-Window
  6
ByLayer
 62
  256
370
   -1
100
AcDbLine
 10
3.253281077859468
 20
-18.00327291011501
 11
3.253281077861743
 21
-0.0032729101150153
  0
LINE
  5
A4
100
AcDbEntity
  8
PP-Window
  6
ByLayer
 62
  256
370
   -1
100
AcDbLine
 10
6.25060636408932
 20
-3.88117492776e-05
 11
6.250606364087047
 21
-18.00003881174928
  0
LINE
  5
A5
100
AcDbEntity
  8
PP-Window
  6
ByLayer
 62
  256
370
   -1
100
AcDbLine
 10
7.580249479751044
 20
-3.88117492776e-05
 11
7.580249479748772
 21
-18.00003881174928
  0
LINE
  5
A6
100
AcDbEntity
  8
PP-Window
  6
ByLayer
 62
  256
370
   -1
100
AcDbLine
 10
9.000046979497142
 20
-3.88117492776e-05
 11
9.000046979494867
 21
-18.00003881174928
  0
ENDBLK
  5
71
330
6F
100
AcDbEntity
  8
0
100
AcDbBlockEnd
  0
BLOCK
  5
73
330
72
100
AcDbEntity
  8
0
100
AcDbBlockBegin
  2
PP-Balcony Window
 70
    0
 10
0
 20
0
  3
PP-Balcony Window
  1

  0
LINE
  5
A7
100
AcDbEntity
  8
PP-Window
  6
ByLayer
 62
  256
370
   -1
100
AcDbLine
 10
651.2593243232345
 20
390.2943359928436
 11
770.7593243232345
 21
390.294335992839
  0
LINE
  5
A8
100
AcDbEntity
  8
PP-Window
  6
ByLayer
 62
  256
370
   -1
100
AcDbLine
 10
651.2593243232345
 20
399.2943359928426
 11
770.7593243232345
 21
399.2943359928408
  0
LINE
  5
A9
100
AcDbEntity
  8
PP-Window
  6
ByLayer
 62
  256
370
   -1
100
AcDbLine
 10
651.2593243232345
 20
394.7943359928431
 11
770.7593243232345
 21
394.7943359928414
  0
ENDBLK
  5
74
330
72
100
AcDbEntity
  8
0
100
AcDbBlockEnd
  0
ENDSEC
  0
SECTION
  2
ENTITIES
  0
LINE
  5
AA
100
AcDbEntity
  8
WALLS
  6
ByLayer
 62
  256
370
   -1
100
AcDbLine
 10
328.2593243232418
 20
537.2943359928408
 11
528.009324323249
 21
537.2943359928408
  0
LINE
  5
AB
100
AcDbEntity
  8
WALLS
  6
ByLayer
 62
  256
370
   -1
100
AcDbLine
 10
558.0093243232581
 20
537.2943359928425
 11
614.7593243232416
 21
537.2943359928425
  0
LINE
  5
AC
100
AcDbEntity
  8
WALLS
  6
ByLayer
 62
  256
370
   -1
100
AcDbLine
 10
337.2593243232491
 20
546.2943359928399
 11
528.009324323249
 21
546.2943359928399
  0
LINE
  5
AD
100
AcDbEntity
  8
WALLS
  6
ByLayer
 62
  256
370
   -1
100
AcDbLine
 10
558.0093243232436
 20
546.2943359928399
 11
614.7593243232416
 21
546.2943359928408
  0
LINE
  5
AE
100
AcDbEntity
  8
WALLS
  6
ByLayer
 62
  256
370
   -1
100
AcDbLine
 10
614.7593243232416
 20
441.2943359928418
 11
642.2593243232197
 21
441.2943359928418
  0
LINE
  5
AF
100
AcDbEntity
  8
WALLS
  6
ByLayer
 62
  256
370
   -1
100
AcDbLine
 10
646.7593243232197
 20
441.2943359928408
 11
661.2593243232416
 21
441.2943359928408
  0
LINE
  5
B0
100
AcDbEntity
  8
WALLS
  6
ByLayer
 62
  256
370
   -1
100
AcDbLine
 10
718.2593631349837
 20
441.2976170706998
 11
775.2593243232491
 21
441.2943359928408
  0
LINE
  5
B1
100
AcDbEntity
  8
WALLS
  6
ByLayer
 62
  256
370
   -1
100
AcDbLine
 10
619.2593243232416
 20
450.2943359928399
 11
661.2593243232345
 21
450.2943359928399
  0
LINE
  5
B2
100
AcDbEntity
  8
WALLS
  6
ByLayer
 62
  256
370
   -1
100
AcDbLine
 10
718.2593631349837
 20
450.2943829723352
 11
775.2593243232417
 21
450.2943359928399
  0
LINE
  5
B3
100
AcDbEntity
  8
WALLS
  6
ByLayer
 62
  256
370
   -1
100
AcDbLine
 10
661.2593243232272
 20
640.6019844537627
 11
679.2593243232345
 21
640.6019844537627
  0
LINE
  5
B4
100
AcDbEntity
  8
WALLS
  6
ByLayer
 62
  256
370
   -1
100
AcDbLine
 10
709.2593243232272
 20
640.6019844537627
 11
775.2593243232417
 21
640.6019844537627
  0
LINE
  5
B5
100
AcDbEntity
  8
WALLS
  6
ByLayer
 62
  256
370
   -1
100
AcDbLine
 10
614.7593243232345
 20
645.1019844537627
 11
619.2593243232416
 21
645.1019844537627
  0
LINE
  5
B6
100
AcDbEntity
  8
WALLS
  6
ByLayer
 62
  256
370
   -1
100
AcDbLine
 10
661.2593243232345
 20
645.1019844537627
 11
674.7593243232345
 21
645.1019844537627
  0
LINE
  5
B7
100
AcDbEntity
  8
WALLS
  6
ByLayer
 62
  256
370
   -1
100
AcDbLine
 10
709.2593243232345
 20
645.1019844537627
 11
775.2593243232417
 21
645.1019844537627
  0
LINE
  5
B8
100
AcDbEntity
  8
WALLS
  6
ByLayer
 62
  256
370
   -1
100
AcDbLine
 10
679.2593243232345
 20
718.7943359928397
 11
754.2593243232345
 21
718.7943359928397
  0
LINE
  5
B9
100
AcDbEntity
  8
WALLS
  6
ByLayer
 62
  256
370
   -1
100
AcDbLine
 10
772.2593243232345
 20
718.7943359928397
 11
775.2593243232417
 21
718.7943359928397
  0
LINE
  5
BA
100
AcDbEntity
  8
WALLS
  6
ByLayer
 62
  256
370
   -1
100
AcDbLine
 10
674.7593243232272
 20
723.2943359928398
 11
746.7593243232272
 21
723.2943359928418
  0
LINE
  5
BB
100
AcDbEntity
  8
WALLS
  6
ByLayer
 62
  256
370
   -1
100
AcDbLine
 10
751.2593243232345
 20
723.2943359928418
 11
754.2593243232417
 21
723.2943359928418
  0
LINE
  5
BC
100
AcDbEntity
  8
WALLS
  6
ByLayer
 62
  256
370
   -1
100
AcDbLine
 10
772.2593243232345
 20
723.2943359928398
 11
775.2593243232345
 21
723.2943359928398
  0
LINE
  5
BD
100
AcDbEntity
  8
WALLS
  6
ByLayer
 62
  256
370
   -1
100
AcDbLine
 10
554.7593243232636
 20
823.7943359928381
 11
559.259324323249
 21
823.7943359928397
  0
LINE
  5
BE
100
AcDbEntity
  8
WALLS
  6
ByLayer
 62
  256
370
   -1
100
AcDbLine
 10
784.2593243232562
 20
390.2943359928418
 11
784.2593243232417
 21
981.2943359928342
  0
LINE
  5
BF
100
AcDbEntity
  8
WALLS
  6
ByLayer
 62
  256
370
   -1
100
AcDbLine
 10
642.2593243232345
 20
390.2943359928427
 11
642.2593243232197
 21
441.2943359928408
  0
LINE
  5
C0
100
AcDbEntity
  8
WALLS
  6
ByLayer
 62
  256
370
   -1
100
AcDbLine
 10
646.7593243232345
 20
399.2943359928426
 11
646.7593243232197
 21
441.2943359928418
  0
LINE
  5
C1
100
AcDbEntity
  8
WALLS
  6
ByLayer
 62
  256
370
   -1
100
AcDbLine
 10
651.2593243232345
 20
390.2943359928436
 11
651.2593243232345
 21
399.2943359928426
  0
LINE
  5
C2
100
AcDbEntity
  8
WALLS
  6
ByLayer
 62
  256
370
   -1
100
AcDbLine
 10
775.2593243232562
 20
399.2943359928426
 11
775.2593243232562
 21
441.2943359928389
  0
LINE
  5
C3
100
AcDbEntity
  8
WALLS
  6
ByLayer
 62
  256
370
   -1
100
AcDbLine
 10
775.2593243232491
 20
450.2943359928399
 11
775.2593243232345
 21
640.6019844537609
  0
LINE
  5
C4
100
AcDbEntity
  8
WALLS
  6
ByLayer
 62
  256
370
   -1
100
AcDbLine
 10
775.2593243232345
 20
645.1019844537627
 11
775.2593243232345
 21
718.7943359928397
  0
LINE
  5
C5
100
AcDbEntity
  8
WALLS
  6
ByLayer
 62
  256
370
   -1
100
AcDbLine
 10
775.2593243232345
 20
723.2943359928398
 11
775.2593243232345
 21
777.2943359928398
  0
LINE
  5
C6
100
AcDbEntity
  8
WALLS
  6
ByLayer
 62
  256
370
   -1
100
AcDbLine
 10
751.2593243232343
 20
752.8070568357736
 11
751.2593243232345
 21
777.2943359928398
  0
LINE
  5
C7
100
AcDbEntity
  8
WALLS
  6
ByLayer
 62
  256
370
   -1
100
AcDbLine
 10
746.7593243232343
 20
752.8070568357736
 11
746.7593243232345
 21
777.2943359928398
  0
LINE
  5
C8
100
AcDbEntity
  8
WALLS
  6
ByLayer
 62
  256
370
   -1
100
AcDbLine
 10
775.2593243232345
 20
781.7943359928398
 11
775.2593243232272
 21
882.2943359928327
  0
LINE
  5
C9
100
AcDbEntity
  8
WALLS
  6
ByLayer
 62
  256
370
   -1
100
AcDbLine
 10
775.2593243232309
 20
886.7943359928389
 11
775.2593243232197
 21
972.2943359928325
  0
LINE
  5
CA
100
AcDbEntity
  8
WALLS
  6
ByLayer
 62
  256
370
   -1
100
AcDbLine
 10
679.2593243232345
 20
640.6019844537609
 11
679.2593243232345
 21
718.7943359928397
  0
LINE
  5
CB
100
AcDbEntity
  8
WALLS
  6
ByLayer
 62
  256
370
   -1
100
AcDbLine
 10
709.2593243232345
 20
640.6019844537609
 11
709.2593243232272
 21
645.1019844537609
  0
LINE
  5
CC
100
AcDbEntity
  8
WALLS
  6
ByLayer
 62
  256
370
   -1
100
AcDbLine
 10
674.7593243232345
 20
645.1019844537587
 11
674.7593243232345
 21
723.2943359928418
  0
LINE
  5
CD
100
AcDbEntity
  8
WALLS
  6
ByLayer
 62
  256
370
   -1
100
AcDbLine
 10
674.7593243232345
 20
777.2943359928418
 11
674.7593243232345
 21
781.7943359928418
  0
LINE
  5
CE
100
AcDbEntity
  8
WALLS
  6
ByLayer
 62
  256
370
   -1
100
AcDbLine
 10
619.2593243232416
 20
450.2943359928345
 11
619.2593243232344
 21
645.1019844537627
  0
LINE
  5
CF
100
AcDbEntity
  8
WALLS
  6
ByLayer
 62
  256
370
   -1
100
AcDbLine
 10
661.2593243232272
 20
640.6019844537627
 11
661.2593243232345
 21
645.1019844537645
  0
LINE
  5
D0
100
AcDbEntity
  8
WALLS
  6
ByLayer
 62
  256
370
   -1
100
AcDbLine
 10
614.7593243232416
 20
441.2943359928418
 11
614.7593243232345
 21
537.2943359928408
  0
LINE
  5
D1
100
AcDbEntity
  8
WALLS
  6
ByLayer
 62
  256
370
   -1
100
AcDbLine
 10
614.7593243232416
 20
546.2943359928399
 11
614.7593243232345
 21
645.1019844537627
  0
LINE
  5
D2
100
AcDbEntity
  8
WALLS
  6
ByLayer
 62
  256
370
   -1
100
AcDbLine
 10
703.2593243232413
 20
781.7943359928398
 11
703.2593243232413
 21
823.7943359928397
  0
LINE
  5
D3
100
AcDbEntity
  8
0
  6
ByLayer
 62
  256
370
   -1
100
AcDbLine
 10
679.2593243232417
 20
781.7943359928398
 11
679.2593243232417
 21
823.7943359928397
  0
LINE
  5
D4
100
AcDbEntity
  8
WALLS
  6
ByLayer
 62
  256
370
   -1
100
AcDbLine
 10
703.2593243232562
 20
828.2943359928397
 11
703.2593243232562
 21
912.2943359928372
  0
LINE
  5
D5
100
AcDbEntity
  8
WALLS
  6
ByLayer
 62
  256
370
   -1
100
AcDbLine
 10
707.7593243232491
 20
781.7943359928398
 11
707.7593243232236
 21
912.2943359928379
  0
LINE
  5
D6
100
AcDbEntity
  8
WALLS
  6
ByLayer
 62
  256
370
   -1
100
AcDbLine
 10
737.7593243232236
 20
882.2943359928259
 11
737.7593243232236
 21
886.7943359928363
  0
LINE
  5
D7
100
AcDbEntity
  8
WALLS
  6
ByLayer
 62
  256
370
   -1
100
AcDbLine
 10
559.259324323249
 20
823.7943359928397
 11
559.259324323249
 21
981.2943359928436
  0
LINE
  5
D8
100
AcDbEntity
  8
WALLS
  6
ByLayer
 62
  256
370
   -1
100
AcDbLine
 10
601.259324323249
 20
823.7943359928397
 11
601.259324323249
 21
828.2943359928397
  0
LINE
  5
D9
100
AcDbEntity
  8
WALLS
  6
ByLayer
 62
  256
370
   -1
100
AcDbLine
 10
554.7593243232636
 20
823.7943359928381
 11
554.7593243232491
 21
876.2943359928526
  0
LINE
  5
DA
100
AcDbEntity
  8
WALLS
  6
ByLayer
 62
  256
370
   -1
100
AcDbLine
 10
554.7593243232491
 20
880.7943359928527
 11
554.7593243232345
 21
972.2943359928398
  0
LINE
  5
DB
100
AcDbEntity
  8
WALLS
  6
ByLayer
 62
  256
370
   -1
100
AcDbLine
 10
784.2593243232417
 20
981.2943359928342
 11
601.259324323249
 21
981.2943359928418
  0
LINE
  5
DC
100
AcDbEntity
  8
WALLS
  6
ByLayer
 62
  256
370
   -1
100
AcDbLine
 10
559.259324323249
 20
981.2943359928436
 11
505.2593238816323
 21
981.2882305859977
  0
LINE
  5
DD
100
AcDbEntity
  8
WALLS
  6
ByLayer
 62
  256
370
   -1
100
AcDbLine
 10
487.2593243232564
 20
981.2943359928436
 11
482.7593243232491
 21
981.2943359928436
  0
LINE
  5
DE
100
AcDbEntity
  8
WALLS
  6
ByLayer
 62
  256
370
   -1
100
AcDbLine
 10
464.7593247648727
 20
981.2882305859977
 11
328.2593243232491
 21
981.2943359928508
  0
LINE
  5
DF
100
AcDbEntity
  8
WALLS
  6
ByLayer
 62
  256
370
   -1
100
AcDbLine
 10
775.2593243232197
 20
972.2943359928325
 11
601.259324323249
 21
972.2943359928418
  0
LINE
  5
E0
100
AcDbEntity
  8
WALLS
  6
ByLayer
 62
  256
370
   -1
100
AcDbLine
 10
554.7593243232345
 20
972.2943359928398
 11
505.2645509073291
 21
972.2943359928418
  0
LINE
  5
E1
100
AcDbEntity
  8
WALLS
  6
ByLayer
 62
  256
370
   -1
100
AcDbLine
 10
464.7540977391763
 20
972.2943359928436
 11
337.2593243232418
 21
972.2943359928436
  0
LINE
  5
E2
100
AcDbEntity
  8
WALLS
  6
ByLayer
 62
  256
370
   -1
100
AcDbLine
 10
703.2593243232562
 20
828.2943359928397
 11
601.259324323249
 21
828.2943359928397
  0
LINE
  5
E3
100
AcDbEntity
  8
WALLS
  6
ByLayer
 62
  256
370
   -1
100
AcDbLine
 10
703.2593243232413
 20
823.7943359928397
 11
601.259324323249
 21
823.7943359928397
  0
LINE
  5
E4
100
AcDbEntity
  8
WALLS
  6
ByLayer
 62
  256
370
   -1
100
AcDbLine
 10
775.2593243232417
 20
781.7943359928398
 11
772.2593243232345
 21
781.7943359928398
  0
LINE
  5
E5
100
AcDbEntity
  8
WALLS
  6
ByLayer
 62
  256
370
   -1
100
AcDbLine
 10
754.2593243232345
 20
781.7943359928398
 11
707.7593243232491
 21
781.7943359928398
  0
LINE
  5
E6
100
AcDbEntity
  8
WALLS
  6
ByLayer
 62
  256
370
   -1
100
AcDbLine
 10
703.2593243232413
 20
781.7943359928418
 11
674.7593243232345
 21
781.7943359928398
  0
LINE
  5
E7
100
AcDbEntity
  8
WALLS
  6
ByLayer
 62
  256
370
   -1
100
AcDbLine
 10
775.2593243232417
 20
777.2943359928398
 11
772.2593243232345
 21
777.2943359928398
  0
LINE
  5
E8
100
AcDbEntity
  8
WALLS
  6
ByLayer
 62
  256
370
   -1
100
AcDbLine
 10
746.7593243232345
 20
777.2943359928418
 11
674.7593243232345
 21
777.2943359928418
  0
LINE
  5
E9
100
AcDbEntity
  8
WALLS
  6
ByLayer
 62
  256
370
   -1
100
AcDbLine
 10
328.2593243232418
 20
537.2943359928408
 11
328.2593243232418
 21
981.2943359928526
  0
LINE
  5
EA
100
AcDbEntity
  8
WALLS
  6
ByLayer
 62
  256
370
   -1
100
AcDbLine
 10
337.2593243232491
 20
546.294335992839
 11
337.2593243232418
 21
823.7943359928362
  0
LINE
  5
EB
100
AcDbEntity
  8
WALLS
  6
ByLayer
 62
  256
370
   -1
100
AcDbLine
 10
337.2593243232418
 20
828.2943359928363
 11
337.2593243231981
 21
972.2943359928436
  0
LINE
  5
EC
100
AcDbEntity
  8
WALLS
  6
ByLayer
 62
  256
370
   -1
100
AcDbLine
 10
482.7593243232491
 20
981.2943359928436
 11
482.7593243232563
 21
876.2943359928526
  0
LINE
  5
ED
100
AcDbEntity
  8
WALLS
  6
ByLayer
 62
  256
370
   -1
100
AcDbLine
 10
487.2593243232564
 20
981.2943359928436
 11
487.2593243232564
 21
876.2943359928526
  0
LINE
  5
EE
100
AcDbEntity
  8
WALLS
  6
ByLayer
 62
  256
370
   -1
100
AcDbLine
 10
517.2593243232564
 20
880.7943359928527
 11
517.2593243232564
 21
876.2943359928545
  0
LINE
  5
EF
100
AcDbEntity
  8
WALLS
  6
ByLayer
 62
  256
370
   -1
100
AcDbLine
 10
512.7593243232781
 20
823.7943359928381
 11
337.2593243232345
 21
823.7943359928362
  0
LINE
  5
F0
100
AcDbEntity
  8
WALLS
  6
ByLayer
 62
  256
370
   -1
100
AcDbLine
 10
512.7593243232781
 20
828.2943359928397
 11
337.2593243232418
 21
828.2943359928363
  0
LINE
  5
F1
100
AcDbEntity
  8
WALLS
  6
ByLayer
 62
  256
370
   -1
100
AcDbLine
 10
482.7593243232563
 20
876.2943359928526
 11
487.2593243232564
 21
876.2943359928526
  0
LINE
  5
F2
100
AcDbEntity
  8
WALLS
  6
ByLayer
 62
  256
370
   -1
100
AcDbLine
 10
517.2593243232564
 20
876.2943359928526
 11
554.7593243232564
 21
876.2943359928526
  0
LINE
  5
F3
100
AcDbEntity
  8
WALLS
  6
ByLayer
 62
  256
370
   -1
100
AcDbLine
 10
517.2593243232564
 20
880.7943359928527
 11
554.7593243232564
 21
880.7943359928527
  0
LINE
  5
F4
100
AcDbEntity
  8
WALLS
  6
ByLayer
 62
  256
370
   -1
100
AcDbLine
 10
558.0093243232436
 20
537.2943359928431
 11
558.0093243232436
 21
546.2943359928413
  0
LINE
  5
F5
100
AcDbEntity
  8
WALLS
  6
ByLayer
 62
  256
370
   -1
100
AcDbLine
 10
528.009324323249
 20
537.2943359928408
 11
528.009324323249
 21
546.2943359928399
  0
LINE
  5
F6
100
AcDbEntity
  8
WALLS
  6
ByLayer
 62
  256
370
   -1
100
AcDbLine
 10
703.2593243232562
 20
912.2943359928372
 11
707.7593243232236
 21
912.2943359928372
  0
LINE
  5
F7
100
AcDbEntity
  8
WALLS
  6
ByLayer
 62
  256
370
   -1
100
AcDbLine
 10
737.7593243232197
 20
886.7943359928336
 11
775.2593243232309
 21
886.7943359928389
  0
LINE
  5
F8
100
AcDbEntity
  8
WALLS
  6
ByLayer
 62
  256
370
   -1
100
AcDbLine
 10
737.7593243232236
 20
882.2943359928259
 11
775.2593243232272
 21
882.2943359928327
  0
LINE
  5
F9
100
AcDbEntity
  8
WALLS
  6
ByLayer
 62
  256
370
   -1
100
AcDbLine
 10
718.2593631349837
 20
450.2943829723352
 11
718.2593631349837
 21
441.2943829723351
  0
LINE
  5
FA
100
AcDbEntity
  8
WALLS
  6
ByLayer
 62
  256
370
   -1
100
AcDbLine
 10
661.2593243232416
 20
450.2943359928399
 11
661.2593243232345
 21
441.2943359928426
  0
LINE
  5
FB
100
AcDbEntity
  8
WALLS
  6
ByLayer
 62
  256
370
   -1
100
AcDbLine
 10
700.2593631349838
 20
450.2943829723373
 11
700.2593631349768
 21
441.2943829723396
  0
INSERT
  5
FC
100
AcDbEntity
  8
PP-Door
  6
ByLayer
 62
  256
370
   -1
100
AcDbBlockReference
  2
DOOR
 10
3756.723792526415
 20
-6006.947900690483
 30
0
 41
-0.8536521891730274
 42
0.8536521891730274
 43
0
 50
180
 70
    1
 71
    1
 44
0
 45
0
  0
LINE
  5
FD
100
AcDbEntity
  8
WALLS
  6
ByLayer
 62
  256
370
   -1
100
AcDbLine
 10
642.2593243232345
 20
390.2943359928427
 11
651.2593243232345
 21
390.2943359928427
  0
LINE
  5
FE
100
AcDbEntity
  8
WALLS
  6
ByLayer
 62
  256
370
   -1
100
AcDbLine
 10
646.7593243232345
 20
399.2943359928418
 11
651.2593243232345
 21
399.2943359928418
  0
INSERT
  5
FF
100
AcDbEntity
  8
PP-Door
  6
ByLayer
 62
  256
370
   -1
100
AcDbBlockReference
  2
DOOR
 10
5139.459785044216
 20
9807.041531801893
 30
0
 41
1.195113119105514
 42
1.195113119105514
 43
0
 50
0
 70
    1
 71
    1
 44
0
 45
0
  0
INSERT
  5
100
100
AcDbEntity
  8
PP-Door
  6
ByLayer
 62
  256
370
   -1
100
AcDbBlockReference
  2
DOOR
 10
3907.973792524973
 20
-5903.640252226669
 30
0
 41
-0.8536521891726497
 42
0.8536521891726497
 43
0
 50
180
 70
    1
 71
    1
 44
0
 45
0
  0
INSERT
  5
101
100
AcDbEntity
  8
PP-Door
  6
ByLayer
 62
  256
370
   -1
100
AcDbBlockReference
  2
DOOR
 10
5079.459785044232
 20
-8338.145211355284
 30
0
 41
-1.195113119105514
 42
1.195113119105514
 43
0
 50
180
 70
    1
 71
    1
 44
0
 45
0
  0
LINE
  5
102
100
AcDbEntity
  8
WALLS
  6
ByLayer
 62
  256
370
   -1
100
AcDbLine
 10
512.7593243232781
 20
823.7943359928397
 11
512.7593243232781
 21
828.2943359928363
  0
INSERT
  5
103
100
AcDbEntity
  8
PP-Door
  6
ByLayer
 62
  256
370
   -1
100
AcDbBlockReference
  2
DOOR
 10
-3965.441136397704
 20
-8338.145211355284
 30
0
 41
1.195113119105514
 42
1.195113119105514
 43
0
 50
180
 70
    1
 71
    1
 44
0
 45
0
  0
LINE
  5
104
100
AcDbEntity
  8
0
  6
ByLayer
 62
  256
370
   -1
100
AcDbLine
 10
533.7593243232564
 20
880.7943359928527
 11
533.7593243232564
 21
911.2399262704043
  0
INSERT
  5
105
100
AcDbEntity
  8
Sink
  6
ByLayer
 62
  256
370
   -1
100
AcDbBlockReference
  2
basin2
 10
538.1950112774952
 20
895.370888823129
 30
0
 41
-0.031361660553783
 42
0.031361660553783
 43
0
 50
89.1722807946386
 70
    1
 71
    1
 44
0
 45
0
  0
LINE
  5
106
100
AcDbEntity
  8
0
  6
ByLayer
 62
  256
370
   -1
100
AcDbLine
 10
554.7593243232491
 20
911.2399262704043
 11
533.7593243232564
 21
911.2399262704043
  0
INSERT
  5
107
100
AcDbEntity
  8
PP-Door
  6
ByLayer
 62
  256
370
   -1
100
AcDbBlockReference
  2
DOOR
 10
3715.973792524995
 20
-5667.947900687579
 30
0
 41
-0.8536521891726497
 42
0.8536521891726497
 43
0
 50
180
 70
    1
 71
    1
 44
0
 45
0
  0
LINE
  5
108
100
AcDbEntity
  8
WALLS
  6
ByLayer
 62
  256
370
   -1
100
AcDbLine
 10
601.259324323249
 20
972.2943359928418
 11
601.259324323249
 21
981.2943359928398
  0
INSERT
  5
109
100
AcDbEntity
  8
PP-Door
  6
ByLayer
 62
  256
370
   -1
100
AcDbBlockReference
  2
DOOR
 10
3889.973792524981
 20
6994.536572673287
 30
0
 41
0.8536521891726497
 42
0.8536521891726497
 43
0
 50
0
 70
    1
 71
    1
 44
0
 45
0
  0
LINE
  5
10A
100
AcDbEntity
  8
WALLS
  6
ByLayer
 62
  256
370
   -1
100
AcDbLine
 10
505.2645509073291
 20
972.2914656214994
 11
505.2645509073291
 21
981.2914656215012
  0
LINE
  5
10B
100
AcDbEntity
  8
WALLS
  6
ByLayer
 62
  256
370
   -1
100
AcDbLine
 10
464.7540977391763
 20
972.2914656214994
 11
464.7540977391763
 21
981.2914656215033
  0
LINE
  5
10C
100
AcDbEntity
  8
WALLS
  6
ByLayer
 62
  256
370
   -1
100
AcDbLine
 10
772.2593243232345
 20
777.2943359928398
 11
772.2593243232345
 21
781.7943359928398
  0
LINE
  5
10D
100
AcDbEntity
  8
WALLS
  6
ByLayer
 62
  256
370
   -1
100
AcDbLine
 10
754.2593243232345
 20
777.2943359928398
 11
754.2593243232345
 21
781.7943359928398
  0
LINE
  5
10E
100
AcDbEntity
  8
WALLS
  6
ByLayer
 62
  256
370
   -1
100
AcDbLine
 10
772.2593243232345
 20
723.2943359928398
 11
772.2593243232345
 21
718.7943359928397
  0
LINE
  5
10F
100
AcDbEntity
  8
WALLS
  6
ByLayer
 62
  256
370
   -1
100
AcDbLine
 10
754.2593243232345
 20
723.2943359928398
 11
754.2593243232345
 21
718.7943359928397
  0
LINE
  5
110
100
AcDbEntity
  8
WALLS
  6
ByLayer
 62
  256
370
   -1
100
AcDbLine
 10
770.7593243232345
 20
390.29433599284
 11
784.2593243232417
 21
390.29433599284
  0
LINE
  5
111
100
AcDbEntity
  8
WALLS
  6
ByLayer
 62
  256
370
   -1
100
AcDbLine
 10
770.7593243232345
 20
390.2943359928445
 11
770.7593243232345
 21
399.2943359928436
  0
LINE
  5
112
100
AcDbEntity
  8
WALLS
  6
ByLayer
 62
  256
370
   -1
100
AcDbLine
 10
775.2593243232345
 20
399.2943359928426
 11
770.7593243232345
 21
399.2943359928426
  0
LINE
  5
113
100
AcDbEntity
  8
WALLS
  6
ByLayer
 62
  256
370
   -1
100
AcDbLine
 10
703.2593243232562
 20
912.2943359928372
 11
703.2593243232562
 21
939.1034808927782
  0
LINE
  5
114
100
AcDbEntity
  8
WALLS
  6
ByLayer
 62
  256
370
   -1
100
AcDbLine
 10
706.2593243232562
 20
912.2943359928372
 11
706.2593243232562
 21
939.1034808927782
  0
LINE
  5
115
100
AcDbEntity
  8
WALLS
  6
ByLayer
 62
  256
370
   -1
100
AcDbLine
 10
703.2593243232562
 20
939.1034808927782
 11
706.2593243232562
 21
939.1034808927782
  0
INSERT
  5
116
100
AcDbEntity
  8
PP-Door
  6
ByLayer
 62
  256
370
   -1
100
AcDbBlockReference
  2
DOOR
 10
3936.473792524966
 20
7431.036572673268
 30
0
 41
0.8536521891726497
 42
0.8536521891726497
 43
0
 50
0
 70
    1
 71
    1
 44
0
 45
0
  0
LINE
  5
117
100
AcDbEntity
  8
0
  6
ByLayer
 62
  256
370
   -1
100
AcDbLine
 10
775.2593243232272
 20
815.8487457152762
 11
707.7593243232345
 21
815.8487457152762
  0
LINE
  5
118
100
AcDbEntity
  8
0
  6
ByLayer
 62
  256
370
   -1
100
AcDbLine
 10
754.2593243232417
 20
882.294335992829
 11
754.2593243232417
 21
851.8487457152772
  0
INSERT
  5
119
100
AcDbEntity
  8
Sink
  6
ByLayer
 62
  256
370
   -1
100
AcDbBlockReference
  2
basin2
 10
758.6950112774808
 20
867.7177831625526
 30
0
 41
0.031361660553783
 42
0.031361660553783
 43
0
 50
90.82771920536138
 70
    1
 71
    1
 44
0
 45
0
  0
INSERT
  5
11A
100
AcDbEntity
  8
WC
  6
ByLayer
 62
  256
370
   -1
100
AcDbBlockReference
  2
A$C43EB1948
 10
769.2593208279663
 20
810.8373964140559
 30
0
 41
-1
 42
1
 43
0
 50
90.00000000000006
 70
    1
 71
    1
 44
0
 45
0
  0
LINE
  5
11B
100
AcDbEntity
  8
0
  6
ByLayer
 62
  256
370
   -1
100
AcDbLine
 10
775.2593243232345
 20
851.8487457152772
 11
754.2593243232417
 21
851.8487457152772
  0
LINE
  5
11C
100
AcDbEntity
  8
0
  6
ByLayer
 62
  256
370
   -1
100
AcDbLine
 10
769.2593243174354
 20
815.8487457152771
 11
769.2593243174282
 21
781.7943359928398
  0
INSERT
  5
11D
100
AcDbEntity
  8
Sink
  6
ByLayer
 62
  256
370
   -1
100
AcDbBlockReference
  2
basin2
 10
695.9382244606834
 20
802.561234930336
 30
0
 41
-0.031361660553783
 42
0.031361660553783
 43
0
 50
269.1722807946387
 70
    1
 71
    1
 44
0
 45
0
  0
LINE
  5
11E
100
AcDbEntity
  8
WALLS
  6
ByLayer
 62
  256
370
   -1
100
AcDbLine
 10
754.2593243232417
 20
777.2943359928398
 11
751.2593243232345
 21
777.2943359928398
  0
LINE
  5
11F
100
AcDbEntity
  8
WALLS
  6
ByLayer
 62
  256
370
   -1
100
AcDbLine
 10
775.259324323238
 20
759.6415627507507
 11
784.259324323249
 21
759.6415627507507
  0
LINE
  5
120
100
AcDbEntity
  8
WALLS
  6
ByLayer
 62
  256
370
   -1
100
AcDbLine
 10
775.259324323238
 20
741.6415627507507
 11
784.259324323249
 21
741.6415627507507
  0
INSERT
  5
121
100
AcDbEntity
  8
PP-Door
  6
ByLayer
 62
  256
370
   -1
100
AcDbBlockReference
  2
DOOR
 10
-1702.721933223356
 20
1950.071897398537
 30
0
 41
0.3195182822117975
 42
0.3195182822117975
 43
0
 50
89.99999999999996
 70
    1
 71
    1
 44
0
 45
0
  0
LINE
  5
122
100
AcDbEntity
  8
WALLS
  6
ByLayer
 62
  256
370
   50
100
AcDbLine
 10
746.7593243232343
 20
752.8070568357736
 11
751.2593243232343
 21
752.8070568357736
  0
LINE
  5
123
100
AcDbEntity
  8
WALLS
  6
ByLayer
 62
  256
370
   -1
100
AcDbLine
 10
751.2593243232345
 20
741.578187996764
 11
751.2593243232345
 21
723.2943359928418
  0
LINE
  5
124
100
AcDbEntity
  8
WALLS
  6
ByLayer
 62
  256
370
   -1
100
AcDbLine
 10
746.7593243232345
 20
741.578187996764
 11
746.7593243232345
 21
723.2943359928418
  0
LINE
  5
125
100
AcDbEntity
  8
WALLS
  6
ByLayer
 62
  256
370
   50
100
AcDbLine
 10
746.7593243232343
 20
741.5781879967647
 11
751.2593243232343
 21
741.5781879967647
  0
LWPOLYLINE
  5
126
100
AcDbEntity
  8
PP-Room 1
  6
ByLayer
 62
  256
370
   -1
100
AcDbPolyline
 90
    7
 70
    0
 43
0
 10
337.2593243232418
 20
828.2943359928363
 10
337.2593243232418
 20
972.2943359928436
 10
482.7593243232495
 20
972.2943359928436
 10
482.7593243232563
 20
876.2943359928526
 10
554.7593243232491
 20
876.2943359928726
 10
554.7593243232496
 20
828.2943359928393
 10
337.2593243232418
 20
828.2943359928393
  0
LWPOLYLINE
  5
127
100
AcDbEntity
  8
PP-Room 2
  6
ByLayer
 62
  256
370
   -1
100
AcDbPolyline
 90
   11
 70
    0
 43
0
 10
775.2593243232197
 20
972.2943359928325
 10
559.2593243232454
 20
972.2943359928325
 10
559.2593243232454
 20
828.2943359928393
 10
703.2593243232562
 20
828.2943359928397
 10
703.2593243232562
 20
939.1034808927782
 10
706.2593243232562
 20
939.1034808927782
 10
706.2593243232562
 20
912.2943359928372
 10
707.7593243232236
 20
912.2943359928379
 10
707.7593243232236
 20
886.7943359928377
 10
775.2593243232309
 20
886.7943359928464
 10
775.2593243232197
 20
972.2943359928325
  0
LWPOLYLINE
  5
128
100
AcDbEntity
  8
PP-Toilet 1
  6
ByLayer
 62
  256
370
   -1
100
AcDbPolyline
 90
    5
 70
    0
 43
0
 10
487.2593243232635
 20
972.2943359928436
 10
554.7593243232345
 20
972.2943359928541
 10
554.7593243232345
 20
880.7943359928527
 10
487.259324323254
 20
880.7943359928531
 10
487.2593243232635
 20
972.2943359928436
  0
LWPOLYLINE
  5
129
100
AcDbEntity
  8
PP-Toilet 2
  6
ByLayer
 62
  256
370
   -1
100
AcDbPolyline
 90
    5
 70
    0
 43
0
 10
775.2593243232417
 20
781.7943359928398
 10
775.2593243232155
 20
882.2943359928327
 10
707.7593243232294
 20
882.2943359928197
 10
707.7593243232491
 20
781.7943359928398
 10
775.2593243232417
 20
781.7943359928518
  0
LWPOLYLINE
  5
12A
100
AcDbEntity
  8
PP-Room 3
  6
ByLayer
 62
  256
370
   -1
100
AcDbPolyline
 90
   13
 70
    0
 43
0
 10
337.2593243232345
 20
823.7943359928362
 10
703.2593243232562
 20
823.7943359928362
 10
703.2593243232589
 20
781.7943359928418
 10
674.7593243232345
 20
781.7943359928418
 10
674.7593243232345
 20
777.2943359928418
 10
746.7593243232345
 20
777.2943359928398
 10
746.7593243232357
 20
723.2943359928418
 10
674.7593243232272
 20
723.2943359928398
 10
674.7593243232345
 20
645.1019844537627
 10
614.7593243232345
 20
645.1019844537584
 10
614.7593243232416
 20
546.2943359928399
 10
337.2593243232491
 20
546.2943359928399
 10
337.2593243232491
 20
823.7943359928362
  0
LWPOLYLINE
  5
12B
100
AcDbEntity
  8
PP-Room 4
  6
ByLayer
 62
  256
370
   -1
100
AcDbPolyline
 90
    5
 70
    0
 43
0
 10
775.2593243232417
 20
640.6019844537627
 10
619.2593243232344
 20
640.6019844537567
 10
619.2593243232344
 20
450.2943359928399
 10
775.2593243232491
 20
450.2943359928518
 10
775.2593243232491
 20
640.6019844537627
  0
LWPOLYLINE
  5
12C
100
AcDbEntity
  8
PP-Room 5
  6
ByLayer
 62
  256
370
   -1
100
AcDbPolyline
 90
    5
 70
    0
 43
0
 10
679.2593243232345
 20
718.7943359928397
 10
775.2593243232417
 20
718.7943359928397
 10
775.2593243232345
 20
645.1019844537627
 10
679.2593243232322
 20
645.1019844537622
 10
679.2593243232322
 20
718.7943359928397
  0
LWPOLYLINE
  5
12D
100
AcDbEntity
  8
PP-Room 6
  6
ByLayer
 62
  256
370
   -1
100
AcDbPolyline
 90
    5
 70
    0
 43
0
 10
646.7593243232197
 20
441.2943359928418
 10
775.2593243232491
 20
441.2943359928408
 10
775.2593243232562
 20
399.2943359928426
 10
646.7593243232345
 20
399.2943359927977
 10
646.7593243232345
 20
441.2943359928408
  0
LWPOLYLINE
  5
12E
100
AcDbEntity
  8
PP-Room 7
  6
ByLayer
 62
  256
370
   -1
100
AcDbPolyline
 90
    5
 70
    0
 43
0
 10
751.2593243232345
 20
777.2943359928398
 10
775.2593243232417
 20
777.2943359928398
 10
775.2593243232345
 20
723.2943359928398
 10
751.2593243232345
 20
723.2943359928398
 10
751.2593243232345
 20
777.2943359928398
  0
LWPOLYLINE
  5
12F
100
AcDbEntity
  8
PP-OUTER
  6
ByLayer
 62
  256
370
   -1
100
AcDbPolyline
 90
    4
 70
    1
 43
0
 10
308.6897955979704
 20
998.7199380565035
 10
797.6554198424678
 20
998.7199380565035
 10
797.6554198424683
 20
378.2245375097253
 10
308.6897955979704
 20
378.2245375097251
  0
INSERT
  5
130
100
AcDbEntity
  8
0
  6
ByLayer
 62
  256
370
   -1
100
AcDbBlockReference
  2
Window
 10
754.2592773437497
 20
777.2943115234375
 30
0
 41
1
 42
1
 43
0
 50
0
 70
    1
 71
    1
 44
0
 45
0
  0
INSERT
  5
131
100
AcDbEntity
  8
0
  6
ByLayer
 62
  256
370
   -1
100
AcDbBlockReference
  2
Window
 10
754.2593243232345
 20
718.7943359928397
 30
0
 41
1
 42
1
 43
0
 50
0
 70
    1
 71
    1
 44
0
 45
0
  0
INSERT
  5
132
100
AcDbEntity
  8
0
  6
ByLayer
 62
  256
370
   -1
100
AcDbBlockReference
  2
Window 2
 10
775.2592773437497
 20
759.6416015625
 30
0
 41
1
 42
1
 43
0
 50
0
 70
    1
 71
    1
 44
0
 45
0
  0
INSERT
  5
133
100
AcDbEntity
  8
0
  6
ByLayer
 62
  256
370
   -1
100
AcDbBlockReference
  2
Window 2
 10
700.2593243232345
 20
441.2943359928403
 30
0
 41
1
 42
1
 43
0
 50
90
 70
    1
 71
    1
 44
0
 45
0
  0
LINE
  5
134
100
AcDbEntity
  8
WALLS
  6
ByLayer
 62
  256
370
   -1
100
AcDbLine
 10
691.2593243232387
 20
450.2943359928567
 11
700.2593631349838
 21
450.2943359928498
  0
LINE
  5
135
100
AcDbEntity
  8
WALLS
  6
ByLayer
 62
  256
370
   -1
100
AcDbLine
 10
691.2593243232435
 20
450.2943359928399
 11
691.2593243232362
 21
441.2943359928426
  0
LINE
  5
136
100
AcDbEntity
  8
WALLS
  6
ByLayer
 62
  256
370
   -1
100
AcDbLine
 10
691.2593243232318
 20
441.2943359928592
 11
700.2593631349766
 21
441.2943359928526
  0
INSERT
  5
137
100
AcDbEntity
  8
0
  6
ByLayer
 62
  256
370
   -1
100
AcDbBlockReference
  2
Window 2
 10
505.2625960648553
 20
981.2915123887808
 30
0
 41
1
 42
1
 43
0
 50
270.0126919308218
 70
    1
 71
    1
 44
0
 45
0
  0
INSERT
  5
138
100
AcDbEntity
  8
0
  6
ByLayer
 62
  256
370
   -1
100
AcDbBlockReference
  2
Window 2
 10
464.75605258165
 20
981.2915123887808
 30
0
 41
-1
 42
1
 43
0
 50
89.98730806917814
 70
    1
 71
    1
 44
0
 45
0
  0
MTEXT
  5
139
100
AcDbEntity
  8
PP-Room Text
  6
ByLayer
 62
  256
370
   -1
100
AcDbMText
 10
456.0101992289967
 20
739.0900912579455
 30
0
 40
8
 41
57.55555555555641
 71
    1
 72
    5
  1
PP-Room 3
  7
standard
210
0
220
0
230
1
 50
0
 73
    1
 44
1
  0
MTEXT
  5
13A
100
AcDbEntity
  8
PP-Room Text
  6
ByLayer
 62
  256
370
   -1
100
AcDbMText
 10
373.2180022291059
 20
896.7319538255376
 30
0
 40
8
 41
55.77777777777814
 71
    1
 72
    5
  1
PP-Room 1
  7
standard
210
0
220
0
230
1
 50
0
 73
    1
 44
1
  0
MTEXT
  5
13B
100
AcDbEntity
  8
PP-Room Text
  6
ByLayer
 62
  256
370
   -1
100
AcDbMText
 10
596.2877783458115
 20
913.29670120243
 30
0
 40
8
 41
57.55555555555592
 71
    1
 72
    5
  1
PP-Room 2
  7
standard
210
0
220
0
230
1
 50
0
 73
    1
 44
1
  0
MTEXT
  5
13C
100
AcDbEntity
  8
PP-Room Text
  6
ByLayer
 62
  256
370
   -1
100
AcDbMText
 10
492.9258984930211
 20
949.2871005025405
 30
0
 40
8
 41
59.33333333333333
 71
    1
 72
    5
  1
PP-Toilet 1
  7
standard
210
0
220
0
230
1
 50
0
 73
    1
 44
1
  0
MTEXT
  5
13D
100
AcDbEntity
  8
PP-Room Text
  6
ByLayer
 62
  256
370
   -1
100
AcDbMText
 10
714.3536177050715
 20
843.9256540571365
 30
0
 40
8
 41
61.11111111111111
 71
    1
 72
    5
  1
PP-Toilet 2
  7
standard
210
0
220
0
230
1
 50
0
 73
    1
 44
1
  0
MTEXT
  5
13E
100
AcDbEntity
  8
PP-Room Text
  6
ByLayer
 62
  256
370
   -1
100
AcDbMText
 10
696.1187681208352
 20
695.9672307343508
 30
0
 40
8
 41
57.55555555555641
 71
    1
 72
    5
  1
PP-Room 5
  7
standard
210
0
220
0
230
1
 50
0
 73
    1
 44
1
  0
MTEXT
  5
13F
100
AcDbEntity
  8
PP-Room Text
  6
ByLayer
 62
  256
370
   -1
100
AcDbMText
 10
648.1232520424477
 20
551.8345072649252
 30
0
 40
8
 41
58.44444444444481
 71
    1
 72
    5
  1
PP-Room 4
  7
standard
210
0
220
0
230
1
 50
0
 73
    1
 44
1
  0
MTEXT
  5
140
100
AcDbEntity
  8
PP-Room Text
  6
ByLayer
 62
  256
370
   -1
100
AcDbMText
 10
682.2075561480073
 20
425.7507860095969
 30
0
 40
8
 41
57.55555555555641
 71
    1
 72
    5
  1
PP-Room 6
  7
standard
210
0
220
0
230
1
 50
0
 73
    1
 44
1
  0
MTEXT
  5
141
100
AcDbEntity
  8
PP-Room Text
  6
ByLayer
 62
  256
370
   -1
100
AcDbMText
 10
759.2138544929863
 20
724.9189949609618
 30
0
 40
8
 41
57.55555555555592
 71
    1
 72
    5
  1
PP-Room 7
  7
standard
210
0
220
0
230
1
 50
90
 73
    1
 44
1
  0
INSERT
  5
142
100
AcDbEntity
  8
0
  6
ByLayer
 62
  256
370
   -1
100
AcDbBlockReference
  2
PP-Balcony Window
 10
0
 20
0
 30
0
 41
1
 42
1
 43
0
 50
0
 70
    1
 71
    1
 44
0
 45
0
  0
INSERT
  5
143
100
AcDbEntity
  8
PP-Door
  6
ByLayer
 62
  256
370
   -1
100
AcDbBlockReference
  2
DOOR
 10
5079.459785044232
 20
10143.23388334096
 30
0
 41
1.195113119105514
 42
1.195113119105514
 43
0
 50
0
 70
    1
 71
    1
 44
0
 45
0
  0
LINE
  5
144
100
AcDbEntity
  8
CenterLines
  6
ByLayer
 62
  256
370
   -1
100
AcDbLine
 10
332.5
 20
546
 11
332.5
 21
823
  0
CIRCLE
  5
145
100
AcDbEntity
  8
debug
  6
ByLayer
 62
    2
370
   -1
100
AcDbCircle
 10
332.5
 20
546
 40
1
  0
MTEXT
  5
146
100
AcDbEntity
  8
debug
  6
ByLayer
 62
  256
370
   -1
100
AcDbMText
 10
332.5
 20
546
 30
0
 40
2.5
 41
3.611110581105738
 71
    1
 72
    5
  1
SP
  7
standard
210
0
220
0
230
1
 50
0
 73
    1
 44
1
  0
CIRCLE
  5
147
100
AcDbEntity
  8
debug
  6
ByLayer
 62
    2
370
   -1
100
AcDbCircle
 10
332.5
 20
823
 40
1
  0
MTEXT
  5
148
100
AcDbEntity
  8
debug
  6
ByLayer
 62
  256
370
   -1
100
AcDbMText
 10
332.5
 20
823
 30
0
 40
2.5
 41
3.333333333333334
 71
    1
 72
    5
  1
EP
  7
standard
210
0
220
0
230
1
 50
0
 73
    1
 44
1
  0
LINE
  5
149
100
AcDbEntity
  8
CenterLines
  6
ByLayer
 62
  256
370
   -1
100
AcDbLine
 10
332.5
 20
972
 11
332.5
 21
828
  0
CIRCLE
  5
14A
100
AcDbEntity
  8
debug
  6
ByLayer
 62
    2
370
   -1
100
AcDbCircle
 10
332.5
 20
972
 40
1
  0
MTEXT
  5
14B
100
AcDbEntity
  8
debug
  6
ByLayer
 62
  256
370
   -1
100
AcDbMText
 10
332.5
 20
972
 30
0
 40
2.5
 41
3.611110581105738
 71
    1
 72
    5
  1
SP
  7
standard
210
0
220
0
230
1
 50
0
 73
    1
 44
1
  0
CIRCLE
  5
14C
100
AcDbEntity
  8
debug
  6
ByLayer
 62
    2
370
   -1
100
AcDbCircle
 10
332.5
 20
828
 40
1
  0
MTEXT
  5
14D
100
AcDbEntity
  8
debug
  6
ByLayer
 62
  256
370
   -1
100
AcDbMText
 10
332.5
 20
828
 30
0
 40
2.5
 41
3.333333333333334
 71
    1
 72
    5
  1
EP
  7
standard
210
0
220
0
230
1
 50
0
 73
    1
 44
1
  0
LINE
  5
14E
100
AcDbEntity
  8
CenterLines
  6
ByLayer
 62
  256
370
   -1
100
AcDbLine
 10
473
 20
981
 11
473
 21
972
  0
CIRCLE
  5
14F
100
AcDbEntity
  8
debug
  6
ByLayer
 62
    2
370
   -1
100
AcDbCircle
 10
473
 20
981
 40
1
  0
MTEXT
  5
150
100
AcDbEntity
  8
debug
  6
ByLayer
 62
  256
370
   -1
100
AcDbMText
 10
473
 20
981
 30
0
 40
2.5
 41
3.611110581105738
 71
    1
 72
    5
  1
SP
  7
standard
210
0
220
0
230
1
 50
0
 73
    1
 44
1
  0
CIRCLE
  5
151
100
AcDbEntity
  8
debug
  6
ByLayer
 62
    2
370
   -1
100
AcDbCircle
 10
473
 20
972
 40
1
  0
MTEXT
  5
152
100
AcDbEntity
  8
debug
  6
ByLayer
 62
  256
370
   -1
100
AcDbMText
 10
473
 20
972
 30
0
 40
2.5
 41
3.333333333333334
 71
    1
 72
    5
  1
EP
  7
standard
210
0
220
0
230
1
 50
0
 73
    1
 44
1
  0
LINE
  5
153
100
AcDbEntity
  8
CenterLines
  6
ByLayer
 62
  256
370
   -1
100
AcDbLine
 10
484.5
 20
981
 11
484.5
 21
876
  0
CIRCLE
  5
154
100
AcDbEntity
  8
debug
  6
ByLayer
 62
    2
370
   -1
100
AcDbCircle
 10
484.5
 20
981
 40
1
  0
MTEXT
  5
155
100
AcDbEntity
  8
debug
  6
ByLayer
 62
  256
370
   -1
100
AcDbMText
 10
484.5
 20
981
 30
0
 40
2.5
 41
3.611110581105738
 71
    1
 72
    5
  1
SP
  7
standard
210
0
220
0
230
1
 50
0
 73
    1
 44
1
  0
CIRCLE
  5
156
100
AcDbEntity
  8
debug
  6
ByLayer
 62
    2
370
   -1
100
AcDbCircle
 10
484.5
 20
876
 40
1
  0
MTEXT
  5
157
100
AcDbEntity
  8
debug
  6
ByLayer
 62
  256
370
   -1
100
AcDbMText
 10
484.5
 20
876
 30
0
 40
2.5
 41
3.333333333333334
 71
    1
 72
    5
  1
EP
  7
standard
210
0
220
0
230
1
 50
0
 73
    1
 44
1
  0
LINE
  5
158
100
AcDbEntity
  8
CenterLines
  6
ByLayer
 62
  256
370
   -1
100
AcDbLine
 10
496
 20
981
 11
496
 21
972
  0
CIRCLE
  5
159
100
AcDbEntity
  8
debug
  6
ByLayer
 62
    2
370
   -1
100
AcDbCircle
 10
496
 20
981
 40
1
  0
MTEXT
  5
15A
100
AcDbEntity
  8
debug
  6
ByLayer
 62
  256
370
   -1
100
AcDbMText
 10
496
 20
981
 30
0
 40
2.5
 41
3.611110581105738
 71
    1
 72
    5
  1
SP
  7
standard
210
0
220
0
230
1
 50
0
 73
    1
 44
1
  0
CIRCLE
  5
15B
100
AcDbEntity
  8
debug
  6
ByLayer
 62
    2
370
   -1
100
AcDbCircle
 10
496
 20
972
 40
1
  0
MTEXT
  5
15C
100
AcDbEntity
  8
debug
  6
ByLayer
 62
  256
370
   -1
100
AcDbMText
 10
496
 20
972
 30
0
 40
2.5
 41
3.333333333333334
 71
    1
 72
    5
  1
EP
  7
standard
210
0
220
0
230
1
 50
0
 73
    1
 44
1
  0
LINE
  5
15D
100
AcDbEntity
  8
CenterLines
  6
ByLayer
 62
  256
370
   -1
100
AcDbLine
 10
556.5
 20
823
 11
556.5
 21
876
  0
CIRCLE
  5
15E
100
AcDbEntity
  8
debug
  6
ByLayer
 62
    2
370
   -1
100
AcDbCircle
 10
556.5
 20
823
 40
1
  0
MTEXT
  5
15F
100
AcDbEntity
  8
debug
  6
ByLayer
 62
  256
370
   -1
100
AcDbMText
 10
556.5
 20
823
 30
0
 40
2.5
 41
3.611110581105738
 71
    1
 72
    5
  1
SP
  7
standard
210
0
220
0
230
1
 50
0
 73
    1
 44
1
  0
CIRCLE
  5
160
100
AcDbEntity
  8
debug
  6
ByLayer
 62
    2
370
   -1
100
AcDbCircle
 10
556.5
 20
876
 40
1
  0
MTEXT
  5
161
100
AcDbEntity
  8
debug
  6
ByLayer
 62
  256
370
   -1
100
AcDbMText
 10
556.5
 20
876
 30
0
 40
2.5
 41
3.333333333333334
 71
    1
 72
    5
  1
EP
  7
standard
210
0
220
0
230
1
 50
0
 73
    1
 44
1
  0
LINE
  5
162
100
AcDbEntity
  8
CenterLines
  6
ByLayer
 62
  256
370
   -1
100
AcDbLine
 10
556.5
 20
880
 11
556.5
 21
972
  0
CIRCLE
  5
163
100
AcDbEntity
  8
debug
  6
ByLayer
 62
    2
370
   -1
100
AcDbCircle
 10
556.5
 20
880
 40
1
  0
MTEXT
  5
164
100
AcDbEntity
  8
debug
  6
ByLayer
 62
  256
370
   -1
100
AcDbMText
 10
556.5
 20
880
 30
0
 40
2.5
 41
3.611110581105738
 71
    1
 72
    5
  1
SP
  7
standard
210
0
220
0
230
1
 50
0
 73
    1
 44
1
  0
CIRCLE
  5
165
100
AcDbEntity
  8
debug
  6
ByLayer
 62
    2
370
   -1
100
AcDbCircle
 10
556.5
 20
972
 40
1
  0
MTEXT
  5
166
100
AcDbEntity
  8
debug
  6
ByLayer
 62
  256
370
   -1
100
AcDbMText
 10
556.5
 20
972
 30
0
 40
2.5
 41
3.333333333333334
 71
    1
 72
    5
  1
EP
  7
standard
210
0
220
0
230
1
 50
0
 73
    1
 44
1
  0
LINE
  5
167
100
AcDbEntity
  8
CenterLines
  6
ByLayer
 62
  256
370
   -1
100
AcDbLine
 10
616.5
 20
537
 11
616.5
 21
450
  0
CIRCLE
  5
168
100
AcDbEntity
  8
debug
  6
ByLayer
 62
    2
370
   -1
100
AcDbCircle
 10
616.5
 20
537
 40
1
  0
MTEXT
  5
169
100
AcDbEntity
  8
debug
  6
ByLayer
 62
  256
370
   -1
100
AcDbMText
 10
616.5
 20
537
 30
0
 40
2.5
 41
3.611110581105738
 71
    1
 72
    5
  1
SP
  7
standard
210
0
220
0
230
1
 50
0
 73
    1
 44
1
  0
CIRCLE
  5
16A
100
AcDbEntity
  8
debug
  6
ByLayer
 62
    2
370
   -1
100
AcDbCircle
 10
616.5
 20
450
 40
1
  0
MTEXT
  5
16B
100
AcDbEntity
  8
debug
  6
ByLayer
 62
  256
370
   -1
100
AcDbMText
 10
616.5
 20
450
 30
0
 40
2.5
 41
3.333333333333334
 71
    1
 72
    5
  1
EP
  7
standard
210
0
220
0
230
1
 50
0
 73
    1
 44
1
  0
LINE
  5
16C
100
AcDbEntity
  8
CenterLines
  6
ByLayer
 62
  256
370
   -1
100
AcDbLine
 10
616.5
 20
546
 11
616.5
 21
645
  0
CIRCLE
  5
16D
100
AcDbEntity
  8
debug
  6
ByLayer
 62
    2
370
   -1
100
AcDbCircle
 10
616.5
 20
546
 40
1
  0
MTEXT
  5
16E
100
AcDbEntity
  8
debug
  6
ByLayer
 62
  256
370
   -1
100
AcDbMText
 10
616.5
 20
546
 30
0
 40
2.5
 41
3.611110581105738
 71
    1
 72
    5
  1
SP
  7
standard
210
0
220
0
230
1
 50
0
 73
    1
 44
1
  0
CIRCLE
  5
16F
100
AcDbEntity
  8
debug
  6
ByLayer
 62
    2
370
   -1
100
AcDbCircle
 10
616.5
 20
645
 40
1
  0
MTEXT
  5
170
100
AcDbEntity
  8
debug
  6
ByLayer
 62
  256
370
   -1
100
AcDbMText
 10
616.5
 20
645
 30
0
 40
2.5
 41
3.333333333333334
 71
    1
 72
    5
  1
EP
  7
standard
210
0
220
0
230
1
 50
0
 73
    1
 44
1
  0
LINE
  5
171
100
AcDbEntity
  8
CenterLines
  6
ByLayer
 62
  256
370
   -1
100
AcDbLine
 10
644
 20
441
 11
644
 21
399
  0
CIRCLE
  5
172
100
AcDbEntity
  8
debug
  6
ByLayer
 62
    2
370
   -1
100
AcDbCircle
 10
644
 20
441
 40
1
  0
MTEXT
  5
173
100
AcDbEntity
  8
debug
  6
ByLayer
 62
  256
370
   -1
100
AcDbMText
 10
644
 20
441
 30
0
 40
2.5
 41
3.611110581105738
 71
    1
 72
    5
  1
SP
  7
standard
210
0
220
0
230
1
 50
0
 73
    1
 44
1
  0
CIRCLE
  5
174
100
AcDbEntity
  8
debug
  6
ByLayer
 62
    2
370
   -1
100
AcDbCircle
 10
644
 20
399
 40
1
  0
MTEXT
  5
175
100
AcDbEntity
  8
debug
  6
ByLayer
 62
  256
370
   -1
100
AcDbMText
 10
644
 20
399
 30
0
 40
2.5
 41
3.333333333333334
 71
    1
 72
    5
  1
EP
  7
standard
210
0
220
0
230
1
 50
0
 73
    1
 44
1
  0
LINE
  5
176
100
AcDbEntity
  8
CenterLines
  6
ByLayer
 62
  256
370
   -1
100
AcDbLine
 10
646.5
 20
390
 11
646.5
 21
399
  0
CIRCLE
  5
177
100
AcDbEntity
  8
debug
  6
ByLayer
 62
    2
370
   -1
100
AcDbCircle
 10
646.5
 20
390
 40
1
  0
MTEXT
  5
178
100
AcDbEntity
  8
debug
  6
ByLayer
 62
  256
370
   -1
100
AcDbMText
 10
646.5
 20
390
 30
0
 40
2.5
 41
3.611110581105738
 71
    1
 72
    5
  1
SP
  7
standard
210
0
220
0
230
1
 50
0
 73
    1
 44
1
  0
CIRCLE
  5
179
100
AcDbEntity
  8
debug
  6
ByLayer
 62
    2
370
   -1
100
AcDbCircle
 10
646.5
 20
399
 40
1
  0
MTEXT
  5
17A
100
AcDbEntity
  8
debug
  6
ByLayer
 62
  256
370
   -1
100
AcDbMText
 10
646.5
 20
399
 30
0
 40
2.5
 41
3.333333333333334
 71
    1
 72
    5
  1
EP
  7
standard
210
0
220
0
230
1
 50
0
 73
    1
 44
1
  0
LINE
  5
17B
100
AcDbEntity
  8
CenterLines
  6
ByLayer
 62
  256
370
   -1
100
AcDbLine
 10
651.5
 20
441
 11
651.5
 21
441
  0
CIRCLE
  5
17C
100
AcDbEntity
  8
debug
  6
ByLayer
 62
    2
370
   -1
100
AcDbCircle
 10
651.5
 20
441
 40
1
  0
MTEXT
  5
17D
100
AcDbEntity
  8
debug
  6
ByLayer
 62
  256
370
   -1
100
AcDbMText
 10
651.5
 20
441
 30
0
 40
2.5
 41
3.611110581105738
 71
    1
 72
    5
  1
SP
  7
standard
210
0
220
0
230
1
 50
0
 73
    1
 44
1
  0
CIRCLE
  5
17E
100
AcDbEntity
  8
debug
  6
ByLayer
 62
    2
370
   -1
100
AcDbCircle
 10
651.5
 20
441
 40
1
  0
MTEXT
  5
17F
100
AcDbEntity
  8
debug
  6
ByLayer
 62
  256
370
   -1
100
AcDbMText
 10
651.5
 20
441
 30
0
 40
2.5
 41
3.333333333333334
 71
    1
 72
    5
  1
EP
  7
standard
210
0
220
0
230
1
 50
0
 73
    1
 44
1
  0
LINE
  5
180
100
AcDbEntity
  8
CenterLines
  6
ByLayer
 62
  256
370
   -1
100
AcDbLine
 10
648.5
 20
399
 11
648.5
 21
399
  0
CIRCLE
  5
181
100
AcDbEntity
  8
debug
  6
ByLayer
 62
    2
370
   -1
100
AcDbCircle
 10
648.5
 20
399
 40
1
  0
MTEXT
  5
182
100
AcDbEntity
  8
debug
  6
ByLayer
 62
  256
370
   -1
100
AcDbMText
 10
648.5
 20
399
 30
0
 40
2.5
 41
3.611110581105738
 71
    1
 72
    5
  1
SP
  7
standard
210
0
220
0
230
1
 50
0
 73
    1
 44
1
  0
CIRCLE
  5
183
100
AcDbEntity
  8
debug
  6
ByLayer
 62
    2
370
   -1
100
AcDbCircle
 10
648.5
 20
399
 40
1
  0
MTEXT
  5
184
100
AcDbEntity
  8
debug
  6
ByLayer
 62
  256
370
   -1
100
AcDbMText
 10
648.5
 20
399
 30
0
 40
2.5
 41
3.333333333333334
 71
    1
 72
    5
  1
EP
  7
standard
210
0
220
0
230
1
 50
0
 73
    1
 44
1
  0
LINE
  5
185
100
AcDbEntity
  8
CenterLines
  6
ByLayer
 62
  256
370
   -1
100
AcDbLine
 10
653.5
 20
441
 11
653.5
 21
441
  0
CIRCLE
  5
186
100
AcDbEntity
  8
debug
  6
ByLayer
 62
    2
370
   -1
100
AcDbCircle
 10
653.5
 20
441
 40
1
  0
MTEXT
  5
187
100
AcDbEntity
  8
debug
  6
ByLayer
 62
  256
370
   -1
100
AcDbMText
 10
653.5
 20
441
 30
0
 40
2.5
 41
3.611110581105738
 71
    1
 72
    5
  1
SP
  7
standard
210
0
220
0
230
1
 50
0
 73
    1
 44
1
  0
CIRCLE
  5
188
100
AcDbEntity
  8
debug
  6
ByLayer
 62
    2
370
   -1
100
AcDbCircle
 10
653.5
 20
441
 40
1
  0
MTEXT
  5
189
100
AcDbEntity
  8
debug
  6
ByLayer
 62
  256
370
   -1
100
AcDbMText
 10
653.5
 20
441
 30
0
 40
2.5
 41
3.333333333333334
 71
    1
 72
    5
  1
EP
  7
standard
210
0
220
0
230
1
 50
0
 73
    1
 44
1
  0
LINE
  5
18A
100
AcDbEntity
  8
CenterLines
  6
ByLayer
 62
  256
370
   -1
100
AcDbLine
 10
667.5
 20
645
 11
667.5
 21
645
  0
CIRCLE
  5
18B
100
AcDbEntity
  8
debug
  6
ByLayer
 62
    2
370
   -1
100
AcDbCircle
 10
667.5
 20
645
 40
1
  0
MTEXT
  5
18C
100
AcDbEntity
  8
debug
  6
ByLayer
 62
  256
370
   -1
100
AcDbMText
 10
667.5
 20
645
 30
0
 40
2.5
 41
3.611110581105738
 71
    1
 72
    5
  1
SP
  7
standard
210
0
220
0
230
1
 50
0
 73
    1
 44
1
  0
CIRCLE
  5
18D
100
AcDbEntity
  8
debug
  6
ByLayer
 62
    2
370
   -1
100
AcDbCircle
 10
667.5
 20
645
 40
1
  0
MTEXT
  5
18E
100
AcDbEntity
  8
debug
  6
ByLayer
 62
  256
370
   -1
100
AcDbMText
 10
667.5
 20
645
 30
0
 40
2.5
 41
3.333333333333334
 71
    1
 72
    5
  1
EP
  7
standard
210
0
220
0
230
1
 50
0
 73
    1
 44
1
  0
LINE
  5
18F
100
AcDbEntity
  8
CenterLines
  6
ByLayer
 62
  256
370
   -1
100
AcDbLine
 10
670
 20
640
 11
670
 21
645
  0
CIRCLE
  5
190
100
AcDbEntity
  8
debug
  6
ByLayer
 62
    2
370
   -1
100
AcDbCircle
 10
670
 20
640
 40
1
  0
MTEXT
  5
191
100
AcDbEntity
  8
debug
  6
ByLayer
 62
  256
370
   -1
100
AcDbMText
 10
670
 20
640
 30
0
 40
2.5
 41
3.611110581105738
 71
    1
 72
    5
  1
SP
  7
standard
210
0
220
0
230
1
 50
0
 73
    1
 44
1
  0
CIRCLE
  5
192
100
AcDbEntity
  8
debug
  6
ByLayer
 62
    2
370
   -1
100
AcDbCircle
 10
670
 20
645
 40
1
  0
MTEXT
  5
193
100
AcDbEntity
  8
debug
  6
ByLayer
 62
  256
370
   -1
100
AcDbMText
 10
670
 20
645
 30
0
 40
2.5
 41
3.333333333333334
 71
    1
 72
    5
  1
EP
  7
standard
210
0
220
0
230
1
 50
0
 73
    1
 44
1
  0
LINE
  5
194
100
AcDbEntity
  8
CenterLines
  6
ByLayer
 62
  256
370
   -1
100
AcDbLine
 10
676.5
 20
645
 11
676.5
 21
718
  0
CIRCLE
  5
195
100
AcDbEntity
  8
debug
  6
ByLayer
 62
    2
370
   -1
100
AcDbCircle
 10
676.5
 20
645
 40
1
  0
MTEXT
  5
196
100
AcDbEntity
  8
debug
  6
ByLayer
 62
  256
370
   -1
100
AcDbMText
 10
676.5
 20
645
 30
0
 40
2.5
 41
3.611110581105738
 71
    1
 72
    5
  1
SP
  7
standard
210
0
220
0
230
1
 50
0
 73
    1
 44
1
  0
CIRCLE
  5
197
100
AcDbEntity
  8
debug
  6
ByLayer
 62
    2
370
   -1
100
AcDbCircle
 10
676.5
 20
718
 40
1
  0
MTEXT
  5
198
100
AcDbEntity
  8
debug
  6
ByLayer
 62
  256
370
   -1
100
AcDbMText
 10
676.5
 20
718
 30
0
 40
2.5
 41
3.333333333333334
 71
    1
 72
    5
  1
EP
  7
standard
210
0
220
0
230
1
 50
0
 73
    1
 44
1
  0
LINE
  5
199
100
AcDbEntity
  8
CenterLines
  6
ByLayer
 62
  256
370
   -1
100
AcDbLine
 10
695.5
 20
450
 11
695.5
 21
441
  0
CIRCLE
  5
19A
100
AcDbEntity
  8
debug
  6
ByLayer
 62
    2
370
   -1
100
AcDbCircle
 10
695.5
 20
450
 40
1
  0
MTEXT
  5
19B
100
AcDbEntity
  8
debug
  6
ByLayer
 62
  256
370
   -1
100
AcDbMText
 10
695.5
 20
450
 30
0
 40
2.5
 41
3.611110581105738
 71
    1
 72
    5
  1
SP
  7
standard
210
0
220
0
230
1
 50
0
 73
    1
 44
1
  0
CIRCLE
  5
19C
100
AcDbEntity
  8
debug
  6
ByLayer
 62
    2
370
   -1
100
AcDbCircle
 10
695.5
 20
441
 40
1
  0
MTEXT
  5
19D
100
AcDbEntity
  8
debug
  6
ByLayer
 62
  256
370
   -1
100
AcDbMText
 10
695.5
 20
441
 30
0
 40
2.5
 41
3.333333333333334
 71
    1
 72
    5
  1
EP
  7
standard
210
0
220
0
230
1
 50
0
 73
    1
 44
1
  0
LINE
  5
19E
100
AcDbEntity
  8
CenterLines
  6
ByLayer
 62
  256
370
   -1
100
AcDbLine
 10
709
 20
450
 11
709
 21
441
  0
CIRCLE
  5
19F
100
AcDbEntity
  8
debug
  6
ByLayer
 62
    2
370
   -1
100
AcDbCircle
 10
709
 20
450
 40
1
  0
MTEXT
  5
1A0
100
AcDbEntity
  8
debug
  6
ByLayer
 62
  256
370
   -1
100
AcDbMText
 10
709
 20
450
 30
0
 40
2.5
 41
3.611110581105738
 71
    1
 72
    5
  1
SP
  7
standard
210
0
220
0
230
1
 50
0
 73
    1
 44
1
  0
CIRCLE
  5
1A1
100
AcDbEntity
  8
debug
  6
ByLayer
 62
    2
370
   -1
100
AcDbCircle
 10
709
 20
441
 40
1
  0
MTEXT
  5
1A2
100
AcDbEntity
  8
debug
  6
ByLayer
 62
  256
370
   -1
100
AcDbMText
 10
709
 20
441
 30
0
 40
2.5
 41
3.333333333333334
 71
    1
 72
    5
  1
EP
  7
standard
210
0
220
0
230
1
 50
0
 73
    1
 44
1
  0
LINE
  5
1A3
100
AcDbEntity
  8
CenterLines
  6
ByLayer
 62
  256
370
   -1
100
AcDbLine
 10
705
 20
781
 11
705
 21
823
  0
CIRCLE
  5
1A4
100
AcDbEntity
  8
debug
  6
ByLayer
 62
    2
370
   -1
100
AcDbCircle
 10
705
 20
781
 40
1
  0
MTEXT
  5
1A5
100
AcDbEntity
  8
debug
  6
ByLayer
 62
  256
370
   -1
100
AcDbMText
 10
705
 20
781
 30
0
 40
2.5
 41
3.611110581105738
 71
    1
 72
    5
  1
SP
  7
standard
210
0
220
0
230
1
 50
0
 73
    1
 44
1
  0
CIRCLE
  5
1A6
100
AcDbEntity
  8
debug
  6
ByLayer
 62
    2
370
   -1
100
AcDbCircle
 10
705
 20
823
 40
1
  0
MTEXT
  5
1A7
100
AcDbEntity
  8
debug
  6
ByLayer
 62
  256
370
   -1
100
AcDbMText
 10
705
 20
823
 30
0
 40
2.5
 41
3.333333333333334
 71
    1
 72
    5
  1
EP
  7
standard
210
0
220
0
230
1
 50
0
 73
    1
 44
1
  0
LINE
  5
1A8
100
AcDbEntity
  8
CenterLines
  6
ByLayer
 62
  256
370
   -1
100
AcDbLine
 10
704.5
 20
912
 11
704.5
 21
912
  0
CIRCLE
  5
1A9
100
AcDbEntity
  8
debug
  6
ByLayer
 62
    2
370
   -1
100
AcDbCircle
 10
704.5
 20
912
 40
1
  0
MTEXT
  5
1AA
100
AcDbEntity
  8
debug
  6
ByLayer
 62
  256
370
   -1
100
AcDbMText
 10
704.5
 20
912
 30
0
 40
2.5
 41
3.611110581105738
 71
    1
 72
    5
  1
SP
  7
standard
210
0
220
0
230
1
 50
0
 73
    1
 44
1
  0
CIRCLE
  5
1AB
100
AcDbEntity
  8
debug
  6
ByLayer
 62
    2
370
   -1
100
AcDbCircle
 10
704.5
 20
912
 40
1
  0
MTEXT
  5
1AC
100
AcDbEntity
  8
debug
  6
ByLayer
 62
  256
370
   -1
100
AcDbMText
 10
704.5
 20
912
 30
0
 40
2.5
 41
3.333333333333334
 71
    1
 72
    5
  1
EP
  7
standard
210
0
220
0
230
1
 50
0
 73
    1
 44
1
  0
LINE
  5
1AD
100
AcDbEntity
  8
CenterLines
  6
ByLayer
 62
  256
370
   -1
100
AcDbLine
 10
705
 20
828
 11
705
 21
912
  0
CIRCLE
  5
1AE
100
AcDbEntity
  8
debug
  6
ByLayer
 62
    2
370
   -1
100
AcDbCircle
 10
705
 20
828
 40
1
  0
MTEXT
  5
1AF
100
AcDbEntity
  8
debug
  6
ByLayer
 62
  256
370
   -1
100
AcDbMText
 10
705
 20
828
 30
0
 40
2.5
 41
3.611110581105738
 71
    1
 72
    5
  1
SP
  7
standard
210
0
220
0
230
1
 50
0
 73
    1
 44
1
  0
CIRCLE
  5
1B0
100
AcDbEntity
  8
debug
  6
ByLayer
 62
    2
370
   -1
100
AcDbCircle
 10
705
 20
912
 40
1
  0
MTEXT
  5
1B1
100
AcDbEntity
  8
debug
  6
ByLayer
 62
  256
370
   -1
100
AcDbMText
 10
705
 20
912
 30
0
 40
2.5
 41
3.333333333333334
 71
    1
 72
    5
  1
EP
  7
standard
210
0
220
0
230
1
 50
0
 73
    1
 44
1
  0
LINE
  5
1B2
100
AcDbEntity
  8
CenterLines
  6
ByLayer
 62
  256
370
   -1
100
AcDbLine
 10
704.5
 20
912
 11
704.5
 21
939
  0
CIRCLE
  5
1B3
100
AcDbEntity
  8
debug
  6
ByLayer
 62
    2
370
   -1
100
AcDbCircle
 10
704.5
 20
912
 40
1
  0
MTEXT
  5
1B4
100
AcDbEntity
  8
debug
  6
ByLayer
 62
  256
370
   -1
100
AcDbMText
 10
704.5
 20
912
 30
0
 40
2.5
 41
3.611110581105738
 71
    1
 72
    5
  1
SP
  7
standard
210
0
220
0
230
1
 50
0
 73
    1
 44
1
  0
CIRCLE
  5
1B5
100
AcDbEntity
  8
debug
  6
ByLayer
 62
    2
370
   -1
100
AcDbCircle
 10
704.5
 20
939
 40
1
  0
MTEXT
  5
1B6
100
AcDbEntity
  8
debug
  6
ByLayer
 62
  256
370
   -1
100
AcDbMText
 10
704.5
 20
939
 30
0
 40
2.5
 41
3.333333333333334
 71
    1
 72
    5
  1
EP
  7
standard
210
0
220
0
230
1
 50
0
 73
    1
 44
1
  0
LINE
  5
1B7
100
AcDbEntity
  8
CenterLines
  6
ByLayer
 62
  256
370
   -1
100
AcDbLine
 10
705
 20
912
 11
705
 21
912
  0
CIRCLE
  5
1B8
100
AcDbEntity
  8
debug
  6
ByLayer
 62
    2
370
   -1
100
AcDbCircle
 10
705
 20
912
 40
1
  0
MTEXT
  5
1B9
100
AcDbEntity
  8
debug
  6
ByLayer
 62
  256
370
   -1
100
AcDbMText
 10
705
 20
912
 30
0
 40
2.5
 41
3.611110581105738
 71
    1
 72
    5
  1
SP
  7
standard
210
0
220
0
230
1
 50
0
 73
    1
 44
1
  0
CIRCLE
  5
1BA
100
AcDbEntity
  8
debug
  6
ByLayer
 62
    2
370
   -1
100
AcDbCircle
 10
705
 20
912
 40
1
  0
MTEXT
  5
1BB
100
AcDbEntity
  8
debug
  6
ByLayer
 62
  256
370
   -1
100
AcDbMText
 10
705
 20
912
 30
0
 40
2.5
 41
3.333333333333334
 71
    1
 72
    5
  1
EP
  7
standard
210
0
220
0
230
1
 50
0
 73
    1
 44
1
  0
LINE
  5
1BC
100
AcDbEntity
  8
CenterLines
  6
ByLayer
 62
  256
370
   -1
100
AcDbLine
 10
706.5
 20
912
 11
706.5
 21
912
  0
CIRCLE
  5
1BD
100
AcDbEntity
  8
debug
  6
ByLayer
 62
    2
370
   -1
100
AcDbCircle
 10
706.5
 20
912
 40
1
  0
MTEXT
  5
1BE
100
AcDbEntity
  8
debug
  6
ByLayer
 62
  256
370
   -1
100
AcDbMText
 10
706.5
 20
912
 30
0
 40
2.5
 41
3.611110581105738
 71
    1
 72
    5
  1
SP
  7
standard
210
0
220
0
230
1
 50
0
 73
    1
 44
1
  0
CIRCLE
  5
1BF
100
AcDbEntity
  8
debug
  6
ByLayer
 62
    2
370
   -1
100
AcDbCircle
 10
706.5
 20
912
 40
1
  0
MTEXT
  5
1C0
100
AcDbEntity
  8
debug
  6
ByLayer
 62
  256
370
   -1
100
AcDbMText
 10
706.5
 20
912
 30
0
 40
2.5
 41
3.333333333333334
 71
    1
 72
    5
  1
EP
  7
standard
210
0
220
0
230
1
 50
0
 73
    1
 44
1
  0
LINE
  5
1C1
100
AcDbEntity
  8
CenterLines
  6
ByLayer
 62
  256
370
   -1
100
AcDbLine
 10
748.5
 20
723
 11
748.5
 21
741
  0
CIRCLE
  5
1C2
100
AcDbEntity
  8
debug
  6
ByLayer
 62
    2
370
   -1
100
AcDbCircle
 10
748.5
 20
723
 40
1
  0
MTEXT
  5
1C3
100
AcDbEntity
  8
debug
  6
ByLayer
 62
  256
370
   -1
100
AcDbMText
 10
748.5
 20
723
 30
0
 40
2.5
 41
3.611110581105738
 71
    1
 72
    5
  1
SP
  7
standard
210
0
220
0
230
1
 50
0
 73
    1
 44
1
  0
CIRCLE
  5
1C4
100
AcDbEntity
  8
debug
  6
ByLayer
 62
    2
370
   -1
100
AcDbCircle
 10
748.5
 20
741
 40
1
  0
MTEXT
  5
1C5
100
AcDbEntity
  8
debug
  6
ByLayer
 62
  256
370
   -1
100
AcDbMText
 10
748.5
 20
741
 30
0
 40
2.5
 41
3.333333333333334
 71
    1
 72
    5
  1
EP
  7
standard
210
0
220
0
230
1
 50
0
 73
    1
 44
1
  0
LINE
  5
1C6
100
AcDbEntity
  8
CenterLines
  6
ByLayer
 62
  256
370
   -1
100
AcDbLine
 10
750
 20
723
 11
750
 21
723
  0
CIRCLE
  5
1C7
100
AcDbEntity
  8
debug
  6
ByLayer
 62
    2
370
   -1
100
AcDbCircle
 10
750
 20
723
 40
1
  0
MTEXT
  5
1C8
100
AcDbEntity
  8
debug
  6
ByLayer
 62
  256
370
   -1
100
AcDbMText
 10
750
 20
723
 30
0
 40
2.5
 41
3.611110581105738
 71
    1
 72
    5
  1
SP
  7
standard
210
0
220
0
230
1
 50
0
 73
    1
 44
1
  0
CIRCLE
  5
1C9
100
AcDbEntity
  8
debug
  6
ByLayer
 62
    2
370
   -1
100
AcDbCircle
 10
750
 20
723
 40
1
  0
MTEXT
  5
1CA
100
AcDbEntity
  8
debug
  6
ByLayer
 62
  256
370
   -1
100
AcDbMText
 10
750
 20
723
 30
0
 40
2.5
 41
3.333333333333334
 71
    1
 72
    5
  1
EP
  7
standard
210
0
220
0
230
1
 50
0
 73
    1
 44
1
  0
LINE
  5
1CB
100
AcDbEntity
  8
CenterLines
  6
ByLayer
 62
  256
370
   -1
100
AcDbLine
 10
748.5
 20
752
 11
748.5
 21
777
  0
CIRCLE
  5
1CC
100
AcDbEntity
  8
debug
  6
ByLayer
 62
    2
370
   -1
100
AcDbCircle
 10
748.5
 20
752
 40
1
  0
MTEXT
  5
1CD
100
AcDbEntity
  8
debug
  6
ByLayer
 62
  256
370
   -1
100
AcDbMText
 10
748.5
 20
752
 30
0
 40
2.5
 41
3.611110581105738
 71
    1
 72
    5
  1
SP
  7
standard
210
0
220
0
230
1
 50
0
 73
    1
 44
1
  0
CIRCLE
  5
1CE
100
AcDbEntity
  8
debug
  6
ByLayer
 62
    2
370
   -1
100
AcDbCircle
 10
748.5
 20
777
 40
1
  0
MTEXT
  5
1CF
100
AcDbEntity
  8
debug
  6
ByLayer
 62
  256
370
   -1
100
AcDbMText
 10
748.5
 20
777
 30
0
 40
2.5
 41
3.333333333333334
 71
    1
 72
    5
  1
EP
  7
standard
210
0
220
0
230
1
 50
0
 73
    1
 44
1
  0
LINE
  5
1D0
100
AcDbEntity
  8
CenterLines
  6
ByLayer
 62
  256
370
   -1
100
AcDbLine
 10
750
 20
777
 11
750
 21
777
  0
CIRCLE
  5
1D1
100
AcDbEntity
  8
debug
  6
ByLayer
 62
    2
370
   -1
100
AcDbCircle
 10
750
 20
777
 40
1
  0
MTEXT
  5
1D2
100
AcDbEntity
  8
debug
  6
ByLayer
 62
  256
370
   -1
100
AcDbMText
 10
750
 20
777
 30
0
 40
2.5
 41
3.611110581105738
 71
    1
 72
    5
  1
SP
  7
standard
210
0
220
0
230
1
 50
0
 73
    1
 44
1
  0
CIRCLE
  5
1D3
100
AcDbEntity
  8
debug
  6
ByLayer
 62
    2
370
   -1
100
AcDbCircle
 10
750
 20
777
 40
1
  0
MTEXT
  5
1D4
100
AcDbEntity
  8
debug
  6
ByLayer
 62
  256
370
   -1
100
AcDbMText
 10
750
 20
777
 30
0
 40
2.5
 41
3.333333333333334
 71
    1
 72
    5
  1
EP
  7
standard
210
0
220
0
230
1
 50
0
 73
    1
 44
1
  0
LINE
  5
1D5
100
AcDbEntity
  8
CenterLines
  6
ByLayer
 62
  256
370
   -1
100
AcDbLine
 10
752.5
 20
723
 11
752.5
 21
723
  0
CIRCLE
  5
1D6
100
AcDbEntity
  8
debug
  6
ByLayer
 62
    2
370
   -1
100
AcDbCircle
 10
752.5
 20
723
 40
1
  0
MTEXT
  5
1D7
100
AcDbEntity
  8
debug
  6
ByLayer
 62
  256
370
   -1
100
AcDbMText
 10
752.5
 20
723
 30
0
 40
2.5
 41
3.611110581105738
 71
    1
 72
    5
  1
SP
  7
standard
210
0
220
0
230
1
 50
0
 73
    1
 44
1
  0
CIRCLE
  5
1D8
100
AcDbEntity
  8
debug
  6
ByLayer
 62
    2
370
   -1
100
AcDbCircle
 10
752.5
 20
723
 40
1
  0
MTEXT
  5
1D9
100
AcDbEntity
  8
debug
  6
ByLayer
 62
  256
370
   -1
100
AcDbMText
 10
752.5
 20
723
 30
0
 40
2.5
 41
3.333333333333334
 71
    1
 72
    5
  1
EP
  7
standard
210
0
220
0
230
1
 50
0
 73
    1
 44
1
  0
LINE
  5
1DA
100
AcDbEntity
  8
CenterLines
  6
ByLayer
 62
  256
370
   -1
100
AcDbLine
 10
752.5
 20
777
 11
752.5
 21
777
  0
CIRCLE
  5
1DB
100
AcDbEntity
  8
debug
  6
ByLayer
 62
    2
370
   -1
100
AcDbCircle
 10
752.5
 20
777
 40
1
  0
MTEXT
  5
1DC
100
AcDbEntity
  8
debug
  6
ByLayer
 62
  256
370
   -1
100
AcDbMText
 10
752.5
 20
777
 30
0
 40
2.5
 41
3.611110581105738
 71
    1
 72
    5
  1
SP
  7
standard
210
0
220
0
230
1
 50
0
 73
    1
 44
1
  0
CIRCLE
  5
1DD
100
AcDbEntity
  8
debug
  6
ByLayer
 62
    2
370
   -1
100
AcDbCircle
 10
752.5
 20
777
 40
1
  0
MTEXT
  5
1DE
100
AcDbEntity
  8
debug
  6
ByLayer
 62
  256
370
   -1
100
AcDbMText
 10
752.5
 20
777
 30
0
 40
2.5
 41
3.333333333333334
 71
    1
 72
    5
  1
EP
  7
standard
210
0
220
0
230
1
 50
0
 73
    1
 44
1
  0
LINE
  5
1DF
100
AcDbEntity
  8
CenterLines
  6
ByLayer
 62
  256
370
   -1
100
AcDbLine
 10
763
 20
718
 11
763
 21
723
  0
CIRCLE
  5
1E0
100
AcDbEntity
  8
debug
  6
ByLayer
 62
    2
370
   -1
100
AcDbCircle
 10
763
 20
718
 40
1
  0
MTEXT
  5
1E1
100
AcDbEntity
  8
debug
  6
ByLayer
 62
  256
370
   -1
100
AcDbMText
 10
763
 20
718
 30
0
 40
2.5
 41
3.611110581105738
 71
    1
 72
    5
  1
SP
  7
standard
210
0
220
0
230
1
 50
0
 73
    1
 44
1
  0
CIRCLE
  5
1E2
100
AcDbEntity
  8
debug
  6
ByLayer
 62
    2
370
   -1
100
AcDbCircle
 10
763
 20
723
 40
1
  0
MTEXT
  5
1E3
100
AcDbEntity
  8
debug
  6
ByLayer
 62
  256
370
   -1
100
AcDbMText
 10
763
 20
723
 30
0
 40
2.5
 41
3.333333333333334
 71
    1
 72
    5
  1
EP
  7
standard
210
0
220
0
230
1
 50
0
 73
    1
 44
1
  0
LINE
  5
1E4
100
AcDbEntity
  8
CenterLines
  6
ByLayer
 62
  256
370
   -1
100
AcDbLine
 10
763
 20
781
 11
763
 21
777
  0
CIRCLE
  5
1E5
100
AcDbEntity
  8
debug
  6
ByLayer
 62
    2
370
   -1
100
AcDbCircle
 10
763
 20
781
 40
1
  0
MTEXT
  5
1E6
100
AcDbEntity
  8
debug
  6
ByLayer
 62
  256
370
   -1
100
AcDbMText
 10
763
 20
781
 30
0
 40
2.5
 41
3.611110581105738
 71
    1
 72
    5
  1
SP
  7
standard
210
0
220
0
230
1
 50
0
 73
    1
 44
1
  0
CIRCLE
  5
1E7
100
AcDbEntity
  8
debug
  6
ByLayer
 62
    2
370
   -1
100
AcDbCircle
 10
763
 20
777
 40
1
  0
MTEXT
  5
1E8
100
AcDbEntity
  8
debug
  6
ByLayer
 62
  256
370
   -1
100
AcDbMText
 10
763
 20
777
 30
0
 40
2.5
 41
3.333333333333334
 71
    1
 72
    5
  1
EP
  7
standard
210
0
220
0
230
1
 50
0
 73
    1
 44
1
  0
LINE
  5
1E9
100
AcDbEntity
  8
CenterLines
  6
ByLayer
 62
  256
370
   -1
100
AcDbLine
 10
772.5
 20
399
 11
772.5
 21
399
  0
CIRCLE
  5
1EA
100
AcDbEntity
  8
debug
  6
ByLayer
 62
    2
370
   -1
100
AcDbCircle
 10
772.5
 20
399
 40
1
  0
MTEXT
  5
1EB
100
AcDbEntity
  8
debug
  6
ByLayer
 62
  256
370
   -1
100
AcDbMText
 10
772.5
 20
399
 30
0
 40
2.5
 41
3.611110581105738
 71
    1
 72
    5
  1
SP
  7
standard
210
0
220
0
230
1
 50
0
 73
    1
 44
1
  0
CIRCLE
  5
1EC
100
AcDbEntity
  8
debug
  6
ByLayer
 62
    2
370
   -1
100
AcDbCircle
 10
772.5
 20
399
 40
1
  0
MTEXT
  5
1ED
100
AcDbEntity
  8
debug
  6
ByLayer
 62
  256
370
   -1
100
AcDbMText
 10
772.5
 20
399
 30
0
 40
2.5
 41
3.333333333333334
 71
    1
 72
    5
  1
EP
  7
standard
210
0
220
0
230
1
 50
0
 73
    1
 44
1
  0
LINE
  5
1EE
100
AcDbEntity
  8
CenterLines
  6
ByLayer
 62
  256
370
   -1
100
AcDbLine
 10
777
 20
390
 11
777
 21
399
  0
CIRCLE
  5
1EF
100
AcDbEntity
  8
debug
  6
ByLayer
 62
    2
370
   -1
100
AcDbCircle
 10
777
 20
390
 40
1
  0
MTEXT
  5
1F0
100
AcDbEntity
  8
debug
  6
ByLayer
 62
  256
370
   -1
100
AcDbMText
 10
777
 20
390
 30
0
 40
2.5
 41
3.611110581105738
 71
    1
 72
    5
  1
SP
  7
standard
210
0
220
0
230
1
 50
0
 73
    1
 44
1
  0
CIRCLE
  5
1F1
100
AcDbEntity
  8
debug
  6
ByLayer
 62
    2
370
   -1
100
AcDbCircle
 10
777
 20
399
 40
1
  0
MTEXT
  5
1F2
100
AcDbEntity
  8
debug
  6
ByLayer
 62
  256
370
   -1
100
AcDbMText
 10
777
 20
399
 30
0
 40
2.5
 41
3.333333333333334
 71
    1
 72
    5
  1
EP
  7
standard
210
0
220
0
230
1
 50
0
 73
    1
 44
1
  0
LINE
  5
1F3
100
AcDbEntity
  8
CenterLines
  6
ByLayer
 62
  256
370
   -1
100
AcDbLine
 10
773.5
 20
718
 11
773.5
 21
718
  0
CIRCLE
  5
1F4
100
AcDbEntity
  8
debug
  6
ByLayer
 62
    2
370
   -1
100
AcDbCircle
 10
773.5
 20
718
 40
1
  0
MTEXT
  5
1F5
100
AcDbEntity
  8
debug
  6
ByLayer
 62
  256
370
   -1
100
AcDbMText
 10
773.5
 20
718
 30
0
 40
2.5
 41
3.611110581105738
 71
    1
 72
    5
  1
SP
  7
standard
210
0
220
0
230
1
 50
0
 73
    1
 44
1
  0
CIRCLE
  5
1F6
100
AcDbEntity
  8
debug
  6
ByLayer
 62
    2
370
   -1
100
AcDbCircle
 10
773.5
 20
718
 40
1
  0
MTEXT
  5
1F7
100
AcDbEntity
  8
debug
  6
ByLayer
 62
  256
370
   -1
100
AcDbMText
 10
773.5
 20
718
 30
0
 40
2.5
 41
3.333333333333334
 71
    1
 72
    5
  1
EP
  7
standard
210
0
220
0
230
1
 50
0
 73
    1
 44
1
  0
LINE
  5
1F8
100
AcDbEntity
  8
CenterLines
  6
ByLayer
 62
  256
370
   -1
100
AcDbLine
 10
773.5
 20
723
 11
773.5
 21
723
  0
CIRCLE
  5
1F9
100
AcDbEntity
  8
debug
  6
ByLayer
 62
    2
370
   -1
100
AcDbCircle
 10
773.5
 20
723
 40
1
  0
MTEXT
  5
1FA
100
AcDbEntity
  8
debug
  6
ByLayer
 62
  256
370
   -1
100
AcDbMText
 10
773.5
 20
723
 30
0
 40
2.5
 41
3.611110581105738
 71
    1
 72
    5
  1
SP
  7
standard
210
0
220
0
230
1
 50
0
 73
    1
 44
1
  0
CIRCLE
  5
1FB
100
AcDbEntity
  8
debug
  6
ByLayer
 62
    2
370
   -1
100
AcDbCircle
 10
773.5
 20
723
 40
1
  0
MTEXT
  5
1FC
100
AcDbEntity
  8
debug
  6
ByLayer
 62
  256
370
   -1
100
AcDbMText
 10
773.5
 20
723
 30
0
 40
2.5
 41
3.333333333333334
 71
    1
 72
    5
  1
EP
  7
standard
210
0
220
0
230
1
 50
0
 73
    1
 44
1
  0
LINE
  5
1FD
100
AcDbEntity
  8
CenterLines
  6
ByLayer
 62
  256
370
   -1
100
AcDbLine
 10
778
 20
718
 11
778
 21
723
  0
CIRCLE
  5
1FE
100
AcDbEntity
  8
debug
  6
ByLayer
 62
    2
370
   -1
100
AcDbCircle
 10
778
 20
718
 40
1
  0
MTEXT
  5
1FF
100
AcDbEntity
  8
debug
  6
ByLayer
 62
  256
370
   -1
100
AcDbMText
 10
778
 20
718
 30
0
 40
2.5
 41
3.611110581105738
 71
    1
 72
    5
  1
SP
  7
standard
210
0
220
0
230
1
 50
0
 73
    1
 44
1
  0
CIRCLE
  5
200
100
AcDbEntity
  8
debug
  6
ByLayer
 62
    2
370
   -1
100
AcDbCircle
 10
778
 20
723
 40
1
  0
MTEXT
  5
201
100
AcDbEntity
  8
debug
  6
ByLayer
 62
  256
370
   -1
100
AcDbMText
 10
778
 20
723
 30
0
 40
2.5
 41
3.333333333333334
 71
    1
 72
    5
  1
EP
  7
standard
210
0
220
0
230
1
 50
0
 73
    1
 44
1
  0
LINE
  5
202
100
AcDbEntity
  8
CenterLines
  6
ByLayer
 62
  256
370
   -1
100
AcDbLine
 10
773.5
 20
777
 11
773.5
 21
777
  0
CIRCLE
  5
203
100
AcDbEntity
  8
debug
  6
ByLayer
 62
    2
370
   -1
100
AcDbCircle
 10
773.5
 20
777
 40
1
  0
MTEXT
  5
204
100
AcDbEntity
  8
debug
  6
ByLayer
 62
  256
370
   -1
100
AcDbMText
 10
773.5
 20
777
 30
0
 40
2.5
 41
3.611110581105738
 71
    1
 72
    5
  1
SP
  7
standard
210
0
220
0
230
1
 50
0
 73
    1
 44
1
  0
CIRCLE
  5
205
100
AcDbEntity
  8
debug
  6
ByLayer
 62
    2
370
   -1
100
AcDbCircle
 10
773.5
 20
777
 40
1
  0
MTEXT
  5
206
100
AcDbEntity
  8
debug
  6
ByLayer
 62
  256
370
   -1
100
AcDbMText
 10
773.5
 20
777
 30
0
 40
2.5
 41
3.333333333333334
 71
    1
 72
    5
  1
EP
  7
standard
210
0
220
0
230
1
 50
0
 73
    1
 44
1
  0
LINE
  5
207
100
AcDbEntity
  8
CenterLines
  6
ByLayer
 62
  256
370
   -1
100
AcDbLine
 10
773.5
 20
781
 11
773.5
 21
781
  0
CIRCLE
  5
208
100
AcDbEntity
  8
debug
  6
ByLayer
 62
    2
370
   -1
100
AcDbCircle
 10
773.5
 20
781
 40
1
  0
MTEXT
  5
209
100
AcDbEntity
  8
debug
  6
ByLayer
 62
  256
370
   -1
100
AcDbMText
 10
773.5
 20
781
 30
0
 40
2.5
 41
3.611110581105738
 71
    1
 72
    5
  1
SP
  7
standard
210
0
220
0
230
1
 50
0
 73
    1
 44
1
  0
CIRCLE
  5
20A
100
AcDbEntity
  8
debug
  6
ByLayer
 62
    2
370
   -1
100
AcDbCircle
 10
773.5
 20
781
 40
1
  0
MTEXT
  5
20B
100
AcDbEntity
  8
debug
  6
ByLayer
 62
  256
370
   -1
100
AcDbMText
 10
773.5
 20
781
 30
0
 40
2.5
 41
3.333333333333334
 71
    1
 72
    5
  1
EP
  7
standard
210
0
220
0
230
1
 50
0
 73
    1
 44
1
  0
LINE
  5
20C
100
AcDbEntity
  8
CenterLines
  6
ByLayer
 62
  256
370
   -1
100
AcDbLine
 10
778
 20
781
 11
778
 21
777
  0
CIRCLE
  5
20D
100
AcDbEntity
  8
debug
  6
ByLayer
 62
    2
370
   -1
100
AcDbCircle
 10
778
 20
781
 40
1
  0
MTEXT
  5
20E
100
AcDbEntity
  8
debug
  6
ByLayer
 62
  256
370
   -1
100
AcDbMText
 10
778
 20
781
 30
0
 40
2.5
 41
3.611110581105738
 71
    1
 72
    5
  1
SP
  7
standard
210
0
220
0
230
1
 50
0
 73
    1
 44
1
  0
CIRCLE
  5
20F
100
AcDbEntity
  8
debug
  6
ByLayer
 62
    2
370
   -1
100
AcDbCircle
 10
778
 20
777
 40
1
  0
MTEXT
  5
210
100
AcDbEntity
  8
debug
  6
ByLayer
 62
  256
370
   -1
100
AcDbMText
 10
778
 20
777
 30
0
 40
2.5
 41
3.333333333333334
 71
    1
 72
    5
  1
EP
  7
standard
210
0
220
0
230
1
 50
0
 73
    1
 44
1
  0
LINE
  5
211
100
AcDbEntity
  8
CenterLines
  6
ByLayer
 62
  256
370
   -1
100
AcDbLine
 10
779.5
 20
441
 11
779.5
 21
399
  0
CIRCLE
  5
212
100
AcDbEntity
  8
debug
  6
ByLayer
 62
    2
370
   -1
100
AcDbCircle
 10
779.5
 20
441
 40
1
  0
MTEXT
  5
213
100
AcDbEntity
  8
debug
  6
ByLayer
 62
  256
370
   -1
100
AcDbMText
 10
779.5
 20
441
 30
0
 40
2.5
 41
3.611110581105738
 71
    1
 72
    5
  1
SP
  7
standard
210
0
220
0
230
1
 50
0
 73
    1
 44
1
  0
CIRCLE
  5
214
100
AcDbEntity
  8
debug
  6
ByLayer
 62
    2
370
   -1
100
AcDbCircle
 10
779.5
 20
399
 40
1
  0
MTEXT
  5
215
100
AcDbEntity
  8
debug
  6
ByLayer
 62
  256
370
   -1
100
AcDbMText
 10
779.5
 20
399
 30
0
 40
2.5
 41
3.333333333333334
 71
    1
 72
    5
  1
EP
  7
standard
210
0
220
0
230
1
 50
0
 73
    1
 44
1
  0
LINE
  5
216
100
AcDbEntity
  8
CenterLines
  6
ByLayer
 62
  256
370
   -1
100
AcDbLine
 10
779.5
 20
450
 11
779.5
 21
640
  0
CIRCLE
  5
217
100
AcDbEntity
  8
debug
  6
ByLayer
 62
    2
370
   -1
100
AcDbCircle
 10
779.5
 20
450
 40
1
  0
MTEXT
  5
218
100
AcDbEntity
  8
debug
  6
ByLayer
 62
  256
370
   -1
100
AcDbMText
 10
779.5
 20
450
 30
0
 40
2.5
 41
3.611110581105738
 71
    1
 72
    5
  1
SP
  7
standard
210
0
220
0
230
1
 50
0
 73
    1
 44
1
  0
CIRCLE
  5
219
100
AcDbEntity
  8
debug
  6
ByLayer
 62
    2
370
   -1
100
AcDbCircle
 10
779.5
 20
640
 40
1
  0
MTEXT
  5
21A
100
AcDbEntity
  8
debug
  6
ByLayer
 62
  256
370
   -1
100
AcDbMText
 10
779.5
 20
640
 30
0
 40
2.5
 41
3.333333333333334
 71
    1
 72
    5
  1
EP
  7
standard
210
0
220
0
230
1
 50
0
 73
    1
 44
1
  0
LINE
  5
21B
100
AcDbEntity
  8
CenterLines
  6
ByLayer
 62
  256
370
   -1
100
AcDbLine
 10
779.5
 20
645
 11
779.5
 21
718
  0
CIRCLE
  5
21C
100
AcDbEntity
  8
debug
  6
ByLayer
 62
    2
370
   -1
100
AcDbCircle
 10
779.5
 20
645
 40
1
  0
MTEXT
  5
21D
100
AcDbEntity
  8
debug
  6
ByLayer
 62
  256
370
   -1
100
AcDbMText
 10
779.5
 20
645
 30
0
 40
2.5
 41
3.611110581105738
 71
    1
 72
    5
  1
SP
  7
standard
210
0
220
0
230
1
 50
0
 73
    1
 44
1
  0
CIRCLE
  5
21E
100
AcDbEntity
  8
debug
  6
ByLayer
 62
    2
370
   -1
100
AcDbCircle
 10
779.5
 20
718
 40
1
  0
MTEXT
  5
21F
100
AcDbEntity
  8
debug
  6
ByLayer
 62
  256
370
   -1
100
AcDbMText
 10
779.5
 20
718
 30
0
 40
2.5
 41
3.333333333333334
 71
    1
 72
    5
  1
EP
  7
standard
210
0
220
0
230
1
 50
0
 73
    1
 44
1
  0
LINE
  5
220
100
AcDbEntity
  8
CenterLines
  6
ByLayer
 62
  256
370
   -1
100
AcDbLine
 10
779.5
 20
723
 11
779.5
 21
741
  0
CIRCLE
  5
221
100
AcDbEntity
  8
debug
  6
ByLayer
 62
    2
370
   -1
100
AcDbCircle
 10
779.5
 20
723
 40
1
  0
MTEXT
  5
222
100
AcDbEntity
  8
debug
  6
ByLayer
 62
  256
370
   -1
100
AcDbMText
 10
779.5
 20
723
 30
0
 40
2.5
 41
3.611110581105738
 71
    1
 72
    5
  1
SP
  7
standard
210
0
220
0
230
1
 50
0
 73
    1
 44
1
  0
CIRCLE
  5
223
100
AcDbEntity
  8
debug
  6
ByLayer
 62
    2
370
   -1
100
AcDbCircle
 10
779.5
 20
741
 40
1
  0
MTEXT
  5
224
100
AcDbEntity
  8
debug
  6
ByLayer
 62
  256
370
   -1
100
AcDbMText
 10
779.5
 20
741
 30
0
 40
2.5
 41
3.333333333333334
 71
    1
 72
    5
  1
EP
  7
standard
210
0
220
0
230
1
 50
0
 73
    1
 44
1
  0
LINE
  5
225
100
AcDbEntity
  8
CenterLines
  6
ByLayer
 62
  256
370
   -1
100
AcDbLine
 10
779.5
 20
777
 11
779.5
 21
759
  0
CIRCLE
  5
226
100
AcDbEntity
  8
debug
  6
ByLayer
 62
    2
370
   -1
100
AcDbCircle
 10
779.5
 20
777
 40
1
  0
MTEXT
  5
227
100
AcDbEntity
  8
debug
  6
ByLayer
 62
  256
370
   -1
100
AcDbMText
 10
779.5
 20
777
 30
0
 40
2.5
 41
3.611110581105738
 71
    1
 72
    5
  1
SP
  7
standard
210
0
220
0
230
1
 50
0
 73
    1
 44
1
  0
CIRCLE
  5
228
100
AcDbEntity
  8
debug
  6
ByLayer
 62
    2
370
   -1
100
AcDbCircle
 10
779.5
 20
759
 40
1
  0
MTEXT
  5
229
100
AcDbEntity
  8
debug
  6
ByLayer
 62
  256
370
   -1
100
AcDbMText
 10
779.5
 20
759
 30
0
 40
2.5
 41
3.333333333333334
 71
    1
 72
    5
  1
EP
  7
standard
210
0
220
0
230
1
 50
0
 73
    1
 44
1
  0
LINE
  5
22A
100
AcDbEntity
  8
CenterLines
  6
ByLayer
 62
  256
370
   -1
100
AcDbLine
 10
779.5
 20
781
 11
779.5
 21
882
  0
CIRCLE
  5
22B
100
AcDbEntity
  8
debug
  6
ByLayer
 62
    2
370
   -1
100
AcDbCircle
 10
779.5
 20
781
 40
1
  0
MTEXT
  5
22C
100
AcDbEntity
  8
debug
  6
ByLayer
 62
  256
370
   -1
100
AcDbMText
 10
779.5
 20
781
 30
0
 40
2.5
 41
3.611110581105738
 71
    1
 72
    5
  1
SP
  7
standard
210
0
220
0
230
1
 50
0
 73
    1
 44
1
  0
CIRCLE
  5
22D
100
AcDbEntity
  8
debug
  6
ByLayer
 62
    2
370
   -1
100
AcDbCircle
 10
779.5
 20
882
 40
1
  0
MTEXT
  5
22E
100
AcDbEntity
  8
debug
  6
ByLayer
 62
  256
370
   -1
100
AcDbMText
 10
779.5
 20
882
 30
0
 40
2.5
 41
3.333333333333334
 71
    1
 72
    5
  1
EP
  7
standard
210
0
220
0
230
1
 50
0
 73
    1
 44
1
  0
LINE
  5
22F
100
AcDbEntity
  8
CenterLines
  6
ByLayer
 62
  256
370
   -1
100
AcDbLine
 10
779.5
 20
886
 11
779.5
 21
972
  0
CIRCLE
  5
230
100
AcDbEntity
  8
debug
  6
ByLayer
 62
    2
370
   -1
100
AcDbCircle
 10
779.5
 20
886
 40
1
  0
MTEXT
  5
231
100
AcDbEntity
  8
debug
  6
ByLayer
 62
  256
370
   -1
100
AcDbMText
 10
779.5
 20
886
 30
0
 40
2.5
 41
3.611110581105738
 71
    1
 72
    5
  1
SP
  7
standard
210
0
220
0
230
1
 50
0
 73
    1
 44
1
  0
CIRCLE
  5
232
100
AcDbEntity
  8
debug
  6
ByLayer
 62
    2
370
   -1
100
AcDbCircle
 10
779.5
 20
972
 40
1
  0
MTEXT
  5
233
100
AcDbEntity
  8
debug
  6
ByLayer
 62
  256
370
   -1
100
AcDbMText
 10
779.5
 20
972
 30
0
 40
2.5
 41
3.333333333333334
 71
    1
 72
    5
  1
EP
  7
standard
210
0
220
0
230
1
 50
0
 73
    1
 44
1
  0
LINE
  5
234
100
AcDbEntity
  8
CenterLines
  6
ByLayer
 62
  256
370
   -1
100
AcDbLine
 10
337
 20
541.5
 11
528
 21
541.5
  0
CIRCLE
  5
235
100
AcDbEntity
  8
debug
  6
ByLayer
 62
    2
370
   -1
100
AcDbCircle
 10
337
 20
541.5
 40
1
  0
MTEXT
  5
236
100
AcDbEntity
  8
debug
  6
ByLayer
 62
  256
370
   -1
100
AcDbMText
 10
337
 20
541.5
 30
0
 40
2.5
 41
3.611110581105738
 71
    1
 72
    5
  1
SP
  7
standard
210
0
220
0
230
1
 50
0
 73
    1
 44
1
  0
CIRCLE
  5
237
100
AcDbEntity
  8
debug
  6
ByLayer
 62
    2
370
   -1
100
AcDbCircle
 10
528
 20
541.5
 40
1
  0
MTEXT
  5
238
100
AcDbEntity
  8
debug
  6
ByLayer
 62
  256
370
   -1
100
AcDbMText
 10
528
 20
541.5
 30
0
 40
2.5
 41
3.333333333333334
 71
    1
 72
    5
  1
EP
  7
standard
210
0
220
0
230
1
 50
0
 73
    1
 44
1
  0
LINE
  5
239
100
AcDbEntity
  8
CenterLines
  6
ByLayer
 62
  256
370
   -1
100
AcDbLine
 10
337
 20
976.5
 11
464
 21
976.5
  0
CIRCLE
  5
23A
100
AcDbEntity
  8
debug
  6
ByLayer
 62
    2
370
   -1
100
AcDbCircle
 10
337
 20
976.5
 40
1
  0
MTEXT
  5
23B
100
AcDbEntity
  8
debug
  6
ByLayer
 62
  256
370
   -1
100
AcDbMText
 10
337
 20
976.5
 30
0
 40
2.5
 41
3.611110581105738
 71
    1
 72
    5
  1
SP
  7
standard
210
0
220
0
230
1
 50
0
 73
    1
 44
1
  0
CIRCLE
  5
23C
100
AcDbEntity
  8
debug
  6
ByLayer
 62
    2
370
   -1
100
AcDbCircle
 10
464
 20
976.5
 40
1
  0
MTEXT
  5
23D
100
AcDbEntity
  8
debug
  6
ByLayer
 62
  256
370
   -1
100
AcDbMText
 10
464
 20
976.5
 30
0
 40
2.5
 41
3.333333333333334
 71
    1
 72
    5
  1
EP
  7
standard
210
0
220
0
230
1
 50
0
 73
    1
 44
1
  0
LINE
  5
23E
100
AcDbEntity
  8
CenterLines
  6
ByLayer
 62
  256
370
   -1
100
AcDbLine
 10
337
 20
825.5
 11
512
 21
825.5
  0
CIRCLE
  5
23F
100
AcDbEntity
  8
debug
  6
ByLayer
 62
    2
370
   -1
100
AcDbCircle
 10
337
 20
825.5
 40
1
  0
MTEXT
  5
240
100
AcDbEntity
  8
debug
  6
ByLayer
 62
  256
370
   -1
100
AcDbMText
 10
337
 20
825.5
 30
0
 40
2.5
 41
3.611110581105738
 71
    1
 72
    5
  1
SP
  7
standard
210
0
220
0
230
1
 50
0
 73
    1
 44
1
  0
CIRCLE
  5
241
100
AcDbEntity
  8
debug
  6
ByLayer
 62
    2
370
   -1
100
AcDbCircle
 10
512
 20
825.5
 40
1
  0
MTEXT
  5
242
100
AcDbEntity
  8
debug
  6
ByLayer
 62
  256
370
   -1
100
AcDbMText
 10
512
 20
825.5
 30
0
 40
2.5
 41
3.333333333333334
 71
    1
 72
    5
  1
EP
  7
standard
210
0
220
0
230
1
 50
0
 73
    1
 44
1
  0
LINE
  5
243
100
AcDbEntity
  8
CenterLines
  6
ByLayer
 62
  256
370
   -1
100
AcDbLine
 10
505
 20
976.5
 11
554
 21
976.5
  0
CIRCLE
  5
244
100
AcDbEntity
  8
debug
  6
ByLayer
 62
    2
370
   -1
100
AcDbCircle
 10
505
 20
976.5
 40
1
  0
MTEXT
  5
245
100
AcDbEntity
  8
debug
  6
ByLayer
 62
  256
370
   -1
100
AcDbMText
 10
505
 20
976.5
 30
0
 40
2.5
 41
3.611110581105738
 71
    1
 72
    5
  1
SP
  7
standard
210
0
220
0
230
1
 50
0
 73
    1
 44
1
  0
CIRCLE
  5
246
100
AcDbEntity
  8
debug
  6
ByLayer
 62
    2
370
   -1
100
AcDbCircle
 10
554
 20
976.5
 40
1
  0
MTEXT
  5
247
100
AcDbEntity
  8
debug
  6
ByLayer
 62
  256
370
   -1
100
AcDbMText
 10
554
 20
976.5
 30
0
 40
2.5
 41
3.333333333333334
 71
    1
 72
    5
  1
EP
  7
standard
210
0
220
0
230
1
 50
0
 73
    1
 44
1
  0
LINE
  5
248
100
AcDbEntity
  8
CenterLines
  6
ByLayer
 62
  256
370
   -1
100
AcDbLine
 10
517
 20
878
 11
554
 21
878
  0
CIRCLE
  5
249
100
AcDbEntity
  8
debug
  6
ByLayer
 62
    2
370
   -1
100
AcDbCircle
 10
517
 20
878
 40
1
  0
MTEXT
  5
24A
100
AcDbEntity
  8
debug
  6
ByLayer
 62
  256
370
   -1
100
AcDbMText
 10
517
 20
878
 30
0
 40
2.5
 41
3.611110581105738
 71
    1
 72
    5
  1
SP
  7
standard
210
0
220
0
230
1
 50
0
 73
    1
 44
1
  0
CIRCLE
  5
24B
100
AcDbEntity
  8
debug
  6
ByLayer
 62
    2
370
   -1
100
AcDbCircle
 10
554
 20
878
 40
1
  0
MTEXT
  5
24C
100
AcDbEntity
  8
debug
  6
ByLayer
 62
  256
370
   -1
100
AcDbMText
 10
554
 20
878
 30
0
 40
2.5
 41
3.333333333333334
 71
    1
 72
    5
  1
EP
  7
standard
210
0
220
0
230
1
 50
0
 73
    1
 44
1
  0
LINE
  5
24D
100
AcDbEntity
  8
CenterLines
  6
ByLayer
 62
  256
370
   -1
100
AcDbLine
 10
558
 20
541.5
 11
614
 21
541.5
  0
CIRCLE
  5
24E
100
AcDbEntity
  8
debug
  6
ByLayer
 62
    2
370
   -1
100
AcDbCircle
 10
558
 20
541.5
 40
1
  0
MTEXT
  5
24F
100
AcDbEntity
  8
debug
  6
ByLayer
 62
  256
370
   -1
100
AcDbMText
 10
558
 20
541.5
 30
0
 40
2.5
 41
3.611110581105738
 71
    1
 72
    5
  1
SP
  7
standard
210
0
220
0
230
1
 50
0
 73
    1
 44
1
  0
CIRCLE
  5
250
100
AcDbEntity
  8
debug
  6
ByLayer
 62
    2
370
   -1
100
AcDbCircle
 10
614
 20
541.5
 40
1
  0
MTEXT
  5
251
100
AcDbEntity
  8
debug
  6
ByLayer
 62
  256
370
   -1
100
AcDbMText
 10
614
 20
541.5
 30
0
 40
2.5
 41
3.333333333333334
 71
    1
 72
    5
  1
EP
  7
standard
210
0
220
0
230
1
 50
0
 73
    1
 44
1
  0
LINE
  5
252
100
AcDbEntity
  8
CenterLines
  6
ByLayer
 62
  256
370
   -1
100
AcDbLine
 10
601
 20
825.5
 11
703
 21
825.5
  0
CIRCLE
  5
253
100
AcDbEntity
  8
debug
  6
ByLayer
 62
    2
370
   -1
100
AcDbCircle
 10
601
 20
825.5
 40
1
  0
MTEXT
  5
254
100
AcDbEntity
  8
debug
  6
ByLayer
 62
  256
370
   -1
100
AcDbMText
 10
601
 20
825.5
 30
0
 40
2.5
 41
3.611110581105738
 71
    1
 72
    5
  1
SP
  7
standard
210
0
220
0
230
1
 50
0
 73
    1
 44
1
  0
CIRCLE
  5
255
100
AcDbEntity
  8
debug
  6
ByLayer
 62
    2
370
   -1
100
AcDbCircle
 10
703
 20
825.5
 40
1
  0
MTEXT
  5
256
100
AcDbEntity
  8
debug
  6
ByLayer
 62
  256
370
   -1
100
AcDbMText
 10
703
 20
825.5
 30
0
 40
2.5
 41
3.333333333333334
 71
    1
 72
    5
  1
EP
  7
standard
210
0
220
0
230
1
 50
0
 73
    1
 44
1
  0
LINE
  5
257
100
AcDbEntity
  8
CenterLines
  6
ByLayer
 62
  256
370
   -1
100
AcDbLine
 10
601
 20
976.5
 11
775
 21
976.5
  0
CIRCLE
  5
258
100
AcDbEntity
  8
debug
  6
ByLayer
 62
    2
370
   -1
100
AcDbCircle
 10
601
 20
976.5
 40
1
  0
MTEXT
  5
259
100
AcDbEntity
  8
debug
  6
ByLayer
 62
  256
370
   -1
100
AcDbMText
 10
601
 20
976.5
 30
0
 40
2.5
 41
3.611110581105738
 71
    1
 72
    5
  1
SP
  7
standard
210
0
220
0
230
1
 50
0
 73
    1
 44
1
  0
CIRCLE
  5
25A
100
AcDbEntity
  8
debug
  6
ByLayer
 62
    2
370
   -1
100
AcDbCircle
 10
775
 20
976.5
 40
1
  0
MTEXT
  5
25B
100
AcDbEntity
  8
debug
  6
ByLayer
 62
  256
370
   -1
100
AcDbMText
 10
775
 20
976.5
 30
0
 40
2.5
 41
3.333333333333334
 71
    1
 72
    5
  1
EP
  7
standard
210
0
220
0
230
1
 50
0
 73
    1
 44
1
  0
LINE
  5
25C
100
AcDbEntity
  8
CenterLines
  6
ByLayer
 62
  256
370
   -1
100
AcDbLine
 10
619
 20
445.5
 11
642
 21
445.5
  0
CIRCLE
  5
25D
100
AcDbEntity
  8
debug
  6
ByLayer
 62
    2
370
   -1
100
AcDbCircle
 10
619
 20
445.5
 40
1
  0
MTEXT
  5
25E
100
AcDbEntity
  8
debug
  6
ByLayer
 62
  256
370
   -1
100
AcDbMText
 10
619
 20
445.5
 30
0
 40
2.5
 41
3.611110581105738
 71
    1
 72
    5
  1
SP
  7
standard
210
0
220
0
230
1
 50
0
 73
    1
 44
1
  0
CIRCLE
  5
25F
100
AcDbEntity
  8
debug
  6
ByLayer
 62
    2
370
   -1
100
AcDbCircle
 10
642
 20
445.5
 40
1
  0
MTEXT
  5
260
100
AcDbEntity
  8
debug
  6
ByLayer
 62
  256
370
   -1
100
AcDbMText
 10
642
 20
445.5
 30
0
 40
2.5
 41
3.333333333333334
 71
    1
 72
    5
  1
EP
  7
standard
210
0
220
0
230
1
 50
0
 73
    1
 44
1
  0
LINE
  5
261
100
AcDbEntity
  8
CenterLines
  6
ByLayer
 62
  256
370
   -1
100
AcDbLine
 10
646
 20
445.5
 11
661
 21
445.5
  0
CIRCLE
  5
262
100
AcDbEntity
  8
debug
  6
ByLayer
 62
    2
370
   -1
100
AcDbCircle
 10
646
 20
445.5
 40
1
  0
MTEXT
  5
263
100
AcDbEntity
  8
debug
  6
ByLayer
 62
  256
370
   -1
100
AcDbMText
 10
646
 20
445.5
 30
0
 40
2.5
 41
3.611110581105738
 71
    1
 72
    5
  1
SP
  7
standard
210
0
220
0
230
1
 50
0
 73
    1
 44
1
  0
CIRCLE
  5
264
100
AcDbEntity
  8
debug
  6
ByLayer
 62
    2
370
   -1
100
AcDbCircle
 10
661
 20
445.5
 40
1
  0
MTEXT
  5
265
100
AcDbEntity
  8
debug
  6
ByLayer
 62
  256
370
   -1
100
AcDbMText
 10
661
 20
445.5
 30
0
 40
2.5
 41
3.333333333333334
 71
    1
 72
    5
  1
EP
  7
standard
210
0
220
0
230
1
 50
0
 73
    1
 44
1
  0
LINE
  5
266
100
AcDbEntity
  8
CenterLines
  6
ByLayer
 62
  256
370
   -1
100
AcDbLine
 10
646
 20
394.5
 11
651
 21
394.5
  0
CIRCLE
  5
267
100
AcDbEntity
  8
debug
  6
ByLayer
 62
    2
370
   -1
100
AcDbCircle
 10
646
 20
394.5
 40
1
  0
MTEXT
  5
268
100
AcDbEntity
  8
debug
  6
ByLayer
 62
  256
370
   -1
100
AcDbMText
 10
646
 20
394.5
 30
0
 40
2.5
 41
3.611110581105738
 71
    1
 72
    5
  1
SP
  7
standard
210
0
220
0
230
1
 50
0
 73
    1
 44
1
  0
CIRCLE
  5
269
100
AcDbEntity
  8
debug
  6
ByLayer
 62
    2
370
   -1
100
AcDbCircle
 10
651
 20
394.5
 40
1
  0
MTEXT
  5
26A
100
AcDbEntity
  8
debug
  6
ByLayer
 62
  256
370
   -1
100
AcDbMText
 10
651
 20
394.5
 30
0
 40
2.5
 41
3.333333333333334
 71
    1
 72
    5
  1
EP
  7
standard
210
0
220
0
230
1
 50
0
 73
    1
 44
1
  0
LINE
  5
26B
100
AcDbEntity
  8
CenterLines
  6
ByLayer
 62
  256
370
   -1
100
AcDbLine
 10
661
 20
642.5
 11
674
 21
642.5
  0
CIRCLE
  5
26C
100
AcDbEntity
  8
debug
  6
ByLayer
 62
    2
370
   -1
100
AcDbCircle
 10
661
 20
642.5
 40
1
  0
MTEXT
  5
26D
100
AcDbEntity
  8
debug
  6
ByLayer
 62
  256
370
   -1
100
AcDbMText
 10
661
 20
642.5
 30
0
 40
2.5
 41
3.611110581105738
 71
    1
 72
    5
  1
SP
  7
standard
210
0
220
0
230
1
 50
0
 73
    1
 44
1
  0
CIRCLE
  5
26E
100
AcDbEntity
  8
debug
  6
ByLayer
 62
    2
370
   -1
100
AcDbCircle
 10
674
 20
642.5
 40
1
  0
MTEXT
  5
26F
100
AcDbEntity
  8
debug
  6
ByLayer
 62
  256
370
   -1
100
AcDbMText
 10
674
 20
642.5
 30
0
 40
2.5
 41
3.333333333333334
 71
    1
 72
    5
  1
EP
  7
standard
210
0
220
0
230
1
 50
0
 73
    1
 44
1
  0
LINE
  5
270
100
AcDbEntity
  8
CenterLines
  6
ByLayer
 62
  256
370
   -1
100
AcDbLine
 10
679
 20
720.5
 11
746
 21
720.5
  0
CIRCLE
  5
271
100
AcDbEntity
  8
debug
  6
ByLayer
 62
    2
370
   -1
100
AcDbCircle
 10
679
 20
720.5
 40
1
  0
MTEXT
  5
272
100
AcDbEntity
  8
debug
  6
ByLayer
 62
  256
370
   -1
100
AcDbMText
 10
679
 20
720.5
 30
0
 40
2.5
 41
3.611110581105738
 71
    1
 72
    5
  1
SP
  7
standard
210
0
220
0
230
1
 50
0
 73
    1
 44
1
  0
CIRCLE
  5
273
100
AcDbEntity
  8
debug
  6
ByLayer
 62
    2
370
   -1
100
AcDbCircle
 10
746
 20
720.5
 40
1
  0
MTEXT
  5
274
100
AcDbEntity
  8
debug
  6
ByLayer
 62
  256
370
   -1
100
AcDbMText
 10
746
 20
720.5
 30
0
 40
2.5
 41
3.333333333333334
 71
    1
 72
    5
  1
EP
  7
standard
210
0
220
0
230
1
 50
0
 73
    1
 44
1
  0
LINE
  5
275
100
AcDbEntity
  8
CenterLines
  6
ByLayer
 62
  256
370
   -1
100
AcDbLine
 10
746
 20
732
 11
746
 21
732
  0
CIRCLE
  5
276
100
AcDbEntity
  8
debug
  6
ByLayer
 62
    2
370
   -1
100
AcDbCircle
 10
746
 20
732
 40
1
  0
MTEXT
  5
277
100
AcDbEntity
  8
debug
  6
ByLayer
 62
  256
370
   -1
100
AcDbMText
 10
746
 20
732
 30
0
 40
2.5
 41
3.611110581105738
 71
    1
 72
    5
  1
SP
  7
standard
210
0
220
0
230
1
 50
0
 73
    1
 44
1
  0
CIRCLE
  5
278
100
AcDbEntity
  8
debug
  6
ByLayer
 62
    2
370
   -1
100
AcDbCircle
 10
746
 20
732
 40
1
  0
MTEXT
  5
279
100
AcDbEntity
  8
debug
  6
ByLayer
 62
  256
370
   -1
100
AcDbMText
 10
746
 20
732
 30
0
 40
2.5
 41
3.333333333333334
 71
    1
 72
    5
  1
EP
  7
standard
210
0
220
0
230
1
 50
0
 73
    1
 44
1
  0
LINE
  5
27A
100
AcDbEntity
  8
CenterLines
  6
ByLayer
 62
  256
370
   -1
100
AcDbLine
 10
674
 20
779
 11
703
 21
779
  0
CIRCLE
  5
27B
100
AcDbEntity
  8
debug
  6
ByLayer
 62
    2
370
   -1
100
AcDbCircle
 10
674
 20
779
 40
1
  0
MTEXT
  5
27C
100
AcDbEntity
  8
debug
  6
ByLayer
 62
  256
370
   -1
100
AcDbMText
 10
674
 20
779
 30
0
 40
2.5
 41
3.611110581105738
 71
    1
 72
    5
  1
SP
  7
standard
210
0
220
0
230
1
 50
0
 73
    1
 44
1
  0
CIRCLE
  5
27D
100
AcDbEntity
  8
debug
  6
ByLayer
 62
    2
370
   -1
100
AcDbCircle
 10
703
 20
779
 40
1
  0
MTEXT
  5
27E
100
AcDbEntity
  8
debug
  6
ByLayer
 62
  256
370
   -1
100
AcDbMText
 10
703
 20
779
 30
0
 40
2.5
 41
3.333333333333334
 71
    1
 72
    5
  1
EP
  7
standard
210
0
220
0
230
1
 50
0
 73
    1
 44
1
  0
LINE
  5
27F
100
AcDbEntity
  8
CenterLines
  6
ByLayer
 62
  256
370
   -1
100
AcDbLine
 10
707
 20
779
 11
746
 21
779
  0
CIRCLE
  5
280
100
AcDbEntity
  8
debug
  6
ByLayer
 62
    2
370
   -1
100
AcDbCircle
 10
707
 20
779
 40
1
  0
MTEXT
  5
281
100
AcDbEntity
  8
debug
  6
ByLayer
 62
  256
370
   -1
100
AcDbMText
 10
707
 20
779
 30
0
 40
2.5
 41
3.611110581105738
 71
    1
 72
    5
  1
SP
  7
standard
210
0
220
0
230
1
 50
0
 73
    1
 44
1
  0
CIRCLE
  5
282
100
AcDbEntity
  8
debug
  6
ByLayer
 62
    2
370
   -1
100
AcDbCircle
 10
746
 20
779
 40
1
  0
MTEXT
  5
283
100
AcDbEntity
  8
debug
  6
ByLayer
 62
  256
370
   -1
100
AcDbMText
 10
746
 20
779
 30
0
 40
2.5
 41
3.333333333333334
 71
    1
 72
    5
  1
EP
  7
standard
210
0
220
0
230
1
 50
0
 73
    1
 44
1
  0
LINE
  5
284
100
AcDbEntity
  8
CenterLines
  6
ByLayer
 62
  256
370
   -1
100
AcDbLine
 10
751
 20
720.5
 11
754
 21
720.5
  0
CIRCLE
  5
285
100
AcDbEntity
  8
debug
  6
ByLayer
 62
    2
370
   -1
100
AcDbCircle
 10
751
 20
720.5
 40
1
  0
MTEXT
  5
286
100
AcDbEntity
  8
debug
  6
ByLayer
 62
  256
370
   -1
100
AcDbMText
 10
751
 20
720.5
 30
0
 40
2.5
 41
3.611110581105738
 71
    1
 72
    5
  1
SP
  7
standard
210
0
220
0
230
1
 50
0
 73
    1
 44
1
  0
CIRCLE
  5
287
100
AcDbEntity
  8
debug
  6
ByLayer
 62
    2
370
   -1
100
AcDbCircle
 10
754
 20
720.5
 40
1
  0
MTEXT
  5
288
100
AcDbEntity
  8
debug
  6
ByLayer
 62
  256
370
   -1
100
AcDbMText
 10
754
 20
720.5
 30
0
 40
2.5
 41
3.333333333333334
 71
    1
 72
    5
  1
EP
  7
standard
210
0
220
0
230
1
 50
0
 73
    1
 44
1
  0
LINE
  5
289
100
AcDbEntity
  8
CenterLines
  6
ByLayer
 62
  256
370
   -1
100
AcDbLine
 10
691
 20
445.5
 11
700
 21
445.5
  0
CIRCLE
  5
28A
100
AcDbEntity
  8
debug
  6
ByLayer
 62
    2
370
   -1
100
AcDbCircle
 10
691
 20
445.5
 40
1
  0
MTEXT
  5
28B
100
AcDbEntity
  8
debug
  6
ByLayer
 62
  256
370
   -1
100
AcDbMText
 10
691
 20
445.5
 30
0
 40
2.5
 41
3.611110581105738
 71
    1
 72
    5
  1
SP
  7
standard
210
0
220
0
230
1
 50
0
 73
    1
 44
1
  0
CIRCLE
  5
28C
100
AcDbEntity
  8
debug
  6
ByLayer
 62
    2
370
   -1
100
AcDbCircle
 10
700
 20
445.5
 40
1
  0
MTEXT
  5
28D
100
AcDbEntity
  8
debug
  6
ByLayer
 62
  256
370
   -1
100
AcDbMText
 10
700
 20
445.5
 30
0
 40
2.5
 41
3.333333333333334
 71
    1
 72
    5
  1
EP
  7
standard
210
0
220
0
230
1
 50
0
 73
    1
 44
1
  0
LINE
  5
28E
100
AcDbEntity
  8
CenterLines
  6
ByLayer
 62
  256
370
   -1
100
AcDbLine
 10
751
 20
779
 11
754
 21
779
  0
CIRCLE
  5
28F
100
AcDbEntity
  8
debug
  6
ByLayer
 62
    2
370
   -1
100
AcDbCircle
 10
751
 20
779
 40
1
  0
MTEXT
  5
290
100
AcDbEntity
  8
debug
  6
ByLayer
 62
  256
370
   -1
100
AcDbMText
 10
751
 20
779
 30
0
 40
2.5
 41
3.611110581105738
 71
    1
 72
    5
  1
SP
  7
standard
210
0
220
0
230
1
 50
0
 73
    1
 44
1
  0
CIRCLE
  5
291
100
AcDbEntity
  8
debug
  6
ByLayer
 62
    2
370
   -1
100
AcDbCircle
 10
754
 20
779
 40
1
  0
MTEXT
  5
292
100
AcDbEntity
  8
debug
  6
ByLayer
 62
  256
370
   -1
100
AcDbMText
 10
754
 20
779
 30
0
 40
2.5
 41
3.333333333333334
 71
    1
 72
    5
  1
EP
  7
standard
210
0
220
0
230
1
 50
0
 73
    1
 44
1
  0
LINE
  5
293
100
AcDbEntity
  8
CenterLines
  6
ByLayer
 62
  256
370
   -1
100
AcDbLine
 10
709
 20
642.5
 11
775
 21
642.5
  0
CIRCLE
  5
294
100
AcDbEntity
  8
debug
  6
ByLayer
 62
    2
370
   -1
100
AcDbCircle
 10
709
 20
642.5
 40
1
  0
MTEXT
  5
295
100
AcDbEntity
  8
debug
  6
ByLayer
 62
  256
370
   -1
100
AcDbMText
 10
709
 20
642.5
 30
0
 40
2.5
 41
3.611110581105738
 71
    1
 72
    5
  1
SP
  7
standard
210
0
220
0
230
1
 50
0
 73
    1
 44
1
  0
CIRCLE
  5
296
100
AcDbEntity
  8
debug
  6
ByLayer
 62
    2
370
   -1
100
AcDbCircle
 10
775
 20
642.5
 40
1
  0
MTEXT
  5
297
100
AcDbEntity
  8
debug
  6
ByLayer
 62
  256
370
   -1
100
AcDbMText
 10
775
 20
642.5
 30
0
 40
2.5
 41
3.333333333333334
 71
    1
 72
    5
  1
EP
  7
standard
210
0
220
0
230
1
 50
0
 73
    1
 44
1
  0
LINE
  5
298
100
AcDbEntity
  8
CenterLines
  6
ByLayer
 62
  256
370
   -1
100
AcDbLine
 10
718
 20
445.5
 11
775
 21
445.5
  0
CIRCLE
  5
299
100
AcDbEntity
  8
debug
  6
ByLayer
 62
    2
370
   -1
100
AcDbCircle
 10
718
 20
445.5
 40
1
  0
MTEXT
  5
29A
100
AcDbEntity
  8
debug
  6
ByLayer
 62
  256
370
   -1
100
AcDbMText
 10
718
 20
445.5
 30
0
 40
2.5
 41
3.611110581105738
 71
    1
 72
    5
  1
SP
  7
standard
210
0
220
0
230
1
 50
0
 73
    1
 44
1
  0
CIRCLE
  5
29B
100
AcDbEntity
  8
debug
  6
ByLayer
 62
    2
370
   -1
100
AcDbCircle
 10
775
 20
445.5
 40
1
  0
MTEXT
  5
29C
100
AcDbEntity
  8
debug
  6
ByLayer
 62
  256
370
   -1
100
AcDbMText
 10
775
 20
445.5
 30
0
 40
2.5
 41
3.333333333333334
 71
    1
 72
    5
  1
EP
  7
standard
210
0
220
0
230
1
 50
0
 73
    1
 44
1
  0
LINE
  5
29D
100
AcDbEntity
  8
CenterLines
  6
ByLayer
 62
  256
370
   -1
100
AcDbLine
 10
737
 20
884
 11
775
 21
884
  0
CIRCLE
  5
29E
100
AcDbEntity
  8
debug
  6
ByLayer
 62
    2
370
   -1
100
AcDbCircle
 10
737
 20
884
 40
1
  0
MTEXT
  5
29F
100
AcDbEntity
  8
debug
  6
ByLayer
 62
  256
370
   -1
100
AcDbMText
 10
737
 20
884
 30
0
 40
2.5
 41
3.611110581105738
 71
    1
 72
    5
  1
SP
  7
standard
210
0
220
0
230
1
 50
0
 73
    1
 44
1
  0
CIRCLE
  5
2A0
100
AcDbEntity
  8
debug
  6
ByLayer
 62
    2
370
   -1
100
AcDbCircle
 10
775
 20
884
 40
1
  0
MTEXT
  5
2A1
100
AcDbEntity
  8
debug
  6
ByLayer
 62
  256
370
   -1
100
AcDbMText
 10
775
 20
884
 30
0
 40
2.5
 41
3.333333333333334
 71
    1
 72
    5
  1
EP
  7
standard
210
0
220
0
230
1
 50
0
 73
    1
 44
1
  0
LINE
  5
2A2
100
AcDbEntity
  8
CenterLines
  6
ByLayer
 62
  256
370
   -1
100
AcDbLine
 10
746
 20
746.5
 11
751
 21
746.5
  0
CIRCLE
  5
2A3
100
AcDbEntity
  8
debug
  6
ByLayer
 62
    2
370
   -1
100
AcDbCircle
 10
746
 20
746.5
 40
1
  0
MTEXT
  5
2A4
100
AcDbEntity
  8
debug
  6
ByLayer
 62
  256
370
   -1
100
AcDbMText
 10
746
 20
746.5
 30
0
 40
2.5
 41
3.611110581105738
 71
    1
 72
    5
  1
SP
  7
standard
210
0
220
0
230
1
 50
0
 73
    1
 44
1
  0
CIRCLE
  5
2A5
100
AcDbEntity
  8
debug
  6
ByLayer
 62
    2
370
   -1
100
AcDbCircle
 10
751
 20
746.5
 40
1
  0
MTEXT
  5
2A6
100
AcDbEntity
  8
debug
  6
ByLayer
 62
  256
370
   -1
100
AcDbMText
 10
751
 20
746.5
 30
0
 40
2.5
 41
3.333333333333334
 71
    1
 72
    5
  1
EP
  7
standard
210
0
220
0
230
1
 50
0
 73
    1
 44
1
  0
LINE
  5
2A7
100
AcDbEntity
  8
CenterLines
  6
ByLayer
 62
  256
370
   -1
100
AcDbLine
 10
751
 20
732
 11
751
 21
732
  0
CIRCLE
  5
2A8
100
AcDbEntity
  8
debug
  6
ByLayer
 62
    2
370
   -1
100
AcDbCircle
 10
751
 20
732
 40
1
  0
MTEXT
  5
2A9
100
AcDbEntity
  8
debug
  6
ByLayer
 62
  256
370
   -1
100
AcDbMText
 10
751
 20
732
 30
0
 40
2.5
 41
3.611110581105738
 71
    1
 72
    5
  1
SP
  7
standard
210
0
220
0
230
1
 50
0
 73
    1
 44
1
  0
CIRCLE
  5
2AA
100
AcDbEntity
  8
debug
  6
ByLayer
 62
    2
370
   -1
100
AcDbCircle
 10
751
 20
732
 40
1
  0
MTEXT
  5
2AB
100
AcDbEntity
  8
debug
  6
ByLayer
 62
  256
370
   -1
100
AcDbMText
 10
751
 20
732
 30
0
 40
2.5
 41
3.333333333333334
 71
    1
 72
    5
  1
EP
  7
standard
210
0
220
0
230
1
 50
0
 73
    1
 44
1
  0
LINE
  5
2AC
100
AcDbEntity
  8
CenterLines
  6
ByLayer
 62
  256
370
   -1
100
AcDbLine
 10
770
 20
394.5
 11
775
 21
394.5
  0
CIRCLE
  5
2AD
100
AcDbEntity
  8
debug
  6
ByLayer
 62
    2
370
   -1
100
AcDbCircle
 10
770
 20
394.5
 40
1
  0
MTEXT
  5
2AE
100
AcDbEntity
  8
debug
  6
ByLayer
 62
  256
370
   -1
100
AcDbMText
 10
770
 20
394.5
 30
0
 40
2.5
 41
3.611110581105738
 71
    1
 72
    5
  1
SP
  7
standard
210
0
220
0
230
1
 50
0
 73
    1
 44
1
  0
CIRCLE
  5
2AF
100
AcDbEntity
  8
debug
  6
ByLayer
 62
    2
370
   -1
100
AcDbCircle
 10
775
 20
394.5
 40
1
  0
MTEXT
  5
2B0
100
AcDbEntity
  8
debug
  6
ByLayer
 62
  256
370
   -1
100
AcDbMText
 10
775
 20
394.5
 30
0
 40
2.5
 41
3.333333333333334
 71
    1
 72
    5
  1
EP
  7
standard
210
0
220
0
230
1
 50
0
 73
    1
 44
1
  0
LINE
  5
2B1
100
AcDbEntity
  8
CenterLines
  6
ByLayer
 62
  256
370
   -1
100
AcDbLine
 10
772
 20
720.5
 11
775
 21
720.5
  0
CIRCLE
  5
2B2
100
AcDbEntity
  8
debug
  6
ByLayer
 62
    2
370
   -1
100
AcDbCircle
 10
772
 20
720.5
 40
1
  0
MTEXT
  5
2B3
100
AcDbEntity
  8
debug
  6
ByLayer
 62
  256
370
   -1
100
AcDbMText
 10
772
 20
720.5
 30
0
 40
2.5
 41
3.611110581105738
 71
    1
 72
    5
  1
SP
  7
standard
210
0
220
0
230
1
 50
0
 73
    1
 44
1
  0
CIRCLE
  5
2B4
100
AcDbEntity
  8
debug
  6
ByLayer
 62
    2
370
   -1
100
AcDbCircle
 10
775
 20
720.5
 40
1
  0
MTEXT
  5
2B5
100
AcDbEntity
  8
debug
  6
ByLayer
 62
  256
370
   -1
100
AcDbMText
 10
775
 20
720.5
 30
0
 40
2.5
 41
3.333333333333334
 71
    1
 72
    5
  1
EP
  7
standard
210
0
220
0
230
1
 50
0
 73
    1
 44
1
  0
LINE
  5
2B6
100
AcDbEntity
  8
CenterLines
  6
ByLayer
 62
  256
370
   -1
100
AcDbLine
 10
775
 20
732
 11
775
 21
732
  0
CIRCLE
  5
2B7
100
AcDbEntity
  8
debug
  6
ByLayer
 62
    2
370
   -1
100
AcDbCircle
 10
775
 20
732
 40
1
  0
MTEXT
  5
2B8
100
AcDbEntity
  8
debug
  6
ByLayer
 62
  256
370
   -1
100
AcDbMText
 10
775
 20
732
 30
0
 40
2.5
 41
3.611110581105738
 71
    1
 72
    5
  1
SP
  7
standard
210
0
220
0
230
1
 50
0
 73
    1
 44
1
  0
CIRCLE
  5
2B9
100
AcDbEntity
  8
debug
  6
ByLayer
 62
    2
370
   -1
100
AcDbCircle
 10
775
 20
732
 40
1
  0
MTEXT
  5
2BA
100
AcDbEntity
  8
debug
  6
ByLayer
 62
  256
370
   -1
100
AcDbMText
 10
775
 20
732
 30
0
 40
2.5
 41
3.333333333333334
 71
    1
 72
    5
  1
EP
  7
standard
210
0
220
0
230
1
 50
0
 73
    1
 44
1
  0
LINE
  5
2BB
100
AcDbEntity
  8
CenterLines
  6
ByLayer
 62
  256
370
   -1
100
AcDbLine
 10
772
 20
779
 11
775
 21
779
  0
CIRCLE
  5
2BC
100
AcDbEntity
  8
debug
  6
ByLayer
 62
    2
370
   -1
100
AcDbCircle
 10
772
 20
779
 40
1
  0
MTEXT
  5
2BD
100
AcDbEntity
  8
debug
  6
ByLayer
 62
  256
370
   -1
100
AcDbMText
 10
772
 20
779
 30
0
 40
2.5
 41
3.611110581105738
 71
    1
 72
    5
  1
SP
  7
standard
210
0
220
0
230
1
 50
0
 73
    1
 44
1
  0
CIRCLE
  5
2BE
100
AcDbEntity
  8
debug
  6
ByLayer
 62
    2
370
   -1
100
AcDbCircle
 10
775
 20
779
 40
1
  0
MTEXT
  5
2BF
100
AcDbEntity
  8
debug
  6
ByLayer
 62
  256
370
   -1
100
AcDbMText
 10
775
 20
779
 30
0
 40
2.5
 41
3.333333333333334
 71
    1
 72
    5
  1
EP
  7
standard
210
0
220
0
230
1
 50
0
 73
    1
 44
1
  0
LINE
  5
2C0
100
AcDbEntity
  8
CenterLines
  6
ByLayer
 62
  256
370
   -1
100
AcDbLine
 10
775
 20
768
 11
775
 21
768
  0
CIRCLE
  5
2C1
100
AcDbEntity
  8
debug
  6
ByLayer
 62
    2
370
   -1
100
AcDbCircle
 10
775
 20
768
 40
1
  0
MTEXT
  5
2C2
100
AcDbEntity
  8
debug
  6
ByLayer
 62
  256
370
   -1
100
AcDbMText
 10
775
 20
768
 30
0
 40
2.5
 41
3.611110581105738
 71
    1
 72
    5
  1
SP
  7
standard
210
0
220
0
230
1
 50
0
 73
    1
 44
1
  0
CIRCLE
  5
2C3
100
AcDbEntity
  8
debug
  6
ByLayer
 62
    2
370
   -1
100
AcDbCircle
 10
775
 20
768
 40
1
  0
MTEXT
  5
2C4
100
AcDbEntity
  8
debug
  6
ByLayer
 62
  256
370
   -1
100
AcDbMText
 10
775
 20
768
 30
0
 40
2.5
 41
3.333333333333334
 71
    1
 72
    5
  1
EP
  7
standard
210
0
220
0
230
1
 50
0
 73
    1
 44
1
  0
LINE
  5
2C5
100
AcDbEntity
  8
CenterLines
  6
ByLayer
 62
  256
370
   -1
100
AcDbLine
 10
775
 20
750
 11
784
 21
750
  0
CIRCLE
  5
2C6
100
AcDbEntity
  8
debug
  6
ByLayer
 62
    2
370
   -1
100
AcDbCircle
 10
775
 20
750
 40
1
  0
MTEXT
  5
2C7
100
AcDbEntity
  8
debug
  6
ByLayer
 62
  256
370
   -1
100
AcDbMText
 10
775
 20
750
 30
0
 40
2.5
 41
3.611110581105738
 71
    1
 72
    5
  1
SP
  7
standard
210
0
220
0
230
1
 50
0
 73
    1
 44
1
  0
CIRCLE
  5
2C8
100
AcDbEntity
  8
debug
  6
ByLayer
 62
    2
370
   -1
100
AcDbCircle
 10
784
 20
750
 40
1
  0
MTEXT
  5
2C9
100
AcDbEntity
  8
debug
  6
ByLayer
 62
  256
370
   -1
100
AcDbMText
 10
784
 20
750
 30
0
 40
2.5
 41
3.333333333333334
 71
    1
 72
    5
  1
EP
  7
standard
210
0
220
0
230
1
 50
0
 73
    1
 44
1
  0
ENDSEC
  0
SECTION
  2
OBJECTS
  0
DICTIONARY
  5
C
330
0
100
AcDbDictionary
281
    1
  3
ACAD_GROUP
350
D
  0
DICTIONARY
  5
D
330
C
100
AcDbDictionary
281
    1
  0
ENDSEC
  0
EOF
