999
dxfrw 0.6.3
  0
SECTION
  2
HEADER
  9
$ACADVER
  1
AC1021
  9
$DWGCODEPAGE
  3
ANSI_1252
  9
$INSBASE
 10
0
 20
0
 30
0
  9
$EXTMIN
 10
328
 20
390
 30
0
  9
$EXTMAX
 10
784.0583333333335
 20
981
 30
0
  9
$LIMMIN
 10
0
 20
0
  9
$LIMMAX
 10
420
 20
297
  9
$ORTHOMODE
 70
    0
  9
$REGENMODE
 70
    1
  9
$FILLMODE
 70
    1
  9
$QTEXTMODE
 70
    0
  9
$MIRRTEXT
 70
    1
  9
$LTSCALE
 40
1
  9
$ATTMODE
 70
    1
  9
$TEXTSIZE
 40
2.5
  9
$TRACEWID
 40
1
  9
$TEXTSTYLE
  7
Standard
  9
$CLAYER
  8
0
  9
$CELTYPE
  6
ByLayer
  9
$CECOLOR
 62
  256
  9
$CELTSCALE
 40
1
  9
$DISPSILH
 70
    0
  9
$DIMSCALE
 40
1
  9
$DIMASZ
 40
2.5
  9
$DIMEXO
 40
0.625
  9
$DIMDLI
 40
3.75
  9
$DIMRND
 40
0
  9
$DIMDLE
 40
0
  9
$DIMEXE
 40
1.25
  9
$DIMTP
 40
0
  9
$DIMTM
 40
0
  9
$DIMTXT
 40
2.5
  9
$DIMCEN
 40
2.5
  9
$DIMTSZ
 40
0
  9
$DIMTOL
 70
    0
  9
$DIMLIM
 70
    0
  9
$DIMTIH
 70
    0
  9
$DIMTOH
 70
    0
  9
$DIMSE1
 70
    0
  9
$DIMSE2
 70
    0
  9
$DIMTAD
 70
    1
  9
$DIMZIN
 70
    8
  9
$DIMBLK
  1

  9
$DIMASO
 70
    1
  9
$DIMSHO
 70
    1
  9
$DIMPOST
  1

  9
$DIMAPOST
  1

  9
$DIMALT
 70
    0
  9
$DIMALTD
 70
    3
  9
$DIMALTF
 40
0.03937007874
  9
$DIMLFAC
 40
1
  9
$DIMTOFL
 70
    1
  9
$DIMTVP
 40
0
  9
$DIMTIX
 70
    0
  9
$DIMSOXD
 70
    0
  9
$DIMSAH
 70
    0
  9
$DIMBLK1
  1

  9
$DIMBLK2
  1

  9
$DIMSTYLE
  2
ISO-25
  9
$DIMCLRD
 70
    0
  9
$DIMCLRE
 70
    0
  9
$DIMCLRT
 70
    0
  9
$DIMTFAC
 40
1
  9
$DIMGAP
 40
0.625
  9
$DIMJUST
 70
    0
  9
$DIMSD1
 70
    0
  9
$DIMSD2
 70
    0
  9
$DIMTOLJ
 70
    0
  9
$DIMTZIN
 70
    8
  9
$DIMALTZ
 70
    0
  9
$DIMALTTZ
 70
    0
  9
$DIMUPT
 70
    0
  9
$DIMDEC
 70
    2
  9
$DIMTDEC
 70
    2
  9
$DIMALTU
 70
    2
  9
$DIMALTTD
 70
    3
  9
$DIMTXSTY
  7
Standard
  9
$DIMAUNIT
 70
    0
  9
$DIMADEC
 70
    0
  9
$DIMALTRND
 40
0
  9
$DIMAZIN
 70
    0
  9
$DIMDSEP
 70
   44
  9
$DIMATFIT
 70
    3
  9
$DIMFRAC
 70
    0
  9
$DIMLDRBLK
  1

  9
$DIMLUNIT
 70
    2
  9
$DIMLWD
 70
   -2
  9
$DIMLWE
 70
   -2
  9
$DIMTMOVE
 70
    0
  9
$DIMFXL
 40
1
  9
$DIMFXLON
 70
    0
  9
$DIMJOGANG
 40
0.785398163397
  9
$DIMTFILL
 70
    0
  9
$DIMTFILLCLR
 70
    0
  9
$DIMARCSYM
 70
    0
  9
$DIMLTYPE
  6

  9
$DIMLTEX1
  6

  9
$DIMLTEX2
  6

  9
$LUNITS
 70
    2
  9
$LUPREC
 70
    4
  9
$SKETCHINC
 40
1
  9
$FILLETRAD
 40
10
  9
$AUNITS
 70
    0
  9
$AUPREC
 70
    2
  9
$MENU
  1
.
  9
$ELEVATION
 40
0
  9
$PELEVATION
 40
0
  9
$THICKNESS
 40
0
  9
$LIMCHECK
 70
    0
  9
$CHAMFERA
 40
0
  9
$CHAMFERB
 40
0
  9
$CHAMFERC
 40
0
  9
$CHAMFERD
 40
0
  9
$SKPOLY
 70
    0
  9
$USRTIMER
 70
    1
  9
$ANGBASE
 50
0
  9
$ANGDIR
 70
    0
  9
$PDMODE
 70
    0
  9
$PDSIZE
 40
0
  9
$PLINEWID
 40
0
  9
$SPLFRAME
 70
    0
  9
$SPLINETYPE
 70
    6
  9
$SPLINESEGS
 70
    8
  9
$HANDSEED
  5
20000
  9
$SURFTAB1
 70
    6
  9
$SURFTAB2
 70
    6
  9
$SURFTYPE
 70
    6
  9
$SURFU
 70
    6
  9
$SURFV
 70
    6
  9
$UCSBASE
  2

  9
$UCSNAME
  2

  9
$UCSORG
 10
0
 20
0
 30
0
  9
$UCSXDIR
 10
1
 20
0
 30
0
  9
$UCSYDIR
 10
0
 20
1
 30
0
  9
$UCSORTHOREF
  2

  9
$UCSORTHOVIEW
 70
    0
  9
$UCSORGTOP
 10
0
 20
0
 30
0
  9
$UCSORGBOTTOM
 10
0
 20
0
 30
0
  9
$UCSORGLEFT
 10
0
 20
0
 30
0
  9
$UCSORGRIGHT
 10
0
 20
0
 30
0
  9
$UCSORGFRONT
 10
0
 20
0
 30
0
  9
$UCSORGBACK
 10
0
 20
0
 30
0
  9
$PUCSBASE
  2

  9
$PUCSNAME
  2

  9
$PUCSORG
 10
0
 20
0
 30
0
  9
$PUCSXDIR
 10
1
 20
0
 30
0
  9
$PUCSYDIR
 10
0
 20
1
 30
0
  9
$PUCSORTHOREF
  2

  9
$PUCSORTHOVIEW
 70
    0
  9
$PUCSORGTOP
 10
0
 20
0
 30
0
  9
$PUCSORGBOTTOM
 10
0
 20
0
 30
0
  9
$PUCSORGLEFT
 10
0
 20
0
 30
0
  9
$PUCSORGRIGHT
 10
0
 20
0
 30
0
  9
$PUCSORGFRONT
 10
0
 20
0
 30
0
  9
$PUCSORGBACK
 10
0
 20
0
 30
0
  9
$USERI1
 70
    0
  9
$USERI2
 70
    0
  9
$USERI3
 70
    0
  9
$USERI4
 70
    0
  9
$USERI5
 70
    0
  9
$USERR1
 40
0
  9
$USERR2
 40
0
  9
$USERR3
 40
0
  9
$USERR4
 40
0
  9
$USERR5
 40
0
  9
$WORLDVIEW
 70
    1
  9
$SHADEDGE
 70
    3
  9
$SHADEDIF
 70
   70
  9
$TILEMODE
 70
    1
  9
$MAXACTVP
 70
   64
  9
$PINSBASE
 10
0
 20
0
 30
0
  9
$PLIMCHECK
 70
    0
  9
$PEXTMIN
 10
1e+20
 20
1e+20
 30
1e+20
  9
$PEXTMAX
 10
-1e+20
 20
-1e+20
 30
-1e+20
  9
$GRIDMODE
 70
    0
  9
$SNAPSTYLE
 70
    0
  9
$PLIMMIN
 10
0
 20
0
  9
$PLIMMAX
 10
420
 20
297
  9
$UNITMODE
 70
    0
  9
$VISRETAIN
 70
    1
  9
$PLINEGEN
 70
    0
  9
$PSLTSCALE
 70
    1
  9
$TREEDEPTH
 70
 3020
  9
$CMLSTYLE
  2
Standard
  9
$CMLJUST
 70
    0
  9
$CMLSCALE
 40
20
  9
$PROXYGRAPHICS
 70
    1
  9
$MEASUREMENT
 70
    1
  9
$CELWEIGHT
370
   -1
  9
$ENDCAPS
280
    0
  9
$JOINSTYLE
280
    0
  9
$LWDISPLAY
290
    0
  9
$INSUNITS
 70
    6
  9
$HYPERLINKBASE
  1

  9
$STYLESHEET
  1

  9
$XEDIT
290
    1
  9
$CEPSNTYPE
380
    0
  9
$PSTYLEMODE
290
    1
  9
$EXTNAMES
290
    1
  9
$PSVPSCALE
 40
0
  9
$OLESTARTUP
290
    0
  9
$SORTENTS
280
  127
  9
$INDEXCTL
280
    0
  9
$HIDETEXT
280
    1
  9
$XCLIPFRAME
290
    2
  9
$HALOGAP
280
    0
  9
$OBSCOLOR
 70
  257
  9
$OBSLTYPE
280
    0
  9
$INTERSECTIONDISPLAY
280
    0
  9
$INTERSECTIONCOLOR
 70
  257
  9
$DIMASSOC
280
    2
  9
$PROJECTNAME
  1

  9
$CAMERADISPLAY
290
    0
  9
$LENSLENGTH
 40
50
  9
$CAMERAHEIGHT
 40
0
  9
$STEPSPERSEC
 40
24
  9
$STEPSIZE
 40
100
  9
$3DDWFPREC
 40
2
  9
$PSOLWIDTH
 40
0.005
  9
$PSOLHEIGHT
 40
0.08
  9
$LOFTANG1
 40
1.570796326795
  9
$LOFTANG2
 40
1.570796326795
  9
$LOFTMAG1
 40
0
  9
$LOFTMAG2
 40
0
  9
$LOFTPARAM
 70
    7
  9
$LOFTNORMALS
280
    1
  9
$LATITUDE
 40
37.795
  9
$LONGITUDE
 40
-122.394
  9
$NORTHDIRECTION
 40
0
  9
$TIMEZONE
 70
-8000
  9
$LIGHTGLYPHDISPLAY
280
    1
  9
$TILEMODELIGHTSYNCH
280
    1
  9
$SOLIDHIST
280
    0
  9
$SHOWHIST
280
    1
  9
$DWFFRAME
280
    2
  9
$DGNFRAME
280
    2
  9
$REALWORLDSCALE
290
    1
  9
$INTERFERECOLOR
 62
  256
  9
$CSHADOW
280
    0
  9
$SHADOWPLANELOCATION
 40
0
  0
ENDSEC
  0
SECTION
  2
CLASSES
  0
ENDSEC
  0
SECTION
  2
TABLES
  0
TABLE
  2
VPORT
  5
8
330
0
100
AcDbSymbolTable
 70
    1
  0
VPORT
  5
31
330
2
100
AcDbSymbolTableRecord
100
AcDbViewportTableRecord
  2
*ACTIVE
 70
    0
 10
0
 20
0
 11
1
 21
1
 12
390.9966054163541
 22
378.8855831405393
 13
0
 23
0
 14
10
 24
10
 15
10
 25
10
 16
0
 26
0
 36
1
 17
0
 27
0
 37
0
 40
32.02820108959565
 41
2.051971326164875
 42
50
 43
0
 44
0
 50
0
 51
0
 71
    0
 72
  100
 73
    1
 74
    3
 75
    0
 76
    0
 77
    0
 78
    0
281
    0
 65
    1
110
0
120
0
130
0
111
1
121
0
131
0
112
0
122
1
132
0
 79
    0
146
0
348
10020
 60
    7
 61
    5
292
1
282
    1
141
0
142
0
 63
  250
421
3358443
  0
ENDTAB
  0
TABLE
  2
LTYPE
  5
5
330
0
100
AcDbSymbolTable
 70
    4
  0
LTYPE
  5
14
330
5
100
AcDbSymbolTableRecord
100
AcDbLinetypeTableRecord
  2
ByBlock
 70
    0
  3

 72
   65
 73
    0
 40
0
  0
LTYPE
  5
15
330
5
100
AcDbSymbolTableRecord
100
AcDbLinetypeTableRecord
  2
ByLayer
 70
    0
  3

 72
   65
 73
    0
 40
0
  0
LTYPE
  5
16
330
5
100
AcDbSymbolTableRecord
100
AcDbLinetypeTableRecord
  2
Continuous
 70
    0
  3
Solid line
 72
   65
 73
    0
 40
0
  0
LTYPE
  5
32
330
5
100
AcDbSymbolTableRecord
100
AcDbLinetypeTableRecord
  2
DOT
 70
    0
  3
Dot . . . . . . . . . . . . . . . . . . . . . .
 72
   65
 73
    2
 40
6.35
 49
0
 74
    0
 49
-6.35
 74
    0
  0
LTYPE
  5
33
330
5
100
AcDbSymbolTableRecord
100
AcDbLinetypeTableRecord
  2
DOTTINY
 70
    0
  3
Dot (.15x) .....................................
 72
   65
 73
    2
 40
0.9525
 49
0
 74
    0
 49
-0.9525
 74
    0
  0
LTYPE
  5
34
330
5
100
AcDbSymbolTableRecord
100
AcDbLinetypeTableRecord
  2
DOT2
 70
    0
  3
Dot (.5x) .....................................
 72
   65
 73
    2
 40
3.175
 49
0
 74
    0
 49
-3.175
 74
    0
  0
LTYPE
  5
35
330
5
100
AcDbSymbolTableRecord
100
AcDbLinetypeTableRecord
  2
DOTX2
 70
    0
  3
Dot (2x) .  .  .  .  .  .  .  .  .  .  .  .  .
 72
   65
 73
    2
 40
12.7
 49
0
 74
    0
 49
-12.7
 74
    0
  0
LTYPE
  5
36
330
5
100
AcDbSymbolTableRecord
100
AcDbLinetypeTableRecord
  2
DASHED
 70
    0
  3
Dashed _ _ _ _ _ _ _ _ _ _ _ _ _ _ _ _ _
 72
   65
 73
    2
 40
19.05
 49
12.7
 74
    0
 49
-6.35
 74
    0
  0
LTYPE
  5
37
330
5
100
AcDbSymbolTableRecord
100
AcDbLinetypeTableRecord
  2
DASHEDTINY
 70
    0
  3
Dashed (.15x) _ _ _ _ _ _ _ _ _ _ _ _ _ _ _ _ _
 72
   65
 73
    2
 40
2.8575
 49
1.905
 74
    0
 49
-0.9525
 74
    0
  0
LTYPE
  5
38
330
5
100
AcDbSymbolTableRecord
100
AcDbLinetypeTableRecord
  2
DASHED2
 70
    0
  3
Dashed (.5x) _ _ _ _ _ _ _ _ _ _ _ _ _ _ _ _ _
 72
   65
 73
    2
 40
9.524999999999999
 49
6.35
 74
    0
 49
-3.175
 74
    0
  0
LTYPE
  5
39
330
5
100
AcDbSymbolTableRecord
100
AcDbLinetypeTableRecord
  2
DASHEDX2
 70
    0
  3
Dashed (2x) ____  ____  ____  ____  ____  ___
 72
   65
 73
    2
 40
38.09999999999999
 49
25.4
 74
    0
 49
-12.7
 74
    0
  0
LTYPE
  5
3A
330
5
100
AcDbSymbolTableRecord
100
AcDbLinetypeTableRecord
  2
DASHDOT
 70
    0
  3
Dash dot __ . __ . __ . __ . __ . __ . __ . __
 72
   65
 73
    4
 40
25.4
 49
12.7
 74
    0
 49
-6.35
 74
    0
 49
0
 74
    0
 49
-6.35
 74
    0
  0
LTYPE
  5
3B
330
5
100
AcDbSymbolTableRecord
100
AcDbLinetypeTableRecord
  2
DASHDOTTINY
 70
    0
  3
Dash dot (.15x) _._._._._._._._._._._._._._._.
 72
   65
 73
    4
 40
3.81
 49
1.905
 74
    0
 49
-0.9525
 74
    0
 49
0
 74
    0
 49
-0.9525
 74
    0
  0
LTYPE
  5
3C
330
5
100
AcDbSymbolTableRecord
100
AcDbLinetypeTableRecord
  2
DASHDOT2
 70
    0
  3
Dash dot (.5x) _._._._._._._._._._._._._._._.
 72
   65
 73
    4
 40
12.7
 49
6.35
 74
    0
 49
-3.175
 74
    0
 49
0
 74
    0
 49
-3.175
 74
    0
  0
LTYPE
  5
3D
330
5
100
AcDbSymbolTableRecord
100
AcDbLinetypeTableRecord
  2
DASHDOTX2
 70
    0
  3
Dash dot (2x) ____  .  ____  .  ____  .  ___
 72
   65
 73
    4
 40
50.8
 49
25.4
 74
    0
 49
-12.7
 74
    0
 49
0
 74
    0
 49
-12.7
 74
    0
  0
LTYPE
  5
3E
330
5
100
AcDbSymbolTableRecord
100
AcDbLinetypeTableRecord
  2
DIVIDE
 70
    0
  3
Divide ____ . . ____ . . ____ . . ____ . . ____
 72
   65
 73
    6
 40
31.75
 49
12.7
 74
    0
 49
-6.35
 74
    0
 49
0
 74
    0
 49
-6.35
 74
    0
 49
0
 74
    0
 49
-6.35
 74
    0
  0
LTYPE
  5
3F
330
5
100
AcDbSymbolTableRecord
100
AcDbLinetypeTableRecord
  2
DIVIDETINY
 70
    0
  3
Divide (.15x) __..__..__..__..__..__..__..__.._
 72
   65
 73
    6
 40
4.7625
 49
1.905
 74
    0
 49
-0.9525
 74
    0
 49
0
 74
    0
 49
-0.9525
 74
    0
 49
0
 74
    0
 49
-0.9525
 74
    0
  0
LTYPE
  5
40
330
5
100
AcDbSymbolTableRecord
100
AcDbLinetypeTableRecord
  2
DIVIDE2
 70
    0
  3
Divide (.5x) __..__..__..__..__..__..__..__.._
 72
   65
 73
    6
 40
15.875
 49
6.35
 74
    0
 49
-3.175
 74
    0
 49
0
 74
    0
 49
-3.175
 74
    0
 49
0
 74
    0
 49
-3.175
 74
    0
  0
LTYPE
  5
41
330
5
100
AcDbSymbolTableRecord
100
AcDbLinetypeTableRecord
  2
DIVIDEX2
 70
    0
  3
Divide (2x) ________  .  .  ________  .  .  _
 72
   65
 73
    6
 40
63.5
 49
25.4
 74
    0
 49
-12.7
 74
    0
 49
0
 74
    0
 49
-12.7
 74
    0
 49
0
 74
    0
 49
-12.7
 74
    0
  0
LTYPE
  5
42
330
5
100
AcDbSymbolTableRecord
100
AcDbLinetypeTableRecord
  2
BORDER
 70
    0
  3
Border __ __ . __ __ . __ __ . __ __ . __ __ .
 72
   65
 73
    6
 40
44.45
 49
12.7
 74
    0
 49
-6.35
 74
    0
 49
12.7
 74
    0
 49
-6.35
 74
    0
 49
0
 74
    0
 49
-6.35
 74
    0
  0
LTYPE
  5
43
330
5
100
AcDbSymbolTableRecord
100
AcDbLinetypeTableRecord
  2
BORDERTINY
 70
    0
  3
Border (.15x) __.__.__.__.__.__.__.__.__.__.__.
 72
   65
 73
    6
 40
6.6675
 49
1.905
 74
    0
 49
-0.9525
 74
    0
 49
1.905
 74
    0
 49
-0.9525
 74
    0
 49
0
 74
    0
 49
-0.9525
 74
    0
  0
LTYPE
  5
44
330
5
100
AcDbSymbolTableRecord
100
AcDbLinetypeTableRecord
  2
BORDER2
 70
    0
  3
Border (.5x) __.__.__.__.__.__.__.__.__.__.__.
 72
   65
 73
    6
 40
22.225
 49
6.35
 74
    0
 49
-3.175
 74
    0
 49
6.35
 74
    0
 49
-3.175
 74
    0
 49
0
 74
    0
 49
-3.175
 74
    0
  0
LTYPE
  5
45
330
5
100
AcDbSymbolTableRecord
100
AcDbLinetypeTableRecord
  2
BORDERX2
 70
    0
  3
Border (2x) ____  ____  .  ____  ____  .  ___
 72
   65
 73
    6
 40
88.89999999999999
 49
25.4
 74
    0
 49
-12.7
 74
    0
 49
25.4
 74
    0
 49
-12.7
 74
    0
 49
0
 74
    0
 49
-12.7
 74
    0
  0
LTYPE
  5
46
330
5
100
AcDbSymbolTableRecord
100
AcDbLinetypeTableRecord
  2
CENTER
 70
    0
  3
Center ____ _ ____ _ ____ _ ____ _ ____ _ ____
 72
   65
 73
    4
 40
50.8
 49
31.75
 74
    0
 49
-6.35
 74
    0
 49
6.35
 74
    0
 49
-6.35
 74
    0
  0
LTYPE
  5
47
330
5
100
AcDbSymbolTableRecord
100
AcDbLinetypeTableRecord
  2
CENTERTINY
 70
    0
  3
Center (.15x) ___ _ ___ _ ___ _ ___ _ ___ _ ___
 72
   65
 73
    4
 40
7.619999999999999
 49
4.7625
 74
    0
 49
-0.9525
 74
    0
 49
0.9525
 74
    0
 49
-0.9525
 74
    0
  0
LTYPE
  5
48
330
5
100
AcDbSymbolTableRecord
100
AcDbLinetypeTableRecord
  2
CENTER2
 70
    0
  3
Center (.5x) ___ _ ___ _ ___ _ ___ _ ___ _ ___
 72
   65
 73
    4
 40
28.575
 49
19.05
 74
    0
 49
-3.175
 74
    0
 49
3.175
 74
    0
 49
-3.175
 74
    0
  0
LTYPE
  5
49
330
5
100
AcDbSymbolTableRecord
100
AcDbLinetypeTableRecord
  2
CENTERX2
 70
    0
  3
Center (2x) ________  __  ________  __  _____
 72
   65
 73
    4
 40
101.6
 49
63.5
 74
    0
 49
-12.7
 74
    0
 49
12.7
 74
    0
 49
-12.7
 74
    0
  0
ENDTAB
  0
TABLE
  2
LAYER
  5
2
330
0
100
AcDbSymbolTable
 70
    1
  0
LAYER
  5
10
330
2
100
AcDbSymbolTableRecord
100
AcDbLayerTableRecord
  2
0
 70
    0
 62
    7
  6
CONTINUOUS
370
   -3
390
F
  0
LAYER
  5
4A
330
2
100
AcDbSymbolTableRecord
100
AcDbLayerTableRecord
  2
Defpoints
 70
    0
 62
    7
  6
CONTINUOUS
290
0
370
   -3
390
F
  0
LAYER
  5
4B
330
2
100
AcDbSymbolTableRecord
100
AcDbLayerTableRecord
  2
centrelines
 70
    0
 62
    7
  6
CONTINUOUS
370
   -3
390
F
  0
LAYER
  5
4C
330
2
100
AcDbSymbolTableRecord
100
AcDbLayerTableRecord
  2
chosen_line
 70
    0
 62
    7
  6
CONTINUOUS
370
   -3
390
F
  0
LAYER
  5
4D
330
2
100
AcDbSymbolTableRecord
100
AcDbLayerTableRecord
  2
debug
 70
    0
 62
    7
  6
CONTINUOUS
370
   -3
390
F
  0
LAYER
  5
4E
330
2
100
AcDbSymbolTableRecord
100
AcDbLayerTableRecord
  2
entity_location
 70
    0
 62
    7
  6
CONTINUOUS
370
   -3
390
F
  0
LAYER
  5
4F
330
2
100
AcDbSymbolTableRecord
100
AcDbLayerTableRecord
  2
wall
 70
    0
 62
    7
  6
CONTINUOUS
370
   -3
390
F
  0
ENDTAB
  0
TABLE
  2
STYLE
  5
3
330
0
100
AcDbSymbolTable
 70
    3
  0
STYLE
  5
50
330
2
100
AcDbSymbolTableRecord
100
AcDbTextStyleTableRecord
  2
standard
 70
    0
 40
0
 41
1
 50
0
 71
    0
 42
1
  3
standard
  4

  0
ENDTAB
  0
TABLE
  2
VIEW
  5
6
330
0
100
AcDbSymbolTable
 70
    0
  0
ENDTAB
  0
TABLE
  2
UCS
  5
7
330
0
100
AcDbSymbolTable
 70
    0
  0
ENDTAB
  0
TABLE
  2
APPID
  5
9
330
0
100
AcDbSymbolTable
 70
    1
  0
APPID
  5
12
330
9
100
AcDbSymbolTableRecord
100
AcDbRegAppTableRecord
  2
ACAD
 70
    0
  0
APPID
  5
51
330
9
100
AcDbSymbolTableRecord
100
AcDbRegAppTableRecord
  2
LibreCad
 70
    0
  0
ENDTAB
  0
TABLE
  2
DIMSTYLE
  5
A
330
0
100
AcDbSymbolTable
 70
    1
100
AcDbDimStyleTable
 71
    1
  0
DIMSTYLE
105
52
330
A
100
AcDbSymbolTableRecord
100
AcDbDimStyleTableRecord
  2
Standard
 70
    0
 40
1
 41
2.5
 42
0.625
 43
0.38
 44
1.25
 45
0
 46
0
 47
0
 48
0
 49
1
140
2.5
141
0.09
142
0
143
25.4
144
1
145
0
146
1
147
0.625
148
0
 71
    0
 72
    0
 73
    0
 74
    1
 75
    0
 76
    0
 77
    0
 78
    8
 79
    0
170
    0
171
    2
172
    0
173
    0
174
    0
175
    0
176
    0
177
    0
178
    0
179
    0
271
    2
272
    4
273
    2
274
    2
275
    0
276
    0
277
    2
278
   44
279
    0
280
    0
281
    0
282
    0
283
    1
284
    0
285
    0
286
    0
288
    0
289
    3
340
Standard
341

371
   -2
372
   -2
  0
ENDTAB
  0
TABLE
  2
BLOCK_RECORD
  5
1
330
0
100
AcDbSymbolTable
 70
    2
  0
BLOCK_RECORD
  5
1F
330
1
100
AcDbSymbolTableRecord
100
AcDbBlockTableRecord
  2
*Model_Space
 70
    0
280
    1
281
    0
  0
BLOCK_RECORD
  5
1E
330
1
100
AcDbSymbolTableRecord
100
AcDbBlockTableRecord
  2
*Paper_Space
 70
    0
280
    1
281
    0
  0
ENDTAB
  0
ENDSEC
  0
SECTION
  2
BLOCKS
  0
BLOCK
  5
20
330
1F
100
AcDbEntity
  8
0
100
AcDbBlockBegin
  2
*Model_Space
 70
    0
 10
0
 20
0
 30
0
  3
*Model_Space
  1

  0
ENDBLK
  5
21
330
1F
100
AcDbEntity
  8
0
100
AcDbBlockEnd
  0
BLOCK
  5
1C
330
1B
100
AcDbEntity
  8
0
100
AcDbBlockBegin
  2
*Paper_Space
 70
    0
 10
0
 20
0
 30
0
  3
*Paper_Space
  1

  0
ENDBLK
  5
1D
330
1F
100
AcDbEntity
  8
0
100
AcDbBlockEnd
  0
ENDSEC
  0
SECTION
  2
ENTITIES
  0
CIRCLE
  5
53
100
AcDbEntity
  8
entity_location
  6
ByLayer
 62
  256
370
   -1
100
AcDbCircle
 10
746.7593243232348
 20
747.1926224162696
 40
0.2
  0
MTEXT
  5
54
100
AcDbEntity
  8
debug
  6
ByLayer
 62
  256
370
   -1
100
AcDbMText
 10
746.7593243232348
 20
747.1926224162696
 30
0
 40
0.2
 41
1.138888888888901
 71
    1
 72
    5
  1
746, 747
  7
standard
210
0
220
0
230
1
 50
0
 73
    1
 44
1
  0
LINE
  5
55
100
AcDbEntity
  8
centrelines
  6
ByLayer
 62
  256
370
   -1
100
AcDbLine
 10
746
 20
746.5
 11
750
 21
746.5
  0
MTEXT
  5
56
100
AcDbEntity
  8
centrelines
  6
ByLayer
 62
  256
370
   -1
100
AcDbMText
 10
748
 20
746.5
 30
0
 40
0.3
 41
4.39166666666676
 71
    1
 72
    5
  1
0 0.6926224162696144
  7
standard
210
0
220
0
230
1
 50
0
 73
    1
 44
1
  0
LINE
  5
57
100
AcDbEntity
  8
centrelines
  6
ByLayer
 62
  256
370
   -1
100
AcDbLine
 10
750
 20
746.5
 11
751
 21
746.5
  0
MTEXT
  5
58
100
AcDbEntity
  8
centrelines
  6
ByLayer
 62
  256
370
   -1
100
AcDbMText
 10
750.5
 20
746.5
 30
0
 40
0.3
 41
3.991666666666834
 71
    1
 72
    5
  1
1 3.313865515300382
  7
standard
210
0
220
0
230
1
 50
0
 73
    1
 44
1
  0
LINE
  5
59
100
AcDbEntity
  8
centrelines
  6
ByLayer
 62
  256
370
   -1
100
AcDbLine
 10
748.5
 20
752
 11
748.5
 21
777
  0
MTEXT
  5
5A
100
AcDbEntity
  8
centrelines
  6
ByLayer
 62
  256
370
   -1
100
AcDbMText
 10
748.5
 20
764.5
 30
0
 40
0.3
 41
4.058333333333389
 71
    1
 72
    5
  1
2 5.112810483895874
  7
standard
210
0
220
0
230
1
 50
0
 73
    1
 44
1
  0
LINE
  5
5B
100
AcDbEntity
  8
centrelines
  6
ByLayer
 62
  256
370
   -1
100
AcDbLine
 10
748.5
 20
723
 11
748.5
 21
741
  0
MTEXT
  5
5C
100
AcDbEntity
  8
centrelines
  6
ByLayer
 62
  256
370
   -1
100
AcDbMText
 10
748.5
 20
732
 30
0
 40
0.3
 41
4.058333333333483
 71
    1
 72
    5
  1
3 6.432614103315003
  7
standard
210
0
220
0
230
1
 50
0
 73
    1
 44
1
  0
LINE
  5
5D
100
AcDbEntity
  8
centrelines
  6
ByLayer
 62
  256
370
   -1
100
AcDbLine
 10
746
 20
732
 11
746
 21
732
  0
MTEXT
  5
5E
100
AcDbEntity
  8
centrelines
  6
ByLayer
 62
  256
370
   -1
100
AcDbMText
 10
746
 20
732
 30
0
 40
0.3
 41
4.191666666666778
 71
    1
 72
    5
  1
4 15.211586022213263
  7
standard
210
0
220
0
230
1
 50
0
 73
    1
 44
1
  0
LINE
  5
5F
100
AcDbEntity
  8
centrelines
  6
ByLayer
 62
  256
370
   -1
100
AcDbLine
 10
751
 20
732
 11
751
 21
732
  0
MTEXT
  5
60
100
AcDbEntity
  8
centrelines
  6
ByLayer
 62
  256
370
   -1
100
AcDbMText
 10
751
 20
732
 30
0
 40
0.3
 41
4.291666666666816
 71
    1
 72
    5
  1
5 15.773366986120825
  7
standard
210
0
220
0
230
1
 50
0
 73
    1
 44
1
  0
LINE
  5
61
100
AcDbEntity
  8
centrelines
  6
ByLayer
 62
  256
370
   -1
100
AcDbLine
 10
750
 20
723
 11
750
 21
723
  0
MTEXT
  5
62
100
AcDbEntity
  8
centrelines
  6
ByLayer
 62
  256
370
   -1
100
AcDbMText
 10
750
 20
723
 30
0
 40
0.3
 41
4.425000000000093
 71
    1
 72
    5
  1
6 24.408706606827185
  7
standard
210
0
220
0
230
1
 50
0
 73
    1
 44
1
  0
LINE
  5
63
100
AcDbEntity
  8
centrelines
  6
ByLayer
 62
  256
370
   -1
100
AcDbLine
 10
752.5
 20
723
 11
752.5
 21
723
  0
MTEXT
  5
64
100
AcDbEntity
  8
centrelines
  6
ByLayer
 62
  256
370
   -1
100
AcDbMText
 10
752.5
 20
723
 30
0
 40
0.3
 41
4.491666666666778
 71
    1
 72
    5
  1
7 24.864398979303626
  7
standard
210
0
220
0
230
1
 50
0
 73
    1
 44
1
  0
LINE
  5
65
100
AcDbEntity
  8
centrelines
  6
ByLayer
 62
  256
370
   -1
100
AcDbLine
 10
679
 20
720.5
 11
746
 21
720.5
  0
MTEXT
  5
66
100
AcDbEntity
  8
centrelines
  6
ByLayer
 62
  256
370
   -1
100
AcDbMText
 10
712.5
 20
720.5
 30
0
 40
0.3
 41
4.158333333333426
 71
    1
 72
    5
  1
8 26.70342047164361
  7
standard
210
0
220
0
230
1
 50
0
 73
    1
 44
1
  0
LINE
  5
67
100
AcDbEntity
  8
centrelines
  6
ByLayer
 62
  256
370
   -1
100
AcDbLine
 10
751
 20
720.5
 11
754
 21
720.5
  0
MTEXT
  5
68
100
AcDbEntity
  8
centrelines
  6
ByLayer
 62
  256
370
   -1
100
AcDbMText
 10
752.5
 20
720.5
 30
0
 40
0.3
 41
3.925000000000075
 71
    1
 72
    5
  1
9 27.02738281175311
  7
standard
210
0
220
0
230
1
 50
0
 73
    1
 44
1
  0
LINE
  5
69
100
AcDbEntity
  8
centrelines
  6
ByLayer
 62
  256
370
   -1
100
AcDbLine
 10
775
 20
750
 11
784
 21
750
  0
MTEXT
  5
6A
100
AcDbEntity
  8
centrelines
  6
ByLayer
 62
  256
370
   -1
100
AcDbMText
 10
779.5
 20
750
 30
0
 40
0.3
 41
4.358333333333408
 71
    1
 72
    5
  1
10 28.37987194435296
  7
standard
210
0
220
0
230
1
 50
0
 73
    1
 44
1
  0
LINE
  5
6B
100
AcDbEntity
  8
centrelines
  6
ByLayer
 62
  256
370
   -1
100
AcDbLine
 10
763
 20
718
 11
763
 21
723
  0
MTEXT
  5
6C
100
AcDbEntity
  8
centrelines
  6
ByLayer
 62
  256
370
   -1
100
AcDbMText
 10
763
 20
720.5
 30
0
 40
0.3
 41
4.42500000000013
 71
    1
 72
    5
  1
11 29.138334300609316
  7
standard
210
0
220
0
230
1
 50
0
 73
    1
 44
1
  0
LINE
  5
6D
100
AcDbEntity
  8
centrelines
  6
ByLayer
 62
  256
370
   -1
100
AcDbLine
 10
750
 20
777
 11
750
 21
777
  0
MTEXT
  5
6E
100
AcDbEntity
  8
centrelines
  6
ByLayer
 62
  256
370
   -1
100
AcDbMText
 10
750
 20
777
 30
0
 40
0.3
 41
4.49166666666676
 71
    1
 72
    5
  1
12 29.983024151360226
  7
standard
210
0
220
0
230
1
 50
0
 73
    1
 44
1
  0
LINE
  5
6F
100
AcDbEntity
  8
centrelines
  6
ByLayer
 62
  256
370
   -1
100
AcDbLine
 10
752.5
 20
777
 11
752.5
 21
777
  0
MTEXT
  5
70
100
AcDbEntity
  8
centrelines
  6
ByLayer
 62
  256
370
   -1
100
AcDbMText
 10
752.5
 20
777
 30
0
 40
0.3
 41
4.591666666666816
 71
    1
 72
    5
  1
13 30.355149738469038
  7
standard
210
0
220
0
230
1
 50
0
 73
    1
 44
1
  0
LINE
  5
71
100
AcDbEntity
  8
centrelines
  6
ByLayer
 62
  256
370
   -1
100
AcDbLine
 10
707
 20
779
 11
746
 21
779
  0
MTEXT
  5
72
100
AcDbEntity
  8
centrelines
  6
ByLayer
 62
  256
370
   -1
100
AcDbMText
 10
726.5
 20
779
 30
0
 40
0.3
 41
4.558333333333427
 71
    1
 72
    5
  1
14 31.816439809976384
  7
standard
210
0
220
0
230
1
 50
0
 73
    1
 44
1
  0
LINE
  5
73
100
AcDbEntity
  8
centrelines
  6
ByLayer
 62
  256
370
   -1
100
AcDbLine
 10
775
 20
732
 11
775
 21
732
  0
MTEXT
  5
74
100
AcDbEntity
  8
centrelines
  6
ByLayer
 62
  256
370
   -1
100
AcDbMText
 10
775
 20
732
 30
0
 40
0.3
 41
4.325000000000074
 71
    1
 72
    5
  1
15 32.06792070845221
  7
standard
210
0
220
0
230
1
 50
0
 73
    1
 44
1
  0
LINE
  5
75
100
AcDbEntity
  8
centrelines
  6
ByLayer
 62
  256
370
   -1
100
AcDbLine
 10
751
 20
779
 11
754
 21
779
  0
MTEXT
  5
76
100
AcDbEntity
  8
centrelines
  6
ByLayer
 62
  256
370
   -1
100
AcDbMText
 10
752.5
 20
779
 30
0
 40
0.3
 41
4.591666666666778
 71
    1
 72
    5
  1
16 32.088823583134094
  7
standard
210
0
220
0
230
1
 50
0
 73
    1
 44
1
  0
LINE
  5
77
100
AcDbEntity
  8
centrelines
  6
ByLayer
 62
  256
370
   -1
100
AcDbLine
 10
779.5
 20
723
 11
779.5
 21
741
  0
MTEXT
  5
78
100
AcDbEntity
  8
centrelines
  6
ByLayer
 62
  256
370
   -1
100
AcDbMText
 10
779.5
 20
732
 30
0
 40
0.3
 41
4.358333333333445
 71
    1
 72
    5
  1
17 33.321170690142516
  7
standard
210
0
220
0
230
1
 50
0
 73
    1
 44
1
  0
LINE
  5
79
100
AcDbEntity
  8
centrelines
  6
ByLayer
 62
  256
370
   -1
100
AcDbLine
 10
763
 20
781
 11
763
 21
777
  0
MTEXT
  5
7A
100
AcDbEntity
  8
centrelines
  6
ByLayer
 62
  256
370
   -1
100
AcDbMText
 10
763
 20
779
 30
0
 40
0.3
 41
4.658333333333482
 71
    1
 72
    5
  1
18 33.944650607377696
  7
standard
210
0
220
0
230
1
 50
0
 73
    1
 44
1
  0
LINE
  5
7B
100
AcDbEntity
  8
centrelines
  6
ByLayer
 62
  256
370
   -1
100
AcDbLine
 10
779.5
 20
777
 11
779.5
 21
759
  0
MTEXT
  5
7C
100
AcDbEntity
  8
centrelines
  6
ByLayer
 62
  256
370
   -1
100
AcDbMText
 10
779.5
 20
768
 30
0
 40
0.3
 41
4.458333333333426
 71
    1
 72
    5
  1
19 34.80468372469295
  7
standard
210
0
220
0
230
1
 50
0
 73
    1
 44
1
  0
LINE
  5
7D
100
AcDbEntity
  8
centrelines
  6
ByLayer
 62
  256
370
   -1
100
AcDbLine
 10
775
 20
768
 11
775
 21
768
  0
MTEXT
  5
7E
100
AcDbEntity
  8
centrelines
  6
ByLayer
 62
  256
370
   -1
100
AcDbMText
 10
775
 20
768
 30
0
 40
0.3
 41
4.591666666666796
 71
    1
 72
    5
  1
20 35.078237193339206
  7
standard
210
0
220
0
230
1
 50
0
 73
    1
 44
1
  0
LINE
  5
7F
100
AcDbEntity
  8
centrelines
  6
ByLayer
 62
  256
370
   -1
100
AcDbLine
 10
773.5
 20
723
 11
773.5
 21
723
  0
MTEXT
  5
80
100
AcDbEntity
  8
centrelines
  6
ByLayer
 62
  256
370
   -1
100
AcDbMText
 10
773.5
 20
723
 30
0
 40
0.3
 41
4.391666666666834
 71
    1
 72
    5
  1
21 36.06032050642556
  7
standard
210
0
220
0
230
1
 50
0
 73
    1
 44
1
  0
LINE
  5
81
100
AcDbEntity
  8
centrelines
  6
ByLayer
 62
  256
370
   -1
100
AcDbLine
 10
772
 20
720.5
 11
775
 21
720.5
  0
MTEXT
  5
82
100
AcDbEntity
  8
centrelines
  6
ByLayer
 62
  256
370
   -1
100
AcDbMText
 10
773.5
 20
720.5
 30
0
 40
0.3
 41
4.225000000000149
 71
    1
 72
    5
  1
22 36.7367363830429
  7
standard
210
0
220
0
230
1
 50
0
 73
    1
 44
1
  0
LINE
  5
83
100
AcDbEntity
  8
centrelines
  6
ByLayer
 62
  256
370
   -1
100
AcDbLine
 10
778
 20
718
 11
778
 21
723
  0
MTEXT
  5
84
100
AcDbEntity
  8
centrelines
  6
ByLayer
 62
  256
370
   -1
100
AcDbMText
 10
778
 20
720.5
 30
0
 40
0.3
 41
4.125000000000075
 71
    1
 72
    5
  1
23 39.51281812421158
  7
standard
210
0
220
0
230
1
 50
0
 73
    1
 44
1
  0
LINE
  5
85
100
AcDbEntity
  8
centrelines
  6
ByLayer
 62
  256
370
   -1
100
AcDbLine
 10
773.5
 20
718
 11
773.5
 21
718
  0
MTEXT
  5
86
100
AcDbEntity
  8
centrelines
  6
ByLayer
 62
  256
370
   -1
100
AcDbMText
 10
773.5
 20
718
 30
0
 40
0.3
 41
4.325000000000056
 71
    1
 72
    5
  1
24 39.58879815287188
  7
standard
210
0
220
0
230
1
 50
0
 73
    1
 44
1
  0
LINE
  5
87
100
AcDbEntity
  8
centrelines
  6
ByLayer
 62
  256
370
   -1
100
AcDbLine
 10
773.5
 20
777
 11
773.5
 21
777
  0
MTEXT
  5
88
100
AcDbEntity
  8
centrelines
  6
ByLayer
 62
  256
370
   -1
100
AcDbMText
 10
773.5
 20
777
 30
0
 40
0.3
 41
4.725000000000074
 71
    1
 72
    5
  1
25 40.044269178860254
  7
standard
210
0
220
0
230
1
 50
0
 73
    1
 44
1
  0
LINE
  5
89
100
AcDbEntity
  8
centrelines
  6
ByLayer
 62
  256
370
   -1
100
AcDbLine
 10
772
 20
779
 11
775
 21
779
  0
MTEXT
  5
8A
100
AcDbEntity
  8
centrelines
  6
ByLayer
 62
  256
370
   -1
100
AcDbMText
 10
773.5
 20
779
 30
0
 40
0.3
 41
4.758333333333481
 71
    1
 72
    5
  1
26 40.605430392665994
  7
standard
210
0
220
0
230
1
 50
0
 73
    1
 44
1
  0
LINE
  5
8B
100
AcDbEntity
  8
centrelines
  6
ByLayer
 62
  256
370
   -1
100
AcDbLine
 10
773.5
 20
781
 11
773.5
 21
781
  0
MTEXT
  5
8C
100
AcDbEntity
  8
centrelines
  6
ByLayer
 62
  256
370
   -1
100
AcDbMText
 10
773.5
 20
781
 30
0
 40
0.3
 41
4.525000000000093
 71
    1
 72
    5
  1
27 43.10455329473744
  7
standard
210
0
220
0
230
1
 50
0
 73
    1
 44
1
  0
LINE
  5
8D
100
AcDbEntity
  8
centrelines
  6
ByLayer
 62
  256
370
   -1
100
AcDbLine
 10
778
 20
781
 11
778
 21
777
  0
MTEXT
  5
8E
100
AcDbEntity
  8
centrelines
  6
ByLayer
 62
  256
370
   -1
100
AcDbMText
 10
778
 20
779
 30
0
 40
0.3
 41
4.59166666666676
 71
    1
 72
    5
  1
28 43.179388313869204
  7
standard
210
0
220
0
230
1
 50
0
 73
    1
 44
1
  0
LINE
  5
8F
100
AcDbEntity
  8
centrelines
  6
ByLayer
 62
  256
370
   -1
100
AcDbLine
 10
779.5
 20
645
 11
779.5
 21
718
  0
MTEXT
  5
90
100
AcDbEntity
  8
centrelines
  6
ByLayer
 62
  256
370
   -1
100
AcDbMText
 10
779.5
 20
681.5
 30
0
 40
0.3
 41
4.358333333333445
 71
    1
 72
    5
  1
29 43.86526014182539
  7
standard
210
0
220
0
230
1
 50
0
 73
    1
 44
1
  0
LINE
  5
91
100
AcDbEntity
  8
centrelines
  6
ByLayer
 62
  256
370
   -1
100
AcDbLine
 10
779.5
 20
781
 11
779.5
 21
882
  0
MTEXT
  5
92
100
AcDbEntity
  8
centrelines
  6
ByLayer
 62
  256
370
   -1
100
AcDbMText
 10
779.5
 20
831.5
 30
0
 40
0.3
 41
4.458333333333409
 71
    1
 72
    5
  1
30 47.06262447909215
  7
standard
210
0
220
0
230
1
 50
0
 73
    1
 44
1
  0
LINE
  5
93
100
AcDbEntity
  8
centrelines
  6
ByLayer
 62
  256
370
   -1
100
AcDbLine
 10
705
 20
781
 11
705
 21
823
  0
MTEXT
  5
94
100
AcDbEntity
  8
centrelines
  6
ByLayer
 62
  256
370
   -1
100
AcDbMText
 10
705
 20
802
 30
0
 40
0.3
 41
4.291666666666815
 71
    1
 72
    5
  1
31 53.72876275350123
  7
standard
210
0
220
0
230
1
 50
0
 73
    1
 44
1
  0
LINE
  5
95
100
AcDbEntity
  8
centrelines
  6
ByLayer
 62
  256
370
   -1
100
AcDbLine
 10
674
 20
779
 11
703
 21
779
  0
MTEXT
  5
96
100
AcDbEntity
  8
centrelines
  6
ByLayer
 62
  256
370
   -1
100
AcDbMText
 10
688.5
 20
779
 30
0
 40
0.3
 41
4.458333333333463
 71
    1
 72
    5
  1
32 54.09794574639631
  7
standard
210
0
220
0
230
1
 50
0
 73
    1
 44
1
  0
LINE
  5
97
100
AcDbEntity
  8
centrelines
  6
ByLayer
 62
  256
370
   -1
100
AcDbLine
 10
676.5
 20
645
 11
676.5
 21
718
  0
MTEXT
  5
98
100
AcDbEntity
  8
centrelines
  6
ByLayer
 62
  256
370
   -1
100
AcDbMText
 10
676.5
 20
681.5
 30
0
 40
0.3
 41
4.425000000000185
 71
    1
 72
    5
  1
33 76.08273035253383
  7
standard
210
0
220
0
230
1
 50
0
 73
    1
 44
1
  0
LINE
  5
99
100
AcDbEntity
  8
centrelines
  6
ByLayer
 62
  256
370
   -1
100
AcDbLine
 10
601
 20
825.5
 11
703
 21
825.5
  0
MTEXT
  5
9A
100
AcDbEntity
  8
centrelines
  6
ByLayer
 62
  256
370
   -1
100
AcDbMText
 10
652
 20
825.5
 30
0
 40
0.3
 41
4.525000000000075
 71
    1
 72
    5
  1
34 89.70464786880869
  7
standard
210
0
220
0
230
1
 50
0
 73
    1
 44
1
  0
LINE
  5
9B
100
AcDbEntity
  8
centrelines
  6
ByLayer
 62
  256
370
   -1
100
AcDbLine
 10
705
 20
828
 11
705
 21
912
  0
MTEXT
  5
9C
100
AcDbEntity
  8
centrelines
  6
ByLayer
 62
  256
370
   -1
100
AcDbMText
 10
705
 20
870
 30
0
 40
0.3
 41
4.458333333333464
 71
    1
 72
    5
  1
35 90.95973526727458
  7
standard
210
0
220
0
230
1
 50
0
 73
    1
 44
1
  0
LINE
  5
9D
100
AcDbEntity
  8
centrelines
  6
ByLayer
 62
  256
370
   -1
100
AcDbLine
 10
709
 20
642.5
 11
775
 21
642.5
  0
MTEXT
  5
9E
100
AcDbEntity
  8
centrelines
  6
ByLayer
 62
  256
370
   -1
100
AcDbMText
 10
742
 20
642.5
 30
0
 40
0.3
 41
4.525000000000129
 71
    1
 72
    5
  1
36 104.69262241626961
  7
standard
210
0
220
0
230
1
 50
0
 73
    1
 44
1
  0
LINE
  5
9F
100
AcDbEntity
  8
centrelines
  6
ByLayer
 62
  256
370
   -1
100
AcDbLine
 10
779.5
 20
450
 11
779.5
 21
640
  0
MTEXT
  5
A0
100
AcDbEntity
  8
centrelines
  6
ByLayer
 62
  256
370
   -1
100
AcDbMText
 10
779.5
 20
545
 30
0
 40
0.3
 41
4.558333333333407
 71
    1
 72
    5
  1
37 112.08126580409446
  7
standard
210
0
220
0
230
1
 50
0
 73
    1
 44
1
  0
LINE
  5
A1
100
AcDbEntity
  8
centrelines
  6
ByLayer
 62
  256
370
   -1
100
AcDbLine
 10
661
 20
642.5
 11
674
 21
642.5
  0
MTEXT
  5
A2
100
AcDbEntity
  8
centrelines
  6
ByLayer
 62
  256
370
   -1
100
AcDbMText
 10
667.5
 20
642.5
 30
0
 40
0.3
 41
4.658333333333371
 71
    1
 72
    5
  1
38 127.49299770720452
  7
standard
210
0
220
0
230
1
 50
0
 73
    1
 44
1
  0
LINE
  5
A3
100
AcDbEntity
  8
centrelines
  6
ByLayer
 62
  256
370
   -1
100
AcDbLine
 10
670
 20
640
 11
670
 21
645
  0
MTEXT
  5
A4
100
AcDbEntity
  8
centrelines
  6
ByLayer
 62
  256
370
   -1
100
AcDbMText
 10
670
 20
642.5
 30
0
 40
0.3
 41
4.591666666666778
 71
    1
 72
    5
  1
39 127.80972555667972
  7
standard
210
0
220
0
230
1
 50
0
 73
    1
 44
1
  0
LINE
  5
A5
100
AcDbEntity
  8
centrelines
  6
ByLayer
 62
  256
370
   -1
100
AcDbLine
 10
667.5
 20
645
 11
667.5
 21
645
  0
MTEXT
  5
A6
100
AcDbEntity
  8
centrelines
  6
ByLayer
 62
  256
370
   -1
100
AcDbMText
 10
667.5
 20
645
 30
0
 40
0.3
 41
4.291666666666742
 71
    1
 72
    5
  1
40 129.3266119887549
  7
standard
210
0
220
0
230
1
 50
0
 73
    1
 44
1
  0
LINE
  5
A7
100
AcDbEntity
  8
centrelines
  6
ByLayer
 62
  256
370
   -1
100
AcDbLine
 10
737
 20
884
 11
775
 21
884
  0
MTEXT
  5
A8
100
AcDbEntity
  8
centrelines
  6
ByLayer
 62
  256
370
   -1
100
AcDbMText
 10
756
 20
884
 30
0
 40
0.3
 41
4.558333333333463
 71
    1
 72
    5
  1
41 136.80737758373039
  7
standard
210
0
220
0
230
1
 50
0
 73
    1
 44
1
  0
LINE
  5
A9
100
AcDbEntity
  8
centrelines
  6
ByLayer
 62
  256
370
   -1
100
AcDbLine
 10
779.5
 20
886
 11
779.5
 21
972
  0
MTEXT
  5
AA
100
AcDbEntity
  8
centrelines
  6
ByLayer
 62
  256
370
   -1
100
AcDbMText
 10
779.5
 20
929
 30
0
 40
0.3
 41
4.391666666666779
 71
    1
 72
    5
  1
42 142.6164082966733
  7
standard
210
0
220
0
230
1
 50
0
 73
    1
 44
1
  0
LINE
  5
AB
100
AcDbEntity
  8
centrelines
  6
ByLayer
 62
  256
370
   -1
100
AcDbLine
 10
616.5
 20
546
 11
616.5
 21
645
  0
MTEXT
  5
AC
100
AcDbEntity
  8
centrelines
  6
ByLayer
 62
  256
370
   -1
100
AcDbMText
 10
616.5
 20
595.5
 30
0
 40
0.3
 41
4.391666666666798
 71
    1
 72
    5
  1
43 165.5621443732229
  7
standard
210
0
220
0
230
1
 50
0
 73
    1
 44
1
  0
LINE
  5
AD
100
AcDbEntity
  8
centrelines
  6
ByLayer
 62
  256
370
   -1
100
AcDbLine
 10
706.5
 20
912
 11
706.5
 21
912
  0
MTEXT
  5
AE
100
AcDbEntity
  8
centrelines
  6
ByLayer
 62
  256
370
   -1
100
AcDbMText
 10
706.5
 20
912
 30
0
 40
0.3
 41
4.591666666666797
 71
    1
 72
    5
  1
44 169.65342584513192
  7
standard
210
0
220
0
230
1
 50
0
 73
    1
 44
1
  0
LINE
  5
AF
100
AcDbEntity
  8
centrelines
  6
ByLayer
 62
  256
370
   -1
100
AcDbLine
 10
705
 20
912
 11
705
 21
912
  0
MTEXT
  5
B0
100
AcDbEntity
  8
centrelines
  6
ByLayer
 62
  256
370
   -1
100
AcDbMText
 10
705
 20
912
 30
0
 40
0.3
 41
4.29166666666676
 71
    1
 72
    5
  1
45 170.0156253817848
  7
standard
210
0
220
0
230
1
 50
0
 73
    1
 44
1
  0
LINE
  5
B1
100
AcDbEntity
  8
centrelines
  6
ByLayer
 62
  256
370
   -1
100
AcDbLine
 10
704.5
 20
912
 11
704.5
 21
912
  0
MTEXT
  5
B2
100
AcDbEntity
  8
centrelines
  6
ByLayer
 62
  256
370
   -1
100
AcDbMText
 10
704.5
 20
912
 30
0
 40
0.3
 41
4.425000000000112
 71
    1
 72
    5
  1
46 170.13912600657915
  7
standard
210
0
220
0
230
1
 50
0
 73
    1
 44
1
  0
LINE
  5
B3
100
AcDbEntity
  8
centrelines
  6
ByLayer
 62
  256
370
   -1
100
AcDbLine
 10
704.5
 20
912
 11
704.5
 21
939
  0
MTEXT
  5
B4
100
AcDbEntity
  8
centrelines
  6
ByLayer
 62
  256
370
   -1
100
AcDbMText
 10
704.5
 20
925.5
 30
0
 40
0.3
 41
4.425000000000093
 71
    1
 72
    5
  1
47 170.13912600657915
  7
standard
210
0
220
0
230
1
 50
0
 73
    1
 44
1
  0
LINE
  5
B5
100
AcDbEntity
  8
centrelines
  6
ByLayer
 62
  256
370
   -1
100
AcDbLine
 10
556.5
 20
823
 11
556.5
 21
876
  0
MTEXT
  5
B6
100
AcDbEntity
  8
centrelines
  6
ByLayer
 62
  256
370
   -1
100
AcDbMText
 10
556.5
 20
849.5
 30
0
 40
0.3
 41
4.758333333333426
 71
    1
 72
    5
  1
48 204.80568592706624
  7
standard
210
0
220
0
230
1
 50
0
 73
    1
 44
1
  0
LINE
  5
B7
100
AcDbEntity
  8
centrelines
  6
ByLayer
 62
  256
370
   -1
100
AcDbLine
 10
601
 20
976.5
 11
775
 21
976.5
  0
MTEXT
  5
B8
100
AcDbEntity
  8
centrelines
  6
ByLayer
 62
  256
370
   -1
100
AcDbMText
 10
688
 20
976.5
 30
0
 40
0.3
 41
4.691666666666777
 71
    1
 72
    5
  1
49 229.30737758373039
  7
standard
210
0
220
0
230
1
 50
0
 73
    1
 44
1
  0
LINE
  5
B9
100
AcDbEntity
  8
centrelines
  6
ByLayer
 62
  256
370
   -1
100
AcDbLine
 10
556.5
 20
880
 11
556.5
 21
972
  0
MTEXT
  5
BA
100
AcDbEntity
  8
centrelines
  6
ByLayer
 62
  256
370
   -1
100
AcDbMText
 10
556.5
 20
926
 30
0
 40
0.3
 41
4.691666666666723
 71
    1
 72
    5
  1
50 232.02674421842272
  7
standard
210
0
220
0
230
1
 50
0
 73
    1
 44
1
  0
LINE
  5
BB
100
AcDbEntity
  8
centrelines
  6
ByLayer
 62
  256
370
   -1
100
AcDbLine
 10
517
 20
878
 11
554
 21
878
  0
MTEXT
  5
BC
100
AcDbEntity
  8
centrelines
  6
ByLayer
 62
  256
370
   -1
100
AcDbMText
 10
535.5
 20
878
 30
0
 40
0.3
 41
4.391666666666779
 71
    1
 72
    5
  1
51 232.95219926818166
  7
standard
210
0
220
0
230
1
 50
0
 73
    1
 44
1
  0
LINE
  5
BD
100
AcDbEntity
  8
centrelines
  6
ByLayer
 62
  256
370
   -1
100
AcDbLine
 10
558
 20
541.5
 11
614
 21
541.5
  0
MTEXT
  5
BE
100
AcDbEntity
  8
centrelines
  6
ByLayer
 62
  256
370
   -1
100
AcDbMText
 10
586
 20
541.5
 30
0
 40
0.3
 41
4.758333333333445
 71
    1
 72
    5
  1
52 244.81522238464643
  7
standard
210
0
220
0
230
1
 50
0
 73
    1
 44
1
  0
LINE
  5
BF
100
AcDbEntity
  8
centrelines
  6
ByLayer
 62
  256
370
   -1
100
AcDbLine
 10
616.5
 20
537
 11
616.5
 21
450
  0
MTEXT
  5
C0
100
AcDbEntity
  8
centrelines
  6
ByLayer
 62
  256
370
   -1
100
AcDbMText
 10
616.5
 20
493.5
 30
0
 40
0.3
 41
4.658333333333407
 71
    1
 72
    5
  1
53 247.28208607049186
  7
standard
210
0
220
0
230
1
 50
0
 73
    1
 44
1
  0
LINE
  5
C1
100
AcDbEntity
  8
centrelines
  6
ByLayer
 62
  256
370
   -1
100
AcDbLine
 10
337
 20
825.5
 11
512
 21
825.5
  0
MTEXT
  5
C2
100
AcDbEntity
  8
centrelines
  6
ByLayer
 62
  256
370
   -1
100
AcDbMText
 10
424.5
 20
825.5
 30
0
 40
0.3
 41
4.758333333333389
 71
    1
 72
    5
  1
54 247.47522247841832
  7
standard
210
0
220
0
230
1
 50
0
 73
    1
 44
1
  0
LINE
  5
C3
100
AcDbEntity
  8
centrelines
  6
ByLayer
 62
  256
370
   -1
100
AcDbLine
 10
484.5
 20
981
 11
484.5
 21
876
  0
MTEXT
  5
C4
100
AcDbEntity
  8
centrelines
  6
ByLayer
 62
  256
370
   -1
100
AcDbMText
 10
484.5
 20
928.5
 30
0
 40
0.3
 41
4.625000000000167
 71
    1
 72
    5
  1
55 292.18366435253927
  7
standard
210
0
220
0
230
1
 50
0
 73
    1
 44
1
  0
LINE
  5
C5
100
AcDbEntity
  8
centrelines
  6
ByLayer
 62
  256
370
   -1
100
AcDbLine
 10
505
 20
976.5
 11
554
 21
976.5
  0
MTEXT
  5
C6
100
AcDbEntity
  8
centrelines
  6
ByLayer
 62
  256
370
   -1
100
AcDbMText
 10
529.5
 20
976.5
 30
0
 40
0.3
 41
4.425000000000205
 71
    1
 72
    5
  1
56 299.5630660276355
  7
standard
210
0
220
0
230
1
 50
0
 73
    1
 44
1
  0
LINE
  5
C7
100
AcDbEntity
  8
centrelines
  6
ByLayer
 62
  256
370
   -1
100
AcDbLine
 10
709
 20
450
 11
709
 21
441
  0
MTEXT
  5
C8
100
AcDbEntity
  8
centrelines
  6
ByLayer
 62
  256
370
   -1
100
AcDbMText
 10
709
 20
445.5
 30
0
 40
0.3
 41
4.658333333333408
 71
    1
 72
    5
  1
57 299.58174409000065
  7
standard
210
0
220
0
230
1
 50
0
 73
    1
 44
1
  0
LINE
  5
C9
100
AcDbEntity
  8
centrelines
  6
ByLayer
 62
  256
370
   -1
100
AcDbLine
 10
337
 20
541.5
 11
528
 21
541.5
  0
MTEXT
  5
CA
100
AcDbEntity
  8
centrelines
  6
ByLayer
 62
  256
370
   -1
100
AcDbMText
 10
432.5
 20
541.5
 30
0
 40
0.3
 41
4.391666666666797
 71
    1
 72
    5
  1
58 300.2750354172659
  7
standard
210
0
220
0
230
1
 50
0
 73
    1
 44
1
  0
LINE
  5
CB
100
AcDbEntity
  8
centrelines
  6
ByLayer
 62
  256
370
   -1
100
AcDbLine
 10
695.5
 20
450
 11
695.5
 21
441
  0
MTEXT
  5
CC
100
AcDbEntity
  8
centrelines
  6
ByLayer
 62
  256
370
   -1
100
AcDbMText
 10
695.5
 20
445.5
 30
0
 40
0.3
 41
4.258333333333427
 71
    1
 72
    5
  1
59 301.5807904173175
  7
standard
210
0
220
0
230
1
 50
0
 73
    1
 44
1
  0
LINE
  5
CD
100
AcDbEntity
  8
centrelines
  6
ByLayer
 62
  256
370
   -1
100
AcDbLine
 10
718
 20
445.5
 11
775
 21
445.5
  0
MTEXT
  5
CE
100
AcDbEntity
  8
centrelines
  6
ByLayer
 62
  256
370
   -1
100
AcDbMText
 10
746.5
 20
445.5
 30
0
 40
0.3
 41
4.325000000000131
 71
    1
 72
    5
  1
60 301.6926224162696
  7
standard
210
0
220
0
230
1
 50
0
 73
    1
 44
1
  0
LINE
  5
CF
100
AcDbEntity
  8
centrelines
  6
ByLayer
 62
  256
370
   -1
100
AcDbLine
 10
691
 20
445.5
 11
700
 21
445.5
  0
MTEXT
  5
D0
100
AcDbEntity
  8
centrelines
  6
ByLayer
 62
  256
370
   -1
100
AcDbMText
 10
695.5
 20
445.5
 30
0
 40
0.3
 41
4.225000000000074
 71
    1
 72
    5
  1
61 305.2947310904191
  7
standard
210
0
220
0
230
1
 50
0
 73
    1
 44
1
  0
LINE
  5
D1
100
AcDbEntity
  8
centrelines
  6
ByLayer
 62
  256
370
   -1
100
AcDbLine
 10
779.5
 20
441
 11
779.5
 21
399
  0
MTEXT
  5
D2
100
AcDbEntity
  8
centrelines
  6
ByLayer
 62
  256
370
   -1
100
AcDbMText
 10
779.5
 20
420
 30
0
 40
0.3
 41
4.29166666666676
 71
    1
 72
    5
  1
62 307.9381007051959
  7
standard
210
0
220
0
230
1
 50
0
 73
    1
 44
1
  0
LINE
  5
D3
100
AcDbEntity
  8
centrelines
  6
ByLayer
 62
  256
370
   -1
100
AcDbLine
 10
646
 20
445.5
 11
661
 21
445.5
  0
MTEXT
  5
D4
100
AcDbEntity
  8
centrelines
  6
ByLayer
 62
  256
370
   -1
100
AcDbMText
 10
653.5
 20
445.5
 30
0
 40
0.3
 41
4.691666666666871
 71
    1
 72
    5
  1
63 313.64486306774353
  7
standard
210
0
220
0
230
1
 50
0
 73
    1
 44
1
  0
LINE
  5
D5
100
AcDbEntity
  8
centrelines
  6
ByLayer
 62
  256
370
   -1
100
AcDbLine
 10
619
 20
445.5
 11
642
 21
445.5
  0
MTEXT
  5
D6
100
AcDbEntity
  8
centrelines
  6
ByLayer
 62
  256
370
   -1
100
AcDbMText
 10
630.5
 20
445.5
 30
0
 40
0.3
 41
4.591666666666852
 71
    1
 72
    5
  1
64 319.36335803135984
  7
standard
210
0
220
0
230
1
 50
0
 73
    1
 44
1
  0
LINE
  5
D7
100
AcDbEntity
  8
centrelines
  6
ByLayer
 62
  256
370
   -1
100
AcDbLine
 10
653.5
 20
441
 11
653.5
 21
441
  0
MTEXT
  5
D8
100
AcDbEntity
  8
centrelines
  6
ByLayer
 62
  256
370
   -1
100
AcDbMText
 10
653.5
 20
441
 30
0
 40
0.3
 41
4.358333333333464
 71
    1
 72
    5
  1
65 320.0800268610626
  7
standard
210
0
220
0
230
1
 50
0
 73
    1
 44
1
  0
LINE
  5
D9
100
AcDbEntity
  8
centrelines
  6
ByLayer
 62
  256
370
   -1
100
AcDbLine
 10
651.5
 20
441
 11
651.5
 21
441
  0
MTEXT
  5
DA
100
AcDbEntity
  8
centrelines
  6
ByLayer
 62
  256
370
   -1
100
AcDbMText
 10
651.5
 20
441
 30
0
 40
0.3
 41
4.791666666666835
 71
    1
 72
    5
  1
66 320.66845946034584
  7
standard
210
0
220
0
230
1
 50
0
 73
    1
 44
1
  0
LINE
  5
DB
100
AcDbEntity
  8
centrelines
  6
ByLayer
 62
  256
370
   -1
100
AcDbLine
 10
644
 20
441
 11
644
 21
399
  0
MTEXT
  5
DC
100
AcDbEntity
  8
centrelines
  6
ByLayer
 62
  256
370
   -1
100
AcDbMText
 10
644
 20
420
 30
0
 40
0.3
 41
4.558333333333501
 71
    1
 72
    5
  1
67 322.97585166312354
  7
standard
210
0
220
0
230
1
 50
0
 73
    1
 44
1
  0
LINE
  5
DD
100
AcDbEntity
  8
centrelines
  6
ByLayer
 62
  256
370
   -1
100
AcDbLine
 10
496
 20
981
 11
496
 21
972
  0
MTEXT
  5
DE
100
AcDbEntity
  8
centrelines
  6
ByLayer
 62
  256
370
   -1
100
AcDbMText
 10
496
 20
976.5
 30
0
 40
0.3
 41
4.491666666666815
 71
    1
 72
    5
  1
68 336.7767743641464
  7
standard
210
0
220
0
230
1
 50
0
 73
    1
 44
1
  0
LINE
  5
DF
100
AcDbEntity
  8
centrelines
  6
ByLayer
 62
  256
370
   -1
100
AcDbLine
 10
772.5
 20
399
 11
772.5
 21
399
  0
MTEXT
  5
E0
100
AcDbEntity
  8
centrelines
  6
ByLayer
 62
  256
370
   -1
100
AcDbMText
 10
772.5
 20
399
 30
0
 40
0.3
 41
4.591666666666834
 71
    1
 72
    5
  1
69 349.14278553253155
  7
standard
210
0
220
0
230
1
 50
0
 73
    1
 44
1
  0
LINE
  5
E1
100
AcDbEntity
  8
centrelines
  6
ByLayer
 62
  256
370
   -1
100
AcDbLine
 10
777
 20
390
 11
777
 21
399
  0
MTEXT
  5
E2
100
AcDbEntity
  8
centrelines
  6
ByLayer
 62
  256
370
   -1
100
AcDbMText
 10
777
 20
394.5
 30
0
 40
0.3
 41
4.6583333333335
 71
    1
 72
    5
  1
70 349.50336303175425
  7
standard
210
0
220
0
230
1
 50
0
 73
    1
 44
1
  0
LINE
  5
E3
100
AcDbEntity
  8
centrelines
  6
ByLayer
 62
  256
370
   -1
100
AcDbLine
 10
770
 20
394.5
 11
775
 21
394.5
  0
MTEXT
  5
E4
100
AcDbEntity
  8
centrelines
  6
ByLayer
 62
  256
370
   -1
100
AcDbMText
 10
772.5
 20
394.5
 30
0
 40
0.3
 41
4.591666666666852
 71
    1
 72
    5
  1
71 353.45751500396466
  7
standard
210
0
220
0
230
1
 50
0
 73
    1
 44
1
  0
LINE
  5
E5
100
AcDbEntity
  8
centrelines
  6
ByLayer
 62
  256
370
   -1
100
AcDbLine
 10
473
 20
981
 11
473
 21
972
  0
MTEXT
  5
E6
100
AcDbEntity
  8
centrelines
  6
ByLayer
 62
  256
370
   -1
100
AcDbMText
 10
473
 20
976.5
 30
0
 40
0.3
 41
4.625000000000168
 71
    1
 72
    5
  1
72 354.23512625089563
  7
standard
210
0
220
0
230
1
 50
0
 73
    1
 44
1
  0
LINE
  5
E7
100
AcDbEntity
  8
centrelines
  6
ByLayer
 62
  256
370
   -1
100
AcDbLine
 10
648.5
 20
399
 11
648.5
 21
399
  0
MTEXT
  5
E8
100
AcDbEntity
  8
centrelines
  6
ByLayer
 62
  256
370
   -1
100
AcDbMText
 10
648.5
 20
399
 30
0
 40
0.3
 41
4.291666666666779
 71
    1
 72
    5
  1
73 361.7913723702896
  7
standard
210
0
220
0
230
1
 50
0
 73
    1
 44
1
  0
LINE
  5
E9
100
AcDbEntity
  8
centrelines
  6
ByLayer
 62
  256
370
   -1
100
AcDbLine
 10
646.5
 20
390
 11
646.5
 21
399
  0
MTEXT
  5
EA
100
AcDbEntity
  8
centrelines
  6
ByLayer
 62
  256
370
   -1
100
AcDbMText
 10
646.5
 20
394.5
 30
0
 40
0.3
 41
4.658333333333501
 71
    1
 72
    5
  1
74 362.33966718932453
  7
standard
210
0
220
0
230
1
 50
0
 73
    1
 44
1
  0
LINE
  5
EB
100
AcDbEntity
  8
centrelines
  6
ByLayer
 62
  256
370
   -1
100
AcDbLine
 10
337
 20
976.5
 11
464
 21
976.5
  0
MTEXT
  5
EC
100
AcDbEntity
  8
centrelines
  6
ByLayer
 62
  256
370
   -1
100
AcDbMText
 10
400.5
 20
976.5
 30
0
 40
0.3
 41
4.325000000000149
 71
    1
 72
    5
  1
75 364.0531676912862
  7
standard
210
0
220
0
230
1
 50
0
 73
    1
 44
1
  0
LINE
  5
ED
100
AcDbEntity
  8
centrelines
  6
ByLayer
 62
  256
370
   -1
100
AcDbLine
 10
646
 20
394.5
 11
651
 21
394.5
  0
MTEXT
  5
EE
100
AcDbEntity
  8
centrelines
  6
ByLayer
 62
  256
370
   -1
100
AcDbMText
 10
648.5
 20
394.5
 30
0
 40
0.3
 41
4.291666666666798
 71
    1
 72
    5
  1
76 365.4612621081854
  7
standard
210
0
220
0
230
1
 50
0
 73
    1
 44
1
  0
LINE
  5
EF
100
AcDbEntity
  8
centrelines
  6
ByLayer
 62
  256
370
   -1
100
AcDbLine
 10
332.5
 20
546
 11
332.5
 21
823
  0
MTEXT
  5
F0
100
AcDbEntity
  8
centrelines
  6
ByLayer
 62
  256
370
   -1
100
AcDbMText
 10
332.5
 20
684.5
 30
0
 40
0.3
 41
4.725000000000112
 71
    1
 72
    5
  1
77 414.25932432323475
  7
standard
210
0
220
0
230
1
 50
0
 73
    1
 44
1
  0
LINE
  5
F1
100
AcDbEntity
  8
centrelines
  6
ByLayer
 62
  256
370
   -1
100
AcDbLine
 10
332.5
 20
828
 11
332.5
 21
948
  0
MTEXT
  5
F2
100
AcDbEntity
  8
centrelines
  6
ByLayer
 62
  256
370
   -1
100
AcDbMText
 10
332.5
 20
888
 30
0
 40
0.3
 41
4.758333333333372
 71
    1
 72
    5
  1
78 422.06708004854227
  7
standard
210
0
220
0
230
1
 50
0
 73
    1
 44
1
  0
LINE
  5
F3
100
AcDbEntity
  8
centrelines
  6
ByLayer
 62
  256
370
   -1
100
AcDbLine
 10
332.5
 20
972
 11
332.5
 21
948
  0
MTEXT
  5
F4
100
AcDbEntity
  8
centrelines
  6
ByLayer
 62
  256
370
   -1
100
AcDbMText
 10
332.5
 20
960
 30
0
 40
0.3
 41
4.491666666666778
 71
    1
 72
    5
  1
79 460.3633246478241
  7
standard
210
0
220
0
230
1
 50
0
 73
    1
 44
1
  0
LINE
  5
F5
100
AcDbEntity
  8
wall
  6
ByLayer
 62
  256
370
   -1
100
AcDbLine
 10
328
 20
537
 11
528
 21
537
  0
LINE
  5
F6
100
AcDbEntity
  8
wall
  6
ByLayer
 62
  256
370
   -1
100
AcDbLine
 10
328
 20
537
 11
328
 21
981
  0
LINE
  5
F7
100
AcDbEntity
  8
wall
  6
ByLayer
 62
  256
370
   -1
100
AcDbLine
 10
528
 20
537
 11
558
 21
537
  0
LINE
  5
F8
100
AcDbEntity
  8
wall
  6
ByLayer
 62
  256
370
   -1
100
AcDbLine
 10
328
 20
981
 11
464
 21
981
  0
LINE
  5
F9
100
AcDbEntity
  8
wall
  6
ByLayer
 62
  256
370
   -1
100
AcDbLine
 10
528
 20
546
 11
337
 21
546
  0
LINE
  5
FA
100
AcDbEntity
  8
wall
  6
ByLayer
 62
  256
370
   -1
100
AcDbLine
 10
528
 20
546
 11
558
 21
546
  0
LINE
  5
FB
100
AcDbEntity
  8
wall
  6
ByLayer
 62
  256
370
   -1
100
AcDbLine
 10
558
 20
537
 11
614
 21
537
  0
LINE
  5
FC
100
AcDbEntity
  8
wall
  6
ByLayer
 62
  256
370
   -1
100
AcDbLine
 10
614
 20
537
 11
614
 21
441
  0
LINE
  5
FD
100
AcDbEntity
  8
wall
  6
ByLayer
 62
  256
370
   -1
100
AcDbLine
 10
558
 20
546
 11
614
 21
546
  0
LINE
  5
FE
100
AcDbEntity
  8
wall
  6
ByLayer
 62
  256
370
   -1
100
AcDbLine
 10
614
 20
441
 11
642
 21
441
  0
LINE
  5
FF
100
AcDbEntity
  8
wall
  6
ByLayer
 62
  256
370
   -1
100
AcDbLine
 10
337
 20
546
 11
337
 21
823
  0
LINE
  5
100
100
AcDbEntity
  8
wall
  6
ByLayer
 62
  256
370
   -1
100
AcDbLine
 10
337
 20
823
 11
512
 21
823
  0
LINE
  5
101
100
AcDbEntity
  8
wall
  6
ByLayer
 62
  256
370
   -1
100
AcDbLine
 10
614
 20
546
 11
614
 21
645
  0
LINE
  5
102
100
AcDbEntity
  8
wall
  6
ByLayer
 62
  256
370
   -1
100
AcDbLine
 10
614
 20
645
 11
619
 21
645
  0
LINE
  5
103
100
AcDbEntity
  8
wall
  6
ByLayer
 62
  256
370
   -1
100
AcDbLine
 10
642
 20
441
 11
642
 21
390
  0
LINE
  5
104
100
AcDbEntity
  8
wall
  6
ByLayer
 62
  256
370
   -1
100
AcDbLine
 10
642
 20
390
 11
651
 21
390
  0
LINE
  5
105
100
AcDbEntity
  8
wall
  6
ByLayer
 62
  256
370
   -1
100
AcDbLine
 10
646
 20
441
 11
661
 21
441
  0
LINE
  5
106
100
AcDbEntity
  8
wall
  6
ByLayer
 62
  256
370
   -1
100
AcDbLine
 10
646
 20
441
 11
646
 21
399
  0
LINE
  5
107
100
AcDbEntity
  8
wall
  6
ByLayer
 62
  256
370
   -1
100
AcDbLine
 10
661
 20
441
 11
691
 21
441
  0
LINE
  5
108
100
AcDbEntity
  8
wall
  6
ByLayer
 62
  256
370
   -1
100
AcDbLine
 10
646
 20
399
 11
651
 21
399
  0
LINE
  5
109
100
AcDbEntity
  8
wall
  6
ByLayer
 62
  256
370
   -1
100
AcDbLine
 10
661
 20
450
 11
619
 21
450
  0
LINE
  5
10A
100
AcDbEntity
  8
wall
  6
ByLayer
 62
  256
370
   -1
100
AcDbLine
 10
661
 20
450
 11
691
 21
450
  0
LINE
  5
10B
100
AcDbEntity
  8
wall
  6
ByLayer
 62
  256
370
   -1
100
AcDbLine
 10
718
 20
441
 11
775
 21
441
  0
LINE
  5
10C
100
AcDbEntity
  8
wall
  6
ByLayer
 62
  256
370
   -1
100
AcDbLine
 10
718
 20
441
 11
700
 21
441
  0
LINE
  5
10D
100
AcDbEntity
  8
wall
  6
ByLayer
 62
  256
370
   -1
100
AcDbLine
 10
775
 20
441
 11
775
 21
399
  0
LINE
  5
10E
100
AcDbEntity
  8
wall
  6
ByLayer
 62
  256
370
   -1
100
AcDbLine
 10
718
 20
450
 11
775
 21
450
  0
LINE
  5
10F
100
AcDbEntity
  8
wall
  6
ByLayer
 62
  256
370
   -1
100
AcDbLine
 10
718
 20
450
 11
700
 21
450
  0
LINE
  5
110
100
AcDbEntity
  8
wall
  6
ByLayer
 62
  256
370
   -1
100
AcDbLine
 10
775
 20
399
 11
770
 21
399
  0
LINE
  5
111
100
AcDbEntity
  8
wall
  6
ByLayer
 62
  256
370
   -1
100
AcDbLine
 10
619
 20
450
 11
619
 21
640
  0
LINE
  5
112
100
AcDbEntity
  8
wall
  6
ByLayer
 62
  256
370
   -1
100
AcDbLine
 10
619
 20
645
 11
661
 21
645
  0
LINE
  5
113
100
AcDbEntity
  8
wall
  6
ByLayer
 62
  256
370
   -1
100
AcDbLine
 10
775
 20
450
 11
775
 21
640
  0
LINE
  5
114
100
AcDbEntity
  8
wall
  6
ByLayer
 62
  256
370
   -1
100
AcDbLine
 10
775
 20
640
 11
709
 21
640
  0
LINE
  5
115
100
AcDbEntity
  8
wall
  6
ByLayer
 62
  256
370
   -1
100
AcDbLine
 10
661
 20
640
 11
679
 21
640
  0
LINE
  5
116
100
AcDbEntity
  8
wall
  6
ByLayer
 62
  256
370
   -1
100
AcDbLine
 10
661
 20
640
 11
619
 21
640
  0
LINE
  5
117
100
AcDbEntity
  8
wall
  6
ByLayer
 62
  256
370
   -1
100
AcDbLine
 10
679
 20
640
 11
709
 21
640
  0
LINE
  5
118
100
AcDbEntity
  8
wall
  6
ByLayer
 62
  256
370
   -1
100
AcDbLine
 10
661
 20
645
 11
674
 21
645
  0
LINE
  5
119
100
AcDbEntity
  8
wall
  6
ByLayer
 62
  256
370
   -1
100
AcDbLine
 10
679
 20
718
 11
754
 21
718
  0
LINE
  5
11A
100
AcDbEntity
  8
wall
  6
ByLayer
 62
  256
370
   -1
100
AcDbLine
 10
679
 20
718
 11
679
 21
645
  0
LINE
  5
11B
100
AcDbEntity
  8
wall
  6
ByLayer
 62
  256
370
   -1
100
AcDbLine
 10
709
 20
645
 11
775
 21
645
  0
LINE
  5
11C
100
AcDbEntity
  8
wall
  6
ByLayer
 62
  256
370
   -1
100
AcDbLine
 10
709
 20
645
 11
679
 21
645
  0
LINE
  5
11D
100
AcDbEntity
  8
wall
  6
ByLayer
 62
  256
370
   -1
100
AcDbLine
 10
674
 20
645
 11
674
 21
723
  0
LINE
  5
11E
100
AcDbEntity
  8
wall
  6
ByLayer
 62
  256
370
   -1
100
AcDbLine
 10
674
 20
723
 11
746
 21
723
  0
LINE
  5
11F
100
AcDbEntity
  8
wall
  6
ByLayer
 62
  256
370
   -1
100
AcDbLine
 10
775
 20
645
 11
775
 21
718
  0
LINE
  5
120
100
AcDbEntity
  8
wall
  6
ByLayer
 62
  256
370
   -1
100
AcDbLine
 10
775
 20
718
 11
772
 21
718
  0
LINE
  5
121
100
AcDbEntity
  8
wall
  6
ByLayer
 62
  256
370
   -1
100
AcDbLine
 10
754
 20
718
 11
772
 21
718
  0
LINE
  5
122
100
AcDbEntity
  8
wall
  6
ByLayer
 62
  256
370
   -1
100
AcDbLine
 10
754
 20
723
 11
751
 21
723
  0
LINE
  5
123
100
AcDbEntity
  8
wall
  6
ByLayer
 62
  256
370
   -1
100
AcDbLine
 10
754
 20
723
 11
772
 21
723
  0
LINE
  5
124
100
AcDbEntity
  8
wall
  6
ByLayer
 62
  256
370
   -1
100
AcDbLine
 10
772
 20
723
 11
775
 21
723
  0
LINE
  5
125
100
AcDbEntity
  8
wall
  6
ByLayer
 62
  256
370
   -1
100
AcDbLine
 10
746
 20
723
 11
746
 21
741
  0
LINE
  5
126
100
AcDbEntity
  8
wall
  6
ByLayer
 62
  256
370
   -1
100
AcDbLine
 10
746
 20
741
 11
750
 21
741
  0
LINE
  5
127
100
AcDbEntity
  8
wall
  6
ByLayer
 62
  256
370
   -1
100
AcDbLine
 10
751
 20
723
 11
751
 21
741
  0
LINE
  5
128
100
AcDbEntity
  8
wall
  6
ByLayer
 62
  256
370
   -1
100
AcDbLine
 10
751
 20
741
 11
750
 21
741
  0
LINE
  5
129
100
AcDbEntity
  8
wall
  6
ByLayer
 62
  256
370
   -1
100
AcDbLine
 10
775
 20
723
 11
775
 21
741
  0
LINE
  5
12A
100
AcDbEntity
  8
wall
  6
ByLayer
 62
  256
370
   -1
100
AcDbLine
 10
775
 20
741
 11
775
 21
759
  0
LINE
  5
12B
100
AcDbEntity
  8
wall
  6
ByLayer
 62
  256
370
   -1
100
AcDbLine
 10
554
 20
823
 11
559
 21
823
  0
LINE
  5
12C
100
AcDbEntity
  8
wall
  6
ByLayer
 62
  256
370
   -1
100
AcDbLine
 10
554
 20
823
 11
512
 21
823
  0
LINE
  5
12D
100
AcDbEntity
  8
wall
  6
ByLayer
 62
  256
370
   -1
100
AcDbLine
 10
559
 20
823
 11
601
 21
823
  0
LINE
  5
12E
100
AcDbEntity
  8
wall
  6
ByLayer
 62
  256
370
   -1
100
AcDbLine
 10
554
 20
876
 11
517
 21
876
  0
LINE
  5
12F
100
AcDbEntity
  8
wall
  6
ByLayer
 62
  256
370
   -1
100
AcDbLine
 10
554
 20
876
 11
554
 21
828
  0
LINE
  5
130
100
AcDbEntity
  8
wall
  6
ByLayer
 62
  256
370
   -1
100
AcDbLine
 10
559
 20
981
 11
505
 21
981
  0
LINE
  5
131
100
AcDbEntity
  8
wall
  6
ByLayer
 62
  256
370
   -1
100
AcDbLine
 10
559
 20
981
 11
559
 21
828
  0
LINE
  5
132
100
AcDbEntity
  8
wall
  6
ByLayer
 62
  256
370
   -1
100
AcDbLine
 10
784
 20
390
 11
770
 21
390
  0
LINE
  5
133
100
AcDbEntity
  8
wall
  6
ByLayer
 62
  256
370
   -1
100
AcDbLine
 10
784
 20
390
 11
784
 21
741
  0
LINE
  5
134
100
AcDbEntity
  8
wall
  6
ByLayer
 62
  256
370
   -1
100
AcDbLine
 10
770
 20
390
 11
770
 21
399
  0
LINE
  5
135
100
AcDbEntity
  8
wall
  6
ByLayer
 62
  256
370
   -1
100
AcDbLine
 10
784
 20
741
 11
784
 21
759
  0
LINE
  5
136
100
AcDbEntity
  8
wall
  6
ByLayer
 62
  256
370
   -1
100
AcDbLine
 10
784
 20
981
 11
601
 21
981
  0
LINE
  5
137
100
AcDbEntity
  8
wall
  6
ByLayer
 62
  256
370
   -1
100
AcDbLine
 10
784
 20
981
 11
784
 21
759
  0
LINE
  5
138
100
AcDbEntity
  8
wall
  6
ByLayer
 62
  256
370
   -1
100
AcDbLine
 10
601
 20
981
 11
601
 21
972
  0
LINE
  5
139
100
AcDbEntity
  8
wall
  6
ByLayer
 62
  256
370
   -1
100
AcDbLine
 10
651
 20
390
 11
651
 21
399
  0
LINE
  5
13A
100
AcDbEntity
  8
wall
  6
ByLayer
 62
  256
370
   -1
100
AcDbLine
 10
775
 20
777
 11
772
 21
777
  0
LINE
  5
13B
100
AcDbEntity
  8
wall
  6
ByLayer
 62
  256
370
   -1
100
AcDbLine
 10
775
 20
777
 11
775
 21
759
  0
LINE
  5
13C
100
AcDbEntity
  8
wall
  6
ByLayer
 62
  256
370
   -1
100
AcDbLine
 10
772
 20
777
 11
754
 21
777
  0
LINE
  5
13D
100
AcDbEntity
  8
wall
  6
ByLayer
 62
  256
370
   -1
100
AcDbLine
 10
751
 20
752
 11
751
 21
777
  0
LINE
  5
13E
100
AcDbEntity
  8
wall
  6
ByLayer
 62
  256
370
   -1
100
AcDbLine
 10
751
 20
752
 11
746
 21
752
  0
LINE
  5
13F
100
AcDbEntity
  8
wall
  6
ByLayer
 62
  256
370
   -1
100
AcDbLine
 10
751
 20
777
 11
754
 21
777
  0
LINE
  5
140
100
AcDbEntity
  8
wall
  6
ByLayer
 62
  256
370
   -1
100
AcDbLine
 10
746
 20
752
 11
746
 21
777
  0
LINE
  5
141
100
AcDbEntity
  8
wall
  6
ByLayer
 62
  256
370
   -1
100
AcDbLine
 10
746
 20
777
 11
674
 21
777
  0
LINE
  5
142
100
AcDbEntity
  8
wall
  6
ByLayer
 62
  256
370
   -1
100
AcDbLine
 10
674
 20
777
 11
674
 21
781
  0
LINE
  5
143
100
AcDbEntity
  8
wall
  6
ByLayer
 62
  256
370
   -1
100
AcDbLine
 10
775
 20
781
 11
775
 21
882
  0
LINE
  5
144
100
AcDbEntity
  8
wall
  6
ByLayer
 62
  256
370
   -1
100
AcDbLine
 10
775
 20
781
 11
772
 21
781
  0
LINE
  5
145
100
AcDbEntity
  8
wall
  6
ByLayer
 62
  256
370
   -1
100
AcDbLine
 10
775
 20
882
 11
737
 21
882
  0
LINE
  5
146
100
AcDbEntity
  8
wall
  6
ByLayer
 62
  256
370
   -1
100
AcDbLine
 10
772
 20
781
 11
754
 21
781
  0
LINE
  5
147
100
AcDbEntity
  8
wall
  6
ByLayer
 62
  256
370
   -1
100
AcDbLine
 10
737
 20
882
 11
707
 21
882
  0
LINE
  5
148
100
AcDbEntity
  8
wall
  6
ByLayer
 62
  256
370
   -1
100
AcDbLine
 10
775
 20
886
 11
775
 21
972
  0
LINE
  5
149
100
AcDbEntity
  8
wall
  6
ByLayer
 62
  256
370
   -1
100
AcDbLine
 10
775
 20
886
 11
737
 21
886
  0
LINE
  5
14A
100
AcDbEntity
  8
wall
  6
ByLayer
 62
  256
370
   -1
100
AcDbLine
 10
775
 20
972
 11
601
 21
972
  0
LINE
  5
14B
100
AcDbEntity
  8
wall
  6
ByLayer
 62
  256
370
   -1
100
AcDbLine
 10
737
 20
886
 11
707
 21
886
  0
LINE
  5
14C
100
AcDbEntity
  8
wall
  6
ByLayer
 62
  256
370
   -1
100
AcDbLine
 10
674
 20
781
 11
703
 21
781
  0
LINE
  5
14D
100
AcDbEntity
  8
wall
  6
ByLayer
 62
  256
370
   -1
100
AcDbLine
 10
703
 20
781
 11
703
 21
823
  0
LINE
  5
14E
100
AcDbEntity
  8
wall
  6
ByLayer
 62
  256
370
   -1
100
AcDbLine
 10
703
 20
823
 11
601
 21
823
  0
LINE
  5
14F
100
AcDbEntity
  8
wall
  6
ByLayer
 62
  256
370
   -1
100
AcDbLine
 10
703
 20
828
 11
703
 21
912
  0
LINE
  5
150
100
AcDbEntity
  8
wall
  6
ByLayer
 62
  256
370
   -1
100
AcDbLine
 10
703
 20
828
 11
601
 21
828
  0
LINE
  5
151
100
AcDbEntity
  8
wall
  6
ByLayer
 62
  256
370
   -1
100
AcDbLine
 10
703
 20
912
 11
703
 21
939
  0
LINE
  5
152
100
AcDbEntity
  8
wall
  6
ByLayer
 62
  256
370
   -1
100
AcDbLine
 10
601
 20
828
 11
559
 21
828
  0
LINE
  5
153
100
AcDbEntity
  8
wall
  6
ByLayer
 62
  256
370
   -1
100
AcDbLine
 10
703
 20
939
 11
706
 21
939
  0
LINE
  5
154
100
AcDbEntity
  8
wall
  6
ByLayer
 62
  256
370
   -1
100
AcDbLine
 10
707
 20
781
 11
754
 21
781
  0
LINE
  5
155
100
AcDbEntity
  8
wall
  6
ByLayer
 62
  256
370
   -1
100
AcDbLine
 10
707
 20
781
 11
707
 21
882
  0
LINE
  5
156
100
AcDbEntity
  8
wall
  6
ByLayer
 62
  256
370
   -1
100
AcDbLine
 10
707
 20
912
 11
706
 21
912
  0
LINE
  5
157
100
AcDbEntity
  8
wall
  6
ByLayer
 62
  256
370
   -1
100
AcDbLine
 10
707
 20
912
 11
707
 21
886
  0
LINE
  5
158
100
AcDbEntity
  8
wall
  6
ByLayer
 62
  256
370
   -1
100
AcDbLine
 10
706
 20
912
 11
706
 21
939
  0
LINE
  5
159
100
AcDbEntity
  8
wall
  6
ByLayer
 62
  256
370
   -1
100
AcDbLine
 10
505
 20
981
 11
487
 21
979
  0
LINE
  5
15A
100
AcDbEntity
  8
wall
  6
ByLayer
 62
  256
370
   -1
100
AcDbLine
 10
517
 20
876
 11
487
 21
875
  0
LINE
  5
15B
100
AcDbEntity
  8
wall
  6
ByLayer
 62
  256
370
   -1
100
AcDbLine
 10
554
 20
880
 11
554
 21
972
  0
LINE
  5
15C
100
AcDbEntity
  8
wall
  6
ByLayer
 62
  256
370
   -1
100
AcDbLine
 10
554
 20
880
 11
517
 21
880
  0
LINE
  5
15D
100
AcDbEntity
  8
wall
  6
ByLayer
 62
  256
370
   -1
100
AcDbLine
 10
554
 20
972
 11
505
 21
972
  0
LINE
  5
15E
100
AcDbEntity
  8
wall
  6
ByLayer
 62
  256
370
   -1
100
AcDbLine
 10
517
 20
880
 11
487
 21
880
  0
LINE
  5
15F
100
AcDbEntity
  8
wall
  6
ByLayer
 62
  256
370
   -1
100
AcDbLine
 10
505
 20
972
 11
487
 21
974
  0
LINE
  5
160
100
AcDbEntity
  8
wall
  6
ByLayer
 62
  256
370
   -1
100
AcDbLine
 10
487
 20
981
 11
482
 21
981
  0
LINE
  5
161
100
AcDbEntity
  8
wall
  6
ByLayer
 62
  256
370
   -1
100
AcDbLine
 10
487
 20
981
 11
487
 21
979
  0
LINE
  5
162
100
AcDbEntity
  8
wall
  6
ByLayer
 62
  256
370
   -1
100
AcDbLine
 10
482
 20
981
 11
482
 21
979
  0
LINE
  5
163
100
AcDbEntity
  8
wall
  6
ByLayer
 62
  256
370
   -1
100
AcDbLine
 10
487
 20
876
 11
482
 21
876
  0
LINE
  5
164
100
AcDbEntity
  8
wall
  6
ByLayer
 62
  256
370
   -1
100
AcDbLine
 10
487
 20
876
 11
487
 21
875
  0
LINE
  5
165
100
AcDbEntity
  8
wall
  6
ByLayer
 62
  256
370
   -1
100
AcDbLine
 10
482
 20
876
 11
482
 21
974
  0
LINE
  5
166
100
AcDbEntity
  8
wall
  6
ByLayer
 62
  256
370
   -1
100
AcDbLine
 10
464
 20
981
 11
482
 21
979
  0
LINE
  5
167
100
AcDbEntity
  8
wall
  6
ByLayer
 62
  256
370
   -1
100
AcDbLine
 10
464
 20
972
 11
337
 21
972
  0
LINE
  5
168
100
AcDbEntity
  8
wall
  6
ByLayer
 62
  256
370
   -1
100
AcDbLine
 10
464
 20
972
 11
482
 21
974
  0
LINE
  5
169
100
AcDbEntity
  8
wall
  6
ByLayer
 62
  256
370
   -1
100
AcDbLine
 10
337
 20
972
 11
337
 21
948
  0
LINE
  5
16A
100
AcDbEntity
  8
wall
  6
ByLayer
 62
  256
370
   -1
100
AcDbLine
 10
337
 20
948
 11
337
 21
828
  0
LINE
  5
16B
100
AcDbEntity
  8
wall
  6
ByLayer
 62
  256
370
   -1
100
AcDbLine
 10
337
 20
828
 11
512
 21
828
  0
LINE
  5
16C
100
AcDbEntity
  8
wall
  6
ByLayer
 62
  256
370
   -1
100
AcDbLine
 10
512
 20
828
 11
554
 21
828
  0
LINE
  5
16D
100
AcDbEntity
  8
wall
  6
ByLayer
 62
  256
370
   -1
100
AcDbLine
 10
700
 20
450
 11
691
 21
450
  0
LINE
  5
16E
100
AcDbEntity
  8
wall
  6
ByLayer
 62
  256
370
   -1
100
AcDbLine
 10
700
 20
441
 11
691
 21
441
  0
LINE
  5
16F
100
AcDbEntity
  8
wall
  6
ByLayer
 62
  256
370
   -1
100
AcDbLine
 10
487
 20
974
 11
487
 21
880
  0
MTEXT
  5
170
100
AcDbEntity
  8
chosen_line
  6
ByLayer
 62
    3
370
   -1
100
AcDbMText
 10
748.5
 20
764.5
 30
0
 40
0.5
 41
2.11111136825478
 71
    1
 72
    5
  1
chosen
  7
standard
210
0
220
0
230
1
 50
0
 73
    1
 44
1
  0
MTEXT
  5
171
100
AcDbEntity
  8
chosen_line
  6
ByLayer
 62
    3
370
   -1
100
AcDbMText
 10
748.5
 20
732
 30
0
 40
0.5
 41
2.11111136825478
 71
    1
 72
    5
  1
chosen
  7
standard
210
0
220
0
230
1
 50
0
 73
    1
 44
1
  0
ENDSEC
  0
SECTION
  2
OBJECTS
  0
DICTIONARY
  5
C
330
0
100
AcDbDictionary
281
    1
  3
ACAD_GROUP
350
D
  0
DICTIONARY
  5
D
330
C
100
AcDbDictionary
281
    1
  0
ENDSEC
  0
EOF
