  0
SECTION
  2
HEADER
  9
$ACADVER
  1
AC1024
  9
$ACADMAINTVER
 70
6
  9
$DWGCODEPAGE
  3
ANSI_1252
  9
$LASTSAVEDBY
  1
ezdxf
  9
$INSBASE
 10
0.0
 20
0.0
 30
0.0
  9
$EXTMIN
 10
-100
 20
-100
 30
-100
  9
$EXTMAX
 10
100
 20
100
 30
100
  9
$LIMMIN
 10
0.0
 20
0.0
  9
$LIMMAX
 10
420.0
 20
297.0
  9
$ORTHOMODE
 70
0
  9
$REGENMODE
 70
1
  9
$FILLMODE
 70
1
  9
$QTEXTMODE
 70
0
  9
$MIRRTEXT
 70
1
  9
$LTSCALE
 40
1.0
  9
$ATTMODE
 70
1
  9
$TEXTSIZE
 40
2.5
  9
$TRACEWID
 40
1.0
  9
$TEXTSTYLE
  7
Standard
  9
$CLAYER
  8
0
  9
$CELTYPE
  6
ByLayer
  9
$CECOLOR
 62
256
  9
$CELTSCALE
 40
1.0
  9
$DISPSILH
 70
0
  9
$DIMSCALE
 40
1.0
  9
$DIMASZ
 40
2.5
  9
$DIMEXO
 40
0.625
  9
$DIMDLI
 40
3.75
  9
$DIMRND
 40
0.0
  9
$DIMDLE
 40
0.0
  9
$DIMEXE
 40
1.25
  9
$DIMTP
 40
0.0
  9
$DIMTM
 40
0.0
  9
$DIMTXT
 40
2.5
  9
$DIMCEN
 40
2.5
  9
$DIMTSZ
 40
0.0
  9
$DIMTOL
 70
0
  9
$DIMLIM
 70
0
  9
$DIMTIH
 70
0
  9
$DIMTOH
 70
0
  9
$DIMSE1
 70
0
  9
$DIMSE2
 70
0
  9
$DIMTAD
 70
1
  9
$DIMZIN
 70
8
  9
$DIMBLK
  1

  9
$DIMASO
 70
1
  9
$DIMSHO
 70
1
  9
$DIMPOST
  1

  9
$DIMAPOST
  1

  9
$DIMALT
 70
0
  9
$DIMALTD
 70
3
  9
$DIMALTF
 40
0.03937007874
  9
$DIMLFAC
 40
1.0
  9
$DIMTOFL
 70
1
  9
$DIMTVP
 40
0.0
  9
$DIMTIX
 70
0
  9
$DIMSOXD
 70
0
  9
$DIMSAH
 70
0
  9
$DIMBLK1
  1

  9
$DIMBLK2
  1

  9
$DIMSTYLE
  2
ISO-25
  9
$DIMCLRD
 70
0
  9
$DIMCLRE
 70
0
  9
$DIMCLRT
 70
0
  9
$DIMTFAC
 40
1.0
  9
$DIMGAP
 40
0.625
  9
$DIMJUST
 70
0
  9
$DIMSD1
 70
0
  9
$DIMSD2
 70
0
  9
$DIMTOLJ
 70
0
  9
$DIMTZIN
 70
8
  9
$DIMALTZ
 70
0
  9
$DIMALTTZ
 70
0
  9
$DIMUPT
 70
0
  9
$DIMDEC
 70
2
  9
$DIMTDEC
 70
2
  9
$DIMALTU
 70
2
  9
$DIMALTTD
 70
3
  9
$DIMTXSTY
  7
Standard
  9
$DIMAUNIT
 70
0
  9
$DIMADEC
 70
0
  9
$DIMALTRND
 40
0.0
  9
$DIMAZIN
 70
0
  9
$DIMDSEP
 70
44
  9
$DIMATFIT
 70
3
  9
$DIMFRAC
 70
0
  9
$DIMLDRBLK
  1

  9
$DIMLUNIT
 70
2
  9
$DIMLWD
 70
-2
  9
$DIMLWE
 70
-2
  9
$DIMTMOVE
 70
0
  9
$DIMFXL
 40
1.0
  9
$DIMFXLON
 70
0
  9
$DIMJOGANG
 40
0.785398163397
  9
$DIMTFILL
 70
0
  9
$DIMTFILLCLR
 70
0
  9
$DIMARCSYM
 70
0
  9
$DIMLTYPE
  6

  9
$DIMLTEX1
  6

  9
$DIMLTEX2
  6

  9
$DIMTXTDIRECTION
 70
0
  9
$LUNITS
 70
2
  9
$LUPREC
 70
4
  9
$SKETCHINC
 40
1.0
  9
$FILLETRAD
 40
10.0
  9
$AUNITS
 70
0
  9
$AUPREC
 70
2
  9
$MENU
  1
.
  9
$ELEVATION
 40
0.0
  9
$PELEVATION
 40
0.0
  9
$THICKNESS
 40
0.0
  9
$LIMCHECK
 70
0
  9
$CHAMFERA
 40
0.0
  9
$CHAMFERB
 40
0.0
  9
$CHAMFERC
 40
0.0
  9
$CHAMFERD
 40
0.0
  9
$SKPOLY
 70
0
  9
$TDCREATE
 40
2459111.733414352
  9
$TDUCREATE
 40
2458532.153996898
  9
$TDUPDATE
 40
2459111.733425926
  9
$TDUUPDATE
 40
2458532.1544311
  9
$TDINDWG
 40
0.0
  9
$TDUSRTIMER
 40
0.0
  9
$USRTIMER
 70
1
  9
$ANGBASE
 50
0.0
  9
$ANGDIR
 70
0
  9
$PDMODE
 70
0
  9
$PDSIZE
 40
0.0
  9
$PLINEWID
 40
0.0
  9
$SPLFRAME
 70
0
  9
$SPLINETYPE
 70
6
  9
$SPLINESEGS
 70
8
  9
$HANDSEED
  5
130
  9
$SURFTAB1
 70
6
  9
$SURFTAB2
 70
6
  9
$SURFTYPE
 70
6
  9
$SURFU
 70
6
  9
$SURFV
 70
6
  9
$UCSBASE
  2

  9
$UCSNAME
  2

  9
$UCSORG
 10
0.0
 20
0.0
 30
0.0
  9
$UCSXDIR
 10
1.0
 20
0.0
 30
0.0
  9
$UCSYDIR
 10
0.0
 20
1.0
 30
0.0
  9
$UCSORTHOREF
  2

  9
$UCSORTHOVIEW
 70
0
  9
$UCSORGTOP
 10
0.0
 20
0.0
 30
0.0
  9
$UCSORGBOTTOM
 10
0.0
 20
0.0
 30
0.0
  9
$UCSORGLEFT
 10
0.0
 20
0.0
 30
0.0
  9
$UCSORGRIGHT
 10
0.0
 20
0.0
 30
0.0
  9
$UCSORGFRONT
 10
0.0
 20
0.0
 30
0.0
  9
$UCSORGBACK
 10
0.0
 20
0.0
 30
0.0
  9
$PUCSBASE
  2

  9
$PUCSNAME
  2

  9
$PUCSORG
 10
0.0
 20
0.0
 30
0.0
  9
$PUCSXDIR
 10
1.0
 20
0.0
 30
0.0
  9
$PUCSYDIR
 10
0.0
 20
1.0
 30
0.0
  9
$PUCSORTHOREF
  2

  9
$PUCSORTHOVIEW
 70
0
  9
$PUCSORGTOP
 10
0.0
 20
0.0
 30
0.0
  9
$PUCSORGBOTTOM
 10
0.0
 20
0.0
 30
0.0
  9
$PUCSORGLEFT
 10
0.0
 20
0.0
 30
0.0
  9
$PUCSORGRIGHT
 10
0.0
 20
0.0
 30
0.0
  9
$PUCSORGFRONT
 10
0.0
 20
0.0
 30
0.0
  9
$PUCSORGBACK
 10
0.0
 20
0.0
 30
0.0
  9
$USERI1
 70
0
  9
$USERI2
 70
0
  9
$USERI3
 70
0
  9
$USERI4
 70
0
  9
$USERI5
 70
0
  9
$USERR1
 40
0.0
  9
$USERR2
 40
0.0
  9
$USERR3
 40
0.0
  9
$USERR4
 40
0.0
  9
$USERR5
 40
0.0
  9
$WORLDVIEW
 70
1
  9
$SHADEDGE
 70
3
  9
$SHADEDIF
 70
70
  9
$TILEMODE
 70
1
  9
$MAXACTVP
 70
64
  9
$PINSBASE
 10
0.0
 20
0.0
 30
0.0
  9
$PLIMCHECK
 70
0
  9
$PEXTMIN
 10
1e+20
 20
1e+20
 30
1e+20
  9
$PEXTMAX
 10
-1e+20
 20
-1e+20
 30
-1e+20
  9
$PLIMMIN
 10
0.0
 20
0.0
  9
$PLIMMAX
 10
420.0
 20
297.0
  9
$UNITMODE
 70
0
  9
$VISRETAIN
 70
1
  9
$PLINEGEN
 70
0
  9
$PSLTSCALE
 70
1
  9
$TREEDEPTH
 70
3020
  9
$CMLSTYLE
  2
Standard
  9
$CMLJUST
 70
0
  9
$CMLSCALE
 40
20.0
  9
$PROXYGRAPHICS
 70
1
  9
$MEASUREMENT
 70
1
  9
$CELWEIGHT
370
-1
  9
$ENDCAPS
280
0
  9
$JOINSTYLE
280
0
  9
$LWDISPLAY
290
0
  9
$INSUNITS
 70
6
  9
$HYPERLINKBASE
  1

  9
$STYLESHEET
  1

  9
$XEDIT
290
1
  9
$CEPSNTYPE
380
0
  9
$PSTYLEMODE
290
1
  9
$FINGERPRINTGUID
  2
55A18CE4-F9A7-11EA-A63F-F81654224FBB
  9
$VERSIONGUID
  2
55A18CE6-F9A7-11EA-A63F-F81654224FBB
  9
$EXTNAMES
290
1
  9
$PSVPSCALE
 40
0.0
  9
$OLESTARTUP
290
0
  9
$SORTENTS
280
127
  9
$INDEXCTL
280
0
  9
$HIDETEXT
280
1
  9
$XCLIPFRAME
280
2
  9
$HALOGAP
280
0
  9
$OBSCOLOR
 70
257
  9
$OBSLTYPE
280
0
  9
$INTERSECTIONDISPLAY
280
0
  9
$INTERSECTIONCOLOR
 70
257
  9
$DIMASSOC
280
2
  9
$PROJECTNAME
  1

  9
$CAMERADISPLAY
290
0
  9
$LENSLENGTH
 40
50.0
  9
$CAMERAHEIGHT
 40
0.0
  9
$STEPSPERSEC
 40
24.0
  9
$STEPSIZE
 40
100.0
  9
$3DDWFPREC
 40
2.0
  9
$PSOLWIDTH
 40
0.005
  9
$PSOLHEIGHT
 40
0.08
  9
$LOFTANG1
 40
1.570796326795
  9
$LOFTANG2
 40
1.570796326795
  9
$LOFTMAG1
 40
0.0
  9
$LOFTMAG2
 40
0.0
  9
$LOFTPARAM
 70
7
  9
$LOFTNORMALS
280
1
  9
$LATITUDE
 40
37.795
  9
$LONGITUDE
 40
-122.394
  9
$NORTHDIRECTION
 40
0.0
  9
$TIMEZONE
 70
-8000
  9
$LIGHTGLYPHDISPLAY
280
1
  9
$TILEMODELIGHTSYNCH
280
1
  9
$CMATERIAL
347
20
  9
$SOLIDHIST
280
0
  9
$SHOWHIST
280
1
  9
$DWFFRAME
280
2
  9
$DGNFRAME
280
2
  9
$REALWORLDSCALE
290
1
  9
$INTERFERECOLOR
 62
256
  9
$CSHADOW
280
0
  9
$SHADOWPLANELOCATION
 40
0.0
  0
ENDSEC
  0
SECTION
  2
CLASSES
  0
CLASS
  1
ACDBDICTIONARYWDFLT
  2
AcDbDictionaryWithDefault
  3
ObjectDBX Classes
 90
0
 91
0
280
0
281
0
  0
CLASS
  1
SUN
  2
AcDbSun
  3
SCENEOE
 90
1153
 91
0
280
0
281
0
  0
CLASS
  1
VISUALSTYLE
  2
AcDbVisualStyle
  3
ObjectDBX Classes
 90
4095
 91
0
280
0
281
0
  0
CLASS
  1
MATERIAL
  2
AcDbMaterial
  3
ObjectDBX Classes
 90
1153
 91
0
280
0
281
0
  0
CLASS
  1
SCALE
  2
AcDbScale
  3
ObjectDBX Classes
 90
1153
 91
0
280
0
281
0
  0
CLASS
  1
TABLESTYLE
  2
AcDbTableStyle
  3
ObjectDBX Classes
 90
4095
 91
0
280
0
281
0
  0
CLASS
  1
MLEADERSTYLE
  2
AcDbMLeaderStyle
  3
ACDB_MLEADERSTYLE_CLASS
 90
4095
 91
0
280
0
281
0
  0
CLASS
  1
DICTIONARYVAR
  2
AcDbDictionaryVar
  3
ObjectDBX Classes
 90
0
 91
0
280
0
281
0
  0
CLASS
  1
CELLSTYLEMAP
  2
AcDbCellStyleMap
  3
ObjectDBX Classes
 90
1152
 91
0
280
0
281
0
  0
CLASS
  1
MENTALRAYRENDERSETTINGS
  2
AcDbMentalRayRenderSettings
  3
SCENEOE
 90
1024
 91
0
280
0
281
0
  0
CLASS
  1
ACDBDETAILVIEWSTYLE
  2
AcDbDetailViewStyle
  3
ObjectDBX Classes
 90
1025
 91
0
280
0
281
0
  0
CLASS
  1
ACDBSECTIONVIEWSTYLE
  2
AcDbSectionViewStyle
  3
ObjectDBX Classes
 90
1025
 91
0
280
0
281
0
  0
CLASS
  1
RASTERVARIABLES
  2
AcDbRasterVariables
  3
ISM
 90
0
 91
0
280
0
281
0
  0
CLASS
  1
LAYOUT
  2
AcDbLayout
  3
ObjectDBX Classes
 90
0
 91
0
280
0
281
0
  0
CLASS
  1
ACDBPLACEHOLDER
  2
AcDbPlaceHolder
  3
ObjectDBX Classes
 90
0
 91
0
280
0
281
0
  0
ENDSEC
  0
SECTION
  2
TABLES
  0
TABLE
  2
VPORT
  5
8
330
0
100
AcDbSymbolTable
 70
1
  0
VPORT
  5
23
330
8
100
AcDbSymbolTableRecord
100
AcDbViewportTableRecord
  2
*Active
 70
0
 10
0.0
 20
0.0
 11
1.0
 21
1.0
 12
70.0
 22
50.0
 13
0.0
 23
0.0
 14
0.5
 24
0.5
 15
0.5
 25
0.5
 16
0.0
 26
0.0
 36
1.0
 17
0.0
 27
0.0
 37
0.0
 40
1.0
 41
1.34
 42
50.0
 43
0.0
 44
0.0
 50
0.0
 51
0.0
 71
0
 72
1000
 73
1
 74
3
 75
0
 76
0
 77
0
 78
0
281
0
 65
0
146
0.0
  0
ENDTAB
  0
TABLE
  2
LTYPE
  5
2
330
0
100
AcDbSymbolTable
 70
3
  0
LTYPE
  5
24
330
2
100
AcDbSymbolTableRecord
100
AcDbLinetypeTableRecord
  2
ByBlock
 70
0
  3

 72
65
 73
0
 40
0.0
  0
LTYPE
  5
25
330
2
100
AcDbSymbolTableRecord
100
AcDbLinetypeTableRecord
  2
ByLayer
 70
0
  3

 72
65
 73
0
 40
0.0
  0
LTYPE
  5
26
330
2
100
AcDbSymbolTableRecord
100
AcDbLinetypeTableRecord
  2
Continuous
 70
0
  3

 72
65
 73
0
 40
0.0
  0
ENDTAB
  0
TABLE
  2
LAYER
  5
1
330
0
100
AcDbSymbolTable
 70
2
  0
LAYER
  5
27
330
1
100
AcDbSymbolTableRecord
100
AcDbLayerTableRecord
  2
0
 70
0
 62
7
  6
Continuous
370
-3
390
13
347
21
  0
LAYER
  5
28
330
1
100
AcDbSymbolTableRecord
100
AcDbLayerTableRecord
  2
Defpoints
 70
0
 62
7
  6
Continuous
290
0
370
-3
390
13
347
21
  0
ENDTAB
  0
TABLE
  2
STYLE
  5
5
330
0
100
AcDbSymbolTable
 70
1
  0
STYLE
  5
29
330
5
100
AcDbSymbolTableRecord
100
AcDbTextStyleTableRecord
  2
Standard
 70
0
 40
0.0
 41
1.0
 50
0.0
 71
0
 42
2.5
  3
txt
  4

  0
ENDTAB
  0
TABLE
  2
VIEW
  5
7
330
0
100
AcDbSymbolTable
 70
0
  0
ENDTAB
  0
TABLE
  2
UCS
  5
6
330
0
100
AcDbSymbolTable
 70
0
  0
ENDTAB
  0
TABLE
  2
APPID
  5
3
330
0
100
AcDbSymbolTable
 70
2
  0
APPID
  5
2A
330
3
100
AcDbSymbolTableRecord
100
AcDbRegAppTableRecord
  2
ACAD
 70
0
  0
APPID
  5
12F
330
3
100
AcDbSymbolTableRecord
100
AcDbRegAppTableRecord
  2
HATCHBACKGROUNDCOLOR
 70
0
  0
ENDTAB
  0
TABLE
  2
DIMSTYLE
  5
4
330
0
100
AcDbSymbolTable
 70
1
100
AcDbDimStyleTable
  0
DIMSTYLE
105
2B
330
4
100
AcDbSymbolTableRecord
100
AcDbDimStyleTableRecord
  2
Standard
 70
0
 40
1.0
 41
2.5
 42
0.625
 43
3.75
 44
1.25
 45
0.0
 46
0.0
 47
0.0
 48
0.0
 49
2.5
140
2.5
141
2.5
142
0.0
143
0.03937007874
144
1.0
145
0.0
146
1.0
147
0.625
148
0.0
 69
0
 70
0
 71
0
 72
0
 73
0
 74
0
 75
0
 76
0
 77
1
 78
8
 79
0
170
0
171
3
172
1
173
0
174
0
175
0
176
0
177
0
178
0
179
0
271
0
272
2
273
2
274
3
275
0
276
0
277
2
278
44
279
0
280
0
281
0
282
0
283
0
284
8
285
0
286
0
288
0
289
3
290
0
371
-2
372
-2
  0
ENDTAB
  0
TABLE
  2
BLOCK_RECORD
  5
9
330
0
100
AcDbSymbolTable
 70
3
  0
BLOCK_RECORD
  5
17
330
9
100
AcDbSymbolTableRecord
100
AcDbBlockTableRecord
  2
*Model_Space
340
1A
 70
0
280
1
281
0
  0
BLOCK_RECORD
  5
1B
330
9
100
AcDbSymbolTableRecord
100
AcDbBlockTableRecord
  2
*Paper_Space
340
1E
 70
0
280
1
281
0
  0
BLOCK_RECORD
  5
2D
330
9
100
AcDbSymbolTableRecord
100
AcDbBlockTableRecord
  2
FLAG
340
0
 70
0
280
1
281
0
  0
ENDTAB
  0
ENDSEC
  0
SECTION
  2
BLOCKS
  0
BLOCK
  5
18
330
17
100
AcDbEntity
  8
0
100
AcDbBlockBegin
  2
*Model_Space
 70
0
 10
0.0
 20
0.0
 30
0.0
  3
*Model_Space
  1

  0
ENDBLK
  5
19
330
17
100
AcDbEntity
  8
0
100
AcDbBlockEnd
  0
BLOCK
  5
1C
330
1B
100
AcDbEntity
  8
0
100
AcDbBlockBegin
  2
*Paper_Space
 70
0
 10
0.0
 20
0.0
 30
0.0
  3
*Paper_Space
  1

  0
ENDBLK
  5
1D
330
1B
100
AcDbEntity
  8
0
100
AcDbBlockEnd
  0
BLOCK
  5
2E
330
2D
100
AcDbEntity
  8
0
100
AcDbBlockBegin
  2
FLAG
 70
2
 10
0.0
 20
0.0
 30
0.0
  3
FLAG
  1

  0
LWPOLYLINE
  5
30
330
2D
100
AcDbEntity
  8
0
100
AcDbPolyline
 90
4
 70
0
 10
0.0
 20
0.0
 10
0.0
 20
5.0
 10
4.0
 20
3.0
 10
0.0
 20
3.0
  0
CIRCLE
  5
31
330
2D
100
AcDbEntity
  8
0
 62
2
100
AcDbCircle
 10
0.0
 20
0.0
 30
0.0
 40
0.4
  0
ATTDEF
  5
32
330
2D
100
AcDbEntity
  8
0
 62
3
100
AcDbText
 10
0.5
 20
-0.5
 30
0.0
 40
0.5
  1

100
AcDbAttributeDefinition
280
0
  3

  2
NAME
 70
0
  0
ATTDEF
  5
33
330
2D
100
AcDbEntity
  8
0
 62
4
100
AcDbText
 10
0.5
 20
-1.0
 30
0.0
 40
0.25
  1

100
AcDbAttributeDefinition
280
0
  3

  2
XPOS
 70
0
  0
ATTDEF
  5
34
330
2D
100
AcDbEntity
  8
0
 62
4
100
AcDbText
 10
0.5
 20
-1.5
 30
0.0
 40
0.25
  1

100
AcDbAttributeDefinition
280
0
  3

  2
YPOS
 70
0
  0
ENDBLK
  5
2F
330
2D
100
AcDbEntity
  8
0
100
AcDbBlockEnd
  0
ENDSEC
  0
SECTION
  2
ENTITIES
  0
INSERT
  5
35
330
17
100
AcDbEntity
  8
0
100
AcDbBlockReference
 66
1
  2
FLAG
 10
-48.0
 20
-39.0
 30
0.0
 41
1.9037910370280438
 42
1.9037910370280438
 43
1.9037910370280438
 50
15.0
  0
ATTRIB
  5
37
330
17
100
AcDbEntity
  8
0
 62
3
100
AcDbText
 10
-46.83417084559932
 20
-39.67309177612235
 30
0.0
 40
0.9518955185140219
  1
P(1)
 50
14.999999999999998
 11
-46.83417084559932
 21
-39.67309177612235
 31
0.0
100
AcDbAttribute
280
0
  2
NAME
 70
0
  0
ATTRIB
  5
38
330
17
100
AcDbEntity
  8
0
 62
4
100
AcDbText
 10
-46.58780215646015
 20
-40.59255224138387
 30
0.0
 40
0.47594775925701094
  1
x = -48.000
 50
14.999999999999998
 11
-46.58780215646015
 21
-40.59255224138387
 31
0.0
100
AcDbAttribute
280
0
  2
XPOS
 70
0
  0
ATTRIB
  5
39
330
17
100
AcDbEntity
  8
0
 62
4
100
AcDbText
 10
-46.341433467320975
 20
-41.512012706645386
 30
0.0
 40
0.47594775925701094
  1
y = -39.000
 50
14.999999999999998
 11
-46.341433467320975
 21
-41.512012706645386
 31
0.0
100
AcDbAttribute
280
0
  2
YPOS
 70
0
  0
SEQEND
  5
36
330
17
100
AcDbEntity
  8
0
  0
INSERT
  5
3A
330
17
100
AcDbEntity
  8
0
100
AcDbBlockReference
 66
1
  2
FLAG
 10
-12.0
 20
-11.0
 30
0.0
 41
1.596465725003191
 42
1.596465725003191
 43
1.596465725003191
 50
15.0
  0
ATTRIB
  5
3C
330
17
100
AcDbEntity
  8
0
 62
3
100
AcDbText
 10
-11.022368395474944
 20
-11.564435870040827
 30
0.0
 40
0.7982328625015955
  1
P(2)
 50
14.999999999999998
 11
-11.022368395474944
 21
-11.564435870040827
 31
0.0
100
AcDbAttribute
280
0
  2
NAME
 70
0
  0
ATTRIB
  5
3D
330
17
100
AcDbEntity
  8
0
 62
4
100
AcDbText
 10
-10.815770528232829
 20
-12.33546960732377
 30
0.0
 40
0.39911643125079777
  1
x = -12.000
 50
14.999999999999998
 11
-10.815770528232829
 21
-12.33546960732377
 31
0.0
100
AcDbAttribute
280
0
  2
XPOS
 70
0
  0
ATTRIB
  5
3E
330
17
100
AcDbEntity
  8
0
 62
4
100
AcDbText
 10
-10.609172660990714
 20
-13.106503344606711
 30
0.0
 40
0.39911643125079777
  1
y = -11.000
 50
14.999999999999998
 11
-10.609172660990714
 21
-13.106503344606711
 31
0.0
100
AcDbAttribute
280
0
  2
YPOS
 70
0
  0
SEQEND
  5
3B
330
17
100
AcDbEntity
  8
0
  0
INSERT
  5
3F
330
17
100
AcDbEntity
  8
0
100
AcDbBlockReference
 66
1
  2
FLAG
 10
0.0
 20
-68.0
 30
0.0
 41
2.443967945961853
 42
2.443967945961853
 43
2.443967945961853
 50
15.0
  0
ATTRIB
  5
41
330
17
100
AcDbEntity
  8
0
 62
3
100
AcDbText
 10
1.496618603831108
 20
-68.8640731537961
 30
0.0
 40
1.2219839729809268
  1
P(3)
 50
14.999999999999998
 11
1.496618603831108
 21
-68.8640731537961
 31
0.0
100
AcDbAttribute
280
0
  2
NAME
 70
0
  0
ATTRIB
  5
42
330
17
100
AcDbEntity
  8
0
 62
4
100
AcDbText
 10
1.812891328848616
 20
-70.0444190326097
 30
0.0
 40
0.6109919864904634
  1
x = 0.000
 50
14.999999999999998
 11
1.812891328848616
 21
-70.0444190326097
 31
0.0
100
AcDbAttribute
280
0
  2
XPOS
 70
0
  0
ATTRIB
  5
43
330
17
100
AcDbEntity
  8
0
 62
4
100
AcDbText
 10
2.129164053866124
 20
-71.22476491142329
 30
0.0
 40
0.6109919864904634
  1
y = -68.000
 50
14.999999999999998
 11
2.129164053866124
 21
-71.22476491142329
 31
0.0
100
AcDbAttribute
280
0
  2
YPOS
 70
0
  0
SEQEND
  5
40
330
17
100
AcDbEntity
  8
0
  0
INSERT
  5
44
330
17
100
AcDbEntity
  8
0
100
AcDbBlockReference
 66
1
  2
FLAG
 10
-80.0
 20
57.0
 30
0.0
 41
2.1744026473220046
 42
2.1744026473220046
 43
2.1744026473220046
 50
15.0
  0
ATTRIB
  5
46
330
17
100
AcDbEntity
  8
0
 62
3
100
AcDbText
 10
-78.66845575467605
 20
56.231232571524316
 30
0.0
 40
1.0872013236610023
  1
P(4)
 50
14.999999999999998
 11
-78.66845575467605
 21
56.231232571524316
 31
0.0
100
AcDbAttribute
280
0
  2
NAME
 70
0
  0
ATTRIB
  5
47
330
17
100
AcDbEntity
  8
0
 62
4
100
AcDbText
 10
-78.3870673462519
 20
55.18107673462449
 30
0.0
 40
0.5436006618305012
  1
x = -80.000
 50
14.999999999999998
 11
-78.3870673462519
 21
55.18107673462449
 31
0.0
100
AcDbAttribute
280
0
  2
XPOS
 70
0
  0
ATTRIB
  5
48
330
17
100
AcDbEntity
  8
0
 62
4
100
AcDbText
 10
-78.10567893782776
 20
54.13092089772467
 30
0.0
 40
0.5436006618305012
  1
y = 57.000
 50
14.999999999999998
 11
-78.10567893782776
 21
54.13092089772467
 31
0.0
100
AcDbAttribute
280
0
  2
YPOS
 70
0
  0
SEQEND
  5
45
330
17
100
AcDbEntity
  8
0
  0
INSERT
  5
49
330
17
100
AcDbEntity
  8
0
100
AcDbBlockReference
 66
1
  2
FLAG
 10
-41.0
 20
21.0
 30
0.0
 41
2.041425802324121
 42
2.041425802324121
 43
2.041425802324121
 50
15.0
  0
ATTRIB
  5
4B
330
17
100
AcDbEntity
  8
0
 62
3
100
AcDbText
 10
-39.749887109138534
 20
20.278246985943714
 30
0.0
 40
1.0207129011620606
  1
P(5)
 50
14.999999999999998
 11
-39.749887109138534
 21
20.278246985943714
 31
0.0
100
AcDbAttribute
280
0
  2
NAME
 70
0
  0
ATTRIB
  5
4C
330
17
100
AcDbEntity
  8
0
 62
4
100
AcDbText
 10
-39.48570717073595
 20
19.292314033484836
 30
0.0
 40
0.5103564505810303
  1
x = -41.000
 50
14.999999999999998
 11
-39.48570717073595
 21
19.292314033484836
 31
0.0
100
AcDbAttribute
280
0
  2
XPOS
 70
0
  0
ATTRIB
  5
4D
330
17
100
AcDbEntity
  8
0
 62
4
100
AcDbText
 10
-39.22152723233336
 20
18.30638108102596
 30
0.0
 40
0.5103564505810303
  1
y = 21.000
 50
14.999999999999998
 11
-39.22152723233336
 21
18.30638108102596
 31
0.0
100
AcDbAttribute
280
0
  2
YPOS
 70
0
  0
SEQEND
  5
4A
330
17
100
AcDbEntity
  8
0
  0
INSERT
  5
4E
330
17
100
AcDbEntity
  8
0
100
AcDbBlockReference
 66
1
  2
FLAG
 10
-69.0
 20
80.0
 30
0.0
 41
1.5636212347105154
 42
1.5636212347105154
 43
1.5636212347105154
 50
15.0
  0
ATTRIB
  5
50
330
17
100
AcDbEntity
  8
0
 62
3
100
AcDbText
 10
-68.04248145599466
 20
79.44717641086446
 30
0.0
 40
0.7818106173552577
  1
P(6)
 50
14.999999999999998
 11
-68.04248145599466
 21
79.44717641086446
 31
0.0
100
AcDbAttribute
280
0
  2
NAME
 70
0
  0
ATTRIB
  5
51
330
17
100
AcDbEntity
  8
0
 62
4
100
AcDbText
 10
-67.84013397855976
 20
78.69200534429402
 30
0.0
 40
0.39090530867762885
  1
x = -69.000
 50
14.999999999999998
 11
-67.84013397855976
 21
78.69200534429402
 31
0.0
100
AcDbAttribute
280
0
  2
XPOS
 70
0
  0
ATTRIB
  5
52
330
17
100
AcDbEntity
  8
0
 62
4
100
AcDbText
 10
-67.63778650112485
 20
77.93683427772356
 30
0.0
 40
0.39090530867762885
  1
y = 80.000
 50
14.999999999999998
 11
-67.63778650112485
 21
77.93683427772356
 31
0.0
100
AcDbAttribute
280
0
  2
YPOS
 70
0
  0
SEQEND
  5
4F
330
17
100
AcDbEntity
  8
0
  0
INSERT
  5
53
330
17
100
AcDbEntity
  8
0
100
AcDbBlockReference
 66
1
  2
FLAG
 10
-52.0
 20
-56.0
 30
0.0
 41
2.180060951779483
 42
2.180060951779483
 43
2.180060951779483
 50
15.0
  0
ATTRIB
  5
55
330
17
100
AcDbEntity
  8
0
 62
3
100
AcDbText
 10
-50.664990764993505
 20
-56.77076794120163
 30
0.0
 40
1.0900304758897414
  1
P(7)
 50
15.000000000000002
 11
-50.664990764993505
 21
-56.77076794120163
 31
0.0
100
AcDbAttribute
280
0
  2
NAME
 70
0
  0
ATTRIB
  5
56
330
17
100
AcDbEntity
  8
0
 62
4
100
AcDbText
 10
-50.38287011809108
 20
-57.8236565293057
 30
0.0
 40
0.5450152379448707
  1
x = -52.000
 50
15.000000000000002
 11
-50.38287011809108
 21
-57.8236565293057
 31
0.0
100
AcDbAttribute
280
0
  2
XPOS
 70
0
  0
ATTRIB
  5
57
330
17
100
AcDbEntity
  8
0
 62
4
100
AcDbText
 10
-50.10074947118865
 20
-58.87654511740976
 30
0.0
 40
0.5450152379448707
  1
y = -56.000
 50
15.000000000000002
 11
-50.10074947118865
 21
-58.87654511740976
 31
0.0
100
AcDbAttribute
280
0
  2
YPOS
 70
0
  0
SEQEND
  5
54
330
17
100
AcDbEntity
  8
0
  0
INSERT
  5
58
330
17
100
AcDbEntity
  8
0
100
AcDbBlockReference
 66
1
  2
FLAG
 10
-5.0
 20
-12.0
 30
0.0
 41
1.2835102931107365
 42
1.2835102931107365
 43
1.2835102931107365
 50
15.0
  0
ATTRIB
  5
5A
330
17
100
AcDbEntity
  8
0
 62
3
100
AcDbText
 10
-4.214013675567156
 20
-12.453789415990668
 30
0.0
 40
0.6417551465553682
  1
P(8)
 50
14.999999999999998
 11
-4.214013675567156
 21
-12.453789415990668
 31
0.0
100
AcDbAttribute
280
0
  2
NAME
 70
0
  0
ATTRIB
  5
5B
330
17
100
AcDbEntity
  8
0
 62
4
100
AcDbText
 10
-4.0479152213460665
 20
-13.073677286202424
 30
0.0
 40
0.3208775732776841
  1
x = -5.000
 50
14.999999999999998
 11
-4.0479152213460665
 21
-13.073677286202424
 31
0.0
100
AcDbAttribute
280
0
  2
XPOS
 70
0
  0
ATTRIB
  5
5C
330
17
100
AcDbEntity
  8
0
 62
4
100
AcDbText
 10
-3.881816767124978
 20
-13.69356515641418
 30
0.0
 40
0.3208775732776841
  1
y = -12.000
 50
14.999999999999998
 11
-3.881816767124978
 21
-13.69356515641418
 31
0.0
100
AcDbAttribute
280
0
  2
YPOS
 70
0
  0
SEQEND
  5
59
330
17
100
AcDbEntity
  8
0
  0
INSERT
  5
5D
330
17
100
AcDbEntity
  8
0
100
AcDbBlockReference
 66
1
  2
FLAG
 10
-6.0
 20
12.0
 30
0.0
 41
2.000159677012866
 42
2.000159677012866
 43
2.000159677012866
 50
15.0
  0
ATTRIB
  5
5F
330
17
100
AcDbEntity
  8
0
 62
3
100
AcDbText
 10
-4.775157346807118
 20
11.292836764464154
 30
0.0
 40
1.000079838506433
  1
P(9)
 50
14.999999999999998
 11
-4.775157346807118
 21
11.292836764464154
 31
0.0
100
AcDbAttribute
280
0
  2
NAME
 70
0
  0
ATTRIB
  5
60
330
17
100
AcDbEntity
  8
0
 62
4
100
AcDbText
 10
-4.5163176379786
 20
10.32683382009979
 30
0.0
 40
0.5000399192532164
  1
x = -6.000
 50
14.999999999999998
 11
-4.5163176379786
 21
10.32683382009979
 31
0.0
100
AcDbAttribute
280
0
  2
XPOS
 70
0
  0
ATTRIB
  5
61
330
17
100
AcDbEntity
  8
0
 62
4
100
AcDbText
 10
-4.257477929150081
 20
9.360830875735425
 30
0.0
 40
0.5000399192532164
  1
y = 12.000
 50
14.999999999999998
 11
-4.257477929150081
 21
9.360830875735425
 31
0.0
100
AcDbAttribute
280
0
  2
YPOS
 70
0
  0
SEQEND
  5
5E
330
17
100
AcDbEntity
  8
0
  0
INSERT
  5
62
330
17
100
AcDbEntity
  8
0
100
AcDbBlockReference
 66
1
  2
FLAG
 10
-29.0
 20
-46.0
 30
0.0
 41
1.3604544633332094
 42
1.3604544633332094
 43
1.3604544633332094
 50
15.0
  0
ATTRIB
  5
64
330
17
100
AcDbEntity
  8
0
 62
3
100
AcDbText
 10
-28.16689518663543
 20
-46.48099328825921
 30
0.0
 40
0.6802272316666048
  1
P(10)
 50
14.999999999999998
 11
-28.16689518663543
 21
-46.48099328825921
 31
0.0
100
AcDbAttribute
280
0
  2
NAME
 70
0
  0
ATTRIB
  5
65
330
17
100
AcDbEntity
  8
0
 62
4
100
AcDbText
 10
-27.990839424082747
 20
-47.1380423390711
 30
0.0
 40
0.3401136158333024
  1
x = -29.000
 50
14.999999999999998
 11
-27.990839424082747
 21
-47.1380423390711
 31
0.0
100
AcDbAttribute
280
0
  2
XPOS
 70
0
  0
ATTRIB
  5
66
330
17
100
AcDbEntity
  8
0
 62
4
100
AcDbText
 10
-27.814783661530065
 20
-47.79509138988299
 30
0.0
 40
0.3401136158333024
  1
y = -46.000
 50
14.999999999999998
 11
-27.814783661530065
 21
-47.79509138988299
 31
0.0
100
AcDbAttribute
280
0
  2
YPOS
 70
0
  0
SEQEND
  5
63
330
17
100
AcDbEntity
  8
0
  0
INSERT
  5
67
330
17
100
AcDbEntity
  8
0
100
AcDbBlockReference
 66
1
  2
FLAG
 10
-27.0
 20
93.0
 30
0.0
 41
1.0373862919529344
 42
1.0373862919529344
 43
1.0373862919529344
 50
15.0
  0
ATTRIB
  5
69
330
17
100
AcDbEntity
  8
0
 62
3
100
AcDbText
 10
-26.364733229639352
 20
92.63322855912506
 30
0.0
 40
0.5186931459764672
  1
P(11)
 50
14.999999999999998
 11
-26.364733229639352
 21
92.63322855912506
 31
0.0
100
AcDbAttribute
280
0
  2
NAME
 70
0
  0
ATTRIB
  5
6A
330
17
100
AcDbEntity
  8
0
 62
4
100
AcDbText
 10
-26.2304855648965
 20
92.13220945350726
 30
0.0
 40
0.2593465729882336
  1
x = -27.000
 50
14.999999999999998
 11
-26.2304855648965
 21
92.13220945350726
 31
0.0
100
AcDbAttribute
280
0
  2
XPOS
 70
0
  0
ATTRIB
  5
6B
330
17
100
AcDbEntity
  8
0
 62
4
100
AcDbText
 10
-26.09623790015365
 20
91.63119034788947
 30
0.0
 40
0.2593465729882336
  1
y = 93.000
 50
14.999999999999998
 11
-26.09623790015365
 21
91.63119034788947
 31
0.0
100
AcDbAttribute
280
0
  2
YPOS
 70
0
  0
SEQEND
  5
68
330
17
100
AcDbEntity
  8
0
  0
INSERT
  5
6C
330
17
100
AcDbEntity
  8
0
100
AcDbBlockReference
 66
1
  2
FLAG
 10
-29.0
 20
-31.0
 30
0.0
 41
0.7316676415749737
 42
0.7316676415749737
 43
0.7316676415749737
 50
15.0
  0
ATTRIB
  5
6E
330
17
100
AcDbEntity
  8
0
 62
3
100
AcDbText
 10
-28.551946904208936
 20
-31.258683575466215
 30
0.0
 40
0.36583382078748683
  1
P(12)
 50
14.999999999999998
 11
-28.551946904208936
 21
-31.258683575466215
 31
0.0
100
AcDbAttribute
280
0
  2
NAME
 70
0
  0
ATTRIB
  5
6F
330
17
100
AcDbEntity
  8
0
 62
4
100
AcDbText
 10
-28.457262144046513
 20
-31.612051911094856
 30
0.0
 40
0.18291691039374341
  1
x = -29.000
 50
14.999999999999998
 11
-28.457262144046513
 21
-31.612051911094856
 31
0.0
100
AcDbAttribute
280
0
  2
XPOS
 70
0
  0
ATTRIB
  5
70
330
17
100
AcDbEntity
  8
0
 62
4
100
AcDbText
 10
-28.362577383884087
 20
-31.965420246723497
 30
0.0
 40
0.18291691039374341
  1
y = -31.000
 50
14.999999999999998
 11
-28.362577383884087
 21
-31.965420246723497
 31
0.0
100
AcDbAttribute
280
0
  2
YPOS
 70
0
  0
SEQEND
  5
6D
330
17
100
AcDbEntity
  8
0
  0
INSERT
  5
71
330
17
100
AcDbEntity
  8
0
100
AcDbBlockReference
 66
1
  2
FLAG
 10
45.0
 20
-56.0
 30
0.0
 41
0.9023202876250707
 42
0.9023202876250707
 43
0.9023202876250707
 50
15.0
  0
ATTRIB
  5
73
330
17
100
AcDbEntity
  8
0
 62
3
100
AcDbText
 10
45.55255607231069
 20
-56.31901839709094
 30
0.0
 40
0.45116014381253533
  1
P(13)
 50
14.999999999999998
 41
1.0000000000000002
 11
45.55255607231069
 21
-56.31901839709094
 31
0.0
100
AcDbAttribute
280
0
  2
NAME
 70
0
  0
ATTRIB
  5
74
330
17
100
AcDbEntity
  8
0
 62
4
100
AcDbText
 10
45.66932490992057
 20
-56.75480563179176
 30
0.0
 40
0.22558007190626767
  1
x = 45.000
 50
14.999999999999998
 41
1.0000000000000002
 11
45.66932490992057
 21
-56.75480563179176
 31
0.0
100
AcDbAttribute
280
0
  2
XPOS
 70
0
  0
ATTRIB
  5
75
330
17
100
AcDbEntity
  8
0
 62
4
100
AcDbText
 10
45.786093747530444
 20
-57.19059286649258
 30
0.0
 40
0.22558007190626767
  1
y = -56.000
 50
14.999999999999998
 41
1.0000000000000002
 11
45.786093747530444
 21
-57.19059286649258
 31
0.0
100
AcDbAttribute
280
0
  2
YPOS
 70
0
  0
SEQEND
  5
72
330
17
100
AcDbEntity
  8
0
  0
INSERT
  5
76
330
17
100
AcDbEntity
  8
0
100
AcDbBlockReference
 66
1
  2
FLAG
 10
53.0
 20
0.0
 30
0.0
 41
0.6041617133657808
 42
0.6041617133657808
 43
0.6041617133657808
 50
15.0
  0
ATTRIB
  5
78
330
17
100
AcDbEntity
  8
0
 62
3
100
AcDbText
 10
53.36997197996795
 20
-0.21360342222711343
 30
0.0
 40
0.3020808566828904
  1
P(14)
 50
14.999999999999998
 11
53.36997197996795
 21
-0.21360342222711343
 31
0.0
100
AcDbAttribute
280
0
  2
NAME
 70
0
  0
ATTRIB
  5
79
330
17
100
AcDbEntity
  8
0
 62
4
100
AcDbText
 10
53.44815625883837
 20
-0.505391123324644
 30
0.0
 40
0.1510404283414452
  1
x = 53.000
 50
14.999999999999998
 11
53.44815625883837
 21
-0.505391123324644
 31
0.0
100
AcDbAttribute
280
0
  2
XPOS
 70
0
  0
ATTRIB
  5
7A
330
17
100
AcDbEntity
  8
0
 62
4
100
AcDbText
 10
53.52634053770878
 20
-0.7971788244221746
 30
0.0
 40
0.1510404283414452
  1
y = 0.000
 50
14.999999999999998
 11
53.52634053770878
 21
-0.7971788244221746
 31
0.0
100
AcDbAttribute
280
0
  2
YPOS
 70
0
  0
SEQEND
  5
77
330
17
100
AcDbEntity
  8
0
  0
INSERT
  5
7B
330
17
100
AcDbEntity
  8
0
100
AcDbBlockReference
 66
1
  2
FLAG
 10
6.0
 20
-49.0
 30
0.0
 41
0.6573266899562686
 42
0.6573266899562686
 43
0.6573266899562686
 50
15.0
  0
ATTRIB
  5
7D
330
17
100
AcDbEntity
  8
0
 62
3
100
AcDbText
 10
6.402528746176374
 20
-49.232400079961494
 30
0.0
 40
0.3286633449781344
  1
P(15)
 50
14.999999999999996
 11
6.402528746176374
 21
-49.232400079961494
 31
0.0
100
AcDbAttribute
280
0
  2
NAME
 70
0
  0
ATTRIB
  5
7E
330
17
100
AcDbEntity
  8
0
 62
4
100
AcDbText
 10
6.4875930792838155
 20
-49.54986449303043
 30
0.0
 40
0.1643316724890672
  1
x = 6.000
 50
14.999999999999996
 11
6.4875930792838155
 21
-49.54986449303043
 31
0.0
100
AcDbAttribute
280
0
  2
XPOS
 70
0
  0
ATTRIB
  5
7F
330
17
100
AcDbEntity
  8
0
 62
4
100
AcDbText
 10
6.572657412391257
 20
-49.86732890609936
 30
0.0
 40
0.1643316724890672
  1
y = -49.000
 50
14.999999999999996
 11
6.572657412391257
 21
-49.86732890609936
 31
0.0
100
AcDbAttribute
280
0
  2
YPOS
 70
0
  0
SEQEND
  5
7C
330
17
100
AcDbEntity
  8
0
  0
INSERT
  5
80
330
17
100
AcDbEntity
  8
0
100
AcDbBlockReference
 66
1
  2
FLAG
 10
92.0
 20
-82.0
 30
0.0
 41
1.824701521763082
 42
1.824701521763082
 43
1.824701521763082
 50
15.0
  0
ATTRIB
  5
82
330
17
100
AcDbEntity
  8
0
 62
3
100
AcDbText
 10
93.11739691529988
 20
-82.64512940984004
 30
0.0
 40
0.912350760881541
  1
P(16)
 50
14.999999999999998
 11
93.11739691529988
 21
-82.64512940984004
 31
0.0
100
AcDbAttribute
280
0
  2
NAME
 70
0
  0
ATTRIB
  5
83
330
17
100
AcDbEntity
  8
0
 62
4
100
AcDbText
 10
93.3535306680298
 20
-83.52639257241
 30
0.0
 40
0.4561753804407705
  1
x = 92.000
 50
14.999999999999998
 11
93.3535306680298
 21
-83.52639257241
 31
0.0
100
AcDbAttribute
280
0
  2
XPOS
 70
0
  0
ATTRIB
  5
84
330
17
100
AcDbEntity
  8
0
 62
4
100
AcDbText
 10
93.58966442075972
 20
-84.40765573497997
 30
0.0
 40
0.4561753804407705
  1
y = -82.000
 50
14.999999999999998
 11
93.58966442075972
 21
-84.40765573497997
 31
0.0
100
AcDbAttribute
280
0
  2
YPOS
 70
0
  0
SEQEND
  5
81
330
17
100
AcDbEntity
  8
0
  0
INSERT
  5
85
330
17
100
AcDbEntity
  8
0
100
AcDbBlockReference
 66
1
  2
FLAG
 10
27.0
 20
-26.0
 30
0.0
 41
2.1245860487264663
 42
2.1245860487264663
 43
2.1245860487264663
 50
15.0
  0
ATTRIB
  5
87
330
17
100
AcDbEntity
  8
0
 62
3
100
AcDbText
 10
28.30103793350393
 20
-26.75115460113441
 30
0.0
 40
1.0622930243632331
  1
P(17)
 50
14.999999999999998
 11
28.30103793350393
 21
-26.75115460113441
 31
0.0
100
AcDbAttribute
280
0
  2
NAME
 70
0
  0
ATTRIB
  5
88
330
17
100
AcDbEntity
  8
0
 62
4
100
AcDbText
 10
28.57597959968869
 20
-27.777250868453578
 30
0.0
 40
0.5311465121816166
  1
x = 27.000
 50
14.999999999999998
 11
28.57597959968869
 21
-27.777250868453578
 31
0.0
100
AcDbAttribute
280
0
  2
XPOS
 70
0
  0
ATTRIB
  5
89
330
17
100
AcDbEntity
  8
0
 62
4
100
AcDbText
 10
28.850921265873453
 20
-28.803347135772746
 30
0.0
 40
0.5311465121816166
  1
y = -26.000
 50
14.999999999999998
 11
28.850921265873453
 21
-28.803347135772746
 31
0.0
100
AcDbAttribute
280
0
  2
YPOS
 70
0
  0
SEQEND
  5
86
330
17
100
AcDbEntity
  8
0
  0
INSERT
  5
8A
330
17
100
AcDbEntity
  8
0
100
AcDbBlockReference
 66
1
  2
FLAG
 10
92.0
 20
-6.0
 30
0.0
 41
1.8322224106999514
 42
1.8322224106999514
 43
1.8322224106999514
 50
15.0
  0
ATTRIB
  5
8C
330
17
100
AcDbEntity
  8
0
 62
3
100
AcDbText
 10
93.12200250037675
 20
-6.6477884456239495
 30
0.0
 40
0.9161112053499758
  1
P(18)
 50
14.999999999999998
 11
93.12200250037675
 21
-6.6477884456239495
 31
0.0
100
AcDbAttribute
280
0
  2
NAME
 70
0
  0
ATTRIB
  5
8D
330
17
100
AcDbEntity
  8
0
 62
4
100
AcDbText
 10
93.35910952775315
 20
-7.532683918624299
 30
0.0
 40
0.4580556026749879
  1
x = 92.000
 50
14.999999999999998
 11
93.35910952775315
 21
-7.532683918624299
 31
0.0
100
AcDbAttribute
280
0
  2
XPOS
 70
0
  0
ATTRIB
  5
8E
330
17
100
AcDbEntity
  8
0
 62
4
100
AcDbText
 10
93.59621655512954
 20
-8.417579391624649
 30
0.0
 40
0.4580556026749879
  1
y = -6.000
 50
14.999999999999998
 11
93.59621655512954
 21
-8.417579391624649
 31
0.0
100
AcDbAttribute
280
0
  2
YPOS
 70
0
  0
SEQEND
  5
8B
330
17
100
AcDbEntity
  8
0
  0
INSERT
  5
8F
330
17
100
AcDbEntity
  8
0
100
AcDbBlockReference
 66
1
  2
FLAG
 10
89.0
 20
-24.0
 30
0.0
 41
2.3613909581229375
 42
2.3613909581229375
 43
2.3613909581229375
 50
15.0
  0
ATTRIB
  5
91
330
17
100
AcDbEntity
  8
0
 62
3
100
AcDbText
 10
90.44605073265576
 20
-24.834877779760664
 30
0.0
 40
1.1806954790614688
  1
P(19)
 50
14.999999999999998
 11
90.44605073265576
 21
-24.834877779760664
 31
0.0
100
AcDbAttribute
280
0
  2
NAME
 70
0
  0
ATTRIB
  5
92
330
17
100
AcDbEntity
  8
0
 62
4
100
AcDbText
 10
90.75163720910332
 20
-25.97534203596888
 30
0.0
 40
0.5903477395307344
  1
x = 89.000
 50
14.999999999999998
 11
90.75163720910332
 21
-25.97534203596888
 31
0.0
100
AcDbAttribute
280
0
  2
XPOS
 70
0
  0
ATTRIB
  5
93
330
17
100
AcDbEntity
  8
0
 62
4
100
AcDbText
 10
91.05722368555088
 20
-27.115806292177098
 30
0.0
 40
0.5903477395307344
  1
y = -24.000
 50
14.999999999999998
 11
91.05722368555088
 21
-27.115806292177098
 31
0.0
100
AcDbAttribute
280
0
  2
YPOS
 70
0
  0
SEQEND
  5
90
330
17
100
AcDbEntity
  8
0
  0
INSERT
  5
94
330
17
100
AcDbEntity
  8
0
100
AcDbBlockReference
 66
1
  2
FLAG
 10
90.0
 20
-75.0
 30
0.0
 41
1.6396980585394803
 42
1.6396980585394803
 43
1.6396980585394803
 50
15.0
  0
ATTRIB
  5
96
330
17
100
AcDbEntity
  8
0
 62
3
100
AcDbText
 10
91.00410589391349
 20
-75.57972080814584
 30
0.0
 40
0.8198490292697401
  1
P(20)
 50
14.999999999999998
 11
91.00410589391349
 21
-75.57972080814584
 31
0.0
100
AcDbAttribute
280
0
  2
NAME
 70
0
  0
ATTRIB
  5
97
330
17
100
AcDbEntity
  8
0
 62
4
100
AcDbText
 10
91.21629843679732
 20
-76.3716341591755
 30
0.0
 40
0.40992451463487006
  1
x = 90.000
 50
14.999999999999998
 11
91.21629843679732
 21
-76.3716341591755
 31
0.0
100
AcDbAttribute
280
0
  2
XPOS
 70
0
  0
ATTRIB
  5
98
330
17
100
AcDbEntity
  8
0
 62
4
100
AcDbText
 10
91.42849097968113
 20
-77.16354751020518
 30
0.0
 40
0.40992451463487006
  1
y = -75.000
 50
14.999999999999998
 11
91.42849097968113
 21
-77.16354751020518
 31
0.0
100
AcDbAttribute
280
0
  2
YPOS
 70
0
  0
SEQEND
  5
95
330
17
100
AcDbEntity
  8
0
  0
INSERT
  5
99
330
17
100
AcDbEntity
  8
0
100
AcDbBlockReference
 66
1
  2
FLAG
 10
-80.0
 20
41.0
 30
0.0
 41
1.220539975135021
 42
1.220539975135021
 43
1.220539975135021
 50
15.0
  0
ATTRIB
  5
9B
330
17
100
AcDbEntity
  8
0
 62
3
100
AcDbText
 10
-79.25257496256248
 20
40.56847395343638
 30
0.0
 40
0.6102699875675106
  1
P(21)
 50
14.999999999999998
 11
-79.25257496256248
 21
40.56847395343638
 31
0.0
100
AcDbAttribute
280
0
  2
NAME
 70
0
  0
ATTRIB
  5
9C
330
17
100
AcDbEntity
  8
0
 62
4
100
AcDbText
 10
-79.09462546712554
 20
39.97899841143582
 30
0.0
 40
0.3051349937837553
  1
x = -80.000
 50
14.999999999999998
 11
-79.09462546712554
 21
39.97899841143582
 31
0.0
100
AcDbAttribute
280
0
  2
XPOS
 70
0
  0
ATTRIB
  5
9D
330
17
100
AcDbEntity
  8
0
 62
4
100
AcDbText
 10
-78.93667597168859
 20
39.38952286943525
 30
0.0
 40
0.3051349937837553
  1
y = 41.000
 50
14.999999999999998
 11
-78.93667597168859
 21
39.38952286943525
 31
0.0
100
AcDbAttribute
280
0
  2
YPOS
 70
0
  0
SEQEND
  5
9A
330
17
100
AcDbEntity
  8
0
  0
INSERT
  5
9E
330
17
100
AcDbEntity
  8
0
100
AcDbBlockReference
 66
1
  2
FLAG
 10
99.0
 20
-19.0
 30
0.0
 41
1.7949473745655502
 42
1.7949473745655502
 43
1.7949473745655502
 50
15.0
  0
ATTRIB
  5
A0
330
17
100
AcDbEntity
  8
0
 62
3
100
AcDbText
 10
100.09917629570847
 20
-19.634609730214144
 30
0.0
 40
0.8974736872827752
  1
P(22)
 50
14.999999999999998
 11
100.09917629570847
 21
-19.634609730214144
 31
0.0
100
AcDbAttribute
280
0
  2
NAME
 70
0
  0
ATTRIB
  5
A1
330
17
100
AcDbEntity
  8
0
 62
4
100
AcDbText
 10
100.33145957845565
 20
-20.501502743175458
 30
0.0
 40
0.4487368436413876
  1
x = 99.000
 50
14.999999999999998
 11
100.33145957845565
 21
-20.501502743175458
 31
0.0
100
AcDbAttribute
280
0
  2
XPOS
 70
0
  0
ATTRIB
  5
A2
330
17
100
AcDbEntity
  8
0
 62
4
100
AcDbText
 10
100.56374286120281
 20
-21.368395756136767
 30
0.0
 40
0.4487368436413876
  1
y = -19.000
 50
14.999999999999998
 11
100.56374286120281
 21
-21.368395756136767
 31
0.0
100
AcDbAttribute
280
0
  2
YPOS
 70
0
  0
SEQEND
  5
9F
330
17
100
AcDbEntity
  8
0
  0
INSERT
  5
A3
330
17
100
AcDbEntity
  8
0
100
AcDbBlockReference
 66
1
  2
FLAG
 10
65.0
 20
-16.0
 30
0.0
 41
1.8316382046511435
 42
1.8316382046511435
 43
1.8316382046511435
 50
15.0
  0
ATTRIB
  5
A5
330
17
100
AcDbEntity
  8
0
 62
3
100
AcDbText
 10
66.12164474869569
 20
-16.647581897594588
 30
0.0
 40
0.9158191023255717
  1
P(23)
 50
14.999999999999998
 11
66.12164474869569
 21
-16.647581897594588
 31
0.0
100
AcDbAttribute
280
0
  2
NAME
 70
0
  0
ATTRIB
  5
A6
330
17
100
AcDbEntity
  8
0
 62
4
100
AcDbText
 10
66.35867617424624
 20
-17.53219522073973
 30
0.0
 40
0.45790955116278587
  1
x = 65.000
 50
14.999999999999998
 11
66.35867617424624
 21
-17.53219522073973
 31
0.0
100
AcDbAttribute
280
0
  2
XPOS
 70
0
  0
ATTRIB
  5
A7
330
17
100
AcDbEntity
  8
0
 62
4
100
AcDbText
 10
66.5957075997968
 20
-18.41680854388487
 30
0.0
 40
0.45790955116278587
  1
y = -16.000
 50
14.999999999999998
 11
66.5957075997968
 21
-18.41680854388487
 31
0.0
100
AcDbAttribute
280
0
  2
YPOS
 70
0
  0
SEQEND
  5
A4
330
17
100
AcDbEntity
  8
0
  0
INSERT
  5
A8
330
17
100
AcDbEntity
  8
0
100
AcDbBlockReference
 66
1
  2
FLAG
 10
9.0
 20
46.0
 30
0.0
 41
1.5070480366304213
 42
1.5070480366304213
 43
1.5070480366304213
 50
15.0
  0
ATTRIB
  5
AA
330
17
100
AcDbEntity
  8
0
 62
3
100
AcDbText
 10
9.922874676901936
 20
45.46717805686238
 30
0.0
 40
0.7535240183152107
  1
P(24)
 50
14.999999999999998
 11
9.922874676901936
 21
45.46717805686238
 31
0.0
100
AcDbAttribute
280
0
  2
NAME
 70
0
  0
ATTRIB
  5
AB
330
17
100
AcDbEntity
  8
0
 62
4
100
AcDbText
 10
10.117901043784093
 20
44.7393297468426
 30
0.0
 40
0.3767620091576053
  1
x = 9.000
 50
14.999999999999998
 11
10.117901043784093
 21
44.7393297468426
 31
0.0
100
AcDbAttribute
280
0
  2
XPOS
 70
0
  0
ATTRIB
  5
AC
330
17
100
AcDbEntity
  8
0
 62
4
100
AcDbText
 10
10.312927410666251
 20
44.01148143682282
 30
0.0
 40
0.3767620091576053
  1
y = 46.000
 50
14.999999999999998
 11
10.312927410666251
 21
44.01148143682282
 31
0.0
100
AcDbAttribute
280
0
  2
YPOS
 70
0
  0
SEQEND
  5
A9
330
17
100
AcDbEntity
  8
0
  0
INSERT
  5
AD
330
17
100
AcDbEntity
  8
0
100
AcDbBlockReference
 66
1
  2
FLAG
 10
71.0
 20
-75.0
 30
0.0
 41
2.3483888335893512
 42
2.3483888335893512
 43
2.3483888335893512
 50
15.0
  0
ATTRIB
  5
AF
330
17
100
AcDbEntity
  8
0
 62
3
100
AcDbText
 10
72.43808858998592
 20
-75.8302808345469
 30
0.0
 40
1.1741944167946756
  1
P(25)
 50
14.999999999999998
 11
72.43808858998592
 21
-75.8302808345469
 31
0.0
100
AcDbAttribute
280
0
  2
NAME
 70
0
  0
ATTRIB
  5
B0
330
17
100
AcDbEntity
  8
0
 62
4
100
AcDbText
 10
72.74199246770543
 20
-76.9644655468133
 30
0.0
 40
0.5870972083973378
  1
x = 71.000
 50
14.999999999999998
 11
72.74199246770543
 21
-76.9644655468133
 31
0.0
100
AcDbAttribute
280
0
  2
XPOS
 70
0
  0
ATTRIB
  5
B1
330
17
100
AcDbEntity
  8
0
 62
4
100
AcDbText
 10
73.04589634542494
 20
-78.09865025907972
 30
0.0
 40
0.5870972083973378
  1
y = -75.000
 50
14.999999999999998
 11
73.04589634542494
 21
-78.09865025907972
 31
0.0
100
AcDbAttribute
280
0
  2
YPOS
 70
0
  0
SEQEND
  5
AE
330
17
100
AcDbEntity
  8
0
  0
INSERT
  5
B2
330
17
100
AcDbEntity
  8
0
100
AcDbBlockReference
 66
1
  2
FLAG
 10
66.0
 20
-96.0
 30
0.0
 41
1.7826641415334643
 42
1.7826641415334643
 43
1.7826641415334643
 50
15.0
  0
ATTRIB
  5
B4
330
17
100
AcDbEntity
  8
0
 62
3
100
AcDbText
 10
67.0916543823784
 20
-96.6302669515282
 30
0.0
 40
0.8913320707667322
  1
P(26)
 50
14.999999999999998
 11
67.0916543823784
 21
-96.6302669515282
 31
0.0
100
AcDbAttribute
280
0
  2
NAME
 70
0
  0
ATTRIB
  5
B5
330
17
100
AcDbEntity
  8
0
 62
4
100
AcDbText
 10
67.3223480978035
 20
-97.4912276184815
 30
0.0
 40
0.4456660353833661
  1
x = 66.000
 50
14.999999999999998
 11
67.3223480978035
 21
-97.4912276184815
 31
0.0
100
AcDbAttribute
280
0
  2
XPOS
 70
0
  0
ATTRIB
  5
B6
330
17
100
AcDbEntity
  8
0
 62
4
100
AcDbText
 10
67.5530418132286
 20
-98.3521882854348
 30
0.0
 40
0.4456660353833661
  1
y = -96.000
 50
14.999999999999998
 11
67.5530418132286
 21
-98.3521882854348
 31
0.0
100
AcDbAttribute
280
0
  2
YPOS
 70
0
  0
SEQEND
  5
B3
330
17
100
AcDbEntity
  8
0
  0
INSERT
  5
B7
330
17
100
AcDbEntity
  8
0
100
AcDbBlockReference
 66
1
  2
FLAG
 10
56.0
 20
-15.0
 30
0.0
 41
2.1686575862499975
 42
2.1686575862499975
 43
2.1686575862499975
 50
15.0
  0
ATTRIB
  5
B9
330
17
100
AcDbEntity
  8
0
 62
3
100
AcDbText
 10
57.328026128282076
 20
-15.766736242654511
 30
0.0
 40
1.0843287931249987
  1
P(27)
 50
14.999999999999998
 11
57.328026128282076
 21
-15.766736242654511
 31
0.0
100
AcDbAttribute
280
0
  2
NAME
 70
0
  0
ATTRIB
  5
BA
330
17
100
AcDbEntity
  8
0
 62
4
100
AcDbText
 10
57.608671071095856
 20
-16.814117428122806
 30
0.0
 40
0.5421643965624994
  1
x = 56.000
 50
14.999999999999998
 11
57.608671071095856
 21
-16.814117428122806
 31
0.0
100
AcDbAttribute
280
0
  2
XPOS
 70
0
  0
ATTRIB
  5
BB
330
17
100
AcDbEntity
  8
0
 62
4
100
AcDbText
 10
57.889316013909635
 20
-17.861498613591095
 30
0.0
 40
0.5421643965624994
  1
y = -15.000
 50
14.999999999999998
 11
57.889316013909635
 21
-17.861498613591095
 31
0.0
100
AcDbAttribute
280
0
  2
YPOS
 70
0
  0
SEQEND
  5
B8
330
17
100
AcDbEntity
  8
0
  0
INSERT
  5
BC
330
17
100
AcDbEntity
  8
0
100
AcDbBlockReference
 66
1
  2
FLAG
 10
-100.0
 20
3.0
 30
0.0
 41
0.7065700252683236
 42
0.7065700252683236
 43
0.7065700252683236
 50
15.0
  0
ATTRIB
  5
BE
330
17
100
AcDbEntity
  8
0
 62
3
100
AcDbText
 10
-99.5673159926368
 20
2.750189771874809
 30
0.0
 40
0.35328501263416173
  1
P(28)
 50
14.999999999999998
 41
1.0000000000000002
 11
-99.5673159926368
 21
2.750189771874809
 31
0.0
100
AcDbAttribute
280
0
  2
NAME
 70
0
  0
ATTRIB
  5
BF
330
17
100
AcDbEntity
  8
0
 62
4
100
AcDbText
 10
-99.47587910301779
 20
2.4089426541306125
 30
0.0
 40
0.17664250631708087
  1
x = -100.000
 50
14.999999999999998
 41
1.0000000000000002
 11
-99.47587910301779
 21
2.4089426541306125
 31
0.0
100
AcDbAttribute
280
0
  2
XPOS
 70
0
  0
ATTRIB
  5
C0
330
17
100
AcDbEntity
  8
0
 62
4
100
AcDbText
 10
-99.38444221339878
 20
2.067695536386416
 30
0.0
 40
0.17664250631708087
  1
y = 3.000
 50
14.999999999999998
 41
1.0000000000000002
 11
-99.38444221339878
 21
2.067695536386416
 31
0.0
100
AcDbAttribute
280
0
  2
YPOS
 70
0
  0
SEQEND
  5
BD
330
17
100
AcDbEntity
  8
0
  0
INSERT
  5
C1
330
17
100
AcDbEntity
  8
0
100
AcDbBlockReference
 66
1
  2
FLAG
 10
91.0
 20
30.0
 30
0.0
 41
1.2229790133975609
 42
1.2229790133975609
 43
1.2229790133975609
 50
15.0
  0
ATTRIB
  5
C3
330
17
100
AcDbEntity
  8
0
 62
3
100
AcDbText
 10
91.7489186372391
 20
29.567611623188874
 30
0.0
 40
0.6114895066987804
  1
P(29)
 50
14.999999999999996
 41
1.0000000000000002
 11
91.7489186372391
 21
29.567611623188874
 31
0.0
100
AcDbAttribute
280
0
  2
NAME
 70
0
  0
ATTRIB
  5
C4
330
17
100
AcDbEntity
  8
0
 62
4
100
AcDbText
 10
91.90718376745309
 20
28.97695811616376
 30
0.0
 40
0.3057447533493902
  1
x = 91.000
 50
14.999999999999996
 41
1.0000000000000002
 11
91.90718376745309
 21
28.97695811616376
 31
0.0
100
AcDbAttribute
280
0
  2
XPOS
 70
0
  0
ATTRIB
  5
C5
330
17
100
AcDbEntity
  8
0
 62
4
100
AcDbText
 10
92.06544889766708
 20
28.386304609138648
 30
0.0
 40
0.3057447533493902
  1
y = 30.000
 50
14.999999999999996
 41
1.0000000000000002
 11
92.06544889766708
 21
28.386304609138648
 31
0.0
100
AcDbAttribute
280
0
  2
YPOS
 70
0
  0
SEQEND
  5
C2
330
17
100
AcDbEntity
  8
0
  0
INSERT
  5
C6
330
17
100
AcDbEntity
  8
0
100
AcDbBlockReference
 66
1
  2
FLAG
 10
-30.0
 20
-73.0
 30
0.0
 41
1.0100685937209322
 42
1.0100685937209322
 43
1.0100685937209322
 50
15.0
  0
ATTRIB
  5
C8
330
17
100
AcDbEntity
  8
0
 62
3
100
AcDbText
 10
-29.381461835043286
 20
-73.35711317604182
 30
0.0
 40
0.5050342968604661
  1
P(30)
 50
14.999999999999998
 11
-29.381461835043286
 21
-73.35711317604182
 31
0.0
100
AcDbAttribute
280
0
  2
NAME
 70
0
  0
ATTRIB
  5
C9
330
17
100
AcDbEntity
  8
0
 62
4
100
AcDbText
 10
-29.250749340585838
 20
-73.84493884654108
 30
0.0
 40
0.25251714843023304
  1
x = -30.000
 50
14.999999999999998
 11
-29.250749340585838
 21
-73.84493884654108
 31
0.0
100
AcDbAttribute
280
0
  2
XPOS
 70
0
  0
ATTRIB
  5
CA
330
17
100
AcDbEntity
  8
0
 62
4
100
AcDbText
 10
-29.12003684612839
 20
-74.33276451704035
 30
0.0
 40
0.25251714843023304
  1
y = -73.000
 50
14.999999999999998
 11
-29.12003684612839
 21
-74.33276451704035
 31
0.0
100
AcDbAttribute
280
0
  2
YPOS
 70
0
  0
SEQEND
  5
C7
330
17
100
AcDbEntity
  8
0
  0
INSERT
  5
CB
330
17
100
AcDbEntity
  8
0
100
AcDbBlockReference
 66
1
  2
FLAG
 10
58.0
 20
-45.0
 30
0.0
 41
1.7224860382448455
 42
1.7224860382448455
 43
1.7224860382448455
 50
15.0
  0
ATTRIB
  5
CD
330
17
100
AcDbEntity
  8
0
 62
3
100
AcDbText
 10
59.054802970691995
 20
-45.60899077907104
 30
0.0
 40
0.8612430191224227
  1
P(31)
 50
14.999999999999998
 41
1.0000000000000002
 11
59.054802970691995
 21
-45.60899077907104
 31
0.0
100
AcDbAttribute
280
0
  2
NAME
 70
0
  0
ATTRIB
  5
CE
330
17
100
AcDbEntity
  8
0
 62
4
100
AcDbText
 10
59.277709066502474
 20
-46.44088765395256
 30
0.0
 40
0.43062150956121137
  1
x = 58.000
 50
14.999999999999998
 41
1.0000000000000002
 11
59.277709066502474
 21
-46.44088765395256
 31
0.0
100
AcDbAttribute
280
0
  2
XPOS
 70
0
  0
ATTRIB
  5
CF
330
17
100
AcDbEntity
  8
0
 62
4
100
AcDbText
 10
59.500615162312954
 20
-47.27278452883408
 30
0.0
 40
0.43062150956121137
  1
y = -45.000
 50
14.999999999999998
 41
1.0000000000000002
 11
59.500615162312954
 21
-47.27278452883408
 31
0.0
100
AcDbAttribute
280
0
  2
YPOS
 70
0
  0
SEQEND
  5
CC
330
17
100
AcDbEntity
  8
0
  0
INSERT
  5
D0
330
17
100
AcDbEntity
  8
0
100
AcDbBlockReference
 66
1
  2
FLAG
 10
45.0
 20
58.0
 30
0.0
 41
1.6244036842124288
 42
1.6244036842124288
 43
1.6244036842124288
 50
15.0
  0
ATTRIB
  5
D2
330
17
100
AcDbEntity
  8
0
 62
3
100
AcDbText
 10
45.994740040654385
 20
57.42568656975449
 30
0.0
 40
0.8122018421062145
  1
P(32)
 50
14.999999999999998
 11
45.994740040654385
 21
57.42568656975449
 31
0.0
100
AcDbAttribute
280
0
  2
NAME
 70
0
  0
ATTRIB
  5
D3
330
17
100
AcDbEntity
  8
0
 62
4
100
AcDbText
 10
46.204953345858826
 20
56.64115983430454
 30
0.0
 40
0.40610092105310724
  1
x = 45.000
 50
14.999999999999998
 11
46.204953345858826
 21
56.64115983430454
 31
0.0
100
AcDbAttribute
280
0
  2
XPOS
 70
0
  0
ATTRIB
  5
D4
330
17
100
AcDbEntity
  8
0
 62
4
100
AcDbText
 10
46.41516665106327
 20
55.856633098854594
 30
0.0
 40
0.40610092105310724
  1
y = 58.000
 50
14.999999999999998
 11
46.41516665106327
 21
55.856633098854594
 31
0.0
100
AcDbAttribute
280
0
  2
YPOS
 70
0
  0
SEQEND
  5
D1
330
17
100
AcDbEntity
  8
0
  0
INSERT
  5
D5
330
17
100
AcDbEntity
  8
0
100
AcDbBlockReference
 66
1
  2
FLAG
 10
-32.0
 20
-72.0
 30
0.0
 41
0.6880013445327635
 42
0.6880013445327635
 43
0.6880013445327635
 50
15.0
  0
ATTRIB
  5
D7
330
17
100
AcDbEntity
  8
0
 62
3
100
AcDbText
 10
-31.57868694088649
 20
-72.24324520809229
 30
0.0
 40
0.34400067226638176
  1
P(33)
 50
14.999999999999998
 11
-31.57868694088649
 21
-72.24324520809229
 31
0.0
100
AcDbAttribute
280
0
  2
NAME
 70
0
  0
ATTRIB
  5
D8
330
17
100
AcDbEntity
  8
0
 62
4
100
AcDbText
 10
-31.48965301537588
 20
-72.57552434169519
 30
0.0
 40
0.17200033613319088
  1
x = -32.000
 50
14.999999999999998
 11
-31.48965301537588
 21
-72.57552434169519
 31
0.0
100
AcDbAttribute
280
0
  2
XPOS
 70
0
  0
ATTRIB
  5
D9
330
17
100
AcDbEntity
  8
0
 62
4
100
AcDbText
 10
-31.40061908986527
 20
-72.9078034752981
 30
0.0
 40
0.17200033613319088
  1
y = -72.000
 50
14.999999999999998
 11
-31.40061908986527
 21
-72.9078034752981
 31
0.0
100
AcDbAttribute
280
0
  2
YPOS
 70
0
  0
SEQEND
  5
D6
330
17
100
AcDbEntity
  8
0
  0
INSERT
  5
DA
330
17
100
AcDbEntity
  8
0
100
AcDbBlockReference
 66
1
  2
FLAG
 10
11.0
 20
-32.0
 30
0.0
 41
1.929786419265326
 42
1.929786419265326
 43
1.929786419265326
 50
15.0
  0
ATTRIB
  5
DC
330
17
100
AcDbEntity
  8
0
 62
3
100
AcDbText
 10
12.181748009938174
 20
-32.682282531652106
 30
0.0
 40
0.964893209632663
  1
P(34)
 50
14.999999999999998
 11
12.181748009938174
 21
-32.682282531652106
 31
0.0
100
AcDbAttribute
280
0
  2
NAME
 70
0
  0
ATTRIB
  5
DD
330
17
100
AcDbEntity
  8
0
 62
4
100
AcDbText
 10
12.431480749081206
 20
-33.61429780244725
 30
0.0
 40
0.4824466048163315
  1
x = 11.000
 50
14.999999999999998
 11
12.431480749081206
 21
-33.61429780244725
 31
0.0
100
AcDbAttribute
280
0
  2
XPOS
 70
0
  0
ATTRIB
  5
DE
330
17
100
AcDbEntity
  8
0
 62
4
100
AcDbText
 10
12.681213488224238
 20
-34.54631307324239
 30
0.0
 40
0.4824466048163315
  1
y = -32.000
 50
14.999999999999998
 11
12.681213488224238
 21
-34.54631307324239
 31
0.0
100
AcDbAttribute
280
0
  2
YPOS
 70
0
  0
SEQEND
  5
DB
330
17
100
AcDbEntity
  8
0
  0
INSERT
  5
DF
330
17
100
AcDbEntity
  8
0
100
AcDbBlockReference
 66
1
  2
FLAG
 10
-94.0
 20
-1.0
 30
0.0
 41
2.4089747479480117
 42
2.4089747479480117
 43
2.4089747479480117
 50
15.0
  0
ATTRIB
  5
E1
330
17
100
AcDbEntity
  8
0
 62
3
100
AcDbText
 10
-92.52481026606941
 20
-1.8517011899905966
 30
0.0
 40
1.2044873739740058
  1
P(35)
 50
14.999999999999998
 11
-92.52481026606941
 21
-1.8517011899905966
 31
0.0
100
AcDbAttribute
280
0
  2
NAME
 70
0
  0
ATTRIB
  5
E2
330
17
100
AcDbEntity
  8
0
 62
4
100
AcDbText
 10
-92.21306599409942
 20
-3.0151466519511883
 30
0.0
 40
0.6022436869870029
  1
x = -94.000
 50
14.999999999999998
 11
-92.21306599409942
 21
-3.0151466519511883
 31
0.0
100
AcDbAttribute
280
0
  2
XPOS
 70
0
  0
ATTRIB
  5
E3
330
17
100
AcDbEntity
  8
0
 62
4
100
AcDbText
 10
-91.90132172212942
 20
-4.17859211391178
 30
0.0
 40
0.6022436869870029
  1
y = -1.000
 50
14.999999999999998
 11
-91.90132172212942
 21
-4.17859211391178
 31
0.0
100
AcDbAttribute
280
0
  2
YPOS
 70
0
  0
SEQEND
  5
E0
330
17
100
AcDbEntity
  8
0
  0
INSERT
  5
E4
330
17
100
AcDbEntity
  8
0
100
AcDbBlockReference
 66
1
  2
FLAG
 10
34.0
 20
-53.0
 30
0.0
 41
2.275385221232651
 42
2.275385221232651
 43
2.275385221232651
 50
15.0
  0
ATTRIB
  5
E6
330
17
100
AcDbEntity
  8
0
 62
3
100
AcDbText
 10
35.393383190072456
 20
-53.80447015987263
 30
0.0
 40
1.1376926106163257
  1
P(36)
 50
14.999999999999996
 11
35.393383190072456
 21
-53.80447015987263
 31
0.0
100
AcDbAttribute
280
0
  2
NAME
 70
0
  0
ATTRIB
  5
E7
330
17
100
AcDbEntity
  8
0
 62
4
100
AcDbText
 10
35.687839705172365
 20
-54.903396834845175
 30
0.0
 40
0.5688463053081628
  1
x = 34.000
 50
14.999999999999996
 11
35.687839705172365
 21
-54.903396834845175
 31
0.0
100
AcDbAttribute
280
0
  2
XPOS
 70
0
  0
ATTRIB
  5
E8
330
17
100
AcDbEntity
  8
0
 62
4
100
AcDbText
 10
35.982296220272275
 20
-56.002323509817714
 30
0.0
 40
0.5688463053081628
  1
y = -53.000
 50
14.999999999999996
 11
35.982296220272275
 21
-56.002323509817714
 31
0.0
100
AcDbAttribute
280
0
  2
YPOS
 70
0
  0
SEQEND
  5
E5
330
17
100
AcDbEntity
  8
0
  0
INSERT
  5
E9
330
17
100
AcDbEntity
  8
0
100
AcDbBlockReference
 66
1
  2
FLAG
 10
55.0
 20
56.0
 30
0.0
 41
0.9937047686642191
 42
0.9937047686642191
 43
0.9937047686642191
 50
15.0
  0
ATTRIB
  5
EB
330
17
100
AcDbEntity
  8
0
 62
3
100
AcDbText
 10
55.608517409549435
 20
55.64867230979006
 30
0.0
 40
0.49685238433210954
  1
P(37)
 50
14.999999999999998
 11
55.608517409549435
 21
55.64867230979006
 31
0.0
100
AcDbAttribute
280
0
  2
NAME
 70
0
  0
ATTRIB
  5
EC
330
17
100
AcDbEntity
  8
0
 62
4
100
AcDbText
 10
55.73711226921918
 20
55.168749759910376
 30
0.0
 40
0.24842619216605477
  1
x = 55.000
 50
14.999999999999998
 11
55.73711226921918
 21
55.168749759910376
 31
0.0
100
AcDbAttribute
280
0
  2
XPOS
 70
0
  0
ATTRIB
  5
ED
330
17
100
AcDbEntity
  8
0
 62
4
100
AcDbText
 10
55.86570712888893
 20
54.68882721003069
 30
0.0
 40
0.24842619216605477
  1
y = 56.000
 50
14.999999999999998
 11
55.86570712888893
 21
54.68882721003069
 31
0.0
100
AcDbAttribute
280
0
  2
YPOS
 70
0
  0
SEQEND
  5
EA
330
17
100
AcDbEntity
  8
0
  0
INSERT
  5
EE
330
17
100
AcDbEntity
  8
0
100
AcDbBlockReference
 66
1
  2
FLAG
 10
-59.0
 20
-85.0
 30
0.0
 41
2.4081132465982362
 42
2.4081132465982362
 43
2.4081132465982362
 50
15.0
  0
ATTRIB
  5
F0
330
17
100
AcDbEntity
  8
0
 62
3
100
AcDbText
 10
-57.52533782574933
 20
-85.85139660326739
 30
0.0
 40
1.2040566232991181
  1
P(38)
 50
14.999999999999996
 41
1.0000000000000002
 11
-57.52533782574933
 21
-85.85139660326739
 31
0.0
100
AcDbAttribute
280
0
  2
NAME
 70
0
  0
ATTRIB
  5
F1
330
17
100
AcDbEntity
  8
0
 62
4
100
AcDbText
 10
-57.213705040257686
 20
-87.0144259920264
 30
0.0
 40
0.6020283116495591
  1
x = -59.000
 50
14.999999999999996
 41
1.0000000000000002
 11
-57.213705040257686
 21
-87.0144259920264
 31
0.0
100
AcDbAttribute
280
0
  2
XPOS
 70
0
  0
ATTRIB
  5
F2
330
17
100
AcDbEntity
  8
0
 62
4
100
AcDbText
 10
-56.90207225476605
 20
-88.17745538078543
 30
0.0
 40
0.6020283116495591
  1
y = -85.000
 50
14.999999999999996
 41
1.0000000000000002
 11
-56.90207225476605
 21
-88.17745538078543
 31
0.0
100
AcDbAttribute
280
0
  2
YPOS
 70
0
  0
SEQEND
  5
EF
330
17
100
AcDbEntity
  8
0
  0
INSERT
  5
F3
330
17
100
AcDbEntity
  8
0
100
AcDbBlockReference
 66
1
  2
FLAG
 10
-48.0
 20
100.0
 30
0.0
 41
2.2340487971016216
 42
2.2340487971016216
 43
2.2340487971016216
 50
15.0
  0
ATTRIB
  5
F5
330
17
100
AcDbEntity
  8
0
 62
3
100
AcDbText
 10
-46.63193009665562
 20
99.21014447303389
 30
0.0
 40
1.1170243985508108
  1
P(39)
 50
14.999999999999998
 11
-46.63193009665562
 21
99.21014447303389
 31
0.0
100
AcDbAttribute
280
0
  2
NAME
 70
0
  0
ATTRIB
  5
F6
330
17
100
AcDbEntity
  8
0
 62
4
100
AcDbText
 10
-46.34282290846648
 20
98.13118175787865
 30
0.0
 40
0.5585121992754054
  1
x = -48.000
 50
14.999999999999998
 11
-46.34282290846648
 21
98.13118175787865
 31
0.0
100
AcDbAttribute
280
0
  2
XPOS
 70
0
  0
ATTRIB
  5
F7
330
17
100
AcDbEntity
  8
0
 62
4
100
AcDbText
 10
-46.053715720277346
 20
97.05221904272341
 30
0.0
 40
0.5585121992754054
  1
y = 100.000
 50
14.999999999999998
 11
-46.053715720277346
 21
97.05221904272341
 31
0.0
100
AcDbAttribute
280
0
  2
YPOS
 70
0
  0
SEQEND
  5
F4
330
17
100
AcDbEntity
  8
0
  0
INSERT
  5
F8
330
17
100
AcDbEntity
  8
0
100
AcDbBlockReference
 66
1
  2
FLAG
 10
77.0
 20
-54.0
 30
0.0
 41
1.2928092580070898
 42
1.2928092580070898
 43
1.2928092580070898
 50
15.0
  0
ATTRIB
  5
FA
330
17
100
AcDbEntity
  8
0
 62
3
100
AcDbText
 10
77.79168075421588
 20
-54.457077096558784
 30
0.0
 40
0.6464046290035449
  1
P(40)
 50
14.999999999999998
 11
77.79168075421588
 21
-54.457077096558784
 31
0.0
100
AcDbAttribute
280
0
  2
NAME
 70
0
  0
ATTRIB
  5
FB
330
17
100
AcDbEntity
  8
0
 62
4
100
AcDbText
 10
77.95898258304442
 20
-55.08145602194611
 30
0.0
 40
0.32320231450177245
  1
x = 77.000
 50
14.999999999999998
 11
77.95898258304442
 21
-55.08145602194611
 31
0.0
100
AcDbAttribute
280
0
  2
XPOS
 70
0
  0
ATTRIB
  5
FC
330
17
100
AcDbEntity
  8
0
 62
4
100
AcDbText
 10
78.12628441187297
 20
-55.705834947333436
 30
0.0
 40
0.32320231450177245
  1
y = -54.000
 50
14.999999999999998
 11
78.12628441187297
 21
-55.705834947333436
 31
0.0
100
AcDbAttribute
280
0
  2
YPOS
 70
0
  0
SEQEND
  5
F9
330
17
100
AcDbEntity
  8
0
  0
INSERT
  5
FD
330
17
100
AcDbEntity
  8
0
100
AcDbBlockReference
 66
1
  2
FLAG
 10
81.0
 20
58.0
 30
0.0
 41
1.9261380695365349
 42
1.9261380695365349
 43
1.9261380695365349
 50
15.0
  0
ATTRIB
  5
FF
330
17
100
AcDbEntity
  8
0
 62
3
100
AcDbText
 10
82.17951386112848
 20
57.31900735476457
 30
0.0
 40
0.9630690347682674
  1
P(41)
 50
14.999999999999998
 11
82.17951386112848
 21
57.31900735476457
 31
0.0
100
AcDbAttribute
280
0
  2
NAME
 70
0
  0
ATTRIB
  5
100
330
17
100
AcDbEntity
  8
0
 62
4
100
AcDbText
 10
82.42877446907501
 20
56.38875410158262
 30
0.0
 40
0.4815345173841337
  1
x = 81.000
 50
14.999999999999998
 11
82.42877446907501
 21
56.38875410158262
 31
0.0
100
AcDbAttribute
280
0
  2
XPOS
 70
0
  0
ATTRIB
  5
101
330
17
100
AcDbEntity
  8
0
 62
4
100
AcDbText
 10
82.67803507702155
 20
55.45850084840067
 30
0.0
 40
0.4815345173841337
  1
y = 58.000
 50
14.999999999999998
 11
82.67803507702155
 21
55.45850084840067
 31
0.0
100
AcDbAttribute
280
0
  2
YPOS
 70
0
  0
SEQEND
  5
FE
330
17
100
AcDbEntity
  8
0
  0
INSERT
  5
102
330
17
100
AcDbEntity
  8
0
100
AcDbBlockReference
 66
1
  2
FLAG
 10
-85.0
 20
-75.0
 30
0.0
 41
1.7544398578106937
 42
1.7544398578106937
 43
1.7544398578106937
 50
15.0
  0
ATTRIB
  5
104
330
17
100
AcDbEntity
  8
0
 62
3
100
AcDbText
 10
-83.92562939099068
 20
-75.62028816032095
 30
0.0
 40
0.8772199289053468
  1
P(42)
 50
14.999999999999998
 11
-83.92562939099068
 21
-75.62028816032095
 31
0.0
100
AcDbAttribute
280
0
  2
NAME
 70
0
  0
ATTRIB
  5
105
330
17
100
AcDbEntity
  8
0
 62
4
100
AcDbText
 10
-83.6985881666465
 20
-76.46761754498608
 30
0.0
 40
0.4386099644526734
  1
x = -85.000
 50
14.999999999999998
 11
-83.6985881666465
 21
-76.46761754498608
 31
0.0
100
AcDbAttribute
280
0
  2
XPOS
 70
0
  0
ATTRIB
  5
106
330
17
100
AcDbEntity
  8
0
 62
4
100
AcDbText
 10
-83.47154694230231
 20
-77.31494692965123
 30
0.0
 40
0.4386099644526734
  1
y = -75.000
 50
14.999999999999998
 11
-83.47154694230231
 21
-77.31494692965123
 31
0.0
100
AcDbAttribute
280
0
  2
YPOS
 70
0
  0
SEQEND
  5
103
330
17
100
AcDbEntity
  8
0
  0
INSERT
  5
107
330
17
100
AcDbEntity
  8
0
100
AcDbBlockReference
 66
1
  2
FLAG
 10
17.0
 20
34.0
 30
0.0
 41
2.46439801496763
 42
2.46439801496763
 43
2.46439801496763
 50
15.0
  0
ATTRIB
  5
109
330
17
100
AcDbEntity
  8
0
 62
3
100
AcDbText
 10
18.50912941494961
 20
33.12870372603686
 30
0.0
 40
1.232199007483815
  1
P(43)
 50
14.999999999999998
 11
18.50912941494961
 21
33.12870372603686
 31
0.0
100
AcDbAttribute
280
0
  2
NAME
 70
0
  0
ATTRIB
  5
10A
330
17
100
AcDbEntity
  8
0
 62
4
100
AcDbText
 10
18.82804598544284
 20
31.93849088158049
 30
0.0
 40
0.6160995037419075
  1
x = 17.000
 50
14.999999999999998
 11
18.82804598544284
 21
31.93849088158049
 31
0.0
100
AcDbAttribute
280
0
  2
XPOS
 70
0
  0
ATTRIB
  5
10B
330
17
100
AcDbEntity
  8
0
 62
4
100
AcDbText
 10
19.146962555936078
 20
30.748278037124113
 30
0.0
 40
0.6160995037419075
  1
y = 34.000
 50
14.999999999999998
 11
19.146962555936078
 21
30.748278037124113
 31
0.0
100
AcDbAttribute
280
0
  2
YPOS
 70
0
  0
SEQEND
  5
108
330
17
100
AcDbEntity
  8
0
  0
INSERT
  5
10C
330
17
100
AcDbEntity
  8
0
100
AcDbBlockReference
 66
1
  2
FLAG
 10
8.0
 20
-66.0
 30
0.0
 41
1.9043432800139883
 42
1.9043432800139883
 43
1.9043432800139883
 50
15.0
  0
ATTRIB
  5
10E
330
17
100
AcDbEntity
  8
0
 62
3
100
AcDbText
 10
9.166167332783084
 20
-66.67328702350247
 30
0.0
 40
0.9521716400069942
  1
P(44)
 50
14.999999999999998
 11
9.166167332783084
 21
-66.67328702350247
 31
0.0
100
AcDbAttribute
280
0
  2
NAME
 70
0
  0
ATTRIB
  5
10F
330
17
100
AcDbEntity
  8
0
 62
4
100
AcDbText
 10
9.412607487423395
 20
-67.59301420164523
 30
0.0
 40
0.4760858200034971
  1
x = 8.000
 50
14.999999999999998
 11
9.412607487423395
 21
-67.59301420164523
 31
0.0
100
AcDbAttribute
280
0
  2
XPOS
 70
0
  0
ATTRIB
  5
110
330
17
100
AcDbEntity
  8
0
 62
4
100
AcDbText
 10
9.659047642063708
 20
-68.51274137978801
 30
0.0
 40
0.4760858200034971
  1
y = -66.000
 50
14.999999999999998
 11
9.659047642063708
 21
-68.51274137978801
 31
0.0
100
AcDbAttribute
280
0
  2
YPOS
 70
0
  0
SEQEND
  5
10D
330
17
100
AcDbEntity
  8
0
  0
INSERT
  5
111
330
17
100
AcDbEntity
  8
0
100
AcDbBlockReference
 66
1
  2
FLAG
 10
-40.0
 20
3.0
 30
0.0
 41
1.9029959155064016
 42
1.9029959155064016
 43
1.9029959155064016
 50
15.0
  0
ATTRIB
  5
113
330
17
100
AcDbEntity
  8
0
 62
3
100
AcDbText
 10
-38.834657756102196
 20
2.3271893417875607
 30
0.0
 40
0.9514979577532008
  1
P(45)
 50
14.999999999999998
 11
-38.834657756102196
 21
2.3271893417875607
 31
0.0
100
AcDbAttribute
280
0
  2
NAME
 70
0
  0
ATTRIB
  5
114
330
17
100
AcDbEntity
  8
0
 62
4
100
AcDbText
 10
-38.58839196325951
 20
1.4081128907324392
 30
0.0
 40
0.4757489788766004
  1
x = -40.000
 50
14.999999999999998
 11
-38.58839196325951
 21
1.4081128907324392
 31
0.0
100
AcDbAttribute
280
0
  2
XPOS
 70
0
  0
ATTRIB
  5
115
330
17
100
AcDbEntity
  8
0
 62
4
100
AcDbText
 10
-38.34212617041683
 20
0.4890364396773177
 30
0.0
 40
0.4757489788766004
  1
y = 3.000
 50
14.999999999999998
 11
-38.34212617041683
 21
0.4890364396773177
 31
0.0
100
AcDbAttribute
280
0
  2
YPOS
 70
0
  0
SEQEND
  5
112
330
17
100
AcDbEntity
  8
0
  0
INSERT
  5
116
330
17
100
AcDbEntity
  8
0
100
AcDbBlockReference
 66
1
  2
FLAG
 10
-20.0
 20
-6.0
 30
0.0
 41
1.0758851965123275
 42
1.0758851965123275
 43
1.0758851965123275
 50
15.0
  0
ATTRIB
  5
118
330
17
100
AcDbEntity
  8
0
 62
3
100
AcDbText
 10
-19.341157561682696
 20
-6.380382859116044
 30
0.0
 40
0.5379425982561638
  1
P(46)
 50
14.999999999999996
 11
-19.341157561682696
 21
-6.380382859116044
 31
0.0
100
AcDbAttribute
280
0
  2
NAME
 70
0
  0
ATTRIB
  5
119
330
17
100
AcDbEntity
  8
0
 62
4
100
AcDbText
 10
-19.20192777208207
 20
-6.899995507832718
 30
0.0
 40
0.2689712991280819
  1
x = -20.000
 50
14.999999999999996
 11
-19.20192777208207
 21
-6.899995507832718
 31
0.0
100
AcDbAttribute
280
0
  2
XPOS
 70
0
  0
ATTRIB
  5
11A
330
17
100
AcDbEntity
  8
0
 62
4
100
AcDbText
 10
-19.06269798248144
 20
-7.4196081565493905
 30
0.0
 40
0.2689712991280819
  1
y = -6.000
 50
14.999999999999996
 11
-19.06269798248144
 21
-7.4196081565493905
 31
0.0
100
AcDbAttribute
280
0
  2
YPOS
 70
0
  0
SEQEND
  5
117
330
17
100
AcDbEntity
  8
0
  0
INSERT
  5
11B
330
17
100
AcDbEntity
  8
0
100
AcDbBlockReference
 66
1
  2
FLAG
 10
37.0
 20
-48.0
 30
0.0
 41
0.793706775353821
 42
0.793706775353821
 43
0.793706775353821
 50
15.0
  0
ATTRIB
  5
11D
330
17
100
AcDbEntity
  8
0
 62
3
100
AcDbText
 10
37.486044151251676
 20
-48.280617721563196
 30
0.0
 40
0.3968533876769105
  1
P(47)
 50
14.999999999999998
 11
37.486044151251676
 21
-48.280617721563196
 31
0.0
100
AcDbAttribute
280
0
  2
NAME
 70
0
  0
ATTRIB
  5
11E
330
17
100
AcDbEntity
  8
0
 62
4
100
AcDbText
 10
37.58875736609591
 20
-48.663948657970636
 30
0.0
 40
0.19842669383845524
  1
x = 37.000
 50
14.999999999999998
 11
37.58875736609591
 21
-48.663948657970636
 31
0.0
100
AcDbAttribute
280
0
  2
XPOS
 70
0
  0
ATTRIB
  5
11F
330
17
100
AcDbEntity
  8
0
 62
4
100
AcDbText
 10
37.69147058094015
 20
-49.04727959437807
 30
0.0
 40
0.19842669383845524
  1
y = -48.000
 50
14.999999999999998
 11
37.69147058094015
 21
-49.04727959437807
 31
0.0
100
AcDbAttribute
280
0
  2
YPOS
 70
0
  0
SEQEND
  5
11C
330
17
100
AcDbEntity
  8
0
  0
INSERT
  5
120
330
17
100
AcDbEntity
  8
0
100
AcDbBlockReference
 66
1
  2
FLAG
 10
-42.0
 20
-23.0
 30
0.0
 41
1.7753444301749004
 42
1.7753444301749004
 43
1.7753444301749004
 50
15.0
  0
ATTRIB
  5
122
330
17
100
AcDbEntity
  8
0
 62
3
100
AcDbText
 10
-40.91282800709483
 20
-23.62767904275922
 30
0.0
 40
0.8876722150874502
  1
P(48)
 50
14.999999999999998
 11
-40.91282800709483
 21
-23.62767904275922
 31
0.0
100
AcDbAttribute
280
0
  2
NAME
 70
0
  0
ATTRIB
  5
123
330
17
100
AcDbEntity
  8
0
 62
4
100
AcDbText
 10
-40.68308153202186
 20
-24.485104560591413
 30
0.0
 40
0.4438361075437251
  1
x = -42.000
 50
14.999999999999998
 11
-40.68308153202186
 21
-24.485104560591413
 31
0.0
100
AcDbAttribute
280
0
  2
XPOS
 70
0
  0
ATTRIB
  5
124
330
17
100
AcDbEntity
  8
0
 62
4
100
AcDbText
 10
-40.45333505694889
 20
-25.342530078423607
 30
0.0
 40
0.4438361075437251
  1
y = -23.000
 50
14.999999999999998
 11
-40.45333505694889
 21
-25.342530078423607
 31
0.0
100
AcDbAttribute
280
0
  2
YPOS
 70
0
  0
SEQEND
  5
121
330
17
100
AcDbEntity
  8
0
  0
INSERT
  5
125
330
17
100
AcDbEntity
  8
0
100
AcDbBlockReference
 66
1
  2
FLAG
 10
-26.0
 20
42.0
 30
0.0
 41
2.372710992604862
 42
2.372710992604862
 43
2.372710992604862
 50
15.0
  0
ATTRIB
  5
127
330
17
100
AcDbEntity
  8
0
 62
3
100
AcDbText
 10
-24.547017190256373
 20
41.161119983666616
 30
0.0
 40
1.186355496302431
  1
P(49)
 50
14.999999999999998
 11
-24.547017190256373
 21
41.161119983666616
 31
0.0
100
AcDbAttribute
280
0
  2
NAME
 70
0
  0
ATTRIB
  5
128
330
17
100
AcDbEntity
  8
0
 62
4
100
AcDbText
 10
-24.239965793551253
 20
40.01518857062811
 30
0.0
 40
0.5931777481512155
  1
x = -26.000
 50
14.999999999999998
 11
-24.239965793551253
 21
40.01518857062811
 31
0.0
100
AcDbAttribute
280
0
  2
XPOS
 70
0
  0
ATTRIB
  5
129
330
17
100
AcDbEntity
  8
0
 62
4
100
AcDbText
 10
-23.93291439684613
 20
38.869257157589615
 30
0.0
 40
0.5931777481512155
  1
y = 42.000
 50
14.999999999999998
 11
-23.93291439684613
 21
38.869257157589615
 31
0.0
100
AcDbAttribute
280
0
  2
YPOS
 70
0
  0
SEQEND
  5
126
330
17
100
AcDbEntity
  8
0
  0
INSERT
  5
12A
330
17
100
AcDbEntity
  8
0
100
AcDbBlockReference
 66
1
  2
FLAG
 10
53.0
 20
85.0
 30
0.0
 41
1.61510646764691
 42
1.61510646764691
 43
1.61510646764691
 50
15.0
  0
ATTRIB
  5
12C
330
17
100
AcDbEntity
  8
0
 62
3
100
AcDbText
 10
53.989046681500966
 20
84.42897363219431
 30
0.0
 40
0.8075532338234549
  1
P(50)
 50
14.999999999999998
 11
53.989046681500966
 21
84.42897363219431
 31
0.0
100
AcDbAttribute
280
0
  2
NAME
 70
0
  0
ATTRIB
  5
12D
330
17
100
AcDbEntity
  8
0
 62
4
100
AcDbText
 10
54.198056838348606
 20
83.64893710754097
 30
0.0
 40
0.40377661691172745
  1
x = 53.000
 50
14.999999999999998
 11
54.198056838348606
 21
83.64893710754097
 31
0.0
100
AcDbAttribute
280
0
  2
XPOS
 70
0
  0
ATTRIB
  5
12E
330
17
100
AcDbEntity
  8
0
 62
4
100
AcDbText
 10
54.407066995196246
 20
82.86890058288765
 30
0.0
 40
0.40377661691172745
  1
y = 85.000
 50
14.999999999999998
 11
54.407066995196246
 21
82.86890058288765
 31
0.0
100
AcDbAttribute
280
0
  2
YPOS
 70
0
  0
SEQEND
  5
12B
330
17
100
AcDbEntity
  8
0
  0
ENDSEC
  0
SECTION
  2
OBJECTS
  0
DICTIONARY
  5
A
330
0
100
AcDbDictionary
281
1
  3
ACAD_COLOR
350
B
  3
ACAD_GROUP
350
C
  3
ACAD_LAYOUT
350
D
  3
ACAD_MATERIAL
350
E
  3
ACAD_MLEADERSTYLE
350
F
  3
ACAD_MLINESTYLE
350
10
  3
ACAD_PLOTSETTINGS
350
11
  3
ACAD_PLOTSTYLENAME
350
12
  3
ACAD_SCALELIST
350
14
  3
ACAD_TABLESTYLE
350
15
  3
ACAD_VISUALSTYLE
350
16
  0
DICTIONARY
  5
B
330
A
100
AcDbDictionary
281
1
  0
DICTIONARY
  5
C
330
A
100
AcDbDictionary
281
1
  0
DICTIONARY
  5
D
330
A
100
AcDbDictionary
281
1
  3
Model
350
1A
  3
Layout1
350
1E
  0
DICTIONARY
  5
E
330
A
100
AcDbDictionary
281
1
  3
ByBlock
350
1F
  3
ByLayer
350
20
  3
Global
350
21
  0
DICTIONARY
  5
F
330
A
100
AcDbDictionary
281
1
  3
Standard
350
2C
  0
DICTIONARY
  5
10
330
A
100
AcDbDictionary
281
1
  3
Standard
350
22
  0
DICTIONARY
  5
11
330
A
100
AcDbDictionary
281
1
  0
ACDBDICTIONARYWDFLT
  5
12
330
A
100
AcDbDictionary
281
1
  3
Normal
350
13
100
AcDbDictionaryWithDefault
340
13
  0
ACDBPLACEHOLDER
  5
13
330
12
  0
DICTIONARY
  5
14
330
A
100
AcDbDictionary
281
1
  0
DICTIONARY
  5
15
330
A
100
AcDbDictionary
281
1
  0
DICTIONARY
  5
16
330
A
100
AcDbDictionary
281
1
  0
LAYOUT
  5
1A
330
D
100
AcDbPlotSettings
  1

  2
Adobe PDF
  4
A4
  6

 40
3.175
 41
3.175
 42
3.175
 43
3.175
 44
209.91
 45
297.03
 46
0.0
 47
0.0
 48
0.0
 49
0.0
140
0.0
141
0.0
142
1.0
143
1.0
 70
1024
 72
0
 73
1
 74
5
  7

 75
16
 76
0
 77
2
 78
300
147
1.0
148
0.0
149
0.0
100
AcDbLayout
  1
Model
 70
1
 71
0
 10
-3.175
 20
-3.175
 11
293.857
 21
206.735
 12
0.0
 22
0.0
 32
0.0
 14
29.068
 24
20.356
 34
0.0
 15
261.614
 25
183.204
 35
0.0
146
0.0
 13
0.0
 23
0.0
 33
0.0
 16
1.0
 26
0.0
 36
0.0
 17
0.0
 27
1.0
 37
0.0
 76
1
330
17
  0
LAYOUT
  5
1E
330
D
100
AcDbPlotSettings
  1

  2
Adobe PDF
  4
A4
  6

 40
3.175
 41
3.175
 42
3.175
 43
3.175
 44
209.91
 45
297.03
 46
0.0
 47
0.0
 48
0.0
 49
0.0
140
0.0
141
0.0
142
1.0
143
1.0
 70
0
 72
0
 73
1
 74
5
  7

 75
16
 76
0
 77
2
 78
300
147
1.0
148
0.0
149
0.0
100
AcDbLayout
  1
Layout1
 70
1
 71
1
 10
-3.175
 20
-3.175
 11
293.857
 21
206.735
 12
0.0
 22
0.0
 32
0.0
 14
29.068
 24
20.356
 34
0.0
 15
261.614
 25
183.204
 35
0.0
146
0.0
 13
0.0
 23
0.0
 33
0.0
 16
1.0
 26
0.0
 36
0.0
 17
0.0
 27
1.0
 37
0.0
 76
1
330
1B
  0
MATERIAL
  5
1F
102
{ACAD_REACTORS
330
E
102
}
330
E
100
AcDbMaterial
  1
ByBlock
  2

 70
0
 40
1.0
 71
1
 41
1.0
 91
-1023410177
 42
1.0
 72
1
  3

 73
1
 74
1
 75
1
 44
0.5
 73
0
 45
1.0
 46
1.0
 77
1
  4

 78
1
 79
1
170
1
 48
1.0
171
1
  6

172
1
173
1
174
1
140
1.0
141
1.0
175
1
  7

176
1
177
1
178
1
143
1.0
179
1
  8

270
1
271
1
272
1
145
1.0
146
1.0
273
1
  9

274
1
275
1
276
1
 42
1.0
 72
1
  3

 73
1
 74
1
 75
1
 94
63
  0
MATERIAL
  5
20
102
{ACAD_REACTORS
330
E
102
}
330
E
100
AcDbMaterial
  1
ByLayer
  2

 70
0
 40
1.0
 71
1
 41
1.0
 91
-1023410177
 42
1.0
 72
1
  3

 73
1
 74
1
 75
1
 44
0.5
 73
0
 45
1.0
 46
1.0
 77
1
  4

 78
1
 79
1
170
1
 48
1.0
171
1
  6

172
1
173
1
174
1
140
1.0
141
1.0
175
1
  7

176
1
177
1
178
1
143
1.0
179
1
  8

270
1
271
1
272
1
145
1.0
146
1.0
273
1
  9

274
1
275
1
276
1
 42
1.0
 72
1
  3

 73
1
 74
1
 75
1
 94
63
  0
MATERIAL
  5
21
102
{ACAD_REACTORS
330
E
102
}
330
E
100
AcDbMaterial
  1
Global
  2

 70
0
 40
1.0
 71
1
 41
1.0
 91
-1023410177
 42
1.0
 72
1
  3

 73
1
 74
1
 75
1
 44
0.5
 73
0
 45
1.0
 46
1.0
 77
1
  4

 78
1
 79
1
170
1
 48
1.0
171
1
  6

172
1
173
1
174
1
140
1.0
141
1.0
175
1
  7

176
1
177
1
178
1
143
1.0
179
1
  8

270
1
271
1
272
1
145
1.0
146
1.0
273
1
  9

274
1
275
1
276
1
 42
1.0
 72
1
  3

 73
1
 74
1
 75
1
 94
63
  0
MLINESTYLE
  5
22
102
{ACAD_REACTORS
330
10
102
}
330
10
100
AcDbMlineStyle
  2
Standard
 70
0
  3

 62
256
 51
90.0
 52
90.0
 71
2
 49
0.5
 62
256
  6
BYLAYER
 49
-0.5
 62
256
  6
BYLAYER
  0
MLEADERSTYLE
  5
2C
102
{ACAD_REACTORS
330
F
102
}
330
F
100
AcDbMLeaderStyle
179
2
170
2
171
1
172
0
 90
2
 40
0.0
 41
0.0
173
1
 91
-1056964608
 92
-2
290
1
 42
2.0
291
1
 43
8.0
  3
Standard
 44
4.0
300

342
29
174
1
175
1
176
0
178
1
 93
-1056964608
 45
4.0
292
0
297
0
 46
4.0
 94
-1056964608
 47
1.0
 49
0.0
140
1.0
294
1
141
0.0
177
0
142
1.0
295
0
296
0
143
3.75
271
0
272
9
272
9
  0
ENDSEC
  0
EOF
